<svg width="29" height="34" viewBox="0 0 29 34" fill="none" xmlns="http://www.w3.org/2000/svg">
<path d="M25.724 29.1604C24.3032 31.2266 22.7969 33.2428 20.5032 33.2762C18.2095 33.3262 17.4735 31.9598 14.8717 31.9598C12.2527 31.9598 11.4482 33.2428 9.27436 33.3262C7.03201 33.4095 5.3374 31.1266 3.89956 29.1104C0.972522 24.9946 -1.26983 17.4129 1.74279 12.314C3.23199 9.78123 5.90227 8.18157 8.79508 8.13158C10.9861 8.09826 13.0744 9.58127 14.4266 9.58127C15.7618 9.58127 18.2951 7.79832 20.9483 8.06493C22.0609 8.11492 25.1762 8.49817 27.1789 11.3642C27.0249 11.4642 23.4645 13.4971 23.4987 17.7129C23.5501 22.7451 28.0348 24.4281 28.0861 24.4447C28.0348 24.5614 27.3672 26.8442 25.724 29.1604ZM15.9501 2.49946C17.1996 1.11643 19.2708 0.0666523 20.9825 0C21.205 1.94958 20.4005 3.91582 19.2023 5.31552C18.0212 6.73188 16.0699 7.83165 14.1528 7.68168C13.896 5.76543 14.8546 3.76586 15.9501 2.49946Z" fill="black"/>
</svg>
