<svg width="185" height="52" viewBox="0 0 185 52" fill="none" xmlns="http://www.w3.org/2000/svg">
<path d="M40.2687 22.0435C40.5592 22.0435 40.8497 22.043 41.1402 22.0421C43.6806 22.0338 46.2051 22.1132 48.7364 22.3355C48.8816 22.3479 49.0267 22.3603 49.1719 22.3726C49.3841 22.3906 49.5964 22.4086 49.8086 22.4269C50.1909 22.4598 50.5733 22.4908 50.956 22.5193C51.0366 22.5253 51.1171 22.5313 51.2002 22.5375C51.3378 22.5477 51.4755 22.5575 51.6131 22.567C51.8965 22.5882 52.1663 22.6217 52.4436 22.6839C52.7922 22.7586 53.137 22.7768 53.4925 22.7952C53.9801 22.8225 54.4592 22.888 54.9416 22.963C55.0861 22.9853 55.2307 23.0066 55.3754 23.0277C55.9621 23.1159 56.5313 23.2378 57.1047 23.3903C57.4155 23.4672 57.7263 23.5129 58.0431 23.5572C58.2632 23.5919 58.4763 23.6393 58.6929 23.6918C59.0533 23.7786 59.413 23.8434 59.7788 23.9012C60.2184 23.9715 60.6532 24.0542 61.0871 24.1541C61.1376 24.1654 61.1882 24.1768 61.2402 24.1884C61.5935 24.2723 61.5935 24.2723 61.75 24.4289C61.5639 24.4207 61.3778 24.4118 61.1918 24.4027C61.1412 24.4005 61.0907 24.3984 61.0386 24.3962C60.6301 24.3754 60.2275 24.327 59.8219 24.2744C59.3302 24.2116 58.8377 24.167 58.3436 24.1272C58.1971 24.1153 58.0507 24.1027 57.9043 24.0901C55.4965 23.8886 53.0883 23.8447 50.6733 23.8485C50.4342 23.8488 50.195 23.8489 49.9559 23.8489C46.3178 23.6546 46.3178 23.6546 42.7704 24.1498C42.6731 24.1544 42.5756 24.1557 42.4782 24.1541C42.3465 24.152 42.3465 24.152 42.2122 24.1498C42.2413 24.2005 42.2703 24.2513 42.3003 24.3036C42.4381 24.5445 42.576 24.7854 42.7137 25.0263C42.739 25.0706 42.7644 25.1149 42.7905 25.1605C43.1242 25.7443 43.4564 26.3288 43.7866 26.9147C44.462 28.1121 45.1495 29.3024 45.8506 30.4849C46.2542 31.1657 46.6529 31.8494 47.0505 32.5337C47.1304 32.6706 47.2108 32.8072 47.2916 32.9435C47.5143 33.3204 47.7221 33.6988 47.9143 34.092C48.0828 34.4224 48.2756 34.7387 48.466 35.0568C48.506 35.1239 48.5459 35.1911 48.5871 35.2603C48.8049 35.6268 48.8049 35.6268 49.0285 35.9898C49.1202 36.1514 49.1202 36.1514 49.1202 36.291C49.039 36.2909 48.9578 36.2907 48.8742 36.2906C45.2966 36.2855 41.7191 36.2812 38.1415 36.2814C38.0603 36.2814 38.0603 36.2814 37.9774 36.2814C36.8008 36.2814 35.6242 36.2817 34.4476 36.282C33.8706 36.2822 33.2936 36.2823 32.7166 36.2825C32.6592 36.2825 32.6018 36.2825 32.5426 36.2825C30.6808 36.2829 28.8189 36.2811 26.9571 36.278C25.0441 36.2749 23.1312 36.2741 21.2183 36.2762C20.9482 36.2764 20.6782 36.2767 20.4081 36.277C20.3284 36.277 20.3284 36.277 20.247 36.2771C19.3907 36.2778 18.5343 36.2762 17.678 36.2736C16.8175 36.271 15.9571 36.271 15.0966 36.2736C14.6302 36.2749 14.1638 36.2751 13.6974 36.2722C13.2707 36.2696 12.8442 36.2702 12.4175 36.2733C12.2628 36.2739 12.1081 36.2733 11.9535 36.2714C11.1742 36.2239 11.1742 36.2239 10.4915 36.5131C10.3794 36.6948 10.3132 36.8542 10.2539 37.0585C10.2134 37.141 10.173 37.2235 10.1313 37.3085C9.30493 39.261 9.15619 41.1307 9.91996 43.1336C10.4562 44.4539 11.301 45.7163 12.3473 46.6878C12.6961 47.0367 12.6961 47.0367 12.7918 47.1397C13.2053 47.5749 13.6849 47.9305 14.1615 48.2927C14.2236 48.3402 14.2236 48.3402 14.287 48.3887C15.2239 49.1031 16.2211 49.7196 17.2361 50.3162C17.2883 50.3472 17.3405 50.3783 17.3944 50.4102C17.7157 50.5965 18.0392 50.7432 18.3858 50.8766C18.6523 50.9815 18.9097 51.1042 19.168 51.2277C19.218 51.2513 19.2679 51.2749 19.3193 51.2992C19.6021 51.4333 19.883 51.5707 20.1624 51.7117C20.1624 51.7348 20.1624 51.7578 20.1624 51.7815C19.7484 51.7981 19.462 51.7235 19.0806 51.573C19.0159 51.5483 18.9512 51.5235 18.8846 51.498C18.8244 51.4742 18.7642 51.4504 18.7022 51.4258C18.5236 51.3734 18.3816 51.3497 18.1985 51.334C17.8044 51.2955 17.4422 51.1815 17.066 51.0619C16.9882 51.0375 16.9104 51.013 16.8302 50.9878C16.5683 50.9047 16.3068 50.8201 16.0455 50.7349C15.9989 50.7197 15.9524 50.7046 15.9045 50.689C13.5973 49.9381 11.3732 49.038 9.20726 47.9438C9.1417 47.9107 9.07613 47.8775 9.00859 47.8434C7.11998 46.8829 5.36789 45.7137 3.83436 44.2456C3.79928 44.2124 3.7642 44.1792 3.72806 44.145C2.19237 42.6868 0.817103 40.6374 0.751321 38.4593C0.706374 35.9575 1.81243 33.9395 3.507 32.158C3.59996 32.0624 3.59996 32.0624 3.6948 31.9648C3.78884 31.8659 3.78884 31.8659 3.88478 31.765C4.04369 31.6159 4.04369 31.6159 4.18325 31.6159C4.18325 31.5699 4.18325 31.5238 4.18325 31.4764C4.31576 31.3596 4.44867 31.2519 4.58883 31.1449C4.63231 31.1114 4.67579 31.0779 4.72059 31.0434C4.86669 30.9313 5.01342 30.8201 5.16014 30.7088C5.21093 30.6698 5.26171 30.6308 5.31404 30.5907C6.13556 29.9612 6.98349 29.4084 7.88148 28.8946C7.93122 28.8659 7.98096 28.8373 8.03221 28.8077C8.35211 28.6236 8.6742 28.4439 8.99792 28.2666C9.04509 28.2406 9.09225 28.2147 9.14085 28.1879C9.69999 27.8812 10.2648 27.5938 10.847 27.3333C10.8971 27.3109 10.9471 27.2884 10.9987 27.2653C11.2962 27.135 11.5956 27.0273 11.9045 26.9272C12.14 26.8464 12.3682 26.7499 12.598 26.6542C14.5727 25.8355 16.6153 25.178 18.68 24.6287C18.8746 24.5769 19.0687 24.5239 19.2626 24.47C19.5846 24.3815 19.9079 24.2991 20.2322 24.2195C20.3012 24.2025 20.3701 24.1855 20.4412 24.1679C21.679 23.8666 22.9256 23.626 24.179 23.3996C24.2522 23.3864 24.3253 23.3731 24.4007 23.3594C25.2475 23.2062 26.0941 23.067 26.948 22.9592C27.008 22.9515 27.068 22.9439 27.1298 22.9359C27.2089 22.9262 27.2089 22.9262 27.2896 22.9162C27.4253 22.8991 27.4253 22.8991 27.5588 22.824C27.7232 22.7988 27.8865 22.7773 28.0516 22.7586C28.1306 22.7494 28.1306 22.7494 28.2112 22.7401C28.7165 22.6839 29.2228 22.6452 29.7296 22.607C30.2044 22.5703 30.6781 22.5272 31.1519 22.4789C31.2103 22.473 31.2688 22.467 31.329 22.4609C31.3884 22.4549 31.4478 22.4488 31.5091 22.4426C32.8836 22.3029 34.2555 22.1957 35.6359 22.1337C35.7982 22.126 35.9604 22.1169 36.1227 22.1077C37.5036 22.0348 38.8863 22.0434 40.2687 22.0435Z" fill="#A6A6A8"/>
<path d="M28.2565 0.21582C28.5042 0.437595 28.6551 0.685033 28.8103 0.974647C29.0639 1.43615 29.3263 1.89136 29.5953 2.34402C30.8779 4.50698 30.8779 4.50698 31.4745 5.58987C32.3232 7.12623 33.2258 8.63334 34.1145 10.1468C34.5494 10.888 34.9814 11.6302 35.3967 12.3826C35.9487 13.3826 36.5228 14.3693 37.1068 15.3509C37.4994 16.011 37.8856 16.6746 38.2684 17.3404C38.5661 17.8582 38.8663 18.3744 39.168 18.8899C39.45 19.3724 39.7305 19.8556 40.0053 20.3422C40.0315 20.3884 40.0577 20.4347 40.0847 20.4823C40.2583 20.7915 40.2583 20.7915 40.2583 20.8699C39.4188 20.8964 38.5795 20.9145 37.7397 20.9221C37.3495 20.9259 36.9599 20.9325 36.5699 20.9457C34.0561 21.028 34.0561 21.028 33.4742 20.6564C33.1413 20.3058 32.9809 19.9092 32.8485 19.4495C32.7728 19.2021 32.6602 19.019 32.5192 18.8027C32.1372 18.1526 31.7625 17.4999 31.4052 16.8359C31.0508 16.1778 30.6738 15.5347 30.2907 14.8929C29.8707 14.1891 29.4604 13.4801 29.0521 12.7694C28.8121 12.3517 28.5695 11.9356 28.3262 11.5197C28.1349 11.7493 27.976 11.9777 27.8313 12.239C27.7925 12.3084 27.7537 12.3778 27.7138 12.4493C27.6741 12.521 27.6344 12.5928 27.5936 12.6667C27.1479 13.4696 27.1479 13.4696 26.9754 13.7229C26.8699 13.8788 26.8195 13.987 26.7911 14.1713C26.7451 14.1713 26.699 14.1713 26.6516 14.1713C26.6374 14.225 26.6232 14.2788 26.6085 14.3342C26.4737 14.6913 26.28 15.0043 26.0846 15.3313C25.9958 15.4817 25.907 15.6322 25.8183 15.7827C25.7487 15.9007 25.7487 15.9007 25.6777 16.0212C25.4625 16.3874 25.253 16.7568 25.0431 17.1261C24.6154 17.8783 24.1805 18.6258 23.7389 19.3699C23.4815 19.8037 23.2258 20.2384 22.9708 20.6736C22.9283 20.7458 22.8858 20.818 22.842 20.8924C22.8028 20.9594 22.7637 21.0263 22.7233 21.0953C22.6885 21.1546 22.6537 21.2139 22.6179 21.2749C22.5263 21.4328 22.5263 21.4328 22.4649 21.6374C22.2511 21.7443 22.02 21.7426 21.7848 21.7652C21.0271 21.8442 20.2798 21.9717 19.5299 22.104C19.4606 22.1161 19.3913 22.1282 19.32 22.1407C18.2894 22.3206 17.2642 22.5191 16.2433 22.748C16.157 22.7672 16.0707 22.7864 15.9818 22.8062C15.9076 22.8231 15.8334 22.84 15.7569 22.8574C15.5687 22.8913 15.3987 22.9004 15.208 22.8934C15.3186 22.4821 15.5301 22.1466 15.7488 21.7857C15.8315 21.6474 15.9142 21.5091 15.9968 21.3708C16.0395 21.2996 16.0822 21.2283 16.1262 21.1549C16.3313 20.8112 16.533 20.4656 16.7344 20.1198C16.7743 20.0513 16.8142 19.9828 16.8554 19.9122C17.1677 19.3757 17.4791 18.8386 17.7898 18.3012C17.8324 18.2276 17.875 18.154 17.919 18.0782C18.1852 17.6168 18.4441 17.1521 18.6969 16.6832C18.743 16.6832 18.789 16.6832 18.8365 16.6832C18.8477 16.608 18.8477 16.608 18.8592 16.5313C18.9105 16.3164 18.9887 16.1649 19.1003 15.9746C19.1412 15.9043 19.1821 15.834 19.2242 15.7616C19.2689 15.6858 19.3137 15.61 19.3598 15.5319C19.4069 15.4513 19.454 15.3706 19.501 15.29C19.6258 15.0762 19.7512 14.8628 19.8767 14.6495C20.0004 14.4395 20.1237 14.2293 20.247 14.0192C20.296 13.9357 20.345 13.8522 20.3939 13.7688C20.4182 13.7274 20.4426 13.6859 20.4676 13.6433C20.5172 13.5587 20.5669 13.4742 20.6165 13.3897C20.9822 12.7672 21.344 12.1425 21.7017 11.5154C21.7361 11.4551 21.7361 11.4551 21.7712 11.3936C21.9328 11.1101 22.0942 10.8265 22.2556 10.5428C22.823 9.54536 23.3928 8.54948 23.9739 7.55987C24.0111 7.49638 24.0111 7.49638 24.0492 7.43162C24.2188 7.14287 24.3885 6.8542 24.5582 6.56554C25.0971 5.64912 25.6279 4.72921 26.1451 3.80042C26.5458 3.08257 26.9594 2.3726 27.376 1.66393C27.4853 1.47803 27.5941 1.29193 27.7029 1.10575C27.7667 0.996628 27.8306 0.88751 27.8945 0.778399C27.9234 0.728838 27.9524 0.679277 27.9822 0.628214C28.1787 0.293615 28.1787 0.293615 28.2565 0.21582Z" fill="#5B5B5B"/>
<path d="M36.0711 24.8474C36.1104 24.9161 36.1104 24.9161 36.1505 24.9863C36.644 25.8475 37.1412 26.7058 37.6542 27.5556C37.9882 28.1101 38.3199 28.6657 38.6441 29.2259C38.6795 29.2862 38.7148 29.3464 38.7512 29.4085C38.7833 29.4645 38.8154 29.5204 38.8486 29.5781C38.8906 29.6508 38.8906 29.6508 38.9336 29.7249C39.0098 29.8887 39.0427 30.0424 39.0715 30.2202C39.1176 30.2202 39.1636 30.2202 39.2111 30.2202C39.2571 30.3584 39.3032 30.4966 39.3506 30.6389C32.0972 30.6389 24.8438 30.6389 17.3706 30.6389C17.3706 30.5929 17.3706 30.5468 17.3706 30.4994C17.4534 30.4605 17.5361 30.4216 17.6214 30.3816C17.7355 30.3278 17.8496 30.274 17.9637 30.2202C18.0445 30.1823 18.0445 30.1823 18.127 30.1437C18.451 29.9907 18.7723 29.8334 19.0918 29.6715C19.6783 29.3748 20.2715 29.1021 20.8769 28.8465C20.9491 28.8159 20.9491 28.8159 21.0226 28.7847C21.8204 28.4475 22.6268 28.1378 23.4413 27.8435C23.4923 27.8249 23.5434 27.8064 23.5959 27.7873C24.2414 27.554 24.8909 27.3465 25.5505 27.1568C25.8097 27.0814 26.0659 27 26.322 26.9149C26.8675 26.7342 27.4106 26.5958 27.9742 26.4847C28.3414 26.4114 28.699 26.3214 29.0584 26.2168C31.065 25.6404 33.1856 25.2149 35.2577 24.9526C36.0243 24.8461 36.0243 24.8461 36.0711 24.8474Z" fill="#F8F8F8"/>
<path d="M28.2568 3.70557C28.4199 3.85685 28.5315 4.00816 28.6433 4.2C28.6775 4.25816 28.7116 4.31632 28.7468 4.37623C28.8022 4.47168 28.8022 4.47168 28.8587 4.56906C28.8979 4.63606 28.9371 4.70307 28.9775 4.7721C29.0635 4.9191 29.1494 5.06617 29.2351 5.21331C29.3787 5.45924 29.5229 5.70475 29.6674 5.95016C30.4235 7.23524 31.1672 8.52661 31.894 9.82851C32.2439 10.455 32.6008 11.0763 32.9672 11.6933C33.954 13.3598 34.9288 15.0338 35.8765 16.7229C36.0701 17.0665 36.2672 17.4075 36.4696 17.746C36.5118 17.8166 36.554 17.8871 36.5974 17.9598C36.6786 18.095 36.7602 18.23 36.8423 18.3647C36.8785 18.425 36.9147 18.4853 36.9521 18.5474C36.9843 18.6004 37.0165 18.6534 37.0497 18.708C37.1186 18.8472 37.1186 18.8472 37.1186 19.0565C36.3127 19.0565 35.5068 19.0565 34.6764 19.0565C34.5382 18.8033 34.4001 18.55 34.2577 18.289C34.1766 18.1453 34.095 18.0018 34.0124 17.8589C33.9701 17.7856 33.9278 17.7123 33.8843 17.6368C33.8406 17.5613 33.7969 17.4858 33.7518 17.4081C33.7053 17.3275 33.6587 17.2469 33.6122 17.1664C33.3597 16.7298 33.1057 16.2941 32.8491 15.8599C32.3252 14.9728 31.8167 14.0769 31.3153 13.1769C30.8622 12.3638 30.3962 11.5598 29.9202 10.76C29.6918 10.3749 29.4655 9.98858 29.2391 9.60229C29.1614 9.46969 29.0837 9.33711 29.0059 9.20454C28.7774 8.81477 28.5495 8.42478 28.3266 8.03175C28.0563 8.3429 27.8643 8.68576 27.6637 9.04352C27.5887 9.17618 27.5136 9.30882 27.4386 9.44147C27.3815 9.54273 27.3815 9.54273 27.3232 9.64603C27.1838 9.89251 27.043 10.1381 26.902 10.3837C26.6022 10.9063 26.3057 11.4306 26.0125 11.957C25.5586 12.7718 25.0916 13.5774 24.6146 14.3788C23.6563 15.9935 22.7187 17.6195 21.8053 19.2601C21.766 19.3305 21.7267 19.401 21.6863 19.4736C21.6514 19.5362 21.6165 19.5989 21.5806 19.6634C21.5082 19.7897 21.4296 19.9123 21.3488 20.0334C21.1422 20.0892 21.1422 20.0892 20.8792 20.1302C20.8325 20.1376 20.7859 20.1451 20.7378 20.1528C20.6389 20.1684 20.54 20.1835 20.4409 20.1983C20.2907 20.2207 20.1407 20.2445 19.9907 20.2685C19.5564 20.3363 19.1383 20.3913 18.6973 20.3823C18.7627 20.0842 18.9016 19.8393 19.0505 19.5755C19.0809 19.5213 19.1112 19.4671 19.1425 19.4113C19.4675 18.835 19.8065 18.267 20.1451 17.6986C20.5231 17.0637 20.8938 16.4248 21.262 15.7841C21.5362 15.3073 21.8124 14.832 22.0941 14.3596C22.2829 14.0415 22.4604 13.7179 22.6368 13.3929C23.183 12.3898 23.759 11.4041 24.3431 10.4227C25.0112 9.29913 25.6633 8.16675 26.2987 7.02434C26.6529 6.38784 27.0172 5.75801 27.389 5.13164C27.4588 5.01399 27.4588 5.01399 27.53 4.89398C27.7678 4.49489 28.0088 4.09835 28.2568 3.70557Z" fill="#FBFBFB"/>
<path d="M59.7266 23.9409C60.1801 23.9697 60.6105 24.0439 61.0523 24.1459C61.105 24.1577 61.1576 24.1696 61.2118 24.1818C61.5935 24.2727 61.5935 24.2727 61.7501 24.4294C61.548 24.4195 61.346 24.4093 61.1439 24.3988C61.0869 24.3961 61.03 24.3933 60.9713 24.3905C60.6897 24.3757 60.4203 24.3565 60.1452 24.2898C60.1913 24.2668 60.2373 24.2438 60.2848 24.22C60.2848 24.174 60.2848 24.1279 60.2848 24.0805C60.1006 24.0574 59.9164 24.0344 59.7266 24.0107C59.7266 23.9877 59.7266 23.9646 59.7266 23.9409Z" fill="#FE8835"/>
<path d="M4.32227 31.4067C4.32227 31.6161 4.32227 31.6161 4.20057 31.7615C4.14502 31.816 4.08948 31.8704 4.03225 31.9265C3.97244 31.9857 3.91262 32.0448 3.851 32.1057C3.75615 32.198 3.75615 32.198 3.65938 32.292C3.59615 32.3543 3.53291 32.4166 3.46776 32.4808C3.31113 32.6349 3.15403 32.7886 2.99649 32.9418C2.95044 32.9188 2.90438 32.8958 2.85693 32.8721C2.98913 32.7281 3.12143 32.5842 3.2538 32.4403C3.29081 32.4 3.32782 32.3596 3.36596 32.3181C3.47484 32.1998 3.58432 32.0822 3.69427 31.965C3.72743 31.9295 3.76058 31.894 3.79474 31.8574C3.87471 31.7741 3.95862 31.6947 4.04316 31.6161C4.08921 31.6161 4.13526 31.6161 4.18271 31.6161C4.18271 31.57 4.18271 31.524 4.18271 31.4765C4.22877 31.4535 4.27482 31.4305 4.32227 31.4067Z" fill="#FE832C"/>
<path d="M19.7436 51.5022C19.8847 51.5689 20.0248 51.6377 20.1623 51.7115C20.1623 51.7345 20.1623 51.7576 20.1623 51.7813C19.7095 51.7994 19.3731 51.7159 18.9761 51.5022C19.2517 51.3037 19.4403 51.3924 19.7436 51.5022Z" fill="#FE9E5B"/>
<path d="M74.3068 38V14.7273H82.8295C84.4811 14.7273 85.8485 15 86.9318 15.5455C88.0152 16.0833 88.8258 16.8144 89.3636 17.7386C89.9015 18.6553 90.1705 19.6894 90.1705 20.8409C90.1705 21.8106 89.9924 22.6288 89.6364 23.2955C89.2803 23.9545 88.803 24.4848 88.2045 24.8864C87.6136 25.2803 86.9621 25.5682 86.25 25.75V25.9773C87.0227 26.0152 87.7765 26.2652 88.5114 26.7273C89.2538 27.1818 89.8674 27.8295 90.3523 28.6705C90.8371 29.5114 91.0795 30.5341 91.0795 31.7386C91.0795 32.928 90.7992 33.9962 90.2386 34.9432C89.6856 35.8826 88.8295 36.6288 87.6705 37.1818C86.5114 37.7273 85.0303 38 83.2273 38H74.3068ZM77.8182 34.9886H82.8864C84.5682 34.9886 85.7727 34.6629 86.5 34.0114C87.2273 33.3598 87.5909 32.5455 87.5909 31.5682C87.5909 30.8333 87.4053 30.1591 87.0341 29.5455C86.6629 28.9318 86.1326 28.4432 85.4432 28.0795C84.7614 27.7159 83.9508 27.5341 83.0114 27.5341H77.8182V34.9886ZM77.8182 24.7955H82.5227C83.3106 24.7955 84.0189 24.6439 84.6477 24.3409C85.2841 24.0379 85.7879 23.6136 86.1591 23.0682C86.5379 22.5152 86.7273 21.8636 86.7273 21.1136C86.7273 20.1515 86.3902 19.3447 85.7159 18.6932C85.0417 18.0417 84.0076 17.7159 82.6136 17.7159H77.8182V24.7955ZM97.1193 44.5455C96.6117 44.5455 96.1496 44.5038 95.733 44.4205C95.3163 44.3447 95.0057 44.2614 94.8011 44.1705L95.6193 41.3864C96.2405 41.553 96.7936 41.625 97.2784 41.6023C97.7633 41.5795 98.1913 41.3977 98.5625 41.0568C98.9413 40.7159 99.2746 40.1591 99.5625 39.3864L99.983 38.2273L93.5966 20.5455H97.233L101.653 34.0909H101.835L106.256 20.5455H109.903L102.71 40.3295C102.377 41.2386 101.953 42.0076 101.438 42.6364C100.922 43.2727 100.309 43.75 99.5966 44.0682C98.8845 44.3864 98.0587 44.5455 97.1193 44.5455ZM121.244 20.5455V23.2727H111.71V20.5455H121.244ZM114.267 16.3636H117.665V32.875C117.665 33.5341 117.763 34.0303 117.96 34.3636C118.157 34.6894 118.411 34.9129 118.722 35.0341C119.04 35.1477 119.384 35.2045 119.756 35.2045C120.028 35.2045 120.267 35.1856 120.472 35.1477C120.676 35.1098 120.835 35.0795 120.949 35.0568L121.562 37.8636C121.366 37.9394 121.085 38.0152 120.722 38.0909C120.358 38.1742 119.903 38.2197 119.358 38.2273C118.464 38.2424 117.631 38.0833 116.858 37.75C116.085 37.4167 115.46 36.9015 114.983 36.2045C114.506 35.5076 114.267 34.6326 114.267 33.5795V16.3636ZM132.338 38.3523C130.618 38.3523 129.137 37.9848 127.895 37.25C126.66 36.5076 125.705 35.4659 125.031 34.125C124.365 32.7765 124.031 31.197 124.031 29.3864C124.031 27.5985 124.365 26.0227 125.031 24.6591C125.705 23.2955 126.645 22.2311 127.849 21.4659C129.062 20.7008 130.478 20.3182 132.099 20.3182C133.084 20.3182 134.039 20.4811 134.963 20.8068C135.887 21.1326 136.717 21.6439 137.452 22.3409C138.187 23.0379 138.766 23.9432 139.19 25.0568C139.615 26.1629 139.827 27.5076 139.827 29.0909V30.2955H125.952V27.75H136.497C136.497 26.8561 136.315 26.0644 135.952 25.375C135.588 24.678 135.077 24.1288 134.418 23.7273C133.766 23.3258 133.001 23.125 132.122 23.125C131.168 23.125 130.334 23.3598 129.622 23.8295C128.918 24.2917 128.372 24.8977 127.986 25.6477C127.607 26.3902 127.418 27.197 127.418 28.0682V30.0568C127.418 31.2235 127.622 32.2159 128.031 33.0341C128.448 33.8523 129.027 34.4773 129.77 34.9091C130.512 35.3333 131.38 35.5455 132.372 35.5455C133.016 35.5455 133.603 35.4545 134.134 35.2727C134.664 35.0833 135.122 34.803 135.509 34.4318C135.895 34.0606 136.19 33.6023 136.395 33.0568L139.611 33.6364C139.353 34.5833 138.891 35.4129 138.224 36.125C137.565 36.8295 136.736 37.3788 135.736 37.7727C134.743 38.1591 133.611 38.3523 132.338 38.3523ZM158.835 14.7273H162.358V30.0341C162.358 31.6629 161.975 33.1061 161.21 34.3636C160.445 35.6136 159.369 36.5985 157.983 37.3182C156.597 38.0303 154.972 38.3864 153.108 38.3864C151.252 38.3864 149.631 38.0303 148.244 37.3182C146.858 36.5985 145.782 35.6136 145.017 34.3636C144.252 33.1061 143.869 31.6629 143.869 30.0341V14.7273H147.381V29.75C147.381 30.803 147.612 31.7386 148.074 32.5568C148.544 33.375 149.206 34.0189 150.062 34.4886C150.919 34.9508 151.934 35.1818 153.108 35.1818C154.29 35.1818 155.309 34.9508 156.165 34.4886C157.028 34.0189 157.688 33.375 158.142 32.5568C158.604 31.7386 158.835 30.803 158.835 29.75V14.7273ZM167.19 44.5455V20.5455H170.509V23.375H170.793C170.99 23.0114 171.274 22.5909 171.645 22.1136C172.016 21.6364 172.531 21.2197 173.19 20.8636C173.849 20.5 174.721 20.3182 175.804 20.3182C177.213 20.3182 178.471 20.6742 179.577 21.3864C180.683 22.0985 181.55 23.125 182.179 24.4659C182.815 25.8068 183.134 27.4205 183.134 29.3068C183.134 31.1932 182.819 32.8106 182.19 34.1591C181.562 35.5 180.698 36.5341 179.599 37.2614C178.501 37.9811 177.247 38.3409 175.838 38.3409C174.777 38.3409 173.91 38.1629 173.236 37.8068C172.569 37.4508 172.046 37.0341 171.668 36.5568C171.289 36.0795 170.997 35.6553 170.793 35.2841H170.588V44.5455H167.19ZM170.52 29.2727C170.52 30.5 170.698 31.5758 171.054 32.5C171.41 33.4242 171.925 34.1477 172.599 34.6705C173.274 35.1856 174.099 35.4432 175.077 35.4432C176.092 35.4432 176.94 35.1742 177.622 34.6364C178.304 34.0909 178.819 33.3523 179.168 32.4205C179.524 31.4886 179.702 30.4394 179.702 29.2727C179.702 28.1212 179.527 27.0871 179.179 26.1705C178.838 25.2538 178.323 24.5303 177.634 24C176.952 23.4697 176.099 23.2045 175.077 23.2045C174.092 23.2045 173.259 23.4583 172.577 23.9659C171.902 24.4735 171.391 25.1818 171.043 26.0909C170.694 27 170.52 28.0606 170.52 29.2727Z" fill="#5B5B5B"/>
</svg>
