<svg width="30" height="30" viewBox="0 0 30 30" fill="none" xmlns="http://www.w3.org/2000/svg">
<path d="M1.98221 3.49595C2.08347 3.49537 2.08347 3.49537 2.18678 3.49477C2.3297 3.49418 2.47263 3.4939 2.61555 3.49392C2.83133 3.49367 3.04703 3.49155 3.2628 3.48932C4.41581 3.48371 5.57344 3.56902 6.46371 4.40393C7.13789 5.14238 7.40771 5.95545 7.66717 6.90355C7.69422 7.00106 7.72132 7.09857 7.74845 7.19606C7.82163 7.4595 7.89427 7.72308 7.96681 7.9867C8.04381 8.26613 8.12135 8.54542 8.19884 8.82472C8.32935 9.29539 8.45958 9.76613 8.58962 10.2369C8.78519 10.9448 8.98161 11.6525 9.17825 12.3601C9.21024 12.4752 9.24223 12.5903 9.27421 12.7055C9.41527 13.2131 9.55639 13.7208 9.69755 14.2284C9.77281 14.499 9.84804 14.7697 9.92326 15.0403C9.93771 15.0923 9.95215 15.1442 9.96703 15.1977C10.1317 15.7902 10.2957 16.3829 10.4581 16.9761C10.5349 17.2561 10.612 17.5361 10.6893 17.8161C10.7387 17.996 10.7874 18.1761 10.8362 18.3562C10.8651 18.4609 10.894 18.5656 10.923 18.6704C10.9351 18.7159 10.9472 18.7614 10.9596 18.8082C11.0724 19.2102 11.2519 19.5043 11.6012 19.7461C11.8162 19.8178 12.0142 19.8134 12.238 19.8133C12.3092 19.8136 12.3092 19.8136 12.3819 19.814C12.5415 19.8146 12.7012 19.8148 12.8608 19.8151C12.975 19.8154 13.0893 19.8158 13.2035 19.8162C13.5143 19.8173 13.825 19.8179 14.1358 19.8184C14.3299 19.8187 14.524 19.819 14.7182 19.8194C15.3254 19.8205 15.9326 19.8213 16.5398 19.8218C17.241 19.8224 17.9421 19.8239 18.6433 19.8263C19.1851 19.8281 19.7269 19.8289 20.2687 19.8291C20.5924 19.8293 20.9161 19.8298 21.2397 19.8313C21.5443 19.8326 21.8488 19.8329 22.1533 19.8323C22.265 19.8323 22.3767 19.8326 22.4884 19.8334C22.6411 19.8345 22.7937 19.834 22.9463 19.8333C22.9904 19.8339 23.0344 19.8346 23.0798 19.8352C23.4602 19.8306 23.6983 19.7053 23.9779 19.452C24.138 19.1826 24.2016 18.8953 24.2774 18.5929C24.2949 18.5253 24.3124 18.4578 24.3305 18.3882C24.3851 18.177 24.4386 17.9655 24.4918 17.7539C24.5241 17.6273 24.5563 17.5007 24.5886 17.374C24.6688 17.0578 24.7478 16.7412 24.8264 16.4245C24.8775 16.2185 24.9288 16.0126 24.9801 15.8067C25.0885 15.3718 25.1967 14.9369 25.3048 14.502C25.4315 13.9924 25.5583 13.4829 25.6853 12.9734C25.7358 12.7706 25.7862 12.5677 25.8365 12.3648C25.8672 12.2418 25.8978 12.1188 25.9285 11.9958C25.9424 11.9395 25.9564 11.8831 25.9707 11.825C25.9899 11.7482 25.9899 11.7482 26.0095 11.6699C26.0261 11.603 26.0261 11.603 26.0431 11.5348C26.0739 11.4258 26.0739 11.4258 26.1324 11.3086C26.0203 11.3089 26.0203 11.3089 25.9059 11.3093C24.1307 11.3143 22.3556 11.3182 20.5804 11.3206C20.3618 11.3209 20.1433 11.3212 19.9247 11.3215C19.8812 11.3215 19.8377 11.3216 19.7929 11.3217C19.0886 11.3227 18.3844 11.3245 17.6802 11.3267C16.9574 11.3289 16.2346 11.3302 15.5119 11.3307C15.066 11.331 14.6201 11.332 14.1742 11.3339C13.8321 11.3353 13.4901 11.3354 13.148 11.3351C13.0078 11.3352 12.8676 11.3356 12.7274 11.3365C12.5358 11.3377 12.3444 11.3374 12.1529 11.3368C12.0975 11.3375 12.0421 11.3382 11.985 11.3389C11.5987 11.3354 11.2721 11.2624 10.9845 10.9894C10.7048 10.6677 10.6365 10.4276 10.6454 10.009C10.682 9.67883 10.8198 9.43076 11.0629 9.20656C11.4628 8.93995 11.8536 8.9479 12.3199 8.94958C12.386 8.94936 12.452 8.94913 12.5201 8.9489C12.7412 8.9483 12.9623 8.94853 13.1834 8.94876C13.3421 8.94857 13.5007 8.94821 13.6593 8.94786C14.0453 8.94711 14.4313 8.947 14.8173 8.94714C15.1311 8.94725 15.4449 8.94714 15.7587 8.94689C15.8034 8.94686 15.8481 8.94682 15.8941 8.94679C15.9849 8.94672 16.0757 8.94665 16.1665 8.94657C17.0176 8.94594 17.8687 8.94606 18.7198 8.94642C19.4981 8.94672 20.2764 8.94606 21.0547 8.94495C21.8543 8.94382 22.6539 8.94333 23.4535 8.94355C23.9022 8.94366 24.3509 8.94352 24.7997 8.94269C25.1817 8.94199 25.5636 8.94191 25.9456 8.94262C26.1404 8.94296 26.3352 8.94293 26.53 8.94233C26.7414 8.94171 26.9527 8.94219 27.1641 8.94293C27.256 8.94228 27.256 8.94228 27.3498 8.94162C27.7442 8.94454 28.1034 8.97673 28.419 9.23929C28.4451 9.2732 28.4712 9.30711 28.4982 9.34205C28.5252 9.37582 28.5522 9.40958 28.5801 9.44436C28.8469 9.83947 28.8122 10.24 28.7326 10.6993C28.6797 10.9387 28.6217 11.1762 28.5615 11.4138C28.5391 11.5048 28.5167 11.5957 28.4945 11.6867C28.4342 11.9319 28.3729 12.1769 28.3113 12.4218C28.2598 12.6273 28.2087 12.8329 28.1577 13.0385C28.0371 13.5243 27.9156 14.0098 27.7936 14.4953C27.6683 14.9936 27.5445 15.4922 27.4213 15.991C27.3151 16.4214 27.2079 16.8515 27.1001 17.2815C27.0359 17.5374 26.972 17.7933 26.909 18.0495C26.8496 18.2908 26.7891 18.5318 26.7278 18.7726C26.7057 18.8602 26.684 18.9478 26.6626 19.0356C26.3999 20.1148 25.9569 21.0763 25.0002 21.7072C24.4201 22.0391 23.8258 22.2256 23.1594 22.2223C23.11 22.2225 23.0605 22.2228 23.0096 22.223C22.8451 22.2236 22.6806 22.2234 22.5161 22.2231C22.3976 22.2234 22.2792 22.2237 22.1608 22.224C21.8398 22.2248 21.5189 22.2249 21.198 22.2247C20.9296 22.2247 20.6613 22.2249 20.3929 22.2252C19.7595 22.2259 19.1261 22.2259 18.4927 22.2255C17.8404 22.2252 17.188 22.2259 16.5357 22.2272C15.9747 22.2282 15.4137 22.2285 14.8528 22.2283C14.5181 22.2282 14.1835 22.2284 13.8488 22.2292C13.5339 22.23 13.219 22.2298 12.9041 22.2291C12.7889 22.2289 12.6738 22.2291 12.5586 22.2296C11.4096 22.2341 10.481 22.0526 9.6177 21.2256C9.10238 20.6859 8.83545 20.0661 8.6342 19.3547C8.61458 19.2869 8.59495 19.2191 8.57474 19.1493C8.50845 18.9188 8.44325 18.688 8.37854 18.457C8.36122 18.3953 8.36122 18.3953 8.34355 18.3322C8.17115 17.7165 8.00156 17.1 7.83245 16.4834C7.6956 15.9844 7.55819 15.4855 7.4208 14.9867C7.38857 14.8696 7.35633 14.7525 7.3241 14.6355C6.95797 13.3057 6.5894 11.9766 6.21981 10.6478C6.1507 10.3994 6.08165 10.1509 6.01266 9.9024C5.93095 9.60806 5.84911 9.31375 5.76718 9.01947C5.73728 8.91203 5.70742 8.80457 5.67761 8.69709C5.59664 8.40533 5.51496 8.11378 5.43201 7.82257C5.40303 7.72071 5.37424 7.61881 5.34559 7.51686C5.30051 7.35711 5.25458 7.19762 5.20844 7.03817C5.19491 6.98976 5.18138 6.94135 5.16745 6.89148C5.074 6.57311 4.96568 6.28823 4.7038 6.06772C4.34936 5.88813 4.01884 5.88646 3.62695 5.89052C3.5598 5.8901 3.49264 5.88969 3.42345 5.88926C3.2099 5.88798 2.99639 5.88815 2.78284 5.88869C2.50144 5.88939 2.22011 5.88859 1.93872 5.88685C1.87468 5.88752 1.81064 5.88818 1.74466 5.88886C1.32728 5.88612 0.986998 5.83481 0.672366 5.54228C0.394311 5.22954 0.323152 4.95344 0.332884 4.54469C0.372167 4.22257 0.514367 3.97366 0.754026 3.75734C1.14793 3.48948 1.52078 3.49689 1.98221 3.49595Z" fill="#0E0E0E"/>
<path d="M14.6484 24.3164C15.1342 24.6638 15.4025 25.0534 15.512 25.6403C15.5732 26.2025 15.4237 26.6573 15.1172 27.1289C14.8014 27.497 14.3326 27.7436 13.8499 27.7874C13.276 27.8019 12.8212 27.6946 12.3706 27.3267C11.9808 26.9529 11.7748 26.4853 11.7627 25.946C11.7725 25.3558 11.9989 24.9259 12.4022 24.5084C13.0016 23.9515 13.9506 23.891 14.6484 24.3164Z" fill="#0E0E0E"/>
<path d="M22.4911 24.2427C22.9828 24.5312 23.285 24.9385 23.437 25.4883C23.4999 26.1524 23.4322 26.6255 23.0122 27.1436C22.632 27.5523 22.1983 27.7731 21.6389 27.7954C21.0954 27.784 20.6509 27.6192 20.2565 27.2418C19.8562 26.7933 19.7169 26.3391 19.7271 25.7414C19.7688 25.3033 19.9651 24.8688 20.273 24.5508C20.9108 24.0393 21.7305 23.882 22.4911 24.2427Z" fill="#0E0E0E"/>
</svg>
