<svg width="178" height="52" viewBox="0 0 178 52" fill="none" xmlns="http://www.w3.org/2000/svg">
<path d="M34.7619 0.000848796C34.9785 0.00246323 35.1951 0.00224379 35.4117 0.00179523C37.3805 0.00440683 37.3805 0.00440682 38.1957 0.295754C38.3128 0.321028 38.4305 0.343756 38.5485 0.363764C38.6131 0.375073 38.6778 0.386383 38.7443 0.398035C38.8752 0.420159 39.006 0.441955 39.137 0.463388C39.4868 0.522748 39.8133 0.599488 40.1473 0.718958C40.3197 0.777106 40.4931 0.8211 40.6696 0.865339C40.9281 0.934426 41.1636 1.01983 41.4058 1.1334C41.6536 1.24835 41.902 1.36096 42.1528 1.4692C43.4246 2.02446 44.5809 2.7096 45.6769 3.56025C45.7364 3.6061 45.7959 3.65195 45.8572 3.69919C48.4305 5.72192 50.5046 8.3403 51.5938 11.4494C51.613 11.5034 51.6323 11.5573 51.6522 11.6129C51.9756 12.5196 52.2303 13.4279 52.4099 14.3739C52.4233 14.4438 52.4367 14.5138 52.4506 14.5859C52.8028 16.4924 52.8003 18.4483 52.4779 20.3588C52.4677 20.4261 52.4574 20.4934 52.4469 20.5627C52.3019 21.5132 52.064 22.4157 51.7595 23.3257C51.7434 23.3741 51.7272 23.4225 51.7106 23.4723C51.5428 23.9707 51.3652 24.45 51.1177 24.9155C51.0763 25.0196 51.0363 25.1244 50.9987 25.23C50.8155 25.6961 50.5603 26.1207 50.3016 26.5477C50.278 26.5867 50.2544 26.6256 50.2301 26.6657C49.4903 27.8746 48.6099 29.0379 47.5811 30.0162C47.5278 30.0695 47.4745 30.1228 47.4196 30.1778C47.3607 30.2367 47.3018 30.2956 47.2411 30.3563C47.2027 30.3978 47.1643 30.4394 47.1247 30.4822C46.6674 30.9641 46.1472 31.3534 45.6147 31.7473C45.4894 31.8402 45.3653 31.9344 45.2414 32.0292C44.1728 32.834 42.9674 33.4471 41.7393 33.9681C41.6129 34.0218 41.4871 34.0769 41.3614 34.1322C40.311 34.5872 39.2675 34.8253 38.1277 34.913C38.1277 33.8132 38.1277 32.7135 38.1277 31.5805C39.3519 31.3084 39.3519 31.3084 39.5559 31.3084C39.5559 31.2635 39.5559 31.2187 39.5559 31.1724C39.6177 31.1534 39.6796 31.1344 39.7432 31.1148C40.3881 30.9091 40.991 30.6589 41.5962 30.3563C41.6604 30.3242 41.7246 30.2921 41.7907 30.2591C43.0275 29.6114 44.1264 28.7324 45.1328 27.7719C45.1873 27.7202 45.2418 27.6684 45.298 27.6152C46.8463 26.1097 47.8856 24.1572 48.613 22.146C48.6588 22.0199 48.7063 21.8943 48.7543 21.7689C48.9929 21.1165 49.0974 20.4292 49.2134 19.7467C49.229 19.6609 49.2446 19.5752 49.2607 19.4869C49.6812 16.7921 49.1956 13.8044 47.9257 11.3944C47.8067 11.1499 47.7265 10.8936 47.6492 10.6333C47.6043 10.6333 47.5594 10.6333 47.5131 10.6333C47.4981 10.5976 47.483 10.5619 47.4674 10.5252C46.9449 9.3874 46.0971 8.46917 45.2215 7.59357C45.1285 7.50054 45.0363 7.40663 44.946 7.3109C44.0659 6.38815 42.9217 5.58759 41.8003 4.98846C41.7155 4.94278 41.7155 4.94278 41.6291 4.89618C41.1357 4.63875 40.636 4.44516 40.1069 4.27399C39.9773 4.23204 39.8481 4.18904 39.7189 4.14604C38.8866 3.87244 38.0556 3.6231 37.1841 3.51349C37.1257 3.50555 37.0673 3.49762 37.0071 3.48945C36.8367 3.46659 36.6661 3.44527 36.4955 3.42423C36.4464 3.41762 36.3974 3.41101 36.3468 3.4042C35.1574 3.25377 33.9488 3.33194 32.7721 3.53557C32.5492 3.57147 32.3249 3.59228 32.1003 3.6155C29.5926 3.9438 27.2722 5.4782 25.4098 7.09678C25.347 7.15105 25.2843 7.20531 25.2196 7.26123C24.8675 7.5712 24.5509 7.89049 24.2536 8.25295C24.2247 8.2871 24.1958 8.32125 24.166 8.35643C23.5976 9.02827 23.123 9.73196 22.6894 10.4973C22.6579 10.5525 22.6264 10.6078 22.594 10.6647C21.4994 12.6065 20.9966 14.5332 20.7851 16.7542C25.79 16.7542 30.7949 16.7542 35.9514 16.7542C35.9596 21.3566 35.9596 21.3566 35.9614 23.2887C35.9618 23.7308 35.9622 24.1729 35.9626 24.615C35.9627 24.6981 35.9627 24.6981 35.9628 24.7829C35.9636 25.6734 35.9653 26.5639 35.9671 27.4544C35.9691 28.3706 35.9702 29.2867 35.9706 30.2029C35.9709 30.7667 35.9717 31.3305 35.9734 31.8943C35.9745 32.2827 35.9748 32.671 35.9745 33.0594C35.9744 33.2824 35.9747 33.5053 35.9757 33.7283C35.9825 35.3177 35.86 36.8778 35.5101 38.4307C35.4754 38.5853 35.4423 38.7401 35.4094 38.895C35.2784 39.4972 35.0975 40.0546 34.8632 40.6258C34.839 40.6937 34.8148 40.7615 34.7899 40.8315C34.1491 42.623 33.0147 44.3353 31.7608 45.7557C31.6929 45.8329 31.6256 45.9105 31.5586 45.9885C30.8724 46.7842 30.1235 47.5385 29.2864 48.175C29.2065 48.238 29.1266 48.301 29.0468 48.3641C28.3477 48.9095 27.6087 49.3701 26.838 49.8072C26.7561 49.8538 26.7561 49.8538 26.6726 49.9013C26.5172 49.9887 26.3612 50.0747 26.2047 50.16C26.1588 50.1855 26.1129 50.211 26.0656 50.2372C25.7755 50.3913 25.5334 50.4589 25.2058 50.4873C25.1833 50.5546 25.1609 50.622 25.1378 50.6913C25.0021 50.7223 24.8662 50.7521 24.7294 50.778C24.4712 50.8406 24.2293 50.9319 23.9816 51.0271C23.9097 51.0545 23.9097 51.0545 23.8364 51.0824C23.648 51.1543 23.4598 51.2267 23.272 51.3003C22.806 51.471 22.3148 51.5379 21.8269 51.6174C21.6689 51.6436 21.5111 51.6712 21.3534 51.6993C21.249 51.7175 21.1446 51.7358 21.0401 51.754C20.9937 51.7624 20.9472 51.7708 20.8994 51.7794C18.3363 52.217 15.357 52.0113 12.9272 51.0931C12.7158 51.0151 12.501 50.955 12.2838 50.8954C11.5645 50.6677 10.908 50.3642 10.2435 50.0112C10.1933 49.9848 10.1431 49.9584 10.0914 49.9312C9.37615 49.5528 8.71138 49.14 8.06719 48.651C8.02058 48.6163 7.97397 48.5816 7.92595 48.5459C6.52687 47.5035 5.29395 46.3167 4.25861 44.9105C4.22734 44.8687 4.19606 44.8269 4.16384 44.7839C2.80294 42.9609 1.69157 40.8202 1.25182 38.5752C1.20038 38.3244 1.13313 38.0833 1.06213 37.8374C0.828457 36.849 0.806861 35.8565 0.790092 34.845C0.788963 34.78 0.787834 34.715 0.786672 34.6481C0.780655 34.2375 0.782895 33.8273 0.790092 33.4167C0.790947 33.3544 0.791802 33.292 0.792682 33.2278C0.809094 32.2475 0.926557 31.3151 1.13014 30.3563C1.17503 30.3563 1.21992 30.3563 1.26616 30.3563C1.26064 30.2844 1.25512 30.2125 1.24943 30.1384C1.25026 29.7176 1.39799 29.3389 1.53395 28.9451C1.56157 28.8639 1.58919 28.7828 1.61764 28.6992C1.86629 27.9835 2.15474 27.2947 2.49035 26.6157C2.52714 26.5409 2.52714 26.5409 2.56467 26.4645C3.40293 24.7778 4.52895 23.2854 5.82285 21.923C5.87624 21.8667 5.92963 21.8104 5.98464 21.7525C6.30191 21.4267 6.63784 21.1348 6.9931 20.8511C7.11483 20.7535 7.23524 20.6543 7.35388 20.553C7.91891 20.0727 8.53246 19.6713 9.15535 19.2706C9.25017 19.2095 9.25017 19.2095 9.3469 19.1471C10.8641 18.2049 12.5998 17.5646 14.3284 17.141C14.3989 17.1235 14.3989 17.1235 14.4708 17.1056C14.7801 17.0335 15.016 17.0263 15.3443 17.0263C15.3443 18.126 15.3443 19.2257 15.3443 20.3588C15.0301 20.4261 14.7159 20.4934 14.3921 20.5628C14.1714 20.6278 13.9577 20.6938 13.7418 20.7711C13.685 20.7913 13.6282 20.8115 13.5697 20.8324C11.7967 21.4829 10.1416 22.47 8.75818 23.7588C8.62043 23.8868 8.47885 24.008 8.33498 24.1291C7.39952 24.9507 6.66701 26.0307 6.02688 27.0918C6.0012 27.1342 5.97553 27.1766 5.94907 27.2203C5.54144 27.9003 5.22129 28.5961 4.93872 29.3361C4.90534 29.4206 4.87195 29.5051 4.83856 29.5896C4.66704 30.0406 4.55301 30.4659 4.50037 30.9461C4.46806 31.1399 4.42201 31.3072 4.36196 31.4933C4.24993 31.8556 4.20631 32.2065 4.17785 32.5836C4.17243 32.6511 4.16701 32.7185 4.16143 32.788C4.10919 33.497 4.1064 34.2026 4.12259 34.913C4.12319 34.9643 4.12378 35.0157 4.12439 35.0686C4.15123 37.1315 4.76658 39.4537 5.82285 41.2379C5.84904 41.2826 5.87523 41.3272 5.90222 41.3732C7.24783 43.651 9.40934 46.1835 11.9608 47.1378C12.1909 47.2263 12.4185 47.3188 12.6446 47.417C13.6032 47.8325 14.543 48.1437 15.5653 48.362C15.6321 48.3763 15.6989 48.3907 15.7677 48.4055C18.0214 48.8654 20.6715 48.715 22.8254 47.9029C22.873 47.8856 22.9205 47.8682 22.9695 47.8504C24.9891 47.1128 26.779 46.063 28.3342 44.5704C28.3671 44.5391 28.3999 44.5078 28.4337 44.4755C28.8692 44.0576 29.2636 43.6245 29.6264 43.1422C29.6695 43.0859 29.7125 43.0296 29.7569 42.9716C30.1269 42.4768 30.4523 41.9569 30.7742 41.4302C30.8409 41.3217 30.909 41.2141 30.9773 41.1067C31.1675 40.8038 31.3104 40.5197 31.4114 40.1763C31.462 40.0161 31.5213 39.8635 31.5855 39.7082C32.1766 38.2404 32.419 36.8521 32.6189 35.253C27.614 35.253 22.6091 35.253 17.4526 35.253C17.4444 30.676 17.4444 30.676 17.4426 28.7527C17.4422 28.3127 17.4418 27.8726 17.4414 27.4325C17.4413 27.3774 17.4413 27.3222 17.4412 27.2654C17.4403 26.3797 17.4387 25.4939 17.4369 24.6082C17.4349 23.6965 17.4338 22.7849 17.4334 21.8733C17.4331 21.3125 17.4323 20.7517 17.4306 20.191C17.4295 19.8044 17.4292 19.4178 17.4294 19.0313C17.4296 18.8095 17.4293 18.5878 17.4283 18.3661C17.4213 16.7339 17.4899 15.0754 17.9074 13.4897C17.9314 13.3954 17.9554 13.301 17.9793 13.2066C18.322 11.8792 18.8392 10.6459 19.4249 9.40913C19.4698 9.40913 19.5147 9.40913 19.5609 9.40913C19.5709 9.33798 19.5709 9.33798 19.5811 9.2654C19.8779 8.04693 21.0546 6.85114 21.8733 5.9406C21.9061 5.90396 21.9389 5.86731 21.9727 5.82956C22.5801 5.15315 23.2024 4.53664 23.9136 3.96831C23.965 3.92509 24.0165 3.88187 24.0695 3.83733C26.0613 2.18155 28.7085 0.788009 31.2842 0.393518C31.64 0.368672 31.64 0.368672 31.9388 0.227743C32.8781 0.0341549 33.8053 -0.00675318 34.7619 0.000848796Z" fill="#A6A6A8"/>
<path d="M20.7171 16.7529C25.7444 16.7529 30.7717 16.7529 35.9514 16.7529C35.9596 21.3553 35.9596 21.3553 35.9614 23.2874C35.9618 23.7295 35.9622 24.1716 35.9626 24.6137C35.9627 24.6968 35.9627 24.6968 35.9628 24.7816C35.9636 25.6721 35.9653 26.5626 35.9671 27.4531C35.9691 28.3693 35.9702 29.2854 35.9706 30.2016C35.9709 30.7654 35.9717 31.3292 35.9734 31.893C35.9745 32.2814 35.9748 32.6697 35.9745 33.0581C35.9744 33.2811 35.9747 33.504 35.9757 33.727C35.9825 35.3164 35.86 36.8765 35.5101 38.4294C35.4754 38.584 35.4423 38.7388 35.4094 38.8937C35.2784 39.4959 35.0975 40.0533 34.8632 40.6245C34.8269 40.7263 34.8269 40.7263 34.7899 40.8302C34.1491 42.6217 33.0147 44.334 31.7608 45.7544C31.6929 45.8316 31.6256 45.9092 31.5586 45.9872C30.8724 46.7829 30.1235 47.5372 29.2864 48.1737C29.2065 48.2367 29.1266 48.2997 29.0468 48.3628C28.3477 48.9082 27.6087 49.3688 26.838 49.8059C26.7834 49.8369 26.7288 49.868 26.6726 49.9C26.5172 49.9874 26.3612 50.0734 26.2047 50.1587C26.1588 50.1842 26.1129 50.2097 26.0656 50.2359C25.7755 50.39 25.5334 50.4576 25.2058 50.486C25.1833 50.5533 25.1609 50.6207 25.1378 50.69C25.0021 50.721 24.8662 50.7508 24.7294 50.7766C24.4712 50.8393 24.2293 50.9306 23.9816 51.0258C23.9337 51.0441 23.8857 51.0623 23.8364 51.0811C23.648 51.153 23.4598 51.2254 23.272 51.2989C22.806 51.4697 22.3148 51.5366 21.8269 51.6161C21.6689 51.6423 21.5111 51.6699 21.3534 51.698C21.249 51.7162 21.1446 51.7345 21.0401 51.7527C20.9937 51.7611 20.9472 51.7694 20.8994 51.7781C18.3363 52.2157 15.357 52.01 12.9272 51.0918C12.7158 51.0138 12.501 50.9537 12.2838 50.8941C11.5645 50.6664 10.908 50.3629 10.2435 50.0099C10.1682 49.9703 10.1682 49.9703 10.0914 49.9299C9.37615 49.5515 8.71138 49.1387 8.06719 48.6497C8.02058 48.615 7.97397 48.5803 7.92595 48.5446C6.52687 47.5022 5.29395 46.3154 4.25861 44.9092C4.22734 44.8674 4.19606 44.8256 4.16384 44.7826C2.80294 42.9596 1.69157 40.8189 1.25182 38.5739C1.20038 38.323 1.13313 38.082 1.06213 37.8361C0.828457 36.8477 0.806861 35.8552 0.790092 34.8437C0.788963 34.7787 0.787834 34.7137 0.786672 34.6468C0.780655 34.2362 0.782895 33.826 0.790092 33.4154C0.790947 33.3531 0.791802 33.2907 0.792682 33.2265C0.809094 32.2462 0.926557 31.3138 1.13014 30.355C1.17503 30.355 1.21992 30.355 1.26616 30.355C1.26064 30.2831 1.25512 30.2112 1.24943 30.1371C1.25026 29.7162 1.39799 29.3376 1.53395 28.9438C1.56157 28.8626 1.58919 28.7815 1.61764 28.6979C1.86629 27.9822 2.15474 27.2934 2.49035 26.6144C2.52714 26.5396 2.52714 26.5396 2.56467 26.4632C3.40293 24.7765 4.52895 23.2841 5.82285 21.9217C5.87624 21.8654 5.92963 21.8091 5.98464 21.7512C6.30191 21.4254 6.63784 21.1335 6.9931 20.8498C7.11483 20.7522 7.23524 20.653 7.35388 20.5517C7.91891 20.0714 8.53246 19.67 9.15535 19.2693C9.21856 19.2285 9.28177 19.1878 9.3469 19.1458C10.8641 18.2036 12.5998 17.5633 14.3284 17.1397C14.3754 17.128 14.4224 17.1164 14.4708 17.1043C14.7801 17.0322 15.016 17.025 15.3443 17.025C15.3443 18.1247 15.3443 19.2244 15.3443 20.3575C14.873 20.4585 14.873 20.4585 14.3921 20.5615C14.1714 20.6265 13.9577 20.6925 13.7418 20.7698C13.685 20.79 13.6282 20.8102 13.5697 20.8311C11.7967 21.4816 10.1416 22.4687 8.75818 23.7575C8.62043 23.8855 8.47885 24.0067 8.33498 24.1278C7.39952 24.9494 6.66701 26.0294 6.02688 27.0905C6.0012 27.1329 5.97553 27.1753 5.94907 27.219C5.54144 27.899 5.22129 28.5948 4.93872 29.3348C4.90534 29.4193 4.87195 29.5038 4.83856 29.5883C4.66704 30.0393 4.55301 30.4646 4.50037 30.9448C4.46806 31.1386 4.42201 31.3059 4.36196 31.492C4.24993 31.8543 4.20631 32.2052 4.17785 32.5823C4.17243 32.6497 4.16701 32.7172 4.16143 32.7867C4.10919 33.4957 4.1064 34.2013 4.12259 34.9117C4.12319 34.963 4.12378 35.0144 4.12439 35.0673C4.15123 37.1302 4.76658 39.4524 5.82285 41.2366C5.84904 41.2813 5.87523 41.3259 5.90222 41.3719C7.24783 43.6497 9.40934 46.1822 11.9608 47.1365C12.1909 47.225 12.4185 47.3175 12.6446 47.4157C13.6032 47.8312 14.543 48.1424 15.5653 48.3607C15.6321 48.375 15.6989 48.3894 15.7677 48.4042C18.0214 48.8641 20.6715 48.7137 22.8254 47.9016C22.873 47.8843 22.9205 47.8669 22.9695 47.8491C24.9891 47.1115 26.779 46.0617 28.3342 44.5691C28.3835 44.5221 28.3835 44.5221 28.4337 44.4742C28.8692 44.0563 29.2636 43.6231 29.6264 43.1409C29.6695 43.0846 29.7125 43.0283 29.7569 42.9703C30.1269 42.4755 30.4523 41.9556 30.7742 41.4289C30.8409 41.3204 30.909 41.2128 30.9773 41.1054C31.1675 40.8025 31.3104 40.5183 31.4114 40.1749C31.4618 40.0154 31.5211 39.8638 31.5852 39.7093C32.0736 38.498 32.4285 37.289 32.5341 35.9849C32.5509 35.8638 32.5509 35.8638 32.6189 35.7958C32.6264 35.5921 32.6294 35.3898 32.6297 35.186C32.6302 35.0889 32.6302 35.0889 32.6307 34.9898C32.6317 34.771 32.6323 34.5522 32.6329 34.3334C32.6335 34.1773 32.6342 34.0212 32.6349 33.865C32.6367 33.4397 32.6382 33.0144 32.6395 32.5891C32.641 32.1451 32.6429 31.7012 32.6447 31.2572C32.6477 30.5116 32.6505 29.766 32.6531 29.0204C32.6558 28.2522 32.6586 27.4841 32.6616 26.716C32.6619 26.6443 32.6619 26.6443 32.6621 26.5711C32.6638 26.1554 32.6654 25.7396 32.667 25.3239C32.6741 23.5324 32.6804 21.7409 32.6869 19.9494C28.7369 19.9494 24.7868 19.9494 20.7171 19.9494C20.7171 18.8946 20.7171 17.8397 20.7171 16.7529Z" fill="#1E2C39"/>
<path d="M20.7173 19.9492C24.6673 19.9492 28.6174 19.9492 32.6871 19.9492C32.6871 23.9217 32.6871 27.8942 32.6871 31.987C28.7371 31.987 24.787 31.987 20.7173 31.987C20.7173 28.0146 20.7173 24.0421 20.7173 19.9492Z" fill="#FEFDFC"/>
<path d="M8.95214 23.4878C8.95214 23.6918 8.95214 23.6918 8.83352 23.8336C8.77939 23.8867 8.72525 23.9397 8.66947 23.9944C8.61117 24.0521 8.55287 24.1097 8.49281 24.1691C8.40036 24.259 8.40036 24.259 8.30604 24.3507C8.24441 24.4114 8.18278 24.4721 8.11928 24.5346C7.96661 24.6849 7.81349 24.8347 7.65995 24.984C7.61506 24.9616 7.57017 24.9391 7.52393 24.916C7.67226 24.7541 7.8212 24.5927 7.97024 24.4314C8.01167 24.3862 8.05309 24.341 8.09577 24.2944C8.36577 24.0029 8.64583 23.7409 8.95214 23.4878Z" fill="#D4D6D9"/>
<path d="M25.6823 6.75586C25.6823 6.95989 25.6823 6.95989 25.5762 7.08919C25.5035 7.16024 25.5035 7.16024 25.4294 7.23273C25.3773 7.28423 25.3251 7.33574 25.2713 7.38881C25.2162 7.44224 25.1611 7.49568 25.1042 7.55073C25.0491 7.60495 24.994 7.65918 24.9371 7.71504C24.8006 7.84918 24.6636 7.98283 24.5262 8.11606C24.4813 8.09362 24.4364 8.07118 24.3901 8.04805C24.7196 7.66899 25.0506 7.30887 25.4355 6.98539C25.5537 6.88829 25.5537 6.88829 25.6823 6.75586Z" fill="#FEE7D7"/>
<path d="M82.8082 38H75.2741V14.7273H83.0468C85.3271 14.7273 87.2855 15.1932 88.9218 16.125C90.5582 17.0492 91.812 18.3788 92.6832 20.1136C93.562 21.8409 94.0014 23.9129 94.0014 26.3295C94.0014 28.7538 93.5582 30.8371 92.6718 32.5795C91.793 34.322 90.5203 35.6629 88.8536 36.6023C87.187 37.5341 85.1718 38 82.8082 38ZM78.7855 34.9318H82.615C84.3877 34.9318 85.8612 34.5985 87.0355 33.9318C88.2097 33.2576 89.0885 32.2841 89.6718 31.0114C90.2552 29.7311 90.5468 28.1705 90.5468 26.3295C90.5468 24.5038 90.2552 22.9545 89.6718 21.6818C89.0961 20.4091 88.2362 19.4432 87.0923 18.7841C85.9483 18.125 84.5279 17.7955 82.8309 17.7955H78.7855V34.9318ZM105.618 38.3523C103.898 38.3523 102.417 37.9848 101.175 37.25C99.9398 36.5076 98.9853 35.4659 98.311 34.125C97.6444 32.7765 97.311 31.197 97.311 29.3864C97.311 27.5985 97.6444 26.0227 98.311 24.6591C98.9853 23.2955 99.9247 22.2311 101.129 21.4659C102.341 20.7008 103.758 20.3182 105.379 20.3182C106.364 20.3182 107.319 20.4811 108.243 20.8068C109.167 21.1326 109.997 21.6439 110.731 22.3409C111.466 23.0379 112.046 23.9432 112.47 25.0568C112.894 26.1629 113.106 27.5076 113.106 29.0909V30.2955H99.2315V27.75H109.777C109.777 26.8561 109.595 26.0644 109.231 25.375C108.868 24.678 108.356 24.1288 107.697 23.7273C107.046 23.3258 106.281 23.125 105.402 23.125C104.447 23.125 103.614 23.3598 102.902 23.8295C102.197 24.2917 101.652 24.8977 101.266 25.6477C100.887 26.3902 100.697 27.197 100.697 28.0682V30.0568C100.697 31.2235 100.902 32.2159 101.311 33.0341C101.728 33.8523 102.307 34.4773 103.05 34.9091C103.792 35.3333 104.66 35.5455 105.652 35.5455C106.296 35.5455 106.883 35.4545 107.413 35.2727C107.944 35.0833 108.402 34.803 108.788 34.4318C109.175 34.0606 109.47 33.6023 109.675 33.0568L112.891 33.6364C112.633 34.5833 112.171 35.4129 111.504 36.125C110.845 36.8295 110.016 37.3788 109.016 37.7727C108.023 38.1591 106.891 38.3523 105.618 38.3523ZM121.956 38.3864C120.85 38.3864 119.85 38.1818 118.956 37.7727C118.062 37.3561 117.354 36.7538 116.831 35.9659C116.316 35.178 116.058 34.2121 116.058 33.0682C116.058 32.0833 116.248 31.2727 116.626 30.6364C117.005 30 117.517 29.4962 118.16 29.125C118.804 28.7538 119.524 28.4735 120.32 28.2841C121.115 28.0947 121.926 27.9508 122.751 27.8523C123.797 27.7311 124.645 27.6326 125.297 27.5568C125.948 27.4735 126.422 27.3409 126.717 27.1591C127.013 26.9773 127.16 26.6818 127.16 26.2727V26.1932C127.16 25.2008 126.88 24.4318 126.32 23.8864C125.767 23.3409 124.941 23.0682 123.842 23.0682C122.698 23.0682 121.797 23.322 121.138 23.8295C120.486 24.3295 120.035 24.8864 119.785 25.5L116.592 24.7727C116.971 23.7121 117.524 22.8561 118.251 22.2045C118.986 21.5455 119.831 21.0682 120.785 20.7727C121.74 20.4697 122.744 20.3182 123.797 20.3182C124.494 20.3182 125.232 20.4015 126.013 20.5682C126.801 20.7273 127.535 21.0227 128.217 21.4545C128.907 21.8864 129.471 22.5038 129.91 23.3068C130.35 24.1023 130.57 25.1364 130.57 26.4091V38H127.251V35.6136H127.115C126.895 36.053 126.566 36.4848 126.126 36.9091C125.687 37.3333 125.123 37.6856 124.433 37.9659C123.744 38.2462 122.918 38.3864 121.956 38.3864ZM122.695 35.6591C123.634 35.6591 124.437 35.4735 125.104 35.1023C125.778 34.7311 126.289 34.2462 126.638 33.6477C126.994 33.0417 127.172 32.3939 127.172 31.7045V29.4545C127.051 29.5758 126.816 29.6894 126.467 29.7955C126.126 29.8939 125.736 29.9811 125.297 30.0568C124.857 30.125 124.429 30.1894 124.013 30.25C123.596 30.303 123.248 30.3485 122.967 30.3864C122.308 30.4697 121.706 30.6098 121.16 30.8068C120.623 31.0038 120.191 31.2879 119.865 31.6591C119.547 32.0227 119.388 32.5076 119.388 33.1136C119.388 33.9545 119.698 34.5909 120.32 35.0227C120.941 35.447 121.732 35.6591 122.695 35.6591ZM138.493 14.7273V38H135.095V14.7273H138.493ZM142.7 38V35.6705L152.155 23.6591V23.5H143.007V20.5455H156.393V23.0227L147.303 34.8864V35.0455H156.712V38H142.7ZM167.572 38.3523C165.936 38.3523 164.508 37.9773 163.288 37.2273C162.069 36.4773 161.122 35.428 160.447 34.0795C159.773 32.7311 159.436 31.1553 159.436 29.3523C159.436 27.5417 159.773 25.9583 160.447 24.6023C161.122 23.2462 162.069 22.1932 163.288 21.4432C164.508 20.6932 165.936 20.3182 167.572 20.3182C169.209 20.3182 170.637 20.6932 171.856 21.4432C173.076 22.1932 174.023 23.2462 174.697 24.6023C175.372 25.9583 175.709 27.5417 175.709 29.3523C175.709 31.1553 175.372 32.7311 174.697 34.0795C174.023 35.428 173.076 36.4773 171.856 37.2273C170.637 37.9773 169.209 38.3523 167.572 38.3523ZM167.584 35.5C168.644 35.5 169.523 35.2197 170.22 34.6591C170.917 34.0985 171.432 33.3523 171.766 32.4205C172.106 31.4886 172.277 30.4621 172.277 29.3409C172.277 28.2273 172.106 27.2045 171.766 26.2727C171.432 25.3333 170.917 24.5795 170.22 24.0114C169.523 23.4432 168.644 23.1591 167.584 23.1591C166.516 23.1591 165.629 23.4432 164.925 24.0114C164.228 24.5795 163.709 25.3333 163.368 26.2727C163.035 27.2045 162.868 28.2273 162.868 29.3409C162.868 30.4621 163.035 31.4886 163.368 32.4205C163.709 33.3523 164.228 34.0985 164.925 34.6591C165.629 35.2197 166.516 35.5 167.584 35.5Z" fill="#5B5B5B"/>
</svg>
