<svg width="188" height="52" viewBox="0 0 188 52" fill="none" xmlns="http://www.w3.org/2000/svg">
<path d="M48.5701 38.1236C48.7418 38.1238 48.9136 38.1237 49.0854 38.1233C49.454 38.1232 49.8226 38.125 50.1913 38.1285C50.7243 38.1336 51.2573 38.1352 51.7903 38.136C52.6552 38.1374 53.5201 38.1416 54.3851 38.1475C55.2248 38.1533 56.0646 38.1577 56.9044 38.1604C56.9562 38.1605 57.008 38.1607 57.0614 38.1609C57.3215 38.1617 57.5816 38.1625 57.8417 38.1633C59.9964 38.1698 62.151 38.1808 64.3057 38.1948C63.9244 38.5782 63.9244 38.5782 63.721 38.7436C63.6779 38.7787 63.6348 38.8138 63.5904 38.8499C63.5447 38.8867 63.4991 38.9235 63.452 38.9614C63.4036 39.0006 63.3551 39.0398 63.3052 39.0802C62.8569 39.441 62.4002 39.7901 61.942 40.1382C61.6841 40.3343 61.4285 40.5334 61.1741 40.7341C61.1157 40.78 61.1157 40.78 61.0561 40.827C60.8834 40.963 60.7107 41.099 60.538 41.2352C58.7637 42.6324 56.9168 43.8828 54.9676 45.0242C54.8744 45.0789 54.8744 45.0789 54.7793 45.1346C54.3569 45.3815 53.9317 45.6228 53.5041 45.8604C53.4324 45.9003 53.3607 45.9401 53.2869 45.9812C52.3283 46.511 51.3588 47.0094 50.3682 47.4763C50.2985 47.5094 50.2985 47.5094 50.2274 47.5431C49.714 47.7859 49.2019 48.0053 48.6587 48.1753C48.3379 48.2769 48.0518 48.4065 47.7636 48.5826C47.5292 48.721 47.3049 48.7716 47.0395 48.8232C46.849 48.8645 46.6712 48.9309 46.4902 49.0024C46.1941 49.1175 45.8937 49.221 45.5943 49.3271C45.4496 49.379 45.3052 49.4318 45.1615 49.4866C44.6117 49.6959 44.0484 49.8466 43.4812 50.0003C43.2676 50.0587 43.0547 50.1198 42.8419 50.1811C42.763 50.2035 42.6842 50.226 42.6029 50.2491C42.4295 50.2988 42.2565 50.3493 42.0835 50.4005C41.4274 50.5917 40.7662 50.7476 40.098 50.891C40.0168 50.9084 39.9357 50.9258 39.8521 50.9438C39.4083 51.0373 38.9643 51.1197 38.5165 51.1919C38.3125 51.2263 38.11 51.2655 37.9072 51.3064C36.5861 51.5706 35.262 51.7259 33.9219 51.8535C33.8356 51.8619 33.7492 51.8703 33.6603 51.8789C32.2611 52.0099 30.8656 52.0085 29.4619 51.9929C29.6507 51.8011 29.8373 51.6141 30.0485 51.4471C30.091 51.4134 30.1335 51.3796 30.1772 51.3448C30.2215 51.3101 30.2657 51.2753 30.3112 51.2394C30.4047 51.1653 30.4982 51.0912 30.5916 51.017C30.6595 50.9634 30.6595 50.9634 30.7287 50.9087C30.895 50.7771 31.0605 50.6447 31.2259 50.5121C31.2806 50.4683 31.3353 50.4246 31.3917 50.3795C31.4997 50.293 31.6077 50.2065 31.7156 50.1198C32.4099 49.5628 33.1096 49.0134 33.8174 48.4737C34.5304 47.9298 35.2356 47.3777 35.9298 46.8099C36.3601 46.458 36.7984 46.1183 37.2415 45.7825C37.5864 45.5202 37.9247 45.2508 38.26 44.9763C38.6939 44.621 39.1341 44.2764 39.5799 43.9361C40.0423 43.5817 40.5009 43.2222 40.9604 42.8639C41.0263 42.8125 41.0263 42.8125 41.0936 42.7601C41.514 42.4324 41.9316 42.1018 42.344 41.764C42.8054 41.3861 43.2733 41.0207 43.7523 40.6655C44.1189 40.3928 44.4765 40.1101 44.832 39.8231C45.213 39.5161 45.5973 39.2123 45.9933 38.9248C46.1256 38.8209 46.1256 38.8209 46.2487 38.6693C46.898 37.9927 47.6935 38.111 48.5701 38.1236Z" fill="#1D2B38"/>
<path d="M34.9679 0.00536963C34.6904 0.298587 34.389 0.538822 34.0663 0.780641C33.9598 0.86135 33.8533 0.942108 33.7468 1.02291C33.694 1.06291 33.6412 1.10291 33.5868 1.14412C32.9675 1.61528 32.3623 2.10374 31.7593 2.59539C31.3003 2.96912 30.8355 3.33504 30.3685 3.6988C30.3191 3.73736 30.2697 3.77592 30.2187 3.81565C29.2396 4.57911 29.2396 4.57911 28.8722 4.85953C28.4102 5.21215 27.9573 5.57364 27.5074 5.94145C27.1484 6.23428 26.7833 6.51768 26.4149 6.79853C26.1658 6.9894 25.9219 7.18648 25.6777 7.38352C25.3203 7.6716 24.9576 7.95071 24.5888 8.22412C24.1548 8.54622 23.7333 8.88113 23.3154 9.22396C23.0336 9.45485 22.7488 9.68015 22.459 9.90097C22.1168 10.1619 21.7816 10.43 21.4485 10.7024C21.0461 11.0312 20.6395 11.3524 20.2263 11.6677C19.8937 11.9214 19.5644 12.1793 19.2348 12.4368C19.1348 12.5147 19.034 12.5915 18.9324 12.6673C18.778 12.7902 18.6394 12.9136 18.4973 13.0495C17.6528 13.8202 16.927 13.86 15.8187 13.8366C15.6475 13.8364 15.4764 13.8365 15.3053 13.837C14.9392 13.8372 14.5733 13.8347 14.2072 13.8296C13.678 13.8221 13.1489 13.8198 12.6197 13.8187C11.7608 13.8167 10.9019 13.8107 10.043 13.8021C9.20949 13.7938 8.37599 13.7874 7.54243 13.7835C7.49091 13.7833 7.43939 13.7831 7.38631 13.7828C7.12781 13.7816 6.86931 13.7805 6.6108 13.7794C4.47176 13.77 2.33282 13.754 0.193848 13.7338C0.389157 13.483 0.571261 13.2969 0.829746 13.1109C1.2003 12.8394 1.5651 12.5617 1.92733 12.2791C1.98122 12.237 2.03512 12.195 2.09066 12.1517C2.19789 12.068 2.3051 11.9843 2.41228 11.9005C2.54853 11.794 2.6849 11.6877 2.82129 11.5814C3.1511 11.3237 3.47999 11.0653 3.8029 10.799C11.2299 4.67442 11.2299 4.67442 13.9223 4.67442C13.9223 4.62843 13.9223 4.58244 13.9223 4.53505C13.9712 4.51816 14.02 4.50127 14.0704 4.48387C14.4263 4.35815 14.7655 4.22462 15.1001 4.05009C16.8217 3.1964 18.7705 2.56317 20.6123 2.0263C20.6854 2.00489 20.7585 1.98348 20.8338 1.96141C21.9242 1.6443 23.022 1.33001 24.1457 1.15467C24.3083 1.12518 24.3083 1.12518 24.4618 1.05354C24.6769 0.972424 24.8777 0.935861 25.105 0.900961C25.194 0.887116 25.2831 0.87327 25.3749 0.859006C25.4715 0.84447 25.5681 0.829964 25.6646 0.815485C25.7651 0.800175 25.8655 0.784851 25.9659 0.769515C26.2719 0.723036 26.578 0.677652 26.8842 0.632556C26.9732 0.619395 27.0623 0.606235 27.154 0.592676C29.7426 0.213881 32.3494 -0.0430723 34.9679 0.00536963Z" fill="#1D2B38"/>
<path d="M5.28125 16.87C6.73327 16.8553 8.18528 16.8443 9.63735 16.8375C10.3116 16.8343 10.9858 16.8299 11.6601 16.8227C12.2479 16.8164 12.8356 16.8124 13.4235 16.811C13.7346 16.8102 14.0457 16.8083 14.3568 16.8037C14.65 16.7994 14.943 16.7981 15.2362 16.7991C15.3435 16.7989 15.4508 16.7976 15.5581 16.7952C16.3654 16.778 16.3654 16.778 16.7001 17.0052C16.8586 17.1616 16.9941 17.3197 17.1281 17.4972C17.2045 17.5848 17.2814 17.672 17.359 17.7585C17.4168 17.8259 17.4168 17.8259 17.4758 17.8946C17.658 18.1026 17.8459 18.305 18.0341 18.5077C18.2579 18.749 18.4808 18.9903 18.6961 19.2394C18.944 19.5259 19.2017 19.803 19.4592 20.0809C19.7774 20.4245 20.0911 20.772 20.4034 21.1209C20.7411 21.4975 21.0803 21.8724 21.4226 22.2446C21.6287 22.4687 21.8334 22.6936 22.0324 22.9241C22.3001 23.2332 22.5803 23.5304 22.8592 23.8293C23.094 24.0814 23.3238 24.3366 23.5489 24.5974C23.7611 24.8381 23.9802 25.0724 24.1983 25.3077C24.4625 25.5931 24.7234 25.8812 24.983 26.1708C25.1654 26.3732 25.3497 26.5738 25.5342 26.7743C25.7417 26.9999 25.9478 27.2263 26.1483 27.4581C26.3979 27.746 26.6571 28.0248 26.9161 28.3043C27.1803 28.5896 27.4412 28.8777 27.7008 29.1674C27.8832 29.3698 28.0675 29.5704 28.252 29.7709C28.5001 30.0407 28.7441 30.3133 28.9843 30.5902C29.1828 30.8153 29.3864 31.0357 29.5896 31.2565C29.7885 31.4728 29.9857 31.6903 30.1815 31.9094C30.4518 32.2109 30.7278 32.5068 31.0047 32.8023C31.2927 33.1097 31.5781 33.418 31.8526 33.7376C32.0607 33.9757 32.2771 34.2062 32.4923 34.4377C32.6325 34.599 32.7612 34.7606 32.8885 34.9317C32.9443 35.0066 32.9443 35.0066 33.0013 35.0829C33.0294 35.1208 33.0576 35.1587 33.0866 35.1978C31.6346 35.2124 30.1826 35.2235 28.7305 35.2303C28.0562 35.2335 27.382 35.2379 26.7078 35.2451C26.12 35.2513 25.5322 35.2554 24.9444 35.2568C24.6332 35.2576 24.3222 35.2595 24.011 35.2641C23.7179 35.2684 23.4248 35.2697 23.1316 35.2687C23.0243 35.2689 22.917 35.2701 22.8098 35.2725C22.0025 35.2898 22.0025 35.2898 21.6679 35.0627C21.5093 34.9063 21.3739 34.7481 21.2397 34.5706C21.1618 34.4815 21.0835 34.3929 21.0045 34.3049C20.9659 34.2599 20.9272 34.2149 20.8874 34.1685C20.7179 33.9742 20.5434 33.7846 20.3686 33.595C20.1582 33.3665 19.9489 33.1374 19.7458 32.9024C19.4962 32.6145 19.237 32.3358 18.978 32.0563C18.7138 31.7709 18.4528 31.4829 18.1933 31.1932C18.0109 30.9908 17.8266 30.7902 17.6421 30.5897C17.4346 30.3641 17.2285 30.1377 17.028 29.9059C16.7784 29.6181 16.5194 29.3394 16.2605 29.06C15.9423 28.7164 15.6286 28.3689 15.3163 28.02C14.7888 27.4317 14.2557 26.8487 13.7205 26.2674C13.1673 25.666 13.1673 25.666 12.9164 25.3762C12.6995 25.1259 12.4752 24.883 12.25 24.6401C11.9858 24.3552 11.7256 24.068 11.4712 23.7742C11.2119 23.4794 10.9444 23.1919 10.6784 22.9031C10.514 22.7244 10.3497 22.5455 10.1855 22.3666C10.1535 22.3317 10.1215 22.2968 10.0885 22.2609C9.89166 22.0461 9.69622 21.83 9.5017 21.6131C9.2587 21.3423 9.01278 21.0743 8.76563 20.8073C8.41374 20.4271 8.06603 20.0434 7.72031 19.6575C7.61289 19.5384 7.50545 19.4194 7.39801 19.3003C7.22028 19.1031 7.04431 18.9048 6.871 18.7036C6.62318 18.4191 6.36611 18.1433 6.10879 17.8674C6.06709 17.8226 6.02539 17.7779 5.98243 17.7318C5.80034 17.5371 5.61772 17.3451 5.42552 17.1605C5.28125 17.0094 5.28125 17.0094 5.28125 16.87Z" fill="#FEFEFD"/>
<path d="M31.4141 16.7999C32.8637 16.7803 34.3132 16.7656 35.7629 16.7565C36.4361 16.7522 37.1092 16.7464 37.7824 16.7368C38.3693 16.7284 38.9562 16.723 39.5432 16.7212C39.8538 16.7201 40.1643 16.7176 40.4749 16.7114C40.7677 16.7057 41.0603 16.704 41.3533 16.7053C41.4603 16.705 41.5673 16.7034 41.6742 16.7002C42.1091 16.6877 42.5208 16.676 42.8622 16.9805C43.0617 17.1848 43.2298 17.4074 43.4003 17.6361C43.5021 17.7505 43.605 17.864 43.7096 17.9758C43.9156 18.2049 44.1168 18.4374 44.316 18.6725C44.7887 19.2302 45.2847 19.7629 45.787 20.294C46.0869 20.6125 46.3806 20.9368 46.6756 21.2599C46.7424 21.3325 46.8092 21.4051 46.876 21.4776C47.1884 21.8171 47.4981 22.1582 47.8004 22.5066C48.0608 22.802 48.3289 23.0905 48.5956 23.3802C48.7601 23.5589 48.9244 23.7377 49.0886 23.9167C49.1206 23.9516 49.1527 23.9866 49.1857 24.0225C49.4317 24.2909 49.6748 24.5616 49.9175 24.833C50.0538 24.9829 50.1916 25.131 50.3307 25.2783C50.3723 25.3225 50.4139 25.3667 50.4568 25.4123C50.5396 25.5001 50.6226 25.5876 50.706 25.6749C50.9963 25.9831 50.9963 25.9831 50.9963 26.138C51.0652 26.161 51.1342 26.184 51.2053 26.2077C51.2982 26.3114 51.386 26.4197 51.471 26.53C51.7821 26.9204 52.1154 27.2836 52.4579 27.6465C52.6677 27.869 52.8749 28.0921 53.0738 28.3244C53.2933 28.5799 53.5318 28.8138 53.7712 29.0504C53.9479 29.2293 54.1122 29.4161 54.2759 29.6068C54.4425 29.7979 54.6138 29.9846 54.7855 30.1711C54.8519 30.2434 54.9184 30.3158 54.9848 30.3881C55.0173 30.4234 55.0497 30.4588 55.0832 30.4952C55.4379 30.8815 55.786 31.2687 56.1139 31.6781C56.3741 32 56.6525 32.2917 56.9507 32.5783C57.1377 32.7673 57.3104 32.9649 57.4844 33.1658C57.757 33.4752 58.0442 33.7712 58.3284 34.0698C59.08 34.8631 59.08 34.8631 59.08 35.058C57.6316 35.0808 56.1833 35.098 54.7347 35.1085C54.0621 35.1135 53.3896 35.1204 52.717 35.1316C52.1305 35.1413 51.5441 35.1476 50.9575 35.1497C50.6471 35.151 50.3369 35.154 50.0266 35.1611C47.9841 35.2063 47.9841 35.2063 47.5273 34.8438C47.3047 34.6144 47.1677 34.3661 47.0241 34.0823C46.8891 33.9263 46.8891 33.9263 46.7584 33.8123C46.5937 33.6536 46.4417 33.4891 46.2923 33.3158C46.1359 33.1341 45.9756 32.9611 45.8045 32.7931C45.5978 32.5895 45.4073 32.3764 45.2179 32.1567C45.0338 31.9473 44.8444 31.7431 44.6547 31.5387C44.1757 31.0215 43.7168 30.4941 43.2756 29.9438C43.1167 29.756 42.9481 29.5862 42.7731 29.4133C42.6006 29.233 42.4299 29.0509 42.2592 28.8688C42.1865 28.7914 42.1865 28.7914 42.1123 28.7125C42.0113 28.6049 41.9103 28.4972 41.8093 28.3896C41.663 28.2338 41.5165 28.0782 41.3699 27.9226C41.2787 27.8257 41.1875 27.7288 41.0963 27.6319C41.0549 27.588 41.0135 27.5442 40.9708 27.499C40.5872 27.0907 40.2089 26.6778 39.8724 26.2294C39.6918 25.9946 39.504 25.7849 39.2888 25.5805C39.0408 25.3391 38.7997 25.0951 38.5739 24.8327C38.3199 24.5407 38.0566 24.2586 37.7905 23.9777C37.4842 23.6543 37.184 23.3275 36.892 22.9911C36.7412 22.8181 36.5866 22.6487 36.4316 22.4794C36.2346 22.2635 36.0391 22.047 35.8479 21.8261C35.5302 21.4607 35.1993 21.1074 34.8701 20.7524C34.395 20.2401 33.9211 19.7269 33.4549 19.2065C33.2724 19.0041 33.0881 18.8035 32.9036 18.603C32.6534 18.3308 32.4062 18.0564 32.1646 17.7766C32.0685 17.6672 31.9707 17.5593 31.8722 17.4521C31.8144 17.3892 31.7567 17.3263 31.6972 17.2615C31.6434 17.2035 31.5895 17.1455 31.5341 17.0857C31.4141 16.9392 31.4141 16.9392 31.4141 16.7999Z" fill="#FEFEFD"/>
<path d="M26.2568 14.5683C28.4644 14.5508 30.672 14.5373 32.8796 14.5292C33.1404 14.5282 33.4012 14.5272 33.662 14.5262C33.7139 14.526 33.7658 14.5258 33.8193 14.5256C34.6593 14.5223 35.4993 14.5162 36.3392 14.5092C37.2015 14.502 38.0638 14.4978 38.9261 14.4962C39.4579 14.4952 39.9897 14.4919 40.5215 14.4856C40.9297 14.4811 41.3379 14.4806 41.7462 14.4816C41.9133 14.4814 42.0805 14.4799 42.2476 14.477C43.5765 14.4547 43.5765 14.4547 43.9285 14.7354C44.1051 14.9269 44.2404 15.113 44.3756 15.3349C44.4521 15.4265 44.5302 15.5169 44.6108 15.6049C44.6495 15.6494 44.6882 15.6939 44.7281 15.7397C45.1375 16.2017 45.5608 16.6516 45.9844 17.1005C46.0332 17.1522 46.0821 17.204 46.1324 17.2573C46.2274 17.3579 46.3225 17.4584 46.4177 17.5588C46.6814 17.8376 46.9378 18.1213 47.1893 18.4112C47.3483 18.5929 47.5125 18.769 47.677 18.9456C47.9256 19.2139 48.1625 19.4875 48.3913 19.7731C48.6309 20.0709 48.8844 20.3418 49.1606 20.6058C49.2971 20.7439 49.4244 20.8844 49.5515 21.031C49.8156 21.3356 50.091 21.6283 50.3687 21.9204C50.6873 22.2555 51.0003 22.5936 51.3032 22.9429C51.4536 23.1156 51.6078 23.2846 51.7625 23.4535C51.9591 23.6682 52.1531 23.8848 52.3439 24.1046C52.5962 24.3937 52.8576 24.6733 53.1214 24.9518C53.3881 25.2334 53.6533 25.5163 53.9119 25.8054C53.9508 25.8489 53.9898 25.8924 54.0299 25.9372C54.1324 26.0675 54.2028 26.1949 54.2712 26.3455C54.3172 26.3455 54.3632 26.3455 54.4106 26.3455C54.5285 26.4601 54.5285 26.4601 54.6589 26.6112C54.7021 26.6605 54.7453 26.7098 54.7898 26.7606C54.8984 26.903 54.8984 26.903 54.9681 27.1121C55.0141 27.1121 55.0601 27.1121 55.1075 27.1121C55.2057 27.2095 55.2057 27.2095 55.3209 27.3473C55.7721 27.8775 56.2432 28.3897 56.7145 28.902C56.8857 29.0885 57.0547 29.2765 57.2199 29.4684C57.4534 29.7382 57.6983 29.9969 57.9429 30.2567C58.2584 30.5922 58.5652 30.9324 58.8619 31.2846C59.2284 31.7194 59.6144 32.1338 60.0069 32.5452C60.2688 32.82 60.5226 33.0996 60.7713 33.3864C60.9687 33.6112 61.1742 33.8283 61.3793 34.046C61.6677 34.3533 61.9526 34.6619 62.2276 34.9813C62.4031 35.1808 62.5838 35.3754 62.7644 35.5704C63.1192 35.9535 63.4714 36.3387 63.8184 36.7289C63.8618 36.7773 63.9052 36.8256 63.9499 36.8754C64.2365 37.2001 64.2365 37.2001 64.2365 37.3561C62.039 37.3752 59.8415 37.39 57.644 37.3988C57.3843 37.3999 57.1247 37.4009 56.865 37.402C56.8133 37.4023 56.7616 37.4025 56.7083 37.4027C55.8722 37.4063 55.0362 37.4129 54.2001 37.4206C53.3416 37.4285 52.4832 37.4331 51.6248 37.4348C51.0954 37.4359 50.5661 37.4395 50.0368 37.4464C49.6303 37.4513 49.2239 37.4518 48.8173 37.4507C48.651 37.4509 48.4847 37.4526 48.3184 37.4558C46.9963 37.4801 46.9963 37.4801 46.6185 37.1721C46.4203 36.9753 46.2686 36.7549 46.1178 36.5199C46.0454 36.4369 45.9713 36.3554 45.8943 36.2768C45.7996 36.1742 45.705 36.0716 45.6104 35.9689C45.4194 35.7619 45.2272 35.556 45.0338 35.3512C44.611 34.9029 44.2039 34.4524 43.8192 33.9708C43.6426 33.7586 43.4504 33.5678 43.2527 33.3755C43.0822 33.2057 42.9266 33.0252 42.7695 32.843C42.3135 32.3205 41.8356 31.8169 41.3616 31.3107C41.0765 31.0062 40.7943 30.7003 40.5221 30.3841C40.369 30.2085 40.212 30.0368 40.055 29.8647C39.858 29.6489 39.6625 29.4324 39.4713 29.2114C39.217 28.9185 38.9528 28.635 38.689 28.3506C38.5053 28.1523 38.3236 27.953 38.1473 27.748C37.9079 27.4709 37.6572 27.2049 37.4068 26.9378C37.1186 26.6305 36.8336 26.3219 36.5586 26.0025C36.3474 25.7625 36.129 25.5291 35.9117 25.2946C35.6475 25.0093 35.3865 24.7212 35.127 24.4316C34.9446 24.2292 34.7603 24.0286 34.5758 23.828C34.3683 23.6025 34.1622 23.376 33.9617 23.1442C33.7121 22.8563 33.4529 22.5776 33.1939 22.2981C32.9295 22.0126 32.6684 21.7243 32.4087 21.4345C32.2292 21.2353 32.0481 21.0376 31.8667 20.8402C31.4762 20.4151 31.0902 19.9861 30.7049 19.5564C30.4202 19.2395 30.134 18.924 29.8457 18.6102C29.4576 18.1877 29.0732 17.7619 28.6913 17.3338C28.3692 16.9738 28.0418 16.6194 27.7116 16.267C27.3823 15.9154 27.0586 15.5608 26.7446 15.1955C26.6767 15.119 26.6767 15.119 26.6075 15.0409C26.5395 14.9644 26.5395 14.9644 26.4703 14.8863C26.4294 14.8404 26.3885 14.7945 26.3464 14.7472C26.2568 14.638 26.2568 14.638 26.2568 14.5683ZM31.4137 16.7983C31.5437 17.0788 31.7295 17.2817 31.9407 17.5039C32.0168 17.5851 32.0928 17.6663 32.1688 17.7476C32.2251 17.8075 32.2251 17.8075 32.2826 17.8687C32.5314 18.1352 32.7733 18.4082 33.0165 18.6799C33.3839 19.0897 33.7535 19.4974 34.126 19.9026C34.3224 20.1165 34.5172 20.3318 34.7108 20.5484C34.9811 20.8499 35.2571 21.1458 35.534 21.4413C35.8237 21.7505 36.1107 22.0607 36.3874 22.3818C36.6299 22.6615 36.88 22.9347 37.1281 23.2096C37.2326 23.3257 37.3372 23.4418 37.4417 23.558C37.4939 23.616 37.5461 23.6739 37.5998 23.7336C37.7 23.845 37.8 23.9566 37.8998 24.0684C38.2216 24.4283 38.5489 24.7824 38.879 25.1347C39.167 25.4422 39.4523 25.7507 39.7272 26.07C39.8803 26.2456 40.0373 26.4174 40.1943 26.5894C40.3913 26.8053 40.5868 27.0218 40.778 27.2427C41.2175 27.7477 41.6775 28.2351 42.1361 28.7228C42.1818 28.7714 42.2275 28.8201 42.2746 28.8702C42.363 28.9641 42.4515 29.0579 42.54 29.1516C42.7944 29.4218 43.0416 29.697 43.285 29.9772C43.4479 30.1634 43.6153 30.345 43.7832 30.5267C44.0375 30.8028 44.2882 31.0815 44.5343 31.3649C45.1334 32.0509 45.7527 32.7204 46.3791 33.3815C46.4464 33.4527 46.4464 33.4527 46.515 33.5253C46.6007 33.6158 46.6865 33.7062 46.7726 33.7962C46.8133 33.8392 46.8539 33.8822 46.8958 33.9265C46.9566 33.9899 46.9566 33.9899 47.0186 34.0545C47.1631 34.2202 47.1631 34.2202 47.3026 34.4285C47.6215 34.8839 47.6215 34.8839 48.1024 35.1324C48.3946 35.1593 48.6763 35.1602 48.969 35.1514C49.0797 35.1511 49.1903 35.1513 49.3009 35.1517C49.5995 35.152 49.8977 35.1471 50.1962 35.1412C50.5088 35.136 50.8214 35.1355 51.134 35.1345C51.7251 35.1319 52.3161 35.1251 52.9072 35.1167C53.5805 35.1073 54.2537 35.1027 54.9271 35.0985C56.3113 35.0898 57.6955 35.0751 59.0797 35.0564C58.969 34.8245 58.8449 34.6582 58.6702 34.4684C58.6139 34.407 58.5576 34.3455 58.4996 34.2822C58.438 34.2158 58.3765 34.1493 58.3131 34.0808C58.2487 34.0108 58.1844 33.9407 58.1201 33.8707C57.7826 33.5035 57.4429 33.1383 57.1022 32.7741C56.5623 32.197 56.0309 31.6135 55.5114 31.0178C55.1038 30.5535 54.6862 30.0982 54.2678 29.6437C54.0885 29.4485 53.9125 29.2513 53.7399 29.0502C53.5156 28.7911 53.2736 28.5525 53.0299 28.3117C52.85 28.1295 52.6821 27.9396 52.5154 27.7452C52.3746 27.5824 52.2298 27.4236 52.0848 27.2645C51.7969 26.947 51.5287 26.6166 51.264 26.2796C51.2003 26.2088 51.2003 26.2088 51.1353 26.1364C51.0893 26.1364 51.0433 26.1364 50.9959 26.1364C50.9777 26.0957 50.9594 26.0551 50.9406 26.0131C50.8518 25.8489 50.755 25.7353 50.626 25.6007C50.58 25.5524 50.5341 25.5042 50.4867 25.4544C50.4377 25.4035 50.3887 25.3526 50.3382 25.3002C50.2366 25.1934 50.1349 25.0866 50.0333 24.9798C49.9835 24.9275 49.9336 24.8752 49.8823 24.8213C49.4166 24.3306 48.9649 23.8267 48.5136 23.3228C48.3916 23.1883 48.2689 23.0548 48.145 22.9221C47.8164 22.57 47.4941 22.2188 47.1936 21.842C46.9212 21.5023 46.6237 21.1978 46.3111 20.896C46.1172 20.7002 45.9376 20.4966 45.7575 20.2884C45.5501 20.0525 45.3325 19.8264 45.116 19.5989C44.8244 19.2905 44.5394 18.9821 44.2754 18.6494C43.9491 18.2386 43.5878 17.8625 43.2254 17.4838C43.179 17.4352 43.1325 17.3866 43.0847 17.3365C43.0223 17.2716 43.0223 17.2716 42.9586 17.2053C42.8425 17.0771 42.8425 17.0771 42.7589 16.9318C42.6402 16.7787 42.6402 16.7787 42.4325 16.764C42.3086 16.7644 42.3086 16.7644 42.1823 16.7648C42.1363 16.7646 42.0903 16.7643 42.0429 16.7641C41.8885 16.7636 41.7342 16.7652 41.5797 16.7667C41.4692 16.7668 41.3586 16.7667 41.248 16.7666C40.9476 16.7665 40.6471 16.7681 40.3466 16.7701C40.0327 16.7718 39.7188 16.772 39.4049 16.7723C38.8104 16.7732 38.2158 16.7755 37.6213 16.7783C36.9445 16.7814 36.2677 16.7829 35.5909 16.7843C34.1985 16.7872 32.8061 16.7921 31.4137 16.7983Z" fill="#A6A6A8"/>
<path d="M0.193848 14.6403C2.39254 14.6244 4.59122 14.6121 6.78996 14.6047C7.04972 14.6038 7.30947 14.6029 7.56922 14.602C7.64679 14.6017 7.64679 14.6017 7.72592 14.6015C8.56253 14.5984 9.3991 14.5929 10.2357 14.5865C11.0945 14.58 11.9533 14.5761 12.8122 14.5747C13.3419 14.5738 13.8715 14.5708 14.4012 14.5651C14.8078 14.561 15.2143 14.5605 15.6209 14.5615C15.7874 14.5613 15.9539 14.5599 16.1203 14.5572C17.4432 14.537 17.4432 14.537 17.7953 14.7913C17.9713 14.9644 18.1066 15.1321 18.2429 15.3372C18.3216 15.4283 18.4012 15.5185 18.4825 15.6072C18.5395 15.6738 18.5395 15.6738 18.5976 15.7417C18.7662 15.9354 18.94 16.124 19.114 16.3128C19.3244 16.5413 19.5337 16.7704 19.7368 17.0053C19.9864 17.2931 20.2454 17.5718 20.5043 17.8512C20.8729 18.2493 21.2353 18.653 21.5972 19.0573C21.8963 19.3907 22.1982 19.7212 22.5026 20.0498C22.7221 20.2867 22.9405 20.5239 23.1515 20.7684C23.3788 21.0315 23.6156 21.2852 23.8528 21.5393C24.1297 21.8362 24.403 22.1347 24.6683 22.442C24.8648 22.6658 25.0671 22.8843 25.2688 23.1035C25.4677 23.3197 25.6649 23.5372 25.8606 23.7563C26.131 24.0578 26.4069 24.3537 26.6838 24.6491C26.9704 24.955 27.254 25.2621 27.5274 25.5799C27.6932 25.769 27.8636 25.9537 28.034 26.1387C28.2458 26.3687 28.4564 26.5993 28.6612 26.8356C28.9575 27.177 29.2646 27.5084 29.5707 27.8409C29.7352 28.0196 29.8995 28.1985 30.0637 28.3774C30.0957 28.4123 30.1277 28.4472 30.1607 28.4831C30.3575 28.6979 30.553 28.914 30.7475 29.1309C30.9932 29.4048 31.2422 29.6755 31.4923 29.9454C31.7535 30.2274 32.0107 30.5119 32.2624 30.8026C32.5219 31.0977 32.7898 31.3855 33.056 31.6747C33.1845 31.8143 33.3125 31.9542 33.4406 32.0941C33.7413 32.4225 34.0429 32.75 34.3451 33.077C34.8426 33.6155 35.3387 34.155 35.8197 34.7084C36.0166 34.933 36.2175 35.1542 36.4177 35.3758C36.5547 35.5286 36.6894 35.683 36.8234 35.8383C36.9771 36.0151 37.1355 36.1835 37.3025 36.3479C37.9704 37.0068 37.9704 37.0068 38.1735 37.4281C35.9648 37.4456 33.7561 37.4591 31.5472 37.4672C31.2864 37.4682 31.0255 37.4692 30.7646 37.4702C30.7126 37.4704 30.6607 37.4706 30.6072 37.4708C29.7667 37.4741 28.9263 37.4802 28.0858 37.4872C27.2231 37.4944 26.3604 37.4986 25.4977 37.5002C24.9656 37.5012 24.4335 37.5046 23.9014 37.5108C23.493 37.5153 23.0847 37.5158 22.6763 37.5148C22.509 37.515 22.3417 37.5165 22.1745 37.5194C20.8424 37.5417 20.8424 37.5417 20.5198 37.2618C20.3608 37.0687 20.2449 36.8798 20.1245 36.6615C19.9806 36.5012 19.9806 36.5012 19.837 36.3697C19.6195 36.1581 19.4191 35.9384 19.2213 35.7085C19.041 35.503 18.8556 35.3027 18.6698 35.1022C18.2659 34.6664 17.8675 34.226 17.472 33.7825C17.1499 33.4225 16.8223 33.068 16.492 32.7155C16.204 32.408 15.9187 32.0995 15.6438 31.7801C15.4907 31.6046 15.3337 31.4328 15.1767 31.2607C14.9797 31.0449 14.7842 30.8284 14.593 30.6074C14.2742 30.2406 13.9416 29.8864 13.6113 29.5299C13.3826 29.2826 13.1553 29.0339 12.9279 28.7855C12.7976 28.6432 12.6671 28.5011 12.5364 28.3592C12.3474 28.1538 12.159 27.9478 11.971 27.7415C11.8948 27.6578 11.8948 27.6578 11.817 27.5725C11.7729 27.5233 11.7289 27.4742 11.6836 27.4236C11.646 27.3818 11.6085 27.34 11.5698 27.297C11.4832 27.184 11.4832 27.184 11.4135 26.975C11.3675 26.975 11.3216 26.975 11.2742 26.975C11.1773 26.8651 11.0852 26.751 10.9954 26.6352C10.7255 26.2971 10.4405 25.9917 10.1281 25.6915C9.93997 25.5013 9.76609 25.3024 9.59101 25.1003C9.38312 24.8641 9.16526 24.6375 8.94834 24.4096C8.59166 24.0326 8.25573 23.6494 7.93243 23.2434C7.73873 23.0113 7.52581 22.8027 7.3096 22.5917C7.13295 22.4157 6.97098 22.2303 6.80845 22.0413C6.44083 21.619 6.05764 21.2098 5.67385 20.8022C5.22627 20.3265 4.78881 19.8451 4.3638 19.3491C4.06124 18.9973 3.74805 18.6567 3.43088 18.318C3.24408 18.1185 3.05943 17.9182 2.88117 17.7109C2.60777 17.3941 2.32 17.0907 2.034 16.7853C1.64983 16.3751 1.26947 15.9615 0.890723 15.5462C0.799499 15.4476 0.799499 15.4476 0.706432 15.347C0.620867 15.2537 0.620867 15.2537 0.533574 15.1586C0.483089 15.1039 0.432604 15.0492 0.380588 14.9928C0.263535 14.8494 0.263535 14.8494 0.193848 14.6403ZM5.28104 16.8703C5.26513 17.0256 5.26513 17.0256 5.41606 17.1534C5.48705 17.2218 5.55822 17.29 5.62947 17.3581C5.96915 17.6908 6.29921 18.0265 6.60891 18.3874C6.77843 18.5817 6.95296 18.7713 7.12776 18.9609C7.33817 19.1894 7.54742 19.4185 7.75059 19.6534C8.00025 19.9414 8.25946 20.2202 8.5185 20.4997C8.73039 20.7285 8.94062 20.9586 9.14869 21.1909C9.39015 21.4604 9.63463 21.7268 9.88041 21.9923C10.1772 22.313 10.4711 22.636 10.7624 22.9617C10.8834 23.0954 11.0052 23.2279 11.1283 23.3597C11.4583 23.7133 11.782 24.0663 12.0843 24.4444C12.3444 24.7687 12.6266 25.059 12.9235 25.3496C13.106 25.5314 13.2742 25.7216 13.4418 25.9171C13.6045 26.1043 13.7718 26.2872 13.9397 26.4697C13.9886 26.5229 13.9886 26.5229 14.0385 26.5772C14.1055 26.65 14.1725 26.7228 14.2395 26.7956C14.7921 27.396 15.3407 27.9997 15.8855 28.6072C16.1702 28.9242 16.4564 29.2396 16.7446 29.5534C17.1351 29.9785 17.5211 30.4075 17.9065 30.8372C18.2236 31.1903 18.543 31.5411 18.8641 31.8906C19.1161 32.1651 19.3655 32.4419 19.6143 32.7193C19.7977 32.9224 19.9828 33.1239 20.168 33.3252C20.4154 33.5942 20.6588 33.866 20.8981 34.1421C21.3715 34.6803 21.3715 34.6803 21.8667 35.1981C22.0113 35.2048 22.1562 35.2066 22.301 35.2064C22.3469 35.2065 22.3927 35.2066 22.44 35.2066C22.5948 35.2067 22.7497 35.2064 22.9045 35.206C23.0151 35.206 23.1256 35.206 23.2362 35.206C23.5372 35.206 23.8383 35.2056 24.1393 35.2051C24.4536 35.2047 24.7679 35.2047 25.0821 35.2046C25.6777 35.2044 26.2732 35.2038 26.8687 35.2031C27.5466 35.2023 28.2244 35.2019 28.9022 35.2016C30.2969 35.2008 31.6916 35.1996 33.0864 35.1981C33.0197 35.1085 32.953 35.019 32.8862 34.9295C32.849 34.8797 32.8119 34.8298 32.7736 34.7785C32.6571 34.6259 32.5335 34.485 32.4006 34.3466C32.3539 34.2974 32.3071 34.2483 32.259 34.1977C32.2115 34.1484 32.164 34.099 32.1151 34.0482C31.7955 33.7143 31.4816 33.3778 31.1789 33.0285C31.0127 32.8379 30.8412 32.6524 30.6691 32.4672C30.5965 32.3888 30.5239 32.3104 30.4513 32.232C30.4146 32.1925 30.378 32.1529 30.3402 32.1122C29.8112 31.5417 29.2849 30.9691 28.7657 30.3896C28.6583 30.2706 28.5509 30.1515 28.4434 30.0325C28.2657 29.8353 28.0897 29.6369 27.9164 29.4358C27.6303 29.1068 27.33 28.7908 27.0318 28.4728C26.7877 28.212 26.5482 27.9486 26.3152 27.6778C26.1368 27.4751 25.9529 27.2775 25.7692 27.0795C25.5454 26.8382 25.3224 26.5968 25.1071 26.3478C24.8592 26.0611 24.6013 25.7839 24.3437 25.506C24.0795 25.2206 23.8185 24.9325 23.559 24.6429C23.3766 24.4405 23.1923 24.2399 23.0078 24.0394C22.8017 23.8153 22.597 23.5904 22.398 23.3599C22.1304 23.0509 21.8501 22.7536 21.5712 22.4547C21.3366 22.2028 21.1069 21.9479 20.8821 21.6872C20.7026 21.4837 20.518 21.2853 20.3335 21.0864C20.1097 20.8451 19.8868 20.6037 19.6715 20.3547C19.4236 20.0681 19.1659 19.7911 18.9084 19.5132C18.5902 19.1695 18.2765 18.822 17.9642 18.4731C17.6176 18.0866 17.2696 17.7016 16.9189 17.3189C16.8853 17.2823 16.8518 17.2457 16.8172 17.208C16.6103 16.9456 16.6103 16.9456 16.3169 16.8617C16.2343 16.8618 16.1516 16.8619 16.0664 16.8619C15.9976 16.8618 15.9976 16.8618 15.9274 16.8617C15.7726 16.8616 15.6177 16.862 15.4629 16.8624C15.3523 16.8624 15.2418 16.8624 15.1312 16.8624C14.8302 16.8623 14.5291 16.8627 14.2281 16.8632C13.9138 16.8637 13.5995 16.8637 13.2853 16.8638C12.6897 16.864 12.0942 16.8646 11.4987 16.8653C10.8208 16.8661 10.143 16.8664 9.46519 16.8668C8.07047 16.8675 6.67576 16.8687 5.28104 16.8703Z" fill="#A6A6A8"/>
<path d="M47.0135 38.168C47.0928 38.1681 47.0928 38.1681 47.1737 38.1683C47.2652 38.1676 47.2652 38.1676 47.3585 38.167C47.4595 38.1679 47.4595 38.1679 47.5627 38.1688C47.6339 38.1687 47.7052 38.1685 47.7786 38.1683C48.0189 38.168 48.2593 38.1691 48.4996 38.1702C48.6713 38.1703 48.8429 38.1703 49.0146 38.1702C49.385 38.1701 49.7553 38.1707 50.1257 38.1719C50.6612 38.1736 51.1967 38.1741 51.7322 38.1744C52.6009 38.1748 53.4697 38.1762 54.3384 38.1782C55.1825 38.1801 56.0265 38.1816 56.8706 38.1825C56.9486 38.1826 56.9486 38.1826 57.0282 38.1827C57.2891 38.1829 57.5499 38.1832 57.8108 38.1835C59.976 38.1856 62.1412 38.1893 64.3064 38.194C64.167 38.403 64.167 38.403 64.038 38.429C63.9587 38.4289 63.9587 38.4289 63.8778 38.4288C63.7863 38.4294 63.7863 38.4294 63.693 38.43C63.592 38.4291 63.592 38.4291 63.4888 38.4282C63.4176 38.4284 63.3463 38.4285 63.2729 38.4287C63.0326 38.4291 62.7922 38.4279 62.5519 38.4268C62.3802 38.4267 62.2086 38.4267 62.0369 38.4269C61.6665 38.4269 61.2962 38.4263 60.9258 38.4251C60.3903 38.4234 59.8548 38.4229 59.3193 38.4226C58.4506 38.4222 57.5818 38.4208 56.7131 38.4188C55.869 38.4169 55.0249 38.4154 54.1809 38.4145C54.1029 38.4144 54.1029 38.4144 54.0233 38.4144C53.7624 38.4141 53.5016 38.4138 53.2407 38.4136C51.0755 38.4114 48.9103 38.4077 46.7451 38.403C46.8845 38.194 46.8845 38.194 47.0135 38.168Z" fill="#495460"/>
<path d="M42.7041 41.4692C42.7501 41.4922 42.7961 41.5152 42.8435 41.5389C42.7055 41.6769 42.5675 41.8149 42.4254 41.957C42.3564 41.9341 42.2874 41.9111 42.2163 41.8874C42.3773 41.7494 42.5383 41.6114 42.7041 41.4692Z" fill="#47515C"/>
<path d="M86.863 32.9995V9.72678H101.454V12.7495H90.3743V19.8404H100.693V22.8518H90.3743V29.9768H101.59V32.9995H86.863ZM109.269 9.72678V32.9995H105.871V9.72678H109.269ZM128.772 15.545L122.443 32.9995H118.806L112.465 15.545H116.113L120.533 28.9768H120.715L125.124 15.545H128.772ZM134.113 39.545C133.605 39.545 133.143 39.5033 132.727 39.42C132.31 39.3442 131.999 39.2609 131.795 39.17L132.613 36.3859C133.234 36.5525 133.787 36.6245 134.272 36.6018C134.757 36.5791 135.185 36.3972 135.556 36.0563C135.935 35.7154 136.268 35.1586 136.556 34.3859L136.977 33.2268L130.59 15.545H134.227L138.647 29.0904H138.829L143.249 15.545H146.897L139.704 35.3291C139.371 36.2381 138.946 37.0071 138.431 37.6359C137.916 38.2722 137.302 38.7495 136.59 39.0677C135.878 39.3859 135.052 39.545 134.113 39.545ZM150.09 32.9995V15.545H153.374V18.3177H153.556C153.874 17.3783 154.435 16.6397 155.238 16.1018C156.049 15.5563 156.965 15.2836 157.988 15.2836C158.2 15.2836 158.45 15.2912 158.738 15.3063C159.033 15.3215 159.264 15.3404 159.431 15.3631V18.6131C159.295 18.5753 159.052 18.5336 158.704 18.4881C158.355 18.4351 158.007 18.4086 157.658 18.4086C156.855 18.4086 156.139 18.5791 155.511 18.92C154.889 19.2533 154.397 19.7192 154.033 20.3177C153.67 20.9086 153.488 21.5828 153.488 22.3404V32.9995H150.09ZM169.269 33.3518C167.55 33.3518 166.068 32.9844 164.826 32.2495C163.591 31.5071 162.637 30.4654 161.962 29.1245C161.296 27.776 160.962 26.1965 160.962 24.3859C160.962 22.598 161.296 21.0222 161.962 19.6586C162.637 18.295 163.576 17.2306 164.781 16.4654C165.993 15.7003 167.409 15.3177 169.031 15.3177C170.015 15.3177 170.97 15.4806 171.894 15.8063C172.818 16.1321 173.648 16.6435 174.383 17.3404C175.118 18.0374 175.697 18.9427 176.121 20.0563C176.546 21.1624 176.758 22.5071 176.758 24.0904V25.295H162.883V22.7495H173.428C173.428 21.8556 173.246 21.0639 172.883 20.3745C172.519 19.6775 172.008 19.1283 171.349 18.7268C170.697 18.3253 169.932 18.1245 169.053 18.1245C168.099 18.1245 167.265 18.3594 166.553 18.8291C165.849 19.2912 165.303 19.8972 164.917 20.6472C164.538 21.3897 164.349 22.1965 164.349 23.0677V25.0563C164.349 26.223 164.553 27.2154 164.962 28.0336C165.379 28.8518 165.959 29.4768 166.701 29.9086C167.443 30.3328 168.311 30.545 169.303 30.545C169.947 30.545 170.534 30.4541 171.065 30.2722C171.595 30.0828 172.053 29.8025 172.44 29.4313C172.826 29.0601 173.121 28.6018 173.326 28.0563L176.542 28.6359C176.284 29.5828 175.822 30.4124 175.156 31.1245C174.496 31.8291 173.667 32.3783 172.667 32.7722C171.675 33.1586 170.542 33.3518 169.269 33.3518Z" fill="#5B5B5B"/>
</svg>
