<svg width="30" height="30" viewBox="0 0 30 30" fill="none" xmlns="http://www.w3.org/2000/svg">
<path d="M10.4724 0.802605C13.673 -0.296173 17.1534 -0.265952 20.3344 0.888241C22.0814 1.54223 23.682 2.53484 25.0443 3.8091C24.5814 4.3044 24.0931 4.76729 23.6209 5.2487C22.7229 6.14517 21.8257 7.03856 20.9292 7.92886C20.0355 7.07421 18.9544 6.44017 17.7723 6.07728C16.2595 5.6205 14.6501 5.58923 13.1207 5.98689C11.5913 6.38455 10.201 7.19578 9.10227 8.33158C8.14323 9.30721 7.41693 10.4868 6.97758 11.7825L2.17969 8.06773C3.89704 4.66213 6.87054 2.0571 10.4724 0.802605Z" fill="#E33629"/>
<path d="M0.911988 11.9194C1.16987 10.6413 1.59801 9.40362 2.18495 8.23938L6.98284 11.9634C6.35519 13.8117 6.35519 15.8156 6.98284 17.6639C5.38432 18.8983 3.78502 20.1388 2.18495 21.3856C0.715606 18.4608 0.267483 15.1284 0.911988 11.9194Z" fill="#F8BD00"/>
<path d="M15.2588 12.0701H29.0346C29.5058 14.6552 29.3783 17.3139 28.6619 19.8421C28.0029 22.1669 26.7226 24.2681 24.9588 25.9199C23.4104 24.7117 21.8551 23.5128 20.3067 22.3047C21.0744 21.7869 21.7296 21.1194 22.2331 20.3423C22.7365 19.5652 23.078 18.6944 23.2368 17.7822H15.2588C15.2565 15.8797 15.2588 13.9749 15.2588 12.0701Z" fill="#587DBD"/>
<path d="M2.17969 21.3857C3.77976 20.1513 5.37906 18.9108 6.97758 17.6641C7.59603 19.4791 8.77224 21.0522 10.3382 22.1588C11.3149 22.8491 12.4248 23.3283 13.597 23.566C14.752 23.7807 15.9368 23.7807 17.0918 23.566C18.2435 23.371 19.3417 22.9374 20.3159 22.293C21.8643 23.5012 23.4196 24.7001 24.968 25.9082C23.2735 27.449 21.2079 28.5233 18.9735 29.0258C16.5072 29.6056 13.937 29.5778 11.4839 28.9448C9.54364 28.4267 7.73135 27.5135 6.16058 26.2623C4.498 24.9423 3.14009 23.2789 2.17969 21.3857Z" fill="#319F43"/>
</svg>
