<svg width="190" height="58" viewBox="0 0 190 58" fill="none" xmlns="http://www.w3.org/2000/svg">
<g clip-path="url(#clip0_229_190)">
<path d="M28.3671 0.961417C28.6253 1.0761 28.6253 1.0761 28.8954 1.23908C28.9976 1.29978 29.0997 1.36048 29.2049 1.42302C29.3696 1.52321 29.3696 1.52321 29.5376 1.62541C29.7756 1.76726 30.0136 1.90901 30.2517 2.05068C30.3746 2.12427 30.4975 2.19786 30.6242 2.27369C31.2145 2.62501 31.8101 2.96711 32.4058 3.30936C32.6451 3.44725 32.8844 3.58515 33.1237 3.72308C33.302 3.82576 33.302 3.82576 33.4838 3.93052C34.0784 4.27311 34.6728 4.61612 35.2672 4.95909C35.5045 5.096 35.7418 5.2329 35.9791 5.36981C38.1148 6.60197 38.1148 6.60197 40.2506 7.83413C40.3682 7.90198 40.4858 7.96984 40.607 8.03975C40.8427 8.17575 41.0784 8.31176 41.3141 8.4478C41.8661 8.76637 42.4182 9.08474 42.9707 9.40237C43.1658 9.51454 43.3609 9.62679 43.556 9.73905C43.8004 9.87966 44.0448 10.0201 44.2893 10.1605C44.4003 10.2244 44.5112 10.2882 44.6256 10.3541C44.7302 10.4141 44.8349 10.4741 44.9427 10.536C45.2088 10.6942 45.4631 10.8631 45.7191 11.0369C45.9883 11.206 46.0763 11.2568 46.4015 11.2564C46.6978 11.1302 46.9731 10.9845 47.2533 10.8255C48.4219 10.2312 49.6696 10.1289 50.9293 10.4901C52.3658 11.0405 53.3373 11.8328 53.9793 13.2466C54.4406 14.3805 54.5135 15.6415 54.1025 16.8096C53.5714 18.066 52.829 18.9792 51.5864 19.5807C51.4409 19.6194 51.295 19.6563 51.1483 19.6902C51.1509 19.853 51.1509 19.853 51.1535 20.019C51.1949 22.6608 51.2255 25.3026 51.2448 27.9446C51.2544 29.2223 51.2675 30.4998 51.2888 31.7774C51.3074 32.8912 51.3194 34.0048 51.3235 35.1187C51.3259 35.7084 51.3316 36.2977 51.3452 36.8873C51.3579 37.4428 51.3617 37.9978 51.3589 38.5534C51.3594 38.7568 51.3631 38.9602 51.3703 39.1635C51.4122 40.4156 51.4122 40.4156 51.1483 40.9381C50.6933 41.4079 50.107 41.6743 49.5144 41.9312C49.1875 42.0777 48.8885 42.2571 48.5817 42.442C48.3626 42.5683 48.1434 42.6945 47.9242 42.8206C47.6779 42.9625 47.4316 43.1044 47.1853 43.2463C47.0616 43.3175 46.938 43.3887 46.8106 43.4621C46.2118 43.807 45.6134 44.1524 45.0149 44.4977C44.7776 44.6346 44.5403 44.7715 44.303 44.9084C44.1855 44.9762 44.0681 45.044 43.947 45.1138C40.0315 47.3727 40.0315 47.3727 39.6754 47.5782C39.4387 47.7148 39.202 47.8513 38.9653 47.9879C38.3625 48.3356 37.7597 48.6834 37.1569 49.031C37.0353 49.1012 36.9136 49.1713 36.7883 49.2436C36.5482 49.3821 36.308 49.5205 36.0678 49.6589C35.5157 49.9771 34.9642 50.2964 34.4145 50.6187C34.3175 50.6754 34.2205 50.7322 34.1205 50.7906C33.9406 50.8959 33.7608 51.0017 33.5813 51.1078C32.9916 51.4526 32.9916 51.4526 32.7481 51.4526C32.7532 51.5638 32.7582 51.6751 32.7635 51.7897C32.8139 53.3541 32.4985 54.5228 31.4338 55.724C30.2733 56.824 29.0114 57.0929 27.4746 57.0683C26.067 57.0132 25.1253 56.3563 24.1777 55.3681C23.6315 54.7314 23.2074 53.9381 23.1099 53.0954C23.1315 52.9703 23.1531 52.8453 23.1753 52.7164C23.237 52.1967 23.2616 51.8079 23.0003 51.343C22.2985 50.7088 21.394 50.3226 20.5528 49.9037C19.9288 49.5905 19.3306 49.2323 18.7288 48.8787C18.4917 48.7416 18.2544 48.6047 18.0169 48.468C16.5931 47.6466 15.1693 46.8251 13.7454 46.0037C13.628 45.9359 13.5105 45.8681 13.3894 45.7983C13.1523 45.6615 12.9152 45.5247 12.6781 45.3878C12.0822 45.044 11.4862 44.7003 10.8901 44.3569C9.70466 43.6739 8.52019 42.9893 7.33822 42.3004C7.23302 42.2391 7.12782 42.1778 7.01943 42.1146C6.91907 42.0561 6.8187 41.9975 6.7153 41.9371C6.62903 41.8868 6.54277 41.8364 6.45389 41.7846C6.34814 41.7221 6.24239 41.6596 6.13344 41.5953C6.04561 41.5651 5.95778 41.535 5.86729 41.5039C5.51313 41.3552 5.29934 41.2225 5.03819 40.9381C4.86769 40.2704 4.89323 39.6084 4.9038 38.9231C4.90303 38.7147 4.90177 38.5064 4.90008 38.298C4.89683 37.733 4.90033 37.1681 4.90502 36.603C4.90879 36.0123 4.90637 35.4217 4.9046 34.831C4.9022 33.7127 4.90537 32.5944 4.91053 31.4761C4.91614 30.2029 4.91554 28.9297 4.91443 27.6564C4.91227 25.0375 4.9179 22.4187 4.92866 19.7998C4.80643 19.7348 4.80643 19.7348 4.68173 19.6685C4.57417 19.6107 4.46661 19.553 4.3558 19.4934C4.19629 19.4081 4.19629 19.4081 4.03356 19.3211C2.92197 18.6803 2.30276 17.6972 1.86196 16.514C1.55012 15.2249 1.72132 13.8976 2.33899 12.7281C2.91985 11.8078 3.61782 11.1738 4.60009 10.7092C4.67111 10.6753 4.74212 10.6414 4.81529 10.6065C5.86456 10.1602 7.01781 10.2022 8.1049 10.4901C8.63188 10.7106 9.14723 10.9623 9.62041 11.2841C9.86291 11.3965 9.86291 11.3965 10.1233 11.2664C10.2221 11.2069 10.321 11.1474 10.4229 11.0861C10.5353 11.0197 10.6477 10.9534 10.7635 10.885C10.8846 10.8112 11.0057 10.7373 11.1305 10.6612C11.2582 10.5852 11.386 10.5093 11.5139 10.4336C11.7797 10.2761 12.0451 10.1177 12.3102 9.9588C12.9119 9.59887 13.5207 9.25104 14.1288 8.902C14.3661 8.76515 14.6034 8.62824 14.8407 8.49128C16.2645 7.66984 16.2645 7.66984 16.6205 7.46445C16.8577 7.32764 17.0948 7.19082 17.3319 7.054C17.9278 6.71018 18.5238 6.3665 19.1199 6.02311C20.3713 5.30204 21.6208 4.57785 22.8673 3.84843C23.4738 3.49426 24.0819 3.14308 24.692 2.79511C24.761 2.75577 24.8299 2.71643 24.901 2.6759C25.237 2.48435 25.5731 2.29312 25.9095 2.10226C26.0315 2.03286 26.1535 1.96346 26.2792 1.89195C26.3943 1.82657 26.5094 1.76118 26.6279 1.69381C26.9698 1.49346 27.2997 1.27976 27.6243 1.05257C27.8918 0.927604 28.0743 0.929034 28.3671 0.961417ZM27.5529 5.07246C27.4494 5.13316 27.3458 5.19386 27.2391 5.25641C27.0689 5.35659 27.0689 5.35659 26.8953 5.4588C26.6533 5.60061 26.4113 5.74236 26.1693 5.88406C26.1066 5.92076 26.044 5.95746 25.9795 5.99526C25.3212 6.38061 24.6607 6.76196 23.9997 7.14275C23.8817 7.21081 23.7636 7.27887 23.6419 7.34899C23.4018 7.48731 23.1618 7.62562 22.9217 7.76391C22.3271 8.10649 21.7328 8.4495 21.1384 8.79247C20.9011 8.92938 20.6638 9.06629 20.4265 9.20319C20.309 9.27096 20.1916 9.33873 20.0705 9.40855C19.0027 10.0246 19.0027 10.0246 18.6466 10.23C18.4095 10.3668 18.1724 10.5036 17.9353 10.6405C17.2194 11.0535 16.5035 11.4664 15.7872 11.8786C15.5505 12.0152 15.3141 12.1523 15.078 12.2898C14.4758 12.6402 13.8707 12.9812 13.256 13.3091C13.1336 13.376 13.0112 13.4429 12.8851 13.5119C12.6519 13.6392 12.417 13.7637 12.1804 13.8848C11.8833 14.0493 11.6332 14.1952 11.3907 14.433C11.2959 14.7785 11.3377 15.0688 11.3907 15.4187C11.2383 16.9423 10.5858 18.0733 9.44359 19.0724C9.12604 19.3068 8.77616 19.4944 8.43347 19.6902C8.43347 26.0515 8.43347 32.4127 8.43347 38.9667C9.44549 39.545 10.4575 40.1233 11.5002 40.7191C12.9933 41.5783 14.4841 42.4408 15.9711 43.3105C16.879 43.8405 17.7916 44.3622 18.7049 44.8827C19.6124 45.4 20.5171 45.9217 21.4191 46.4486C21.5256 46.5107 21.6322 46.5727 21.742 46.6367C22.2574 46.9372 22.7712 47.2402 23.2823 47.5481C23.3781 47.6053 23.474 47.6624 23.5727 47.7213C23.7519 47.8281 23.9305 47.9361 24.1082 48.0452C24.1871 48.092 24.2659 48.1387 24.3471 48.1869C24.4153 48.2282 24.4835 48.2695 24.5537 48.312C24.8094 48.4069 24.9373 48.367 25.1908 48.2763C25.366 48.1908 25.5393 48.1015 25.7111 48.0094C26.911 47.4059 28.1511 47.3222 29.4486 47.6945C29.9574 47.8657 30.3731 48.0739 30.7899 48.4124C31.0034 48.52 31.0034 48.52 31.2759 48.4423C31.8151 48.2049 32.3112 47.9073 32.8165 47.6055C33.0529 47.4659 33.2894 47.3264 33.5259 47.1871C33.6494 47.1142 33.773 47.0413 33.9003 46.9662C34.4708 46.631 35.046 46.3042 35.6211 45.977C36.7508 45.3342 37.8764 44.6848 38.9983 44.0286C40.1499 43.3552 41.3056 42.6892 42.4615 42.0234C43.0732 41.671 43.6847 41.3182 44.2961 40.9655C44.4572 40.8727 44.4572 40.8727 44.6215 40.7779C44.8375 40.6533 45.0512 40.5246 45.2623 40.3918C45.5652 40.2136 45.8532 40.1139 46.191 40.0193C46.8403 39.8022 47.3563 39.541 47.753 38.9667C48.1313 37.6875 48.0015 36.2704 47.964 34.952C47.951 34.4151 47.9498 33.878 47.9473 33.3409C47.9409 32.3252 47.9238 31.31 47.9029 30.2945C47.8796 29.1379 47.8682 27.9812 47.8578 26.8244C47.836 24.4461 47.7995 22.0682 47.753 19.6902C47.6716 19.6476 47.5902 19.605 47.5063 19.5612C47.3988 19.5039 47.2913 19.4467 47.1806 19.3878C47.0743 19.3316 46.9681 19.2755 46.8586 19.2176C46.0351 18.728 45.5231 18.0277 45.1244 17.1712C45.0907 17.1015 45.0569 17.0319 45.0222 16.9602C44.7209 16.264 44.6423 15.46 44.7114 14.7073C44.715 14.4253 44.715 14.4253 44.5152 14.2608C44.4352 14.2126 44.3551 14.1644 44.2726 14.1147C44.1821 14.0594 44.0916 14.004 43.9984 13.947C43.9001 13.8905 43.8019 13.8341 43.7006 13.7759C43.603 13.7194 43.5054 13.6629 43.4049 13.6047C43.0828 13.4217 42.7588 13.2425 42.4342 13.064C41.502 12.5466 40.5749 12.0218 39.655 11.4827C38.7463 10.9502 37.8362 10.4204 36.9237 9.89457C36.8054 9.82639 36.6871 9.7582 36.5652 9.68795C36.3254 9.54975 36.0855 9.41157 35.8457 9.27341C35.1333 8.86295 34.4212 8.45195 33.7091 8.04096C33.1011 7.69006 32.4929 7.33953 31.8843 6.98958C29.5895 5.66918 29.5895 5.66918 28.5967 5.06161C28.0911 4.75348 28.0596 4.77438 27.5529 5.07246Z" fill="white"/>
<path d="M28.2346 13.2012C28.5699 13.3314 28.8631 13.4793 29.1732 13.6608C29.2848 13.7257 29.3965 13.7907 29.5116 13.8576C29.6309 13.9278 29.7502 13.9979 29.8731 14.0702C29.9998 14.1442 30.1266 14.218 30.2534 14.2918C30.5166 14.4451 30.7797 14.5986 31.0426 14.7523C31.6461 15.1049 32.252 15.4533 32.8577 15.8021C33.0934 15.9381 33.3291 16.0742 33.5649 16.2102C34.0549 16.493 34.5453 16.7753 35.0358 17.0573C35.6305 17.3994 36.2246 17.7424 36.8182 18.0864C37.0156 18.2007 37.2132 18.3147 37.411 18.4284C37.6485 18.5651 37.8852 18.703 38.1217 18.8414C38.2215 18.8984 38.2215 18.8984 38.3233 18.9564C38.7595 19.2144 38.7595 19.2144 38.8816 19.5807C38.7697 19.642 38.6579 19.7033 38.5427 19.7664C37.4579 20.3635 36.3847 20.9785 35.3162 21.6042C34.5029 22.0804 33.6879 22.5533 32.8714 23.0239C32.7549 23.091 32.6385 23.1581 32.5186 23.2273C31.9573 23.5508 31.3958 23.8741 30.8343 24.1972C30.5705 24.3491 30.3068 24.501 30.0431 24.6529C29.8564 24.7604 29.6696 24.8678 29.4828 24.9752C29.37 25.0402 29.2573 25.1051 29.1411 25.1721C28.9919 25.2579 28.9919 25.2579 28.8397 25.3455C28.6419 25.4622 28.4487 25.5867 28.2576 25.7141C27.8218 25.6772 27.4998 25.5106 27.123 25.297C27.0108 25.2338 26.8987 25.1706 26.7831 25.1056C26.6643 25.0376 26.5455 24.9696 26.4231 24.8995C26.2997 24.8296 26.1762 24.7597 26.0491 24.6877C25.2301 24.2226 24.4163 23.7491 23.6062 23.2686C22.6248 22.6878 21.6339 22.1231 20.6457 21.554C20.2483 21.3251 19.8512 21.0958 19.4541 20.8663C19.3222 20.7901 19.1902 20.7139 19.0583 20.6377C18.8061 20.4921 18.5539 20.3463 18.3017 20.2006C18.1886 20.1352 18.0754 20.0699 17.9588 20.0025C17.8588 19.9448 17.7588 19.887 17.6557 19.8274C17.5044 19.7413 17.3512 19.6585 17.1956 19.5807C17.3576 19.1523 17.5726 19.0174 17.9695 18.8029C18.1393 18.7097 18.1393 18.7097 18.3126 18.6147C18.4342 18.5494 18.5557 18.4842 18.681 18.417C18.9335 18.2787 19.1859 18.1402 19.4383 18.0016C19.5615 17.9342 19.6848 17.8668 19.8119 17.7973C20.2383 17.5621 20.6586 17.3178 21.0769 17.0685C22.2047 16.399 23.3423 15.7465 24.4789 15.092C24.8763 14.8631 25.2734 14.6338 25.6705 14.4044C25.8024 14.3282 25.9343 14.252 26.0663 14.1758C26.3185 14.0301 26.5707 13.8843 26.8228 13.7386C26.936 13.6732 27.0492 13.6079 27.1658 13.5406C27.2658 13.4828 27.3658 13.425 27.4689 13.3654C27.911 13.1139 27.911 13.1139 28.2346 13.2012Z" fill="white"/>
<path d="M15.5527 22.2095C15.7593 22.3117 15.9658 22.4141 16.1722 22.5167C16.3447 22.6022 16.3447 22.6022 16.5206 22.6895C17.0548 22.9626 17.5696 23.2658 18.0855 23.5717C18.3165 23.7075 18.5475 23.8433 18.7786 23.979C18.8967 24.0485 19.0148 24.1179 19.1365 24.1895C19.7245 24.5341 20.3151 24.8744 20.9058 25.2146C21.0227 25.282 21.1396 25.3494 21.2601 25.4188C21.7495 25.7009 22.2389 25.9828 22.7285 26.2646C22.9866 26.4132 23.2447 26.5618 23.5028 26.7105C23.7441 26.8496 23.9855 26.9885 24.227 27.1274C26.2177 28.2744 26.2177 28.2744 26.3957 28.4524C26.4062 28.6159 26.4091 28.7799 26.4089 28.9438C26.4091 29.1029 26.4091 29.1029 26.4094 29.2654C26.4088 29.4414 26.4088 29.4414 26.4082 29.6211C26.4082 29.7439 26.4082 29.8668 26.4082 29.9934C26.4081 30.4017 26.4073 30.81 26.4064 31.2184C26.4062 31.5006 26.4061 31.7828 26.406 32.0651C26.4056 32.7334 26.4047 33.4017 26.4036 34.0701C26.4024 34.8308 26.4018 35.5915 26.4012 36.3522C26.4001 37.9174 26.3982 39.4826 26.3957 41.0478C26.009 40.8962 25.6506 40.7291 25.2881 40.5259C25.1799 40.4653 25.0717 40.4047 24.9602 40.3423C24.8443 40.277 24.7285 40.2116 24.6091 40.1442C24.4877 40.076 24.3662 40.0077 24.2411 39.9373C23.2052 39.3531 22.1774 38.7554 21.1514 38.154C20.3351 37.6756 19.5153 37.2034 18.6954 36.7312C18.4777 36.6058 18.2616 36.4777 18.0472 36.3469C17.7447 36.1704 17.4409 36.041 17.114 35.9162C15.7267 35.3366 15.7267 35.3366 15.4363 34.6318C15.2548 33.7701 15.3143 32.8918 15.3495 32.0175C15.3534 31.7344 15.3564 31.4513 15.3584 31.1682C15.3655 30.5014 15.3819 29.8355 15.4029 29.1691C15.4262 28.4098 15.4376 27.6504 15.448 26.8909C15.4697 25.33 15.5062 23.7698 15.5527 22.2095Z" fill="white"/>
<path d="M40.5242 22.2095C40.5242 26.4021 40.5242 30.5947 40.5242 34.9144C38.3885 36.1466 38.3885 36.1466 36.2528 37.3787C36.0188 37.5137 35.7849 37.6487 35.5438 37.7877C35.0593 38.0673 34.5747 38.3468 34.0901 38.6263C33.9684 38.6964 33.8468 38.7666 33.7215 38.8389C33.4814 38.9774 33.2412 39.1158 33.001 39.2542C32.4489 39.5724 31.8974 39.8916 31.3476 40.214C31.2506 40.2707 31.1536 40.3274 31.0537 40.3858C30.8737 40.4912 30.694 40.5969 30.5145 40.7031C29.9247 41.0478 29.9247 41.0478 29.6812 41.0478C29.6582 39.417 29.6408 37.7861 29.6302 36.1552C29.6251 35.3978 29.6182 34.6406 29.6069 33.8833C29.596 33.1526 29.5903 32.4219 29.5877 31.6911C29.5859 31.4122 29.5823 31.1333 29.577 30.8545C29.5699 30.464 29.5689 30.0738 29.5693 29.6832C29.5658 29.5678 29.5622 29.4524 29.5586 29.3335C29.5683 28.5661 29.5683 28.5661 29.8929 28.2393C30.1445 28.0689 30.3944 27.9292 30.667 27.7953C30.8123 27.7126 30.9575 27.6294 31.1021 27.5454C31.2512 27.4641 31.4005 27.3831 31.55 27.3024C32.3356 26.8721 33.1117 26.4275 33.8843 25.9744C34.9931 25.3245 36.1073 24.6843 37.224 24.048C38.0925 23.553 38.9588 23.0542 39.8212 22.5487C40.4029 22.2095 40.4029 22.2095 40.5242 22.2095Z" fill="white"/>
</g>
<path d="M81.7297 22.696C81.5934 21.4858 81.0309 20.5483 80.0422 19.8835C79.0536 19.2102 77.8093 18.8736 76.3093 18.8736C75.2354 18.8736 74.3064 19.044 73.5224 19.3849C72.7383 19.7173 72.1289 20.1776 71.6942 20.7656C71.2681 21.3452 71.055 22.0057 71.055 22.7472C71.055 23.3693 71.1999 23.9062 71.4897 24.358C71.788 24.8097 72.1758 25.1889 72.653 25.4957C73.1388 25.794 73.6587 26.0455 74.2127 26.25C74.7667 26.446 75.2993 26.608 75.8107 26.7358L78.3675 27.4006C79.2027 27.6051 80.0593 27.8821 80.9371 28.2315C81.815 28.581 82.6289 29.0412 83.3789 29.6122C84.1289 30.1832 84.734 30.8906 85.1942 31.7344C85.663 32.5781 85.8974 33.5881 85.8974 34.7642C85.8974 36.2472 85.5138 37.5639 84.7468 38.7145C83.9883 39.8651 82.8846 40.7727 81.4357 41.4375C79.9954 42.1023 78.2525 42.4347 76.207 42.4347C74.2468 42.4347 72.5508 42.1236 71.1189 41.5014C69.6871 40.8793 68.5664 39.9972 67.7567 38.8551C66.9471 37.7045 66.4996 36.3409 66.4144 34.7642H70.3775C70.4542 35.7102 70.761 36.4986 71.2979 37.1293C71.8434 37.7514 72.538 38.2159 73.3817 38.5227C74.234 38.821 75.1672 38.9702 76.1814 38.9702C77.2979 38.9702 78.2908 38.7955 79.1601 38.446C80.038 38.0881 80.7283 37.5937 81.2312 36.9631C81.734 36.3239 81.9854 35.5781 81.9854 34.7259C81.9854 33.9503 81.7638 33.3153 81.3206 32.821C80.886 32.3267 80.2937 31.9176 79.5437 31.5938C78.8022 31.2699 77.9627 30.9844 77.0252 30.7372L73.9314 29.8935C71.8349 29.3224 70.1729 28.483 68.9456 27.375C67.7269 26.267 67.1175 24.8011 67.1175 22.9773C67.1175 21.4687 67.5266 20.152 68.3448 19.027C69.163 17.902 70.2709 17.0284 71.6687 16.4062C73.0664 15.7756 74.6431 15.4602 76.3988 15.4602C78.1715 15.4602 79.7354 15.7713 81.0905 16.3935C82.4542 17.0156 83.528 17.8722 84.3121 18.9631C85.0962 20.0455 85.5053 21.2898 85.5394 22.696H81.7297ZM98.7741 42.3963C96.8395 42.3963 95.1733 41.983 93.7755 41.1562C92.3863 40.321 91.3125 39.1491 90.554 37.6406C89.804 36.1236 89.429 34.3466 89.429 32.3097C89.429 30.2983 89.804 28.5256 90.554 26.9915C91.3125 25.4574 92.3693 24.2599 93.7244 23.3991C95.088 22.5384 96.6818 22.108 98.5057 22.108C99.6136 22.108 100.687 22.2912 101.727 22.6577C102.767 23.0241 103.7 23.5994 104.527 24.3835C105.354 25.1676 106.006 26.1861 106.483 27.4389C106.96 28.6832 107.199 30.196 107.199 31.9773V33.3324H91.5895V30.4688H103.453C103.453 29.4631 103.249 28.5724 102.839 27.7969C102.43 27.0128 101.855 26.3949 101.114 25.9432C100.381 25.4915 99.5199 25.2656 98.5312 25.2656C97.4574 25.2656 96.5199 25.5298 95.7187 26.0582C94.9261 26.5781 94.3125 27.2599 93.8778 28.1037C93.4517 28.9389 93.2386 29.8466 93.2386 30.8267V33.0639C93.2386 34.3764 93.4687 35.4929 93.929 36.4134C94.3977 37.3338 95.0497 38.0369 95.8849 38.5227C96.7201 39 97.696 39.2386 98.8125 39.2386C99.5369 39.2386 100.197 39.1364 100.794 38.9318C101.391 38.7187 101.906 38.4034 102.341 37.9858C102.776 37.5682 103.108 37.0526 103.338 36.4389L106.956 37.0909C106.666 38.1562 106.146 39.0895 105.396 39.8906C104.655 40.6832 103.722 41.3011 102.597 41.7443C101.48 42.179 100.206 42.3963 98.7741 42.3963ZM115.262 15.8182V42H111.44V15.8182H115.262ZM124.227 15.8182V42H120.405V15.8182H124.227ZM129.37 42V22.3636H133.192V42H129.37ZM131.3 19.3338C130.635 19.3338 130.064 19.1122 129.587 18.669C129.118 18.2173 128.884 17.6804 128.884 17.0582C128.884 16.4276 129.118 15.8906 129.587 15.4474C130.064 14.9957 130.635 14.7699 131.3 14.7699C131.965 14.7699 132.532 14.9957 133 15.4474C133.478 15.8906 133.716 16.4276 133.716 17.0582C133.716 17.6804 133.478 18.2173 133 18.669C132.532 19.1122 131.965 19.3338 131.3 19.3338ZM147.68 22.3636V25.4318H136.583V22.3636H147.68ZM139.626 42V20.0881C139.626 18.8608 139.894 17.8423 140.431 17.0327C140.968 16.2145 141.68 15.6051 142.566 15.2045C143.452 14.7955 144.415 14.5909 145.455 14.5909C146.222 14.5909 146.879 14.6548 147.424 14.7827C147.969 14.902 148.374 15.0128 148.638 15.1151L147.744 18.2088C147.565 18.1577 147.334 18.098 147.053 18.0298C146.772 17.9531 146.431 17.9148 146.031 17.9148C145.102 17.9148 144.437 18.1449 144.036 18.6051C143.644 19.0653 143.448 19.7301 143.448 20.5994V42H139.626ZM154.04 49.3636C153.469 49.3636 152.949 49.3168 152.48 49.223C152.011 49.1378 151.662 49.044 151.432 48.9418L152.352 45.8097C153.051 45.9972 153.673 46.0781 154.219 46.0526C154.764 46.027 155.246 45.8224 155.663 45.4389C156.089 45.0554 156.464 44.429 156.788 43.5597L157.261 42.2557L150.077 22.3636H154.168L159.141 37.6023H159.345L164.318 22.3636H168.422L160.33 44.6207C159.955 45.6435 159.477 46.5085 158.898 47.2159C158.318 47.9318 157.628 48.4688 156.827 48.8267C156.026 49.1847 155.097 49.3636 154.04 49.3636ZM175.031 22.3636L179.365 30.0085L183.737 22.3636H187.918L181.794 32.1818L187.969 42H183.788L179.365 34.6619L174.955 42H170.761L176.872 32.1818L170.838 22.3636H175.031Z" fill="white"/>
<defs>
<clipPath id="clip0_229_190">
<rect width="56.0769" height="56.0769" fill="white" transform="translate(0 0.961426)"/>
</clipPath>
</defs>
</svg>
