<svg width="164" height="52" viewBox="0 0 164 52" fill="none" xmlns="http://www.w3.org/2000/svg">
<path d="M8.83398 13.6532C11.6757 13.6483 14.5175 13.6441 17.3592 13.6418C17.6951 13.6415 18.0309 13.6412 18.3668 13.6409C18.4337 13.6409 18.5006 13.6408 18.5694 13.6407C19.6506 13.6398 20.7317 13.638 21.8128 13.6359C22.923 13.6338 24.0332 13.6326 25.1434 13.6321C25.8279 13.6318 26.5123 13.6309 27.1968 13.6291C27.6668 13.6279 28.1369 13.6275 28.607 13.6278C28.8777 13.6279 29.1484 13.6277 29.4192 13.6265C31.4802 13.6178 31.4802 13.6178 32.4092 13.877C32.5259 13.9055 32.6425 13.9339 32.7592 13.9621C32.8557 13.989 32.952 14.0165 33.048 14.0449C33.1001 14.0601 33.1521 14.0753 33.2058 14.091C33.6675 14.2333 34.0845 14.4349 34.509 14.6639C34.6849 14.7534 34.8279 14.8115 35.0204 14.8469C35.0204 14.8961 35.0204 14.9454 35.0204 14.9961C35.0745 15.0158 35.1285 15.0355 35.1842 15.0558C36.3641 15.5603 37.3477 16.7645 38.0046 17.831C38.0401 17.8855 38.0756 17.9399 38.1122 17.996C38.4216 18.5023 38.5895 19.0746 38.7775 19.6339C38.8163 19.7451 38.8603 19.8545 38.9057 19.9631C38.9937 20.1941 39.0421 20.4238 39.0911 20.666C39.1189 20.7999 39.1189 20.7999 39.1473 20.9364C39.2925 21.7759 39.2836 22.6304 39.2819 23.4794C39.2819 23.603 39.282 23.7266 39.2821 23.8503C39.2822 24.1875 39.282 24.5247 39.2816 24.8619C39.2813 25.2264 39.2814 25.591 39.2814 25.9555C39.2815 26.5864 39.2812 27.2172 39.2808 27.848C39.2802 28.76 39.28 29.672 39.2799 30.5841C39.2798 32.0639 39.2793 33.5438 39.2785 35.0237C39.2779 36.4609 39.2773 37.898 39.277 39.3352C39.277 39.4682 39.277 39.4682 39.277 39.6038C39.2769 40.0486 39.2768 40.4934 39.2767 40.9382C39.2759 44.6254 39.2746 48.3126 39.2729 51.9998C39.0094 51.9518 38.8318 51.9009 38.6123 51.7456C38.5339 51.6906 38.5339 51.6906 38.454 51.6344C38.3996 51.5949 38.3452 51.5555 38.2891 51.5148C38.2326 51.4744 38.1761 51.4339 38.1178 51.3922C37.6799 51.0744 37.2778 50.7311 36.8856 50.3585C36.7568 50.2432 36.6278 50.1282 36.4985 50.0134C35.9489 49.5169 35.4745 49.0049 35.0204 48.4188C34.9838 48.3739 34.9471 48.3291 34.9094 48.283C33.6684 46.7238 32.9001 44.7677 32.4279 42.8514C32.4056 42.7621 32.4056 42.7621 32.3829 42.671C32.1217 41.5538 32.0895 40.4494 32.0929 39.3085C32.0929 39.1537 32.0927 38.9989 32.0925 38.8441C32.0921 38.5131 32.0922 38.1821 32.0926 37.8511C32.0932 37.3267 32.0924 36.8023 32.0913 36.2779C32.0885 34.7875 32.0872 33.2971 32.088 31.8068C32.0885 30.9818 32.0876 30.1569 32.0853 29.3319C32.0839 28.8117 32.0842 28.2914 32.0856 27.7712C32.0861 27.4464 32.0851 27.1217 32.0836 26.797C32.0832 26.6476 32.0835 26.4982 32.0844 26.3488C32.0935 24.8206 31.7596 23.4597 30.6793 22.3166C29.6687 21.3687 28.488 20.8792 27.1115 20.8783C27.0455 20.878 26.9795 20.8777 26.9114 20.8773C26.6911 20.8763 26.4707 20.8759 26.2504 20.8754C26.092 20.8748 25.9336 20.8742 25.7753 20.8736C25.2558 20.8716 24.7364 20.8705 24.2169 20.8694C24.0377 20.869 23.8584 20.8686 23.6792 20.8682C22.9331 20.8666 22.1871 20.8652 21.441 20.8644C20.3742 20.8631 19.3074 20.8607 18.2406 20.8564C17.4892 20.8535 16.7378 20.8521 15.9864 20.8517C15.5383 20.8514 15.0902 20.8505 14.642 20.8481C14.2199 20.8458 13.7979 20.8454 13.3757 20.8463C13.2216 20.8463 13.0676 20.8457 12.9135 20.8443C11.3948 20.8321 10.1562 21.1395 8.98319 22.1581C8.93396 22.1581 8.88472 22.1581 8.83398 22.1581C8.83398 19.3515 8.83398 16.5449 8.83398 13.6532Z" fill="#A6A6A8"/>
<path d="M0.25462 0C2.00966 0.680077 3.79501 2.4916 4.80554 4.02863C4.8467 4.09046 4.88786 4.1523 4.93027 4.21601C5.8202 5.5815 6.5285 7.0079 6.96909 8.57948C6.99035 8.64978 7.0116 8.72008 7.0335 8.79251C7.39976 10.0942 7.45004 11.4661 7.44543 12.8094C7.44574 12.9625 7.44614 13.1157 7.44664 13.2688C7.44751 13.5946 7.44771 13.9204 7.44736 14.2461C7.44685 14.762 7.44805 15.2779 7.44948 15.7938C7.45252 16.9807 7.45339 18.1675 7.45422 19.3544C7.45501 20.4456 7.45626 21.5369 7.4593 22.6282C7.46066 23.1403 7.46096 23.6525 7.46042 24.1647C7.46031 24.4833 7.46112 24.802 7.46217 25.1207C7.46247 25.2677 7.46239 25.4147 7.46189 25.5616C7.45951 26.3227 7.47128 27.0223 7.71514 27.7528C7.74149 27.835 7.76785 27.9172 7.79499 28.0019C8.37422 29.4285 9.38235 30.3536 10.7833 30.9561C11.6349 31.2229 12.6306 31.1215 13.5138 31.122C13.669 31.1223 13.8243 31.1227 13.9795 31.1231C14.3989 31.1241 14.8184 31.1245 15.2378 31.1249C15.5002 31.1251 15.7627 31.1254 16.0251 31.1257C16.8475 31.1268 17.67 31.1275 18.4924 31.1278C19.4395 31.1281 20.3867 31.1294 21.3338 31.1316C22.0677 31.1332 22.8016 31.1339 23.5356 31.134C23.9732 31.1341 24.4107 31.1346 24.8483 31.1359C25.2598 31.1371 25.6713 31.1373 26.0829 31.1366C26.2333 31.1366 26.3838 31.1369 26.5343 31.1376C27.9554 31.1442 29.0718 30.9308 30.2226 30.041C30.3951 29.9163 30.3951 29.9163 30.619 29.8417C30.619 32.6483 30.619 35.4549 30.619 38.3465C27.8057 38.3498 24.9925 38.3526 22.1793 38.3542C21.8468 38.3544 21.5143 38.3545 21.1817 38.3547C21.0824 38.3548 21.0824 38.3548 20.9811 38.3549C19.9109 38.3555 18.8406 38.3567 17.7704 38.3581C16.6713 38.3595 15.5722 38.3603 14.4731 38.3606C13.7955 38.3608 13.118 38.3614 12.4404 38.3627C11.975 38.3634 11.5097 38.3637 11.0443 38.3635C10.7763 38.3634 10.5083 38.3635 10.2402 38.3643C8.17213 38.3702 8.17212 38.3702 7.26751 38.1973C7.21187 38.1869 7.15623 38.1765 7.0989 38.1658C5.10185 37.7492 3.26041 36.539 2.04515 34.9148C1.99571 34.8541 1.94628 34.7934 1.89535 34.7309C1.406 34.1082 1.09386 33.3974 0.776857 32.6766C0.741647 32.5996 0.706437 32.5226 0.670161 32.4433C0.26852 31.5012 0.210941 30.4899 0.218734 29.4803C0.218603 29.3521 0.218341 29.2238 0.217961 29.0956C0.217301 28.7473 0.218478 28.399 0.219984 28.0508C0.221283 27.6736 0.220836 27.2965 0.22061 26.9194C0.220454 26.2674 0.221384 25.6154 0.223068 24.9634C0.225502 24.0207 0.226272 23.078 0.226646 22.1353C0.227298 20.6056 0.22928 19.0759 0.232108 17.5461C0.23485 16.0609 0.236961 14.5756 0.238228 13.0903C0.238306 12.9987 0.238384 12.907 0.238465 12.8125C0.238855 12.3525 0.239232 11.8926 0.239603 11.4326C0.242692 7.62172 0.247945 3.81086 0.25462 0Z" fill="#1E2C39"/>
<path d="M39.2728 0C39.2728 5.44088 39.2728 10.8818 39.2728 16.4875C39.0378 16.2525 38.8618 16.0746 38.676 15.8161C37.1698 13.8568 34.7608 12.4059 32.3159 12.0346C32.2143 12.023 32.2143 12.023 32.1107 12.0113C32.0039 10.0999 32.5631 8.07539 33.3764 6.36001C33.4686 6.15958 33.54 5.9559 33.6028 5.74452C33.6521 5.74452 33.7013 5.74452 33.752 5.74452C33.7583 5.69375 33.7645 5.64297 33.771 5.59065C33.8414 5.31363 33.9724 5.0905 34.1204 4.84927C34.1503 4.80024 34.1802 4.75122 34.2109 4.7007C34.71 3.89703 35.3068 3.18049 35.9595 2.49771C36.0293 2.42451 36.0988 2.35093 36.1678 2.27696C38.2962 0 38.2962 0 39.2728 0Z" fill="#1F2D3A"/>
<path d="M0.253906 35.5845C0.671402 36.002 0.671402 36.002 0.849291 36.2151C1.96069 37.5322 3.22729 38.536 4.80483 39.2401C4.85035 39.261 4.89588 39.282 4.94278 39.3035C5.72064 39.6581 6.50462 39.833 7.3414 39.9861C7.49812 43.473 5.94217 46.7389 3.68575 49.3116C3.62631 49.3803 3.56688 49.449 3.50565 49.5197C2.74583 50.384 1.83768 51.0843 0.874062 51.7083C0.829283 51.7374 0.784503 51.7666 0.738367 51.7966C0.422022 51.9974 0.422022 51.9974 0.253906 51.9974C0.253906 46.5811 0.253906 41.1649 0.253906 35.5845Z" fill="#A6A6A8"/>
<path d="M61.8395 38V14.7273H65.3509V34.9773H75.8964V38H61.8395ZM90.6861 30.7614V20.5455H94.0952V38H90.7543V34.9773H90.5725C90.171 35.9091 89.527 36.6856 88.6407 37.3068C87.7619 37.9205 86.6672 38.2273 85.3566 38.2273C84.2354 38.2273 83.2429 37.9811 82.3793 37.4886C81.5232 36.9886 80.849 36.25 80.3566 35.2727C79.8717 34.2955 79.6293 33.0871 79.6293 31.6477V20.5455H83.027V31.2386C83.027 32.428 83.3566 33.375 84.0157 34.0795C84.6748 34.7841 85.5308 35.1364 86.5839 35.1364C87.2202 35.1364 87.8528 34.9773 88.4816 34.6591C89.1179 34.3409 89.6445 33.8598 90.0611 33.2159C90.4854 32.572 90.6937 31.7538 90.6861 30.7614ZM101.342 20.5455L105.195 27.3409L109.081 20.5455H112.797L107.354 29.2727L112.842 38H109.126L105.195 31.4773L101.274 38H97.5469L102.979 29.2727L97.6151 20.5455H101.342ZM122.95 38.3523C121.314 38.3523 119.886 37.9773 118.666 37.2273C117.447 36.4773 116.5 35.428 115.825 34.0795C115.151 32.7311 114.814 31.1553 114.814 29.3523C114.814 27.5417 115.151 25.9583 115.825 24.6023C116.5 23.2462 117.447 22.1932 118.666 21.4432C119.886 20.6932 121.314 20.3182 122.95 20.3182C124.587 20.3182 126.015 20.6932 127.234 21.4432C128.454 22.1932 129.401 23.2462 130.075 24.6023C130.75 25.9583 131.087 27.5417 131.087 29.3523C131.087 31.1553 130.75 32.7311 130.075 34.0795C129.401 35.428 128.454 36.4773 127.234 37.2273C126.015 37.9773 124.587 38.3523 122.95 38.3523ZM122.962 35.5C124.022 35.5 124.901 35.2197 125.598 34.6591C126.295 34.0985 126.81 33.3523 127.144 32.4205C127.484 31.4886 127.655 30.4621 127.655 29.3409C127.655 28.2273 127.484 27.2045 127.144 26.2727C126.81 25.3333 126.295 24.5795 125.598 24.0114C124.901 23.4432 124.022 23.1591 122.962 23.1591C121.894 23.1591 121.007 23.4432 120.303 24.0114C119.606 24.5795 119.087 25.3333 118.746 26.2727C118.412 27.2045 118.246 28.2273 118.246 29.3409C118.246 30.4621 118.412 31.4886 118.746 32.4205C119.087 33.3523 119.606 34.0985 120.303 34.6591C121.007 35.2197 121.894 35.5 122.962 35.5ZM134.879 38V20.5455H138.163V23.3182H138.345C138.663 22.3788 139.224 21.6402 140.027 21.1023C140.838 20.5568 141.754 20.2841 142.777 20.2841C142.989 20.2841 143.239 20.2917 143.527 20.3068C143.822 20.322 144.054 20.3409 144.22 20.3636V23.6136C144.084 23.5758 143.841 23.5341 143.493 23.4886C143.144 23.4356 142.796 23.4091 142.447 23.4091C141.644 23.4091 140.929 23.5795 140.3 23.9205C139.679 24.2538 139.186 24.7197 138.822 25.3182C138.459 25.9091 138.277 26.5833 138.277 27.3409V38H134.879ZM152.084 38.3864C150.978 38.3864 149.978 38.1818 149.084 37.7727C148.19 37.3561 147.482 36.7538 146.959 35.9659C146.444 35.178 146.186 34.2121 146.186 33.0682C146.186 32.0833 146.376 31.2727 146.754 30.6364C147.133 30 147.644 29.4962 148.288 29.125C148.932 28.7538 149.652 28.4735 150.447 28.2841C151.243 28.0947 152.054 27.9508 152.879 27.8523C153.925 27.7311 154.773 27.6326 155.425 27.5568C156.076 27.4735 156.55 27.3409 156.845 27.1591C157.141 26.9773 157.288 26.6818 157.288 26.2727V26.1932C157.288 25.2008 157.008 24.4318 156.447 23.8864C155.894 23.3409 155.069 23.0682 153.97 23.0682C152.826 23.0682 151.925 23.322 151.266 23.8295C150.614 24.3295 150.163 24.8864 149.913 25.5L146.72 24.7727C147.099 23.7121 147.652 22.8561 148.379 22.2045C149.114 21.5455 149.959 21.0682 150.913 20.7727C151.868 20.4697 152.872 20.3182 153.925 20.3182C154.622 20.3182 155.36 20.4015 156.141 20.5682C156.929 20.7273 157.663 21.0227 158.345 21.4545C159.035 21.8864 159.599 22.5038 160.038 23.3068C160.478 24.1023 160.697 25.1364 160.697 26.4091V38H157.379V35.6136H157.243C157.023 36.053 156.694 36.4848 156.254 36.9091C155.815 37.3333 155.251 37.6856 154.561 37.9659C153.872 38.2462 153.046 38.3864 152.084 38.3864ZM152.822 35.6591C153.762 35.6591 154.565 35.4735 155.232 35.1023C155.906 34.7311 156.417 34.2462 156.766 33.6477C157.122 33.0417 157.3 32.3939 157.3 31.7045V29.4545C157.179 29.5758 156.944 29.6894 156.595 29.7955C156.254 29.8939 155.864 29.9811 155.425 30.0568C154.985 30.125 154.557 30.1894 154.141 30.25C153.724 30.303 153.376 30.3485 153.095 30.3864C152.436 30.4697 151.834 30.6098 151.288 30.8068C150.751 31.0038 150.319 31.2879 149.993 31.6591C149.675 32.0227 149.516 32.5076 149.516 33.1136C149.516 33.9545 149.826 34.5909 150.447 35.0227C151.069 35.447 151.86 35.6591 152.822 35.6591Z" fill="#5B5B5B"/>
</svg>
