<svg width="194" height="52" viewBox="0 0 194 52" fill="none" xmlns="http://www.w3.org/2000/svg">
<path d="M19.7157 0.0241513C23.3738 -0.0230713 23.3738 -0.0230713 24.3735 0.231533C24.5373 0.240186 24.7013 0.247012 24.8652 0.252728C25.3959 0.279588 25.8886 0.390171 26.3996 0.532339C26.5465 0.57134 26.6938 0.605104 26.8422 0.637685C29.4194 1.21448 31.9489 2.42422 34.1415 3.8732C34.2636 3.95379 34.3865 4.03306 34.5098 4.11184C34.9794 4.41607 35.4078 4.75537 35.8359 5.1149C35.9573 5.21244 36.0789 5.30994 36.2004 5.4074C36.8891 5.97356 37.5245 6.59297 38.1568 7.22052C38.2249 7.288 38.293 7.35538 38.3612 7.42265C39.0055 8.05879 39.5701 8.74258 40.1046 9.47263C40.1654 9.55555 40.1654 9.55555 40.2274 9.64014C40.5875 10.1341 40.9337 10.6355 41.2618 11.1513C41.2865 11.19 41.3112 11.2287 41.3366 11.2685C42.113 12.4978 42.7561 13.8045 43.2966 15.1529C43.3174 15.2048 43.3382 15.2567 43.3597 15.3102C43.5386 15.7609 43.7007 16.2035 43.8008 16.6787C43.8597 16.9396 43.9339 17.1959 44.0061 17.4533C44.5699 19.4729 44.8297 21.5009 44.8184 23.5971C44.8182 23.6764 44.8181 23.7557 44.8179 23.8375C44.8138 25.1441 44.7392 26.4126 44.5174 27.7005C44.5069 27.7647 44.4964 27.8289 44.4856 27.8951C44.4205 28.2863 44.3393 28.6716 44.2461 29.057C44.2238 29.1506 44.2238 29.1506 44.201 29.2462C43.9702 30.1958 43.6808 31.1244 43.3686 32.0497C43.3441 32.1234 43.3441 32.1234 43.3191 32.1987C43.0905 32.8833 42.8122 33.5225 42.4766 34.1615C42.3916 34.3239 42.3096 34.4878 42.2273 34.6517C41.2831 36.4965 40.0682 38.1134 38.7523 39.7054C38.5544 39.6163 38.4166 39.5212 38.2659 39.3655C38.2071 39.3055 38.2071 39.3055 38.1471 39.2444C38.0858 39.1809 38.0858 39.1809 38.0232 39.1162C37.6432 38.7282 37.6432 38.7282 37.239 38.3659C36.8979 38.0758 36.5087 37.7364 36.3117 37.3292C36.3106 37.1959 36.3106 37.1959 36.4089 37.0592C36.459 37.0092 36.5091 36.9592 36.5607 36.9077C37.5661 35.8416 38.3599 34.5638 39.0236 33.2621C39.0684 33.2621 39.1131 33.2621 39.1593 33.2621C39.1785 33.2027 39.1976 33.1433 39.2174 33.0821C39.2875 32.8768 39.3653 32.6789 39.4499 32.4792C40.4789 30.0218 41.3252 27.4544 41.3458 24.7639C41.3465 24.6921 41.3472 24.6203 41.3478 24.5463C41.3679 21.8439 41.1546 19.2354 40.1088 16.7129C40.0594 16.5807 40.0114 16.448 39.9634 16.3152C39.0332 13.7577 37.5062 11.4307 35.5646 9.5235C35.3955 9.35521 35.2275 9.18653 35.0625 9.01429C34.5864 8.5228 34.0778 8.10103 33.5298 7.69224C33.483 7.65707 33.4362 7.6219 33.388 7.58566C31.8384 6.42616 30.1676 5.4756 28.3679 4.75945C28.2612 4.71665 28.1553 4.67188 28.0495 4.62662C27.335 4.32277 26.5652 4.10338 25.7981 3.98626C25.6622 3.96188 25.6622 3.96188 25.5265 3.89406C25.3658 3.86766 25.2046 3.844 25.0433 3.822C24.9564 3.81002 24.8695 3.79804 24.7799 3.7857C24.713 3.77669 24.646 3.76769 24.577 3.75841C24.577 3.71365 24.577 3.66888 24.577 3.62276C22.5451 3.46901 20.5187 3.4051 18.4855 3.57189C18.438 3.57559 18.3905 3.57929 18.3416 3.58309C17.4231 3.65699 16.5527 3.83639 15.692 4.16536C15.5569 4.19384 15.4212 4.21932 15.285 4.24166C11.804 4.96019 7.59722 7.68182 5.50768 10.5772C5.4087 10.7095 5.30755 10.8371 5.20247 10.9645C4.49097 11.8287 3.89781 12.7545 3.34789 13.7286C3.02117 13.4566 2.71447 13.1716 2.4161 12.8689C2.37494 12.8275 2.33378 12.7861 2.29137 12.7434C2.16154 12.6127 2.03193 12.4819 1.90238 12.3509C1.73045 12.1772 1.5583 12.0037 1.38601 11.8303C1.34666 11.7904 1.30731 11.7505 1.26676 11.7094C1.07167 11.507 1.07167 11.507 0.838379 11.3548C1.00642 10.1113 2.65324 8.61689 3.4732 7.71767C3.56824 7.61281 3.6621 7.50687 3.75457 7.39974C5.36078 5.55367 7.43363 4.03371 9.58252 2.88474C9.71138 2.81534 9.83913 2.74431 9.96661 2.67242C12.9153 1.03907 16.3479 0.0702666 19.7157 0.0241513Z" fill="#A6A6A8"/>
<path d="M6.73891 12.3042C6.97124 12.3438 7.0819 12.4187 7.24647 12.5852C7.31365 12.6524 7.31365 12.6524 7.3822 12.721C7.42975 12.7696 7.47731 12.8182 7.52631 12.8683C7.57561 12.9178 7.6249 12.9674 7.67569 13.0185C7.83303 13.177 7.98966 13.3362 8.14627 13.4954C8.25282 13.6029 8.35941 13.7105 8.46605 13.8179C8.72738 14.0815 8.98812 14.3456 9.24842 14.6102C9.14231 14.8333 9.02639 14.983 8.85419 15.1613C7.95056 16.1543 7.26797 17.3162 6.60326 18.4762C6.55379 18.5624 6.55379 18.5624 6.50331 18.6503C5.67968 20.1026 5.16685 21.6363 4.76618 23.2493C4.6785 23.5971 4.58504 23.9433 4.49144 24.2896C4.3342 24.8884 4.27693 25.4684 4.25253 26.0854C4.24326 26.3156 4.23106 26.537 4.19469 26.7649C4.14317 27.1651 4.14557 27.5643 4.14462 27.9674C4.14445 28.0354 4.14445 28.0354 4.14428 28.1047C4.14417 28.8413 4.18478 29.5701 4.25483 30.3031C4.25912 30.3488 4.2634 30.3944 4.26781 30.4414C4.31113 30.8935 4.36344 31.3356 4.47102 31.7772C4.5145 31.9652 4.53422 32.1547 4.55581 32.3464C4.62116 32.8267 4.7497 33.2727 4.89254 33.7341C4.96382 33.9649 5.02286 34.1966 5.07721 34.432C5.66938 36.8264 7.14244 39.0689 8.638 40.994C8.68783 41.0584 8.73767 41.1229 8.78901 41.1893C9.0961 41.5751 9.42567 41.9387 9.76134 42.2996C9.80294 42.3445 9.84454 42.3894 9.8874 42.4357C10.141 42.7051 10.4051 42.954 10.6859 43.1949C10.8346 43.3225 10.9781 43.4553 11.1221 43.5883C12.2172 44.5732 13.5077 45.5876 14.8779 46.1487C14.8779 46.1934 14.8779 46.2382 14.8779 46.2843C14.9308 46.3006 14.9836 46.3168 15.0381 46.3336C15.358 46.4456 15.6654 46.5811 15.9758 46.7167C16.4046 46.9022 16.8316 47.0853 17.2737 47.2373C17.4108 47.2859 17.5464 47.3388 17.6812 47.3936C18.5091 47.7285 19.3662 47.9209 20.236 48.1156C20.3143 48.1337 20.3143 48.1337 20.3942 48.1522C24.4932 49.0933 28.9366 48.5216 32.7496 46.7975C33.0057 46.6829 33.2647 46.5792 33.5259 46.4772C33.6541 46.4245 33.7787 46.3633 33.9026 46.3013C34.0722 46.2165 34.0722 46.2165 34.2079 46.2165C34.2079 46.1717 34.2079 46.127 34.2079 46.0808C34.2826 46.0413 34.3574 46.0018 34.4344 45.9611C35.4469 45.4173 36.3778 44.7834 37.26 44.0461C37.3571 43.9665 37.3571 43.9665 37.4563 43.8853C37.9006 43.5184 38.3272 43.1342 38.7479 42.7405C38.796 42.6956 38.8441 42.6508 38.8937 42.6046C39.1833 42.3311 39.4491 42.0479 39.7016 41.7401C39.7502 41.6819 39.7987 41.6238 39.8487 41.5639C40.0039 41.3745 40.1582 41.1844 40.3121 40.994C40.3416 40.9577 40.3711 40.9214 40.4015 40.8839C41.0204 40.1201 41.5873 39.326 42.0583 38.4614C42.0864 38.4243 42.1144 38.3871 42.1433 38.3488C42.3898 38.3488 42.4123 38.3881 42.5827 38.5551C42.6522 38.6228 42.6522 38.6228 42.7232 38.6917C42.7728 38.7411 42.8224 38.7905 42.8735 38.8414C42.9246 38.8917 42.9756 38.9421 43.0282 38.994C43.1361 39.1009 43.2438 39.208 43.3511 39.3155C43.516 39.4799 43.6824 39.6426 43.849 39.8053C43.9535 39.9092 44.0579 40.0132 44.1622 40.1173C44.2123 40.166 44.2625 40.2147 44.3142 40.2649C44.3824 40.3341 44.3824 40.3341 44.4521 40.4047C44.4926 40.4449 44.5331 40.4851 44.5748 40.5265C44.6528 40.6549 44.6528 40.6549 44.6356 40.8323C44.5864 40.9896 44.5329 41.099 44.439 41.2335C44.4091 41.2768 44.3791 41.3202 44.3483 41.3649C44.2997 41.4331 44.2997 41.4331 44.2501 41.5027C44.2167 41.5504 44.1833 41.5981 44.1488 41.6473C43.0995 43.1337 41.9279 44.6265 40.5378 45.8103C40.41 45.9194 40.284 46.0299 40.1584 46.1415C38.7702 47.3696 37.2537 48.375 35.6322 49.2686C35.5783 49.2985 35.5244 49.3283 35.4689 49.3591C34.0361 50.1503 34.0361 50.1503 33.5296 50.1503C33.5296 50.1951 33.5296 50.2398 33.5296 50.286C30.527 51.3172 27.6516 51.9874 24.4623 51.9985C24.3981 51.9989 24.3339 51.9993 24.2678 51.9997C23.3972 52.0034 22.5421 51.959 21.6769 51.8628C21.5291 51.8464 21.3812 51.8311 21.2333 51.8161C19.7876 51.6654 18.3613 51.2717 16.9874 50.8076C16.7833 50.7405 16.5767 50.6833 16.37 50.6251C13.5795 49.7873 11.0313 48.0647 8.83962 46.1855C8.70029 46.0663 8.56041 45.9484 8.41916 45.8315C8.2318 45.6745 8.06264 45.5096 7.89193 45.3348C7.85564 45.2992 7.81936 45.2636 7.78198 45.2269C7.5362 44.9855 7.30567 44.7362 7.08148 44.4748C6.94818 44.324 6.80985 44.179 6.67052 44.0338C6.09322 43.4269 5.60034 42.7578 5.11112 42.0792C5.07194 42.025 5.03276 41.9707 4.99239 41.9148C3.87189 40.341 2.98178 38.621 2.2664 36.8308C2.20579 36.6808 2.14321 36.5321 2.07862 36.3838C1.62129 35.3106 1.32004 34.153 1.13404 33.0027C1.10528 32.8299 1.07379 32.6576 1.04218 32.4852C1.01795 32.3513 0.993753 32.2174 0.969582 32.0835C0.958549 32.0236 0.947516 31.9636 0.936149 31.9018C0.751552 30.8558 0.677034 29.8212 0.681327 28.7601C0.681383 28.7009 0.681439 28.6417 0.681497 28.5808C0.685285 26.8191 0.760287 24.9614 1.16458 23.2409C1.17628 23.1902 1.18798 23.1395 1.20003 23.0872C1.23696 22.9292 1.27486 22.7713 1.31294 22.6135C1.33062 22.5386 1.33062 22.5386 1.34864 22.4621C2.19234 18.9158 3.95153 15.6115 6.2959 12.8342C6.44442 12.6583 6.59163 12.4812 6.73891 12.3042Z" fill="#1E2C39"/>
<path d="M16.3698 12.3721C16.4925 12.4704 16.4925 12.4704 16.6185 12.5977C16.666 12.6453 16.7135 12.6928 16.7624 12.7417C16.813 12.7933 16.8635 12.8449 16.9155 12.898C16.994 12.9769 16.994 12.9769 17.074 13.0574C17.2411 13.2256 17.4074 13.3944 17.5737 13.5633C17.6867 13.6774 17.7999 13.7914 17.913 13.9055C18.1904 14.1851 18.4673 14.4653 18.7436 14.746C18.6758 14.9495 18.6758 14.9495 18.569 15.012C18.5217 15.0305 18.4744 15.049 18.4257 15.0681C16.8691 15.7223 15.5452 16.6988 14.335 17.8659C14.2778 17.9209 14.2778 17.9209 14.2194 17.9771C13.2925 18.8724 12.5335 19.8665 11.8933 20.9858C11.8469 21.0639 11.8469 21.0639 11.7996 21.1435C10.9429 22.6345 10.4064 24.3137 10.1299 26.0049C10.118 26.0743 10.118 26.0743 10.1058 26.1451C9.9456 27.1082 9.97574 28.0841 9.99426 29.057C9.99485 29.1067 9.99544 29.1565 9.99605 29.2077C10.0139 30.3485 10.3077 31.5728 10.6725 32.6517C10.6891 32.7012 10.7058 32.7507 10.7229 32.8017C11.3612 34.6671 12.3392 36.5222 13.7246 37.942C13.7985 38.0292 13.872 38.1168 13.945 38.2048C15.4772 39.9504 17.9794 41.6715 20.3036 42.0793C20.3036 42.124 20.3036 42.1688 20.3036 42.2149C20.3701 42.2216 20.4367 42.2282 20.5052 42.2351C21.0801 42.2972 21.6204 42.3982 22.1754 42.5607C22.6386 42.6835 23.0881 42.7005 23.5639 42.7011C23.6289 42.7013 23.6939 42.7015 23.7609 42.7018C23.898 42.7021 24.0352 42.7023 24.1723 42.7023C24.3795 42.7024 24.5866 42.7036 24.7938 42.7049C25.48 42.707 26.1398 42.6933 26.8148 42.5541C26.8721 42.5438 26.9295 42.5335 26.9886 42.5229C27.4452 42.4388 27.8901 42.3156 28.3366 42.1895C28.4081 42.1697 28.4797 42.15 28.5534 42.1296C30.312 41.6361 31.9398 40.7945 33.3692 39.6596C33.5517 39.5155 33.7268 39.3982 33.9363 39.2985C34.2672 39.6207 34.5967 39.9443 34.9253 40.2688C35.0373 40.3791 35.1496 40.4891 35.2622 40.5988C35.4238 40.7563 35.5843 40.9148 35.7445 41.0736C35.7953 41.1226 35.8461 41.1717 35.8985 41.2222C35.9446 41.2683 35.9908 41.3145 36.0384 41.362C36.0795 41.4024 36.1206 41.4428 36.163 41.4843C36.2424 41.6045 36.2424 41.6045 36.231 41.7458C36.1412 41.9526 35.9725 42.0653 35.7973 42.198C35.7561 42.2296 35.7149 42.2612 35.6725 42.2938C33.1747 44.1765 30.3151 45.5771 27.1963 46.0216C27.1151 46.0332 27.034 46.0449 26.9504 46.0569C25.3945 46.2756 23.829 46.2896 22.2705 46.0809C22.218 46.074 22.1654 46.0671 22.1113 46.06C17.1884 45.3943 12.956 42.7426 9.95187 38.8279C9.11254 37.6954 9.11254 37.6954 9.11254 37.3994C9.06778 37.3994 9.02301 37.3994 8.97689 37.3994C8.84124 37.1959 8.84124 37.1959 8.84124 36.9246C8.79648 36.9246 8.75171 36.9246 8.70559 36.9246C8.67976 36.8644 8.67976 36.8644 8.6534 36.803C8.63006 36.7494 8.60671 36.6958 8.58266 36.6406C8.55984 36.5879 8.53702 36.5352 8.51351 36.4808C8.4364 36.3111 8.4364 36.3111 8.33282 36.1481C8.226 35.9669 8.15198 35.7904 8.07822 35.5936C8.0491 35.5159 8.01999 35.4383 7.98999 35.3583C7.96643 35.2947 7.96643 35.2947 7.9424 35.2298C7.88839 35.0845 7.8335 34.9395 7.77857 34.7945C6.15371 30.4821 5.99689 25.6637 7.85312 21.3718C8.03513 20.9731 8.22837 20.5805 8.42669 20.1897C8.49005 20.0608 8.54685 19.9288 8.602 19.7963C8.73912 19.4855 8.90786 19.1994 9.08287 18.9087C9.1368 18.819 9.1368 18.819 9.19182 18.7275C9.49572 18.2299 9.82914 17.7748 10.1977 17.3233C10.2653 17.2364 10.2653 17.2364 10.3342 17.1477C11.2303 15.997 12.2844 14.8887 13.4622 14.0252C13.6004 13.9237 13.7372 13.8203 13.874 13.717C14.4034 13.3215 14.9446 12.9544 15.5135 12.618C15.5679 12.5852 15.6224 12.5525 15.6785 12.5188C15.755 12.4748 15.755 12.4748 15.833 12.4299C15.8778 12.4039 15.9226 12.3779 15.9688 12.3511C16.1356 12.2909 16.2036 12.313 16.3698 12.3721Z" fill="#A6A6A8"/>
<path d="M20.9534 5.84315C21.1602 5.84388 21.367 5.84315 21.5738 5.84229C22.6607 5.84141 23.7 5.92845 24.7631 6.16605C24.8395 6.18305 24.9159 6.20005 24.9946 6.21756C25.9191 6.43391 26.8073 6.75123 27.6965 7.08168C27.7735 7.10976 27.8504 7.13783 27.9297 7.16676C28.3624 7.3278 28.7635 7.50498 29.159 7.74297C29.5281 7.96512 29.5281 7.96512 29.9347 8.09905C29.9347 8.14381 29.9347 8.18858 29.9347 8.2347C30.0252 8.26224 30.0252 8.26224 30.1175 8.29033C31.258 8.69743 32.3 9.74367 33.1903 10.5407C33.2476 10.5916 33.2476 10.5916 33.306 10.6434C33.6781 10.9743 34.0403 11.3069 34.36 11.6898C34.447 11.7918 34.5374 11.8909 34.6297 11.9881C36.7894 14.2642 38.1258 17.4114 38.7519 20.4431C38.7692 20.5229 38.7864 20.6028 38.8041 20.685C39.0163 21.8311 38.9621 23.0447 38.9673 24.207C38.9678 24.3213 38.9686 24.4357 38.9696 24.55C39.0028 28.9412 36.8757 33.2738 33.8362 36.3703C33.2269 36.9863 32.6096 37.5752 31.9017 38.0775C31.8152 38.1407 31.8152 38.1407 31.7271 38.2052C30.9583 38.7573 30.1502 39.2447 29.3243 39.7053C28.9806 39.4176 28.6588 39.1168 28.3432 38.7987C28.2743 38.7295 28.2743 38.7295 28.2039 38.659C28.0586 38.5134 27.9136 38.3675 27.7686 38.2216C27.6695 38.1222 27.5703 38.0227 27.4712 37.9233C27.2296 37.681 26.9882 37.4384 26.747 37.1958C26.8579 36.9739 27.1007 36.9232 27.3193 36.827C28.3186 36.3707 29.2186 35.7837 30.0704 35.0932C30.1304 35.0471 30.1903 35.0009 30.2521 34.9533C31.1687 34.2353 31.9597 33.3844 32.6477 32.4481C32.706 32.3707 32.7643 32.2933 32.8226 32.216C33.5038 31.3001 34.0139 30.2998 34.479 29.2603C34.5295 29.1478 34.5295 29.1478 34.581 29.033C34.7454 28.653 34.8756 28.2765 34.9757 27.8747C35.0216 27.7003 35.0216 27.7003 35.0883 27.5202C35.183 27.2085 35.2211 26.8952 35.2632 26.5728C35.2801 26.4461 35.2972 26.3195 35.3143 26.1928C35.3253 26.1094 35.3253 26.1094 35.3365 26.0242C35.3607 25.8691 35.3607 25.8691 35.3952 25.7367C35.56 25.0499 35.511 24.2863 35.5126 23.5828C35.5133 23.4116 35.5154 23.2406 35.5175 23.0695C35.5217 22.4151 35.4701 21.8036 35.3368 21.1628C35.2966 20.9387 35.2845 20.7378 35.2929 20.5109C35.2481 20.5109 35.2034 20.5109 35.1572 20.5109C35.1508 20.4538 35.1508 20.4538 35.1442 20.3954C34.8069 18.0804 33.3887 15.8171 31.8572 14.1023C31.7748 14.0097 31.6939 13.9158 31.6131 13.8217C31.3247 13.4876 31.0219 13.1944 30.6808 12.9146C30.6456 12.8853 30.6103 12.856 30.574 12.8258C29.7373 12.132 28.8699 11.5115 27.9 11.0155C27.9 10.9707 27.9 10.926 27.9 10.8799C27.8335 10.8708 27.8335 10.8708 27.7657 10.8616C27.4922 10.7954 27.2518 10.6799 26.9971 10.5619C25.96 10.0942 24.9472 9.7517 23.8305 9.52336C23.7781 9.51206 23.7257 9.50076 23.6718 9.48912C21.9727 9.13464 19.9634 9.16017 18.2689 9.52336C18.1841 9.54028 18.1841 9.54028 18.0976 9.55754C15.8778 10.0051 13.8471 10.9688 12.0668 12.3577C11.9424 12.4545 11.8165 12.5493 11.6899 12.6433C11.477 12.5492 11.3357 12.4401 11.1738 12.2737C11.1282 12.2273 11.0826 12.1809 11.0355 12.1332C10.965 12.0604 10.965 12.0604 10.893 11.9862C10.5385 11.6227 10.176 11.2785 9.79084 10.9477C9.68643 10.8544 9.58294 10.76 9.48139 10.6637C9.43514 10.6207 9.38889 10.5778 9.34124 10.5336C9.24825 10.4051 9.24825 10.4051 9.26456 10.2724C9.35234 10.0362 9.56273 9.90978 9.75693 9.76075C9.80227 9.72535 9.84762 9.68995 9.89433 9.65348C11.9792 8.04118 11.9792 8.04118 13.1537 7.61818C13.3485 7.54485 13.5328 7.45586 13.7204 7.3657C14.8787 6.82617 16.0902 6.47788 17.3321 6.19148C17.4049 6.17425 17.4777 6.15702 17.5528 6.13927C18.679 5.88656 19.8028 5.83834 20.9534 5.84315Z" fill="#1E2C39"/>
<path d="M5.38225 5.79297C5.42702 5.81535 5.47178 5.83773 5.5179 5.86079C4.77929 6.5994 4.04068 7.33801 3.27969 8.099C3.23493 8.07662 3.19016 8.05424 3.14404 8.03118C3.19453 7.98187 3.19453 7.98187 3.24604 7.93156C3.29212 7.8861 3.3382 7.84064 3.38567 7.79379C3.45295 7.7277 3.45295 7.7277 3.52158 7.66026C3.65514 7.52134 3.78016 7.38034 3.90521 7.23398C4.17242 6.92631 4.46445 6.6502 4.76335 6.37372C4.81564 6.32497 4.86792 6.27623 4.92179 6.22601C5.01722 6.13705 5.11275 6.0482 5.20842 5.9595C5.26715 5.90482 5.32551 5.84971 5.38225 5.79297Z" fill="#FE8129"/>
<path d="M7.68859 8.30273C7.73336 8.32512 7.77812 8.3475 7.82424 8.37056C7.54704 8.65111 7.2694 8.93121 6.99134 9.21091C6.89674 9.30619 6.80227 9.40159 6.70792 9.49712C6.57254 9.63413 6.43674 9.77071 6.30084 9.90721C6.25851 9.95023 6.21619 9.99326 6.17258 10.0376C6.07004 10.1402 5.96399 10.2392 5.85733 10.3375C5.81256 10.3375 5.7678 10.3375 5.72168 10.3375C5.81328 10.1331 5.91539 9.99133 6.07405 9.83382C6.11678 9.79118 6.1595 9.74854 6.20352 9.70461C6.24875 9.66026 6.29398 9.6159 6.34058 9.57021C6.40954 9.5019 6.40954 9.5019 6.47989 9.43222C6.75022 9.16604 7.02439 8.907 7.31423 8.66199C7.44633 8.54925 7.56837 8.42796 7.68859 8.30273Z" fill="#FEE6D5"/>
<path d="M9.79113 9.72705C9.8359 9.74943 9.88066 9.77181 9.92678 9.79488C9.8933 9.826 9.85981 9.85713 9.82531 9.88919C9.78186 9.93081 9.7384 9.97243 9.69363 10.0153C9.65036 10.0562 9.60708 10.0971 9.56249 10.1393C9.44623 10.2765 9.41175 10.3655 9.38418 10.5409C9.33942 10.4962 9.29466 10.4514 9.24854 10.4053C9.26277 10.2257 9.30195 10.1491 9.42684 10.0185C9.47012 9.98386 9.5134 9.94924 9.55798 9.91357C9.60144 9.87825 9.64489 9.84292 9.68966 9.80653C9.72315 9.7803 9.75663 9.75407 9.79113 9.72705Z" fill="#47515C"/>
<path d="M86.1593 14.7273V38H82.932L71.1025 20.9318H70.8865V38H67.3752V14.7273H70.6252L82.4661 31.8182H82.682V14.7273H86.1593ZM91.0087 38V20.5455H94.4064V38H91.0087ZM92.7246 17.8523C92.1337 17.8523 91.6261 17.6553 91.2019 17.2614C90.7852 16.8598 90.5769 16.3826 90.5769 15.8295C90.5769 15.2689 90.7852 14.7917 91.2019 14.3977C91.6261 13.9962 92.1337 13.7955 92.7246 13.7955C93.3155 13.7955 93.8193 13.9962 94.236 14.3977C94.6602 14.7917 94.8723 15.2689 94.8723 15.8295C94.8723 16.3826 94.6602 16.8598 94.236 17.2614C93.8193 17.6553 93.3155 17.8523 92.7246 17.8523ZM98.9775 38V20.5455H102.239V23.3864H102.455C102.818 22.4242 103.413 21.6742 104.239 21.1364C105.065 20.5909 106.053 20.3182 107.205 20.3182C108.371 20.3182 109.349 20.5909 110.137 21.1364C110.932 21.6818 111.519 22.4318 111.898 23.3864H112.08C112.496 22.4545 113.159 21.7121 114.068 21.1591C114.977 20.5985 116.061 20.3182 117.318 20.3182C118.902 20.3182 120.193 20.8144 121.193 21.8068C122.201 22.7992 122.705 24.2955 122.705 26.2955V38H119.307V26.6136C119.307 25.4318 118.985 24.5758 118.341 24.0455C117.697 23.5152 116.928 23.25 116.034 23.25C114.928 23.25 114.068 23.5909 113.455 24.2727C112.841 24.947 112.534 25.8144 112.534 26.875V38H109.148V26.3977C109.148 25.4508 108.852 24.6894 108.262 24.1136C107.671 23.5379 106.902 23.25 105.955 23.25C105.311 23.25 104.716 23.4205 104.171 23.7614C103.633 24.0947 103.197 24.5606 102.864 25.1591C102.538 25.7576 102.375 26.4508 102.375 27.2386V38H98.9775ZM127.531 38V14.7273H130.929V23.375H131.134C131.331 23.0114 131.615 22.5909 131.986 22.1136C132.357 21.6364 132.872 21.2197 133.531 20.8636C134.191 20.5 135.062 20.3182 136.145 20.3182C137.554 20.3182 138.812 20.6742 139.918 21.3864C141.024 22.0985 141.891 23.125 142.52 24.4659C143.156 25.8068 143.475 27.4205 143.475 29.3068C143.475 31.1932 143.16 32.8106 142.531 34.1591C141.903 35.5 141.039 36.5341 139.941 37.2614C138.842 37.9811 137.588 38.3409 136.179 38.3409C135.119 38.3409 134.251 38.1629 133.577 37.8068C132.91 37.4508 132.387 37.0341 132.009 36.5568C131.63 36.0795 131.338 35.6553 131.134 35.2841H130.85V38H127.531ZM130.861 29.2727C130.861 30.5 131.039 31.5758 131.395 32.5C131.751 33.4242 132.266 34.1477 132.941 34.6705C133.615 35.1856 134.441 35.4432 135.418 35.4432C136.433 35.4432 137.281 35.1742 137.963 34.6364C138.645 34.0909 139.16 33.3523 139.509 32.4205C139.865 31.4886 140.043 30.4394 140.043 29.2727C140.043 28.1212 139.869 27.0871 139.52 26.1705C139.179 25.2538 138.664 24.5303 137.975 24C137.293 23.4697 136.441 23.2045 135.418 23.2045C134.433 23.2045 133.6 23.4583 132.918 23.9659C132.244 24.4735 131.732 25.1818 131.384 26.0909C131.035 27 130.861 28.0606 130.861 29.2727ZM150.688 14.7273V38H147.29V14.7273H150.688ZM162.781 38.3523C161.062 38.3523 159.581 37.9848 158.338 37.25C157.103 36.5076 156.149 35.4659 155.475 34.125C154.808 32.7765 154.475 31.197 154.475 29.3864C154.475 27.5985 154.808 26.0227 155.475 24.6591C156.149 23.2955 157.088 22.2311 158.293 21.4659C159.505 20.7008 160.922 20.3182 162.543 20.3182C163.528 20.3182 164.482 20.4811 165.406 20.8068C166.331 21.1326 167.16 21.6439 167.895 22.3409C168.63 23.0379 169.209 23.9432 169.634 25.0568C170.058 26.1629 170.27 27.5076 170.27 29.0909V30.2955H156.395V27.75H166.941C166.941 26.8561 166.759 26.0644 166.395 25.375C166.031 24.678 165.52 24.1288 164.861 23.7273C164.209 23.3258 163.444 23.125 162.566 23.125C161.611 23.125 160.778 23.3598 160.066 23.8295C159.361 24.2917 158.816 24.8977 158.429 25.6477C158.05 26.3902 157.861 27.197 157.861 28.0682V30.0568C157.861 31.2235 158.066 32.2159 158.475 33.0341C158.891 33.8523 159.471 34.4773 160.213 34.9091C160.956 35.3333 161.823 35.5455 162.816 35.5455C163.459 35.5455 164.047 35.4545 164.577 35.2727C165.107 35.0833 165.566 34.803 165.952 34.4318C166.338 34.0606 166.634 33.6023 166.838 33.0568L170.054 33.6364C169.797 34.5833 169.334 35.4129 168.668 36.125C168.009 36.8295 167.179 37.3788 166.179 37.7727C165.187 38.1591 164.054 38.3523 162.781 38.3523ZM176.756 14.7273L182.324 23.8295H182.506L188.074 14.7273H192.142L184.892 26.3636L192.188 38H188.097L182.506 29.0227H182.324L176.733 38H172.642L180.063 26.3636L172.688 14.7273H176.756Z" fill="#5B5B5B"/>
</svg>
