<svg width="116" height="32" viewBox="0 0 116 32" fill="none" xmlns="http://www.w3.org/2000/svg">
<g clip-path="url(#clip0_97_31)">
<path d="M16.1875 -6.6068e-06C16.3348 0.0654383 16.3348 0.0654383 16.489 0.158441C16.5473 0.193079 16.6055 0.227718 16.6656 0.263406C16.7596 0.320575 16.7596 0.320575 16.8554 0.3789C16.9912 0.459843 17.127 0.540733 17.2629 0.621575C17.333 0.663571 17.4032 0.705566 17.4755 0.748834C17.8124 0.949314 18.1522 1.14453 18.4921 1.33984C18.6287 1.41852 18.7653 1.49721 18.9018 1.57592C19.0035 1.63452 19.0035 1.63452 19.1073 1.6943C19.4466 1.88979 19.7858 2.08553 20.125 2.28124C20.2604 2.35937 20.3958 2.43749 20.5312 2.51562C21.75 3.21874 21.75 3.21874 22.9687 3.92187C23.0358 3.96059 23.103 3.99931 23.1721 4.03921C23.3066 4.11681 23.4411 4.19443 23.5756 4.27206C23.8906 4.45385 24.2057 4.63553 24.521 4.81678C24.6323 4.88079 24.7436 4.94484 24.8549 5.0089C24.9944 5.08914 25.1339 5.1693 25.2734 5.24938C25.3367 5.28584 25.4 5.3223 25.4653 5.35986C25.525 5.39412 25.5847 5.42838 25.6463 5.46368C25.7981 5.55395 25.9432 5.65036 26.0893 5.74951C26.2429 5.84602 26.2931 5.87502 26.4787 5.87475C26.6478 5.80277 26.8049 5.7196 26.9648 5.6289C27.6316 5.28977 28.3436 5.23138 29.0625 5.43749C29.8822 5.75156 30.4366 6.2037 30.8029 7.01049C31.0662 7.6575 31.1078 8.37712 30.8733 9.04369C30.5702 9.76061 30.1465 10.2818 29.4375 10.625C29.3544 10.6471 29.2711 10.6681 29.1875 10.6875C29.1889 10.7804 29.1889 10.7804 29.1904 10.8751C29.214 12.3826 29.2315 13.8901 29.2425 15.3978C29.248 16.1269 29.2554 16.8559 29.2676 17.585C29.2782 18.2205 29.2851 18.856 29.2874 19.4917C29.2888 19.8282 29.2921 20.1645 29.2998 20.5009C29.307 20.8179 29.3092 21.1346 29.3076 21.4517C29.3079 21.5677 29.31 21.6838 29.3141 21.7998C29.338 22.5143 29.338 22.5143 29.1875 22.8125C28.9278 23.0806 28.5933 23.2326 28.2551 23.3792C28.0685 23.4628 27.8979 23.5652 27.7229 23.6706C27.5978 23.7427 27.4727 23.8147 27.3476 23.8867C27.2071 23.9677 27.0665 24.0487 26.926 24.1296C26.8554 24.1703 26.7849 24.2109 26.7122 24.2528C26.3705 24.4496 26.029 24.6467 25.6875 24.8437C25.552 24.9219 25.4166 25 25.2812 25.0781C25.2142 25.1168 25.1472 25.1555 25.0781 25.1953C22.8437 26.4844 22.8437 26.4844 22.6405 26.6016C22.5054 26.6795 22.3704 26.7575 22.2353 26.8354C21.8913 27.0338 21.5473 27.2323 21.2033 27.4307C21.1339 27.4707 21.0645 27.5107 20.993 27.552C20.856 27.631 20.7189 27.71 20.5819 27.7889C20.2668 27.9705 19.9521 28.1527 19.6384 28.3367C19.583 28.369 19.5277 28.4014 19.4706 28.4347C19.3679 28.4949 19.2654 28.5552 19.1629 28.6158C18.8264 28.8125 18.8264 28.8125 18.6875 28.8125C18.6904 28.876 18.6933 28.9395 18.6963 29.0049C18.725 29.8976 18.5451 30.5645 17.9375 31.25C17.2752 31.8777 16.5551 32.0311 15.6782 32.0171C14.8749 31.9857 14.3376 31.6108 13.7968 31.0469C13.4852 30.6835 13.2431 30.2308 13.1875 29.75C13.1998 29.6786 13.2121 29.6072 13.2248 29.5337C13.26 29.2371 13.274 29.0153 13.125 28.75C12.7245 28.3881 12.2083 28.1677 11.7283 27.9287C11.3722 27.7499 11.0308 27.5455 10.6875 27.3437C10.5521 27.2655 10.4167 27.1874 10.2812 27.1094C9.46871 26.6406 8.65621 26.1719 7.84371 25.7031C7.77667 25.6644 7.70963 25.6258 7.64056 25.5859C7.50524 25.5078 7.36992 25.4298 7.23461 25.3517C6.89458 25.1555 6.55449 24.9594 6.21432 24.7634C5.53786 24.3737 4.86195 23.983 4.18746 23.5898C4.12743 23.5549 4.0674 23.5199 4.00555 23.4839C3.94827 23.4504 3.891 23.417 3.83199 23.3826C3.78277 23.3538 3.73354 23.3251 3.68282 23.2955C3.62248 23.2599 3.56213 23.2242 3.49996 23.1875C3.44984 23.1703 3.39972 23.1531 3.34808 23.1353C3.14598 23.0505 3.02398 22.9748 2.87496 22.8125C2.77767 22.4315 2.79224 22.0537 2.79827 21.6626C2.79783 21.5437 2.79712 21.4248 2.79615 21.3059C2.7943 20.9835 2.79629 20.6611 2.79897 20.3387C2.80112 20.0016 2.79974 19.6646 2.79873 19.3275C2.79736 18.6893 2.79917 18.0512 2.80211 17.4131C2.80531 16.6865 2.80497 15.9599 2.80434 15.2334C2.80311 13.7389 2.80632 12.2445 2.81246 10.75C2.74271 10.7129 2.74271 10.7129 2.67155 10.6751C2.61017 10.6421 2.54879 10.6092 2.48556 10.5752C2.39453 10.5265 2.39453 10.5265 2.30167 10.4769C1.66735 10.1112 1.314 9.55019 1.06246 8.87499C0.884511 8.13938 0.982206 7.38195 1.33468 6.71459C1.66614 6.18941 2.06443 5.82765 2.62496 5.56249C2.66549 5.54316 2.70601 5.52382 2.74776 5.5039C3.34653 5.24921 4.00462 5.2732 4.62496 5.43749C4.92568 5.56332 5.21976 5.70692 5.48978 5.8906C5.62816 5.95473 5.62816 5.95473 5.77673 5.8805C5.83315 5.84654 5.88958 5.81257 5.94772 5.77758C6.01185 5.73972 6.07598 5.70185 6.14205 5.66284C6.21118 5.6207 6.2803 5.57856 6.35152 5.53515C6.42438 5.49175 6.4973 5.44846 6.57027 5.40527C6.722 5.31536 6.87343 5.225 7.02468 5.1343C7.36807 4.92891 7.71544 4.73042 8.06246 4.53124C8.1979 4.45315 8.33331 4.37503 8.46871 4.29687C9.28121 3.82812 9.28121 3.82812 9.48437 3.71092C9.61969 3.63285 9.755 3.55477 9.89031 3.47669C10.2303 3.28049 10.5704 3.08437 10.9106 2.88842C11.6247 2.47695 12.3377 2.06369 13.0491 1.64745C13.3952 1.44534 13.7422 1.24495 14.0903 1.04638C14.1297 1.02393 14.169 1.00148 14.2096 0.978352C14.4013 0.869047 14.5931 0.75992 14.7851 0.65101C14.8547 0.611406 14.9243 0.571803 14.9961 0.530999C15.0617 0.493687 15.1274 0.456375 15.195 0.417932C15.3901 0.303603 15.5784 0.181654 15.7636 0.0520106C15.9163 -0.0193018 16.0204 -0.0184856 16.1875 -6.6068e-06ZM15.7229 2.34594C15.6638 2.38058 15.6047 2.41522 15.5438 2.45091C15.4467 2.50808 15.4467 2.50808 15.3476 2.5664C15.2095 2.64733 15.0714 2.72822 14.9333 2.80908C14.8976 2.83002 14.8618 2.85096 14.825 2.87253C14.4494 3.09243 14.0724 3.31005 13.6953 3.52734C13.6279 3.56618 13.5605 3.60501 13.4911 3.64503C13.3541 3.72396 13.2171 3.80289 13.0801 3.8818C12.7408 4.07729 12.4016 4.27303 12.0625 4.46874C11.927 4.54687 11.7916 4.62499 11.6562 4.70312C11.5892 4.74179 11.5221 4.78046 11.4531 4.82031C10.8437 5.17187 10.8437 5.17187 10.6406 5.28907C10.5052 5.36714 10.3699 5.44521 10.2346 5.52329C9.82613 5.75899 9.41759 5.99458 9.00884 6.22982C8.87377 6.30776 8.73886 6.38599 8.60412 6.4645C8.26051 6.66446 7.91521 6.85903 7.56441 7.04614C7.49457 7.08432 7.42473 7.1225 7.35278 7.16184C7.21966 7.23452 7.08563 7.30555 6.95061 7.37464C6.78106 7.46852 6.6384 7.5518 6.49996 7.68749C6.44589 7.88461 6.46976 8.05028 6.49996 8.24999C6.41302 9.1194 6.04067 9.76481 5.38888 10.335C5.20767 10.4687 5.00801 10.5758 4.81246 10.6875C4.81246 14.3175 4.81246 17.9475 4.81246 21.6875C5.38996 22.0175 5.96746 22.3475 6.56246 22.6875C7.41449 23.1778 8.26524 23.67 9.11379 24.1663C9.63187 24.4687 10.1526 24.7664 10.6738 25.0634C11.1916 25.3586 11.7079 25.6563 12.2226 25.957C12.2834 25.9924 12.3442 26.0279 12.4069 26.0643C12.701 26.2358 12.9942 26.4087 13.2859 26.5845C13.3406 26.6171 13.3952 26.6497 13.4516 26.6833C13.5538 26.7442 13.6557 26.8058 13.7572 26.8681C13.8022 26.8948 13.8472 26.9215 13.8935 26.949C13.9324 26.9725 13.9713 26.9961 14.0114 27.0204C14.1573 27.0745 14.2303 27.0517 14.375 27C14.4749 26.9512 14.5738 26.9002 14.6718 26.8477C15.3565 26.5033 16.0642 26.4555 16.8046 26.668C17.095 26.7657 17.3322 26.8845 17.57 27.0776C17.6919 27.1391 17.6919 27.1391 17.8474 27.0947C18.155 26.9592 18.4382 26.7894 18.7265 26.6172C18.8614 26.5375 18.9963 26.4579 19.1313 26.3784C19.2018 26.3368 19.2723 26.2952 19.345 26.2524C19.6705 26.0611 19.9988 25.8746 20.3269 25.6879C20.9716 25.3211 21.6139 24.9505 22.2541 24.576C22.9113 24.1918 23.5708 23.8117 24.2304 23.4318C24.5794 23.2307 24.9284 23.0294 25.2773 22.8281C25.3692 22.7751 25.3692 22.7751 25.4629 22.7211C25.5862 22.65 25.7082 22.5765 25.8286 22.5007C26.0015 22.399 26.1658 22.3421 26.3586 22.2882C26.7291 22.1643 27.0236 22.0152 27.25 21.6875C27.4658 20.9575 27.3918 20.1489 27.3704 19.3966C27.3629 19.0901 27.3622 18.7837 27.3608 18.4772C27.3572 17.8976 27.3474 17.3183 27.3355 16.7388C27.3222 16.0787 27.3157 15.4187 27.3097 14.7586C27.2973 13.4014 27.2765 12.0445 27.25 10.6875C27.2035 10.6632 27.157 10.6389 27.1092 10.6138C27.0478 10.5812 26.9865 10.5485 26.9233 10.5149C26.8627 10.4828 26.802 10.4508 26.7396 10.4178C26.2697 10.1384 25.9775 9.73876 25.75 9.24999C25.7307 9.21027 25.7115 9.17056 25.6916 9.12963C25.5197 8.73233 25.4749 8.27351 25.5143 7.84403C25.5163 7.68309 25.5163 7.68309 25.4023 7.58923C25.3566 7.56171 25.3109 7.5342 25.2639 7.50585C25.2122 7.47427 25.1606 7.44269 25.1074 7.41015C25.0513 7.37792 24.9952 7.3457 24.9375 7.31249C24.8818 7.28027 24.8261 7.24804 24.7687 7.21484C24.5849 7.11038 24.4 7.00813 24.2148 6.90624C23.6828 6.61099 23.1538 6.31155 22.6289 6.0039C22.1103 5.70004 21.591 5.39773 21.0703 5.09765C21.0028 5.05874 20.9353 5.01983 20.8657 4.97974C20.7288 4.90088 20.592 4.82203 20.4551 4.74319C20.0486 4.50896 19.6422 4.27443 19.2359 4.0399C18.8889 3.83966 18.5418 3.63963 18.1945 3.43993C16.885 2.68645 16.885 2.68645 16.3185 2.33975C16.03 2.16391 16.012 2.17584 15.7229 2.34594Z" fill="black"/>
<path d="M16.1119 6.98458C16.3032 7.0589 16.4705 7.14325 16.6475 7.24683C16.7112 7.28389 16.7749 7.32095 16.8406 7.35914C16.9087 7.39918 16.9767 7.43922 17.0469 7.48048C17.1192 7.52267 17.1915 7.56482 17.2639 7.60694C17.4141 7.69439 17.5642 7.782 17.7142 7.86973C18.0586 8.07091 18.4044 8.2697 18.75 8.46876C18.8845 8.54639 19.019 8.62402 19.1536 8.70167C19.4332 8.86302 19.713 9.02412 19.9929 9.18507C20.3323 9.38026 20.6713 9.57599 21.0101 9.77228C21.1227 9.83751 21.2355 9.90259 21.3483 9.96748C21.4838 10.0455 21.6189 10.1242 21.7539 10.2031C21.8108 10.2356 21.8108 10.2356 21.8689 10.2688C22.1178 10.416 22.1178 10.416 22.1875 10.625C22.1237 10.66 22.0599 10.6949 21.9941 10.731C21.3751 11.0717 20.7627 11.4227 20.1529 11.7797C19.6889 12.0515 19.2238 12.3213 18.7578 12.5899C18.6914 12.6281 18.6249 12.6664 18.5565 12.7059C18.2362 12.8905 17.9158 13.075 17.5954 13.2594C17.4449 13.346 17.2944 13.4327 17.1439 13.5194C17.0373 13.5808 16.9307 13.6421 16.8241 13.7034C16.7598 13.7404 16.6954 13.7775 16.6292 13.8157C16.544 13.8647 16.544 13.8647 16.4572 13.9146C16.3443 13.9812 16.234 14.0523 16.125 14.125C15.8763 14.1039 15.6925 14.0089 15.4775 13.887C15.4135 13.8509 15.3495 13.8149 15.2836 13.7777C15.2158 13.7389 15.148 13.7001 15.0781 13.6602C15.0077 13.6203 14.9373 13.5804 14.8647 13.5393C14.3974 13.2739 13.933 13.0037 13.4707 12.7295C12.9107 12.3981 12.3452 12.0758 11.7813 11.7511C11.5545 11.6205 11.3279 11.4896 11.1013 11.3586C11.026 11.3152 10.9508 11.2717 10.8755 11.2282C10.7315 11.1451 10.5876 11.0619 10.4437 10.9787C10.3792 10.9414 10.3146 10.9041 10.248 10.8657C10.191 10.8327 10.1339 10.7998 10.0751 10.7658C9.98876 10.7167 9.90133 10.6694 9.8125 10.625C9.90499 10.3805 10.0277 10.3036 10.2542 10.1812C10.3511 10.128 10.3511 10.128 10.4499 10.0738C10.5193 10.0365 10.5887 9.9993 10.6602 9.96094C10.8042 9.88201 10.9483 9.80299 11.0923 9.72388C11.1626 9.68542 11.233 9.64696 11.3055 9.60734C11.5488 9.47307 11.7886 9.3337 12.0273 9.19141C12.6709 8.80937 13.3201 8.43705 13.9687 8.06358C14.1955 7.93295 14.4221 7.80207 14.6487 7.67115C14.724 7.62767 14.7992 7.58418 14.8745 7.5407C15.0185 7.45757 15.1624 7.37441 15.3063 7.29122C15.3708 7.25393 15.4354 7.21665 15.502 7.17823C15.559 7.14525 15.6161 7.11227 15.6749 7.07828C15.9272 6.93473 15.9272 6.93473 16.1119 6.98458Z" fill="black"/>
<path d="M8.87509 12.125C8.99298 12.1833 9.11079 12.2418 9.22857 12.3003C9.327 12.3491 9.327 12.3491 9.42741 12.3989C9.73222 12.5548 10.026 12.7278 10.3204 12.9023C10.4522 12.9799 10.5841 13.0573 10.7159 13.1348C10.7833 13.1744 10.8507 13.214 10.9201 13.2549C11.2557 13.4516 11.5927 13.6457 11.9298 13.8398C11.9965 13.8783 12.0632 13.9168 12.132 13.9564C12.4112 14.1173 12.6905 14.2782 12.9699 14.439C13.1172 14.5238 13.2645 14.6086 13.4117 14.6935C13.5495 14.7728 13.6872 14.8521 13.825 14.9314C14.961 15.5859 14.961 15.5859 15.0626 15.6875C15.0686 15.7808 15.0702 15.8744 15.0701 15.9679C15.0702 16.0587 15.0702 16.0587 15.0704 16.1514C15.07 16.2519 15.07 16.2519 15.0697 16.3544C15.0697 16.4245 15.0697 16.4946 15.0697 16.5668C15.0697 16.7999 15.0692 17.0329 15.0687 17.2659C15.0686 17.4269 15.0685 17.588 15.0684 17.749C15.0682 18.1304 15.0677 18.5118 15.0671 18.8932C15.0664 19.3273 15.066 19.7614 15.0657 20.1955C15.0651 21.0886 15.064 21.9818 15.0626 22.875C14.8419 22.7885 14.6374 22.6931 14.4305 22.5771C14.3688 22.5426 14.307 22.508 14.2434 22.4724C14.1773 22.4351 14.1112 22.3978 14.0431 22.3594C13.9738 22.3204 13.9045 22.2815 13.8331 22.2413C13.2419 21.9079 12.6554 21.5668 12.0699 21.2236C11.6041 20.9507 11.1363 20.6812 10.6684 20.4118C10.5442 20.3402 10.4209 20.2671 10.2985 20.1925C10.126 20.0917 9.95258 20.0179 9.76601 19.9466C8.97438 19.6159 8.97438 19.6159 8.80863 19.2137C8.70506 18.722 8.739 18.2208 8.75912 17.7219C8.76134 17.5604 8.76303 17.3988 8.76421 17.2372C8.76827 16.8568 8.77761 16.4768 8.78957 16.0965C8.8029 15.6632 8.80938 15.2299 8.81533 14.7964C8.8277 13.9057 8.84856 13.0154 8.87509 12.125Z" fill="black"/>
<path d="M23.1249 12.125C23.1249 14.5175 23.1249 16.91 23.1249 19.375C21.9062 20.0781 21.9062 20.0781 20.6874 20.7812C20.5539 20.8583 20.4204 20.9353 20.2829 21.0146C20.0064 21.1742 19.7298 21.3337 19.4533 21.4932C19.3839 21.5332 19.3145 21.5732 19.243 21.6145C19.1059 21.6935 18.9689 21.7725 18.8318 21.8515C18.5168 22.033 18.2021 22.2152 17.8883 22.3992C17.833 22.4315 17.7776 22.4639 17.7206 22.4973C17.6179 22.5574 17.5153 22.6177 17.4129 22.6783C17.0764 22.875 17.0764 22.875 16.9374 22.875C16.9243 21.9444 16.9144 21.0137 16.9083 20.083C16.9054 19.6509 16.9014 19.2188 16.895 18.7866C16.8888 18.3696 16.8855 17.9527 16.884 17.5356C16.883 17.3765 16.881 17.2174 16.8779 17.0582C16.8739 16.8354 16.8733 16.6128 16.8736 16.3899C16.8715 16.324 16.8695 16.2581 16.8674 16.1903C16.873 15.7524 16.873 15.7524 17.0582 15.5659C17.2018 15.4686 17.3444 15.3889 17.4999 15.3125C17.5829 15.2653 17.6657 15.2179 17.7482 15.1699C17.8333 15.1235 17.9185 15.0773 18.0038 15.0312C18.4521 14.7857 18.895 14.532 19.3359 14.2734C19.9686 13.9025 20.6044 13.5373 21.2417 13.1742C21.7373 12.8917 22.2316 12.607 22.7237 12.3186C23.0557 12.125 23.0557 12.125 23.1249 12.125Z" fill="black"/>
</g>
<path d="M53.0078 12.2393C52.9283 11.5334 52.6001 10.9865 52.0234 10.5987C51.4467 10.206 50.7209 10.0096 49.8459 10.0096C49.2195 10.0096 48.6776 10.109 48.2202 10.3079C47.7628 10.5018 47.4073 10.7702 47.1538 11.1133C46.9052 11.4513 46.7809 11.8366 46.7809 12.2692C46.7809 12.6321 46.8654 12.9453 47.0344 13.2088C47.2085 13.4723 47.4347 13.6935 47.7131 13.8725C47.9964 14.0465 48.2997 14.1932 48.6229 14.3125C48.946 14.4268 49.2567 14.5213 49.555 14.5959L51.0465 14.9837C51.5337 15.103 52.0334 15.2646 52.5455 15.4684C53.0575 15.6722 53.5323 15.9407 53.9698 16.2738C54.4073 16.6069 54.7603 17.0195 55.0288 17.5117C55.3022 18.0039 55.4389 18.593 55.4389 19.2791C55.4389 20.1442 55.2152 20.9123 54.7678 21.5835C54.3253 22.2546 53.6815 22.7841 52.8363 23.1719C51.9961 23.5597 50.9794 23.7536 49.7862 23.7536C48.6428 23.7536 47.6534 23.5721 46.8182 23.2092C45.983 22.8462 45.3292 22.3317 44.8569 21.6655C44.3846 20.9943 44.1236 20.1989 44.0739 19.2791H46.3857C46.4304 19.831 46.6094 20.2908 46.9226 20.6587C47.2408 21.0217 47.646 21.2926 48.1381 21.4716C48.6353 21.6456 49.1797 21.7326 49.7713 21.7326C50.4226 21.7326 51.0018 21.6307 51.5089 21.4268C52.021 21.218 52.4237 20.9297 52.717 20.5618C53.0103 20.1889 53.157 19.7539 53.157 19.2567C53.157 18.8043 53.0277 18.4339 52.7692 18.1456C52.5156 17.8572 52.1701 17.6186 51.7326 17.4297C51.3001 17.2408 50.8104 17.0742 50.2635 16.93L48.4588 16.4379C47.2358 16.1048 46.2663 15.6151 45.5504 14.9688C44.8395 14.3224 44.484 13.4673 44.484 12.4034C44.484 11.5234 44.7227 10.7553 45.1999 10.0991C45.6772 9.44283 46.3235 8.93324 47.1388 8.57031C47.9542 8.20241 48.8739 8.01847 49.8981 8.01847C50.9322 8.01847 51.8445 8.19993 52.6349 8.56285C53.4304 8.92578 54.0568 9.42543 54.5142 10.0618C54.9716 10.6932 55.2102 11.419 55.2301 12.2393H53.0078ZM62.9504 23.7312C61.8218 23.7312 60.8499 23.4901 60.0345 23.0078C59.2242 22.5206 58.5977 21.837 58.1553 20.957C57.7178 20.0721 57.499 19.0355 57.499 17.8473C57.499 16.674 57.7178 15.6399 58.1553 14.745C58.5977 13.8501 59.2142 13.1516 60.0047 12.6495C60.8002 12.1474 61.7298 11.8963 62.7938 11.8963C63.4401 11.8963 64.0665 12.0032 64.673 12.217C65.2796 12.4308 65.824 12.7663 66.3062 13.2237C66.7884 13.6811 67.1688 14.2752 67.4472 15.006C67.7256 15.7319 67.8648 16.6143 67.8648 17.6534V18.4439H58.7593V16.7734H65.6798C65.6798 16.1868 65.5605 15.6673 65.3218 15.2148C65.0832 14.7575 64.7476 14.397 64.3151 14.1335C63.8875 13.87 63.3854 13.7383 62.8087 13.7383C62.1823 13.7383 61.6354 13.8924 61.1681 14.2006C60.7057 14.5039 60.3477 14.9016 60.0942 15.3938C59.8456 15.881 59.7213 16.4105 59.7213 16.9822V18.2873C59.7213 19.0529 59.8556 19.7042 60.124 20.2411C60.3975 20.7781 60.7778 21.1882 61.265 21.4716C61.7522 21.75 62.3215 21.8892 62.9727 21.8892C63.3953 21.8892 63.7806 21.8295 64.1286 21.7102C64.4767 21.5859 64.7774 21.402 65.031 21.1584C65.2845 20.9148 65.4784 20.614 65.6127 20.256L67.7231 20.6364C67.5541 21.2578 67.2508 21.8022 66.8133 22.2695C66.3808 22.7319 65.8364 23.0923 65.1801 23.3509C64.5289 23.6044 63.7856 23.7312 62.9504 23.7312ZM72.5685 8.22727V23.5H70.3388V8.22727H72.5685ZM77.798 8.22727V23.5H75.5683V8.22727H77.798ZM80.7978 23.5V12.0455H83.0275V23.5H80.7978ZM81.9238 10.2781C81.536 10.2781 81.2029 10.1488 80.9245 9.89027C80.6511 9.62677 80.5144 9.31356 80.5144 8.95064C80.5144 8.58274 80.6511 8.26953 80.9245 8.01101C81.2029 7.74751 81.536 7.61577 81.9238 7.61577C82.3116 7.61577 82.6422 7.74751 82.9157 8.01101C83.1941 8.26953 83.3333 8.58274 83.3333 8.95064C83.3333 9.31356 83.1941 9.62677 82.9157 9.89027C82.6422 10.1488 82.3116 10.2781 81.9238 10.2781ZM91.4786 12.0455V13.8352H85.0056V12.0455H91.4786ZM86.7805 23.5V10.718C86.7805 10.0021 86.9371 9.40802 87.2503 8.93572C87.5635 8.45845 87.9786 8.10298 88.4956 7.86932C89.0127 7.63068 89.5745 7.51136 90.181 7.51136C90.6285 7.51136 91.0113 7.54865 91.3295 7.62322C91.6476 7.69283 91.8838 7.75746 92.0379 7.81712L91.5159 9.6218C91.4115 9.59197 91.2773 9.55717 91.1132 9.5174C90.9491 9.47266 90.7503 9.45028 90.5166 9.45028C89.9747 9.45028 89.5869 9.58452 89.3532 9.85298C89.1246 10.1214 89.0102 10.5092 89.0102 11.0163V23.5H86.7805ZM95.1887 27.7955C94.8556 27.7955 94.5523 27.7681 94.2789 27.7134C94.0054 27.6637 93.8016 27.609 93.6673 27.5494L94.2043 25.7223C94.6119 25.8317 94.9749 25.8789 95.2931 25.864C95.6112 25.8491 95.8921 25.7298 96.1357 25.506C96.3843 25.2823 96.6031 24.9169 96.792 24.4098L97.0679 23.6491L92.8769 12.0455H95.2632L98.1642 20.9347H98.2835L101.184 12.0455H103.578L98.8577 25.0288C98.6389 25.6254 98.3605 26.13 98.0225 26.5426C97.6844 26.9602 97.2817 27.2734 96.8144 27.4822C96.347 27.6911 95.8051 27.7955 95.1887 27.7955ZM107.434 12.0455L109.962 16.505L112.512 12.0455H114.951L111.379 17.7727L114.981 23.5H112.542L109.962 19.2195L107.389 23.5H104.943L108.508 17.7727L104.988 12.0455H107.434Z" fill="black"/>
<defs>
<clipPath id="clip0_97_31">
<rect width="32" height="32" fill="white"/>
</clipPath>
</defs>
</svg>
