<svg width="218" height="52" viewBox="0 0 218 52" fill="none" xmlns="http://www.w3.org/2000/svg">
<path d="M33.0386 0.0493117C30.7359 2.3569 28.4327 4.66392 26.1286 6.97018C25.8564 7.24271 25.5841 7.51524 25.3119 7.78778C25.2577 7.84203 25.2035 7.89629 25.1476 7.95219C24.2711 8.82967 23.3949 9.70753 22.5188 10.5855C21.6193 11.487 20.7194 12.3881 19.8192 13.2888C19.264 13.8442 18.7092 14.3999 18.1549 14.9561C17.7742 15.3379 17.3932 15.7192 17.0118 16.1003C16.7921 16.3199 16.5725 16.5396 16.3535 16.7599C16.1523 16.962 15.9507 17.1637 15.7487 17.365C15.6762 17.4374 15.6039 17.5099 15.5319 17.5827C14.8882 18.2321 14.1918 18.8376 13.3869 19.2797C13.3449 19.3028 13.303 19.3259 13.2597 19.3496C13.1398 19.4152 13.0192 19.4796 12.8986 19.544C12.8097 19.5935 12.8097 19.5935 12.7189 19.6439C11.4498 20.3215 10.1227 20.5653 8.69682 20.5698C8.60377 20.5702 8.51073 20.5706 8.41486 20.571C6.1151 20.5538 3.95933 19.6991 2.2964 18.1058C2.1585 17.9641 2.1585 17.9641 2.00439 17.8955C2.00439 17.6805 2.00439 17.6805 2.10888 17.5705C2.18065 17.5123 2.18065 17.5123 2.25387 17.453C2.57786 17.1813 2.87546 16.8903 3.17327 16.5903C3.258 16.5054 3.258 16.5054 3.34444 16.4188C3.46614 16.2969 3.58776 16.1748 3.7093 16.0527C3.90201 15.8591 4.09496 15.6657 4.28796 15.4723C4.69763 15.0618 5.10701 14.6511 5.51635 14.2403C5.99097 13.764 6.4657 13.2878 6.94074 12.8119C7.13018 12.622 7.3194 12.4319 7.50861 12.2418C7.62554 12.1246 7.74248 12.0074 7.85943 11.8902C7.91142 11.8379 7.96342 11.7855 8.01699 11.7316C8.90472 10.8438 8.90472 10.8438 9.315 10.6567C9.315 10.6094 9.315 10.5621 9.315 10.5134C9.42454 10.4133 9.53908 10.3187 9.65544 10.2267C9.72797 10.1687 9.8005 10.1108 9.87522 10.0511C9.91321 10.0209 9.95119 9.99064 9.99032 9.95948C10.1666 9.81735 10.3384 9.66996 10.511 9.5234C12.4217 7.92932 14.5854 6.62166 16.7659 5.43325C16.9078 5.3555 17.0488 5.27648 17.1897 5.19707C17.2734 5.15048 17.3572 5.10391 17.4409 5.05736C17.5124 5.01727 17.5839 4.97717 17.6576 4.93586C17.844 4.85131 17.844 4.85131 18.1307 4.85131C18.1307 4.804 18.1307 4.7567 18.1307 4.70796C18.2319 4.65952 18.3336 4.6119 18.4353 4.56462C18.4919 4.53801 18.5484 4.5114 18.6067 4.48399C18.7758 4.42128 18.7758 4.42128 19.0625 4.42128C19.0625 4.37397 19.0625 4.32667 19.0625 4.27793C19.5283 4.06292 19.5283 4.06292 19.8509 4.06292C19.8509 4.01562 19.8509 3.96831 19.8509 3.91958C19.9017 3.90202 19.9525 3.88447 20.0049 3.86638C20.4204 3.7205 20.8333 3.57065 21.2426 3.40808C23.6237 2.46508 26.0707 1.7641 28.5484 1.12547C29.0469 0.996307 29.538 0.851691 30.0284 0.694356C30.3267 0.601776 30.6168 0.535072 30.9243 0.483821C31.1969 0.436608 31.4195 0.36967 31.6704 0.250048C32.0755 0.0948162 32.6202 -0.0901753 33.0386 0.0493117Z" fill="#0E0E0E"/>
<path d="M34.6154 1.55322C34.8448 1.65442 34.9986 1.77518 35.1753 1.95211C35.2287 2.00515 35.282 2.05819 35.337 2.11284C35.3948 2.17107 35.4526 2.2293 35.5122 2.28929C35.6044 2.38126 35.6044 2.38126 35.6984 2.4751C35.8668 2.64323 36.0348 2.81167 36.2027 2.98028C36.3789 3.15711 36.5555 3.33356 36.732 3.51007C37.0287 3.80686 37.3252 4.10394 37.6215 4.40119C37.9629 4.74373 38.3047 5.08589 38.6467 5.42784C39.0119 5.79296 39.3768 6.15835 39.7416 6.52382C39.8461 6.62851 39.9507 6.73315 40.0553 6.83777C40.2514 7.03396 40.4472 7.23045 40.643 7.42697C40.7004 7.48433 40.7577 7.54169 40.8169 7.60078C41.1151 7.90072 41.4024 8.20625 41.6779 8.52721C41.8219 8.69428 41.9727 8.85474 42.1231 9.01603C42.5374 9.47144 42.9145 9.95116 43.2878 10.4405C43.3301 10.4957 43.3723 10.551 43.4159 10.6079C43.9986 11.3708 44.562 12.1404 45.0796 12.949C45.1301 13.0275 45.1301 13.0275 45.1817 13.1076C45.836 14.1262 46.4545 15.1629 47.0461 16.219C47.0905 16.298 47.0905 16.298 47.1359 16.3785C47.307 16.6866 47.4525 16.9957 47.5881 17.321C47.6467 17.441 47.7063 17.5605 47.7673 17.6793C47.8896 17.9176 47.999 18.1587 48.104 18.4051C48.191 18.6082 48.2803 18.8103 48.3692 19.0125C49.0194 20.503 49.5804 22.0148 50.0967 23.5564C50.1332 23.6653 50.1332 23.6653 50.1705 23.7764C50.5983 25.0626 50.9574 26.3752 51.2723 27.6933C51.3402 27.9745 51.4217 28.2331 51.5301 28.5017C51.5747 28.6762 51.6163 28.8501 51.6555 29.0258C51.7763 29.5511 51.902 30.075 52.0318 30.5981C52.0592 30.7087 52.0592 30.7087 52.0872 30.8215C52.205 31.2904 52.3355 31.7503 52.4929 32.2077C52.5335 32.372 52.5335 32.372 52.4619 32.587C50.1737 30.3038 47.8861 28.0201 45.5993 25.7356C45.329 25.4656 45.0588 25.1955 44.7885 24.9255C44.7346 24.8718 44.6808 24.818 44.6254 24.7627C43.7554 23.8936 42.885 23.0249 42.0144 22.1563C41.1204 21.2644 40.2269 20.372 39.3337 19.4793C38.783 18.9289 38.232 18.3788 37.6806 17.8292C37.302 17.4517 36.9237 17.0738 36.5458 16.6956C36.3281 16.4777 36.1102 16.2601 35.8919 16.0429C34.503 14.661 33.3345 13.3289 32.5369 11.5156C32.4801 11.3896 32.4801 11.3896 32.4221 11.2611C32.3273 11.0273 32.2635 10.8075 32.2099 10.5614C32.1935 10.4878 32.1772 10.4142 32.1603 10.3383C32.1338 10.2115 32.1338 10.2115 32.1068 10.0821C32.0944 10.0324 32.0821 9.98275 32.0693 9.93155C31.9399 9.3758 31.9381 8.82193 31.9411 8.25452C31.9412 8.20372 31.9414 8.15293 31.9415 8.10061C31.952 5.68059 32.8192 3.38803 34.5263 1.63917C34.5557 1.61081 34.5851 1.58245 34.6154 1.55322Z" fill="#A6A6A8"/>
<path d="M0.5 19.4004C0.934748 19.7605 1.33326 20.1515 1.73202 20.5507C1.80524 20.6237 1.87848 20.6967 1.95174 20.7697C2.15204 20.9695 2.35212 21.1694 2.55217 21.3694C2.76834 21.5854 2.98471 21.8012 3.20105 22.0171C3.67364 22.4887 4.14596 22.9606 4.61823 23.4325C4.91341 23.7275 5.20864 24.0224 5.50389 24.3174C6.32219 25.1348 7.14043 25.9523 7.95842 26.77C8.01072 26.8223 8.06302 26.8746 8.1169 26.9284C8.19553 27.007 8.19553 27.007 8.27575 27.0872C8.38197 27.1934 8.48818 27.2996 8.5944 27.4058C8.64709 27.4585 8.69977 27.5111 8.75405 27.5654C9.60733 28.4184 10.4611 29.2709 11.315 30.1231C12.1929 30.9993 13.0704 31.8759 13.9475 32.7529C14.4395 33.2448 14.9316 33.7365 15.4242 34.2278C15.8438 34.6463 16.2629 35.0651 16.6816 35.4843C16.895 35.698 17.1085 35.9114 17.3225 36.1244C17.519 36.3199 17.7149 36.516 17.9105 36.7124C18.0137 36.8158 18.1174 36.9186 18.2211 37.0215C18.8624 37.6675 19.441 38.3707 19.8695 39.1773C19.8991 39.2321 19.9287 39.287 19.9592 39.3435C21.1744 41.6282 21.3986 44.1534 20.6823 46.6417C20.2262 48.1117 19.3966 49.2697 18.4181 50.4342C18.2172 50.3428 18.073 50.2493 17.9198 50.0907C17.8813 50.0514 17.8427 50.012 17.8031 49.9715C17.7636 49.9306 17.7241 49.8896 17.6835 49.8474C17.4431 49.5992 17.202 49.3579 16.9391 49.1335C16.5562 48.803 16.2018 48.4436 15.8451 48.0855C15.7262 47.9662 15.6069 47.8473 15.4875 47.7284C15.1307 47.3718 14.7811 47.0127 14.4532 46.6289C14.2119 46.355 13.9509 46.1001 13.6922 45.8427C13.6378 45.788 13.5833 45.7332 13.5272 45.6768C13.2267 45.3769 12.9209 45.0891 12.5964 44.8152C12.4119 44.6486 12.2552 44.4616 12.0947 44.2721C11.9658 44.1251 11.8303 43.9898 11.6899 43.8538C11.3829 43.5504 11.1157 43.2214 10.8461 42.8849C10.7397 42.7536 10.6315 42.6239 10.523 42.4943C8.94332 40.6057 7.5798 38.6079 6.4139 36.4422C6.28153 36.1992 6.14201 35.9616 6.00087 35.7236C4.33534 32.8206 3.19661 29.5681 2.28734 26.357C2.26763 26.2876 2.24793 26.2181 2.22763 26.1466C2.13966 25.8269 2.06458 25.5103 2.00904 25.1834C1.92587 24.7024 1.79295 24.2372 1.6602 23.7679C1.63429 23.6753 1.60841 23.5827 1.58256 23.4901C1.5317 23.308 1.48062 23.126 1.42943 22.944C1.34131 22.6305 1.25432 22.3168 1.16745 22.003C1.08097 21.6909 0.993838 21.3791 0.905398 21.0676C0.748975 20.5145 0.600535 19.967 0.5 19.4004Z" fill="#A6A6A8"/>
<path d="M50.2866 33.4708C50.4481 33.6085 50.6028 33.752 50.7555 33.8993C50.8787 34.0272 50.8787 34.0272 51.0294 34.0939C50.9294 34.3193 50.8126 34.4718 50.6386 34.6457C50.5618 34.723 50.5618 34.723 50.4834 34.8018C50.4272 34.8577 50.3709 34.9135 50.313 34.971C50.2538 35.0303 50.1946 35.0897 50.1336 35.1508C49.9373 35.3473 49.7406 35.5433 49.5438 35.7393C49.4071 35.8758 49.2706 36.0124 49.134 36.149C48.8473 36.4356 48.5603 36.7219 48.2732 37.0081C47.9424 37.3378 47.6119 37.6678 47.2817 37.9981C46.929 38.3508 46.5761 38.7033 46.2231 39.0556C46.122 39.1566 46.021 39.2576 45.9199 39.3586C45.7304 39.5479 45.5406 39.7371 45.3508 39.9261C45.2955 39.9815 45.2401 40.0369 45.1831 40.0939C44.8495 40.4255 44.5054 40.7395 44.1488 41.046C44.0336 41.1503 43.9185 41.2548 43.8039 41.3596C43.4276 41.6986 43.039 42.0197 42.6437 42.3361C42.6067 42.3659 42.5698 42.3956 42.5318 42.4262C39.6267 44.7612 36.2972 46.7796 32.8245 48.1415C32.672 48.2038 32.5197 48.2665 32.3676 48.3297C32.2781 48.3665 32.2781 48.3665 32.1867 48.4041C32.0577 48.4597 31.9293 48.5168 31.8028 48.5778C31.2415 48.845 30.663 49.032 30.0696 49.2121C29.9748 49.2413 29.88 49.2706 29.7853 49.2999C29.5367 49.3766 29.2879 49.4522 29.039 49.5275C28.8825 49.575 28.7262 49.6229 28.5699 49.6709C27.4843 50.0024 26.3898 50.302 25.2955 50.6033C24.8912 50.7147 24.4871 50.8263 24.0829 50.9379C23.9349 50.9788 23.7868 51.0196 23.6388 51.0604C22.9538 51.2495 22.2693 51.4402 21.5852 51.6326C21.4545 51.6693 21.3237 51.7058 21.1928 51.7422C21.0554 51.7808 20.9183 51.8205 20.7814 51.8609C20.711 51.8813 20.6405 51.9017 20.5679 51.9227C20.5044 51.9415 20.4409 51.9603 20.3755 51.9796C20.2101 52.0118 20.2101 52.0118 19.9951 51.9401C22.3238 49.6049 24.6532 47.2705 26.9836 44.9371C27.259 44.6613 27.5344 44.3856 27.8098 44.1098C27.892 44.0274 27.892 44.0274 27.9759 43.9434C28.8625 43.0556 29.7486 42.1673 30.6345 41.2788C31.5441 40.3665 32.4543 39.4547 33.365 38.5434C33.9265 37.9815 34.4876 37.4192 35.0481 36.8564C35.433 36.47 35.8185 36.0841 36.2043 35.6986C36.4266 35.4765 36.6487 35.2542 36.8701 35.0312C37.0734 34.8265 37.2774 34.6224 37.4819 34.4189C37.5552 34.3457 37.6283 34.2723 37.7011 34.1986C38.2316 33.6619 38.796 33.2253 39.4184 32.8038C39.4778 32.763 39.5372 32.7221 39.5985 32.68C39.8501 32.5135 39.9693 32.4455 40.2785 32.4455C40.2785 32.3982 40.2785 32.3508 40.2785 32.3021C43.65 30.973 47.371 31.145 50.2866 33.4708Z" fill="#0E0E0E"/>
<path d="M34.975 5.49609C35.2618 5.61128 35.4544 5.81248 35.6678 6.02821C35.7076 6.06785 35.7474 6.1075 35.7884 6.14834C35.9197 6.27942 36.0505 6.411 36.1814 6.54261C36.2729 6.63426 36.3645 6.72588 36.4561 6.81747C36.6482 7.00969 36.8401 7.20215 37.0318 7.3948C37.2762 7.64047 37.5212 7.88568 37.7663 8.13073C37.9556 8.32009 38.1448 8.50965 38.3339 8.69926C38.4241 8.78965 38.5143 8.88 38.6045 8.9703C39.0582 9.42455 39.5069 9.87792 39.9204 10.3698C39.9926 10.4533 40.0649 10.5367 40.1373 10.6201C40.5529 11.1022 40.9645 11.5861 41.3538 12.0899C41.3906 12.1373 41.4275 12.1847 41.4654 12.2335C42.5387 13.6209 43.479 15.0744 44.3216 16.6123C44.436 16.8207 44.552 17.0282 44.6681 17.2357C45.7443 19.172 46.6048 21.1918 47.3519 23.2751C47.3782 23.348 47.3782 23.348 47.405 23.4224C47.4744 23.6216 47.5177 23.7745 47.5177 23.9874C47.4704 23.9874 47.4231 23.9874 47.3743 23.9874C47.2867 23.8982 47.2867 23.8982 47.1787 23.7652C46.7629 23.277 46.3001 22.8339 45.8456 22.3822C45.7413 22.2784 45.6371 22.1745 45.5328 22.0705C45.3092 21.8476 45.0854 21.6247 44.8615 21.4019C44.507 21.0491 44.1528 20.6958 43.7987 20.3425C42.792 19.3382 41.7849 18.3342 40.7771 17.3309C40.2199 16.7762 39.6631 16.2211 39.1067 15.6655C38.7554 15.3148 38.4037 14.9646 38.0516 14.6147C37.8319 14.3961 37.6126 14.1771 37.3935 13.958C37.2924 13.8571 37.1912 13.7565 37.0898 13.656C35.5679 12.1477 35.5679 12.1477 35.4767 11.5882C35.4294 11.5882 35.3821 11.5882 35.3333 11.5882C35.1084 11.1662 34.949 10.7516 34.8137 10.2936C34.7945 10.232 34.7753 10.1705 34.7555 10.107C34.649 9.75153 34.5944 9.45061 34.6166 9.07967C34.5693 9.07967 34.522 9.07967 34.4732 9.07967C34.4011 6.56977 34.4011 6.56977 34.975 5.49609Z" fill="#FCFCFC"/>
<path d="M24.4378 5.06704C22.981 6.53224 21.5231 7.9964 20.064 9.45934C19.9289 9.59484 19.7938 9.73034 19.6586 9.86585C19.625 9.89953 19.5915 9.9332 19.5569 9.9679C19.0484 10.4778 18.5405 10.9882 18.0329 11.4989C17.443 12.0923 16.8526 12.6851 16.2613 13.2772C15.9485 13.5904 15.6361 13.9039 15.3244 14.2182C15.0304 14.5146 14.7356 14.8102 14.4401 15.1052C14.3324 15.213 14.225 15.3211 14.1179 15.4295C13.4782 16.0771 12.8357 16.6587 12.0385 17.1079C11.9912 17.1079 11.9439 17.1079 11.8951 17.1079C11.8951 17.1552 11.8951 17.2025 11.8951 17.2512C11.6863 17.3309 11.4772 17.41 11.268 17.4886C11.2102 17.5107 11.1525 17.5329 11.093 17.5557C10.2745 17.8618 9.52799 18.0064 8.65193 17.9993C8.5152 17.9987 8.5152 17.9987 8.3757 17.9981C7.48941 17.9838 6.75617 17.824 5.94629 17.4662C6.35704 16.9643 6.81767 16.5128 7.27615 16.0552C7.36416 15.9671 7.45216 15.8791 7.54015 15.791C7.72401 15.607 7.90801 15.4232 8.09209 15.2394C8.32672 15.0052 8.56102 14.7707 8.79523 14.536C8.97674 14.3543 9.15842 14.1727 9.34016 13.9911C9.42656 13.9048 9.51291 13.8184 9.5992 13.7319C10.0413 13.2892 10.4844 12.8525 10.9634 12.4492C11.0366 12.3855 11.1098 12.3218 11.1829 12.258C11.7333 11.7859 12.3022 11.3457 12.8861 10.9159C13.0472 10.7968 13.2072 10.6766 13.3672 10.5561C14.1177 9.99323 14.8864 9.46691 15.6793 8.96554C15.7828 8.90004 15.8858 8.83391 15.9885 8.76712C16.0365 8.73616 16.0846 8.70519 16.1342 8.67329C16.1755 8.64637 16.2169 8.61944 16.2595 8.5917C16.4105 8.50727 16.4105 8.50727 16.6519 8.40596C16.9 8.29758 17.1123 8.17405 17.3392 8.02713C17.8628 7.6965 18.4101 7.42578 18.9683 7.15895C19.0453 7.12192 19.0453 7.12192 19.1238 7.08414C23.7782 4.84717 23.7782 4.84717 24.4378 5.06704Z" fill="#FEFDFB"/>
<path d="M5.58887 28.144C5.89203 28.2622 6.09517 28.4871 6.31976 28.7134C6.38625 28.7795 6.38625 28.7795 6.45409 28.847C6.60276 28.9951 6.75091 29.1437 6.89906 29.2923C7.00547 29.3985 7.11192 29.5047 7.21839 29.6109C7.5078 29.8996 7.79675 30.1888 8.08561 30.4781C8.38816 30.7811 8.69107 31.0836 8.99391 31.3862C9.50294 31.895 10.0117 32.4041 10.5202 32.9133C11.1072 33.501 11.6946 34.0882 12.2824 34.6752C12.7874 35.1795 13.2921 35.6841 13.7966 36.189C14.0977 36.4903 14.3989 36.7916 14.7004 37.0925C14.9842 37.376 15.2678 37.6598 15.551 37.9439C15.6547 38.0477 15.7584 38.1514 15.8624 38.255C17.6104 39.9982 18.5049 41.5601 18.5133 44.0536C18.5076 44.7268 18.4326 45.2874 18.2032 45.9186C18.1532 46.0853 18.1065 46.2526 18.0599 46.4203C17.8449 46.4203 17.8449 46.4203 17.698 46.2967C17.6427 46.2398 17.5874 46.183 17.5305 46.1244C17.4691 46.062 17.4077 45.9995 17.3444 45.9352C17.2805 45.8691 17.2165 45.803 17.1506 45.7349C16.766 45.3408 16.3833 44.953 15.9647 44.5949C15.5009 44.1931 15.0799 43.7398 14.6823 43.2735C14.5133 43.0847 14.334 42.9071 14.1537 42.7292C13.8867 42.4654 13.6306 42.1965 13.3869 41.9109C13.2311 41.7307 13.0698 41.5561 12.9084 41.3809C12.185 40.5872 11.5244 39.7397 10.9106 38.8589C10.8671 38.7966 10.8236 38.7343 10.7789 38.6701C9.14666 36.3177 7.57375 33.7668 6.61496 31.0588C6.54289 30.858 6.46717 30.6611 6.38706 30.4636C6.21175 30.0287 6.05223 29.5885 5.89348 29.1474C5.864 29.0664 5.83453 28.9854 5.80416 28.9019C5.77636 28.8248 5.74855 28.7476 5.71989 28.6681C5.69469 28.5984 5.66949 28.5286 5.64353 28.4568C5.58887 28.2874 5.58887 28.2874 5.58887 28.144Z" fill="#FCFCFC"/>
<path d="M47.0873 34.524C46.7251 34.9615 46.3318 35.3616 45.9299 35.7626C45.8596 35.833 45.7893 35.9034 45.719 35.9738C45.5722 36.1206 45.4253 36.2674 45.2784 36.414C45.0915 36.6005 44.9049 36.7873 44.7184 36.9742C44.5734 37.1194 44.4283 37.2645 44.283 37.4095C44.1812 37.5113 44.0794 37.6133 43.9777 37.7152C43.6524 38.0394 43.3238 38.3544 42.9744 38.6525C42.8242 38.7825 42.6868 38.9227 42.5496 39.0662C42.2324 39.3866 41.8936 39.669 41.5411 39.9495C41.414 40.0518 41.2884 40.1559 41.1629 40.2603C40.4854 40.8219 39.7873 41.3394 39.06 41.8345C38.988 41.8838 38.9159 41.9331 38.8417 41.9839C37.7936 42.6991 36.7352 43.3776 35.6197 43.9847C35.5745 44.0094 35.5294 44.0342 35.4828 44.0597C35.2931 44.1637 35.1028 44.2663 34.9117 44.3677C34.7447 44.4563 34.5786 44.5458 34.4128 44.6364C33.9635 44.8809 33.5242 45.1076 33.0395 45.2748C32.9459 45.3154 32.8527 45.357 32.7598 45.3993C32.3271 45.5933 31.8884 45.7723 31.4493 45.9512C31.3206 46.0036 31.3206 46.0036 31.1892 46.0571C30.6793 46.2638 30.1691 46.4633 29.6485 46.6416C29.4698 46.7034 29.2953 46.7718 29.1199 46.8426C28.8825 46.9232 28.8825 46.9232 28.6675 46.8515C30.0999 45.4109 31.5333 43.9713 32.9679 42.5329C33.1377 42.3626 33.3075 42.1924 33.4773 42.0221C33.5111 41.9882 33.5449 41.9543 33.5797 41.9194C34.1252 41.3723 34.6701 40.8246 35.2148 40.2767C35.7746 39.7135 36.3352 39.151 36.8964 38.589C37.2111 38.2738 37.5256 37.9583 37.8393 37.642C38.1352 37.3437 38.4319 37.0462 38.7293 36.7494C38.8377 36.6409 38.9458 36.5321 39.0535 36.4229C40.2417 35.2202 41.5209 34.3227 43.217 34.0223C43.2822 34.0093 43.3475 33.9963 43.4147 33.9829C44.6507 33.8116 45.9714 33.9454 47.0873 34.524Z" fill="#FEFDFC"/>
<path d="M47.2305 23.1284C47.3668 23.3329 47.4068 23.445 47.4544 23.6792C47.4664 23.7371 47.4784 23.795 47.4907 23.8546C47.4994 23.8987 47.5081 23.9427 47.517 23.9881C47.4698 23.9881 47.4225 23.9881 47.3738 23.9881C47.2923 23.6825 47.2305 23.4462 47.2305 23.1284Z" fill="#8F969C"/>
<path d="M87.77 20.8414C87.6488 19.7656 87.1488 18.9323 86.27 18.3414C85.3912 17.7429 84.2852 17.4437 82.9518 17.4437C81.9973 17.4437 81.1715 17.5952 80.4746 17.8982C79.7776 18.1937 79.2359 18.6028 78.8496 19.1255C78.4708 19.6406 78.2814 20.2278 78.2814 20.8869C78.2814 21.4399 78.4102 21.9172 78.6677 22.3187C78.9329 22.7202 79.2776 23.0573 79.7018 23.33C80.1337 23.5952 80.5958 23.8187 81.0882 24.0005C81.5806 24.1747 82.0541 24.3187 82.5087 24.4323L84.7814 25.0232C85.5238 25.205 86.2852 25.4512 87.0655 25.7619C87.8458 26.0725 88.5693 26.4815 89.2359 26.9891C89.9026 27.4967 90.4405 28.1255 90.8496 28.8755C91.2662 29.6255 91.4746 30.5232 91.4746 31.5687C91.4746 32.8869 91.1337 34.0573 90.4518 35.08C89.7776 36.1028 88.7965 36.9096 87.5087 37.5005C86.2284 38.0914 84.6791 38.3869 82.8609 38.3869C81.1185 38.3869 79.6109 38.1103 78.3382 37.5573C77.0655 37.0043 76.0693 36.2202 75.3496 35.205C74.6299 34.1823 74.2321 32.9702 74.1564 31.5687H77.6791C77.7473 32.4096 78.02 33.1103 78.4973 33.6709C78.9821 34.224 79.5996 34.6369 80.3496 34.9096C81.1071 35.1747 81.9367 35.3073 82.8382 35.3073C83.8306 35.3073 84.7132 35.152 85.4859 34.8414C86.2662 34.5232 86.8799 34.0838 87.3268 33.5232C87.7738 32.955 87.9973 32.2922 87.9973 31.5346C87.9973 30.8452 87.8003 30.2808 87.4064 29.8414C87.02 29.402 86.4935 29.0384 85.8268 28.7505C85.1677 28.4626 84.4215 28.2088 83.5882 27.9891L80.8382 27.2391C78.9746 26.7315 77.4973 25.9853 76.4064 25.0005C75.323 24.0156 74.7814 22.7126 74.7814 21.0914C74.7814 19.7505 75.145 18.58 75.8723 17.58C76.5996 16.58 77.5844 15.8035 78.8268 15.2505C80.0693 14.6899 81.4708 14.4096 83.0314 14.4096C84.6071 14.4096 85.9973 14.6861 87.2018 15.2391C88.414 15.7922 89.3685 16.5535 90.0655 17.5232C90.7624 18.4853 91.1261 19.5914 91.1564 20.8414H87.77ZM98.7956 27.6369V38.0005H95.3979V20.5459H98.6592V23.3869H98.8751C99.2766 22.4626 99.9054 21.7202 100.761 21.1596C101.625 20.599 102.712 20.3187 104.023 20.3187C105.212 20.3187 106.254 20.5687 107.148 21.0687C108.042 21.5611 108.735 22.2959 109.227 23.2732C109.72 24.2505 109.966 25.4588 109.966 26.8982V38.0005H106.568V27.3073C106.568 26.0422 106.239 25.0535 105.58 24.3414C104.921 23.6217 104.015 23.2619 102.864 23.2619C102.076 23.2619 101.375 23.4323 100.761 23.7732C100.155 24.1141 99.6744 24.6141 99.3183 25.2732C98.9698 25.9247 98.7956 26.7126 98.7956 27.6369ZM119.602 38.3869C118.496 38.3869 117.496 38.1823 116.602 37.7732C115.708 37.3565 115 36.7543 114.477 35.9664C113.962 35.1785 113.705 34.2126 113.705 33.0687C113.705 32.0838 113.894 31.2732 114.273 30.6369C114.652 30.0005 115.163 29.4967 115.807 29.1255C116.451 28.7543 117.171 28.474 117.966 28.2846C118.761 28.0952 119.572 27.9512 120.398 27.8528C121.443 27.7315 122.292 27.6331 122.943 27.5573C123.595 27.474 124.068 27.3414 124.364 27.1596C124.659 26.9778 124.807 26.6823 124.807 26.2732V26.1937C124.807 25.2012 124.527 24.4323 123.966 23.8869C123.413 23.3414 122.587 23.0687 121.489 23.0687C120.345 23.0687 119.443 23.3225 118.784 23.83C118.133 24.33 117.682 24.8869 117.432 25.5005L114.239 24.7732C114.618 23.7126 115.171 22.8565 115.898 22.205C116.633 21.5459 117.477 21.0687 118.432 20.7732C119.386 20.4702 120.39 20.3187 121.443 20.3187C122.14 20.3187 122.879 20.402 123.659 20.5687C124.447 20.7278 125.182 21.0232 125.864 21.455C126.553 21.8869 127.118 22.5043 127.557 23.3073C127.996 24.1028 128.216 25.1369 128.216 26.4096V38.0005H124.898V35.6141H124.761C124.542 36.0535 124.212 36.4853 123.773 36.9096C123.333 37.3338 122.769 37.6861 122.08 37.9664C121.39 38.2467 120.565 38.3869 119.602 38.3869ZM120.341 35.6596C121.28 35.6596 122.083 35.474 122.75 35.1028C123.424 34.7315 123.936 34.2467 124.284 33.6482C124.64 33.0422 124.818 32.3944 124.818 31.705V29.455C124.697 29.5762 124.462 29.6899 124.114 29.7959C123.773 29.8944 123.383 29.9815 122.943 30.0573C122.504 30.1255 122.076 30.1899 121.659 30.2505C121.243 30.3035 120.894 30.349 120.614 30.3869C119.955 30.4702 119.352 30.6103 118.807 30.8073C118.269 31.0043 117.837 31.2884 117.511 31.6596C117.193 32.0232 117.034 32.5081 117.034 33.1141C117.034 33.955 117.345 34.5914 117.966 35.0232C118.587 35.4475 119.379 35.6596 120.341 35.6596ZM132.742 44.5459V20.5459H136.06V23.3755H136.344C136.541 23.0119 136.825 22.5914 137.196 22.1141C137.567 21.6369 138.083 21.2202 138.742 20.8641C139.401 20.5005 140.272 20.3187 141.355 20.3187C142.764 20.3187 144.022 20.6747 145.128 21.3869C146.234 22.099 147.101 23.1255 147.73 24.4664C148.367 25.8073 148.685 27.4209 148.685 29.3073C148.685 31.1937 148.37 32.8111 147.742 34.1596C147.113 35.5005 146.249 36.5346 145.151 37.2619C144.052 37.9815 142.798 38.3414 141.389 38.3414C140.329 38.3414 139.461 38.1634 138.787 37.8073C138.12 37.4512 137.598 37.0346 137.219 36.5573C136.84 36.08 136.548 35.6558 136.344 35.2846H136.139V44.5459H132.742ZM136.071 29.2732C136.071 30.5005 136.249 31.5762 136.605 32.5005C136.961 33.4247 137.476 34.1482 138.151 34.6709C138.825 35.1861 139.651 35.4437 140.628 35.4437C141.643 35.4437 142.492 35.1747 143.173 34.6369C143.855 34.0914 144.37 33.3528 144.719 32.4209C145.075 31.4891 145.253 30.4399 145.253 29.2732C145.253 28.1217 145.079 27.0876 144.73 26.1709C144.389 25.2543 143.874 24.5308 143.185 24.0005C142.503 23.4702 141.651 23.205 140.628 23.205C139.643 23.205 138.81 23.4588 138.128 23.9664C137.454 24.474 136.942 25.1823 136.594 26.0914C136.245 27.0005 136.071 28.0611 136.071 29.2732ZM172.094 22.2959H168.548C168.412 21.5384 168.158 20.8717 167.787 20.2959C167.416 19.7202 166.961 19.2315 166.423 18.83C165.886 18.4285 165.283 18.1255 164.617 17.9209C163.958 17.7164 163.257 17.6141 162.514 17.6141C161.173 17.6141 159.973 17.9512 158.912 18.6255C157.859 19.2997 157.026 20.2884 156.412 21.5914C155.806 22.8944 155.503 24.4853 155.503 26.3641C155.503 28.2581 155.806 29.8565 156.412 31.1596C157.026 32.4626 157.863 33.4475 158.923 34.1141C159.984 34.7808 161.177 35.1141 162.503 35.1141C163.238 35.1141 163.935 35.0156 164.594 34.8187C165.261 34.6141 165.863 34.3149 166.401 33.9209C166.939 33.527 167.393 33.0459 167.764 32.4778C168.143 31.902 168.404 31.2429 168.548 30.5005L172.094 30.5119C171.904 31.6558 171.537 32.7088 170.992 33.6709C170.454 34.6255 169.761 35.4512 168.912 36.1482C168.071 36.8376 167.109 37.3717 166.026 37.7505C164.942 38.1293 163.761 38.3187 162.48 38.3187C160.465 38.3187 158.67 37.8414 157.094 36.8869C155.518 35.9247 154.276 34.5497 153.367 32.7619C152.465 30.974 152.014 28.8414 152.014 26.3641C152.014 23.8793 152.469 21.7467 153.378 19.9664C154.287 18.1785 155.529 16.8073 157.105 15.8528C158.681 14.8906 160.473 14.4096 162.48 14.4096C163.715 14.4096 164.867 14.5876 165.935 14.9437C167.011 15.2922 167.976 15.8073 168.833 16.4891C169.689 17.1634 170.397 17.9891 170.958 18.9664C171.518 19.9361 171.897 21.0459 172.094 22.2959ZM181.102 38.3869C179.996 38.3869 178.996 38.1823 178.102 37.7732C177.208 37.3565 176.5 36.7543 175.977 35.9664C175.462 35.1785 175.205 34.2126 175.205 33.0687C175.205 32.0838 175.394 31.2732 175.773 30.6369C176.152 30.0005 176.663 29.4967 177.307 29.1255C177.951 28.7543 178.671 28.474 179.466 28.2846C180.261 28.0952 181.072 27.9512 181.898 27.8528C182.943 27.7315 183.792 27.6331 184.443 27.5573C185.095 27.474 185.568 27.3414 185.864 27.1596C186.159 26.9778 186.307 26.6823 186.307 26.2732V26.1937C186.307 25.2012 186.027 24.4323 185.466 23.8869C184.913 23.3414 184.087 23.0687 182.989 23.0687C181.845 23.0687 180.943 23.3225 180.284 23.83C179.633 24.33 179.182 24.8869 178.932 25.5005L175.739 24.7732C176.118 23.7126 176.671 22.8565 177.398 22.205C178.133 21.5459 178.977 21.0687 179.932 20.7732C180.886 20.4702 181.89 20.3187 182.943 20.3187C183.64 20.3187 184.379 20.402 185.159 20.5687C185.947 20.7278 186.682 21.0232 187.364 21.455C188.053 21.8869 188.618 22.5043 189.057 23.3073C189.496 24.1028 189.716 25.1369 189.716 26.4096V38.0005H186.398V35.6141H186.261C186.042 36.0535 185.712 36.4853 185.273 36.9096C184.833 37.3338 184.269 37.6861 183.58 37.9664C182.89 38.2467 182.065 38.3869 181.102 38.3869ZM181.841 35.6596C182.78 35.6596 183.583 35.474 184.25 35.1028C184.924 34.7315 185.436 34.2467 185.784 33.6482C186.14 33.0422 186.318 32.3944 186.318 31.705V29.455C186.197 29.5762 185.962 29.6899 185.614 29.7959C185.273 29.8944 184.883 29.9815 184.443 30.0573C184.004 30.1255 183.576 30.1899 183.159 30.2505C182.743 30.3035 182.394 30.349 182.114 30.3869C181.455 30.4702 180.852 30.6103 180.307 30.8073C179.769 31.0043 179.337 31.2884 179.011 31.6596C178.693 32.0232 178.534 32.5081 178.534 33.1141C178.534 33.955 178.845 34.5914 179.466 35.0232C180.087 35.4475 180.879 35.6596 181.841 35.6596ZM194.242 38.0005V20.5459H197.526V23.3187H197.708C198.026 22.3793 198.586 21.6406 199.389 21.1028C200.2 20.5573 201.117 20.2846 202.139 20.2846C202.351 20.2846 202.601 20.2922 202.889 20.3073C203.185 20.3225 203.416 20.3414 203.583 20.3641V23.6141C203.446 23.5762 203.204 23.5346 202.855 23.4891C202.507 23.4361 202.158 23.4096 201.81 23.4096C201.007 23.4096 200.291 23.58 199.662 23.9209C199.041 24.2543 198.548 24.7202 198.185 25.3187C197.821 25.9096 197.639 26.5838 197.639 27.3414V38.0005H194.242ZM215.702 20.5459V23.2732H206.168V20.5459H215.702ZM208.725 16.3641H212.122V32.8755C212.122 33.5346 212.221 34.0308 212.418 34.3641C212.615 34.6899 212.869 34.9134 213.179 35.0346C213.497 35.1482 213.842 35.205 214.213 35.205C214.486 35.205 214.725 35.1861 214.929 35.1482C215.134 35.1103 215.293 35.08 215.406 35.0573L216.02 37.8641C215.823 37.9399 215.543 38.0156 215.179 38.0914C214.815 38.1747 214.361 38.2202 213.815 38.2278C212.922 38.2429 212.088 38.0838 211.315 37.7505C210.543 37.4172 209.918 36.902 209.44 36.205C208.963 35.5081 208.725 34.6331 208.725 33.58V16.3641Z" fill="#5B5B5B"/>
</svg>
