<svg width="193" height="52" viewBox="0 0 193 52" fill="none" xmlns="http://www.w3.org/2000/svg">
<path d="M24.1559 30.395C24.3153 30.4648 24.4099 30.5563 24.5323 30.6801C24.5811 30.7289 24.6299 30.7777 24.6802 30.828C24.7322 30.881 24.7841 30.934 24.8377 30.9886C24.9183 31.0696 24.9183 31.0696 25.0006 31.1523C25.1723 31.3251 25.3433 31.4986 25.5143 31.6721C25.6305 31.7893 25.7468 31.9065 25.8631 32.0236C26.1483 32.311 26.4329 32.5989 26.7171 32.8872C26.9786 32.7675 27.12 32.6147 27.3102 32.3971C27.6186 32.0508 27.9438 31.74 28.289 31.4301C28.6579 31.0958 29.004 30.7372 29.3533 30.3828C29.5803 30.4806 29.7274 30.6088 29.9013 30.7832C29.9577 30.8394 30.0141 30.8956 30.0722 30.9535C30.1341 31.0158 30.196 31.0782 30.2579 31.1406C30.3235 31.2063 30.3891 31.2719 30.4548 31.3374C30.6327 31.5154 30.8103 31.6937 30.9878 31.8721C31.1734 32.0586 31.3594 32.2447 31.5454 32.4308C31.8974 32.7832 32.2491 33.1359 32.6006 33.4888C33.0009 33.8906 33.4015 34.2919 33.8022 34.6933C34.6264 35.5188 35.4501 36.3448 36.2735 37.1712C35.8642 37.6556 35.8642 37.6556 35.6385 37.8743C35.5749 37.9363 35.5749 37.9363 35.51 37.9996C35.4435 38.0639 35.4435 38.0639 35.3757 38.1296C35.2806 38.223 35.1855 38.3164 35.0904 38.4099C34.9418 38.5556 34.7929 38.7011 34.6434 38.8459C34.4982 38.9867 34.354 39.1286 34.21 39.2706C34.1648 39.3139 34.1196 39.3573 34.073 39.4019C34.032 39.4426 33.9911 39.4833 33.9489 39.5253C33.8942 39.5785 33.8942 39.5785 33.8385 39.6328C33.7562 39.7382 33.7562 39.7382 33.7763 39.871C33.8486 40.0364 33.9378 40.1318 34.0663 40.2589C34.1151 40.3077 34.1639 40.3565 34.2142 40.4068C34.2672 40.4588 34.3202 40.5107 34.3748 40.5643C34.4558 40.6449 34.4558 40.6449 34.5385 40.7272C34.7113 40.8989 34.8848 41.0699 35.0583 41.2409C35.1755 41.3571 35.2927 41.4734 35.4099 41.5897C35.6972 41.8749 35.9851 42.1595 36.2735 42.4436C36.1513 42.7121 35.9724 42.877 35.7544 43.0698C35.4514 43.3437 35.1537 43.6213 34.8647 43.9101C34.7742 44.0003 34.7742 44.0003 34.6819 44.0923C34.5478 44.2298 34.4221 44.3722 34.2976 44.5184C33.9635 44.9034 33.5992 45.2595 33.2384 45.6191C33.1144 45.7428 32.9907 45.8668 32.8671 45.9909C32.5117 46.3464 32.157 46.698 31.774 47.024C31.5715 47.1999 31.3835 47.39 31.1946 47.5802C31.1568 47.6177 31.119 47.6552 31.0801 47.6939C30.8902 47.8843 30.7079 48.0778 30.5334 48.2825C30.2109 48.6554 29.8589 48.9998 29.5099 49.3476C29.3906 49.4665 29.2717 49.5858 29.1529 49.705C28.8068 50.0513 28.4608 50.3924 28.0879 50.7101C27.8653 50.9046 27.6585 51.115 27.4503 51.3245C27.4066 51.3679 27.3629 51.4113 27.3179 51.4561C27.2761 51.4979 27.2343 51.5398 27.1913 51.583C27.1539 51.6204 27.1165 51.6579 27.078 51.6965C26.9672 51.8115 26.9672 51.8115 26.8489 52C26.5802 51.8932 26.4002 51.7013 26.2008 51.4996C26.1626 51.4615 26.1244 51.4235 26.0851 51.3843C25.9572 51.2566 25.8297 51.1284 25.7023 51.0002C25.6107 50.9086 25.5191 50.8171 25.4275 50.7255C25.1787 50.4768 24.9303 50.2276 24.682 49.9784C24.4225 49.7181 24.1626 49.4581 23.9028 49.1981C23.4107 48.7056 22.919 48.2128 22.4274 47.7199C21.8678 47.1588 21.3077 46.598 20.7477 46.0373C19.5955 44.8838 18.4438 43.7298 17.2925 42.5755C17.39 42.3714 17.4881 42.2324 17.6499 42.0733C17.6959 42.0278 17.7419 41.9822 17.7892 41.9353C17.8636 41.8626 17.8636 41.8626 17.9394 41.7884C17.9903 41.7381 18.0411 41.6877 18.0935 41.6358C18.256 41.475 18.4188 41.3146 18.5818 41.1544C18.7964 40.9432 19.0106 40.7316 19.2246 40.5198C19.2992 40.4468 19.2992 40.4468 19.3752 40.3725C19.421 40.3271 19.4667 40.2818 19.5139 40.2351C19.5543 40.1954 19.5947 40.1556 19.6364 40.1147C19.7461 40.0017 19.7461 40.0017 19.7969 39.8074C18.9487 38.9592 18.1005 38.111 17.2266 37.2371C17.6715 36.7179 17.6715 36.7179 17.9105 36.4771C17.9914 36.3953 17.9914 36.3953 18.074 36.3119C18.1319 36.2537 18.1899 36.1954 18.2496 36.1354C18.3122 36.0723 18.3748 36.0091 18.4374 35.946C18.6413 35.7404 18.8455 35.5351 19.0498 35.3299C19.1203 35.259 19.1909 35.1881 19.2614 35.1172C19.5546 34.8226 19.8479 34.5281 20.1414 34.2338C20.5614 33.8127 20.9808 33.3911 21.3995 32.9687C21.6945 32.6712 21.9902 32.3742 22.2863 32.0777C22.463 31.9008 22.6394 31.7236 22.8152 31.5457C22.9801 31.3788 23.1458 31.2127 23.3121 31.0471C23.4022 30.957 23.4915 30.8661 23.5808 30.7752C23.6344 30.7222 23.688 30.6691 23.7432 30.6145C23.7895 30.5679 23.8359 30.5213 23.8837 30.4733C24.0149 30.3828 24.0149 30.3828 24.1559 30.395Z" fill="#1E2C39"/>
<path d="M10.1746 16.4766C10.3847 16.569 10.5224 16.6778 10.6818 16.8422C10.7284 16.8899 10.775 16.9376 10.8231 16.9867C10.8728 17.0382 10.9225 17.0896 10.9737 17.1426C11.0797 17.2506 11.1858 17.3586 11.2919 17.4666C11.4589 17.6372 11.6256 17.8081 11.7917 17.9795C11.9522 18.1448 12.1137 18.309 12.2753 18.4731C12.3251 18.5249 12.3748 18.5767 12.426 18.6301C12.4726 18.6772 12.5192 18.7243 12.5673 18.7728C12.6284 18.8356 12.6284 18.8356 12.6908 18.8997C12.8048 18.9943 12.8048 18.9943 12.9421 18.9755C13.1048 18.9012 13.2008 18.8116 13.3261 18.6838C13.3987 18.6105 13.3987 18.6105 13.4727 18.5358C13.5243 18.4828 13.5759 18.4298 13.629 18.3752C13.7092 18.2942 13.7092 18.2942 13.7909 18.2115C13.9618 18.0387 14.1319 17.8653 14.302 17.6917C14.4725 17.518 14.6433 17.3444 14.8144 17.1712C14.9209 17.0634 15.0272 16.9552 15.133 16.8467C15.181 16.7981 15.2289 16.7494 15.2784 16.6994C15.3206 16.6562 15.3628 16.6131 15.4063 16.5687C15.513 16.4766 15.513 16.4766 15.6448 16.4766C15.7363 16.5694 15.7363 16.5694 15.8441 16.7001C16.1264 17.0318 16.4309 17.3373 16.7393 17.6445C16.8017 17.7069 16.8641 17.7693 16.9265 17.8317C17.0944 17.9996 17.2624 18.1672 17.4305 18.3349C17.6067 18.5107 17.7828 18.6867 17.9588 18.8626C18.2915 19.1951 18.6244 19.5275 18.9573 19.8597C19.3366 20.2383 19.7157 20.6171 20.0949 20.9958C20.8741 21.7744 21.6535 22.5527 22.4331 23.3308C22.3701 23.4048 22.3069 23.4787 22.2438 23.5526C22.2086 23.5938 22.1734 23.635 22.1372 23.6774C22.0249 23.8069 21.9081 23.9303 21.787 24.0517C21.743 24.0957 21.6991 24.1397 21.6539 24.185C21.6093 24.2294 21.5646 24.2737 21.5187 24.3194C21.4746 24.3637 21.4305 24.4081 21.3851 24.4538C21.1239 24.7144 20.8562 24.9622 20.5742 25.2003C20.412 25.348 20.2768 25.5125 20.1414 25.6846C20.1147 25.7126 20.088 25.7405 20.0605 25.7693C20.017 25.7693 19.9735 25.7693 19.9287 25.7693C19.9102 25.9655 19.9053 26.0661 20.0217 26.2293C20.0652 26.2711 20.1088 26.3129 20.1536 26.3559C20.2026 26.4039 20.2517 26.4518 20.3022 26.5012C20.3557 26.552 20.4093 26.6029 20.4645 26.6552C20.5187 26.7082 20.573 26.7613 20.6289 26.8159C20.8026 26.9855 20.9772 27.154 21.1521 27.3223C21.3824 27.5438 21.6116 27.7665 21.8402 27.9898C21.8939 28.0408 21.9476 28.0917 22.0029 28.1442C22.0517 28.1919 22.1006 28.2397 22.1509 28.2889C22.1943 28.3306 22.2378 28.3723 22.2826 28.4153C22.3672 28.5374 22.3672 28.5374 22.3558 28.659C22.2845 28.8448 22.1828 28.9448 22.0425 29.0859C21.9868 29.1423 21.931 29.1988 21.8736 29.257C21.812 29.3184 21.7504 29.3798 21.687 29.443C21.6218 29.5087 21.5566 29.5745 21.4915 29.6402C21.3145 29.8187 21.1369 29.9964 20.9592 30.1741C20.8109 30.3223 20.663 30.4708 20.515 30.6193C20.1661 30.9695 19.8166 31.3192 19.4669 31.6685C19.1057 32.0293 18.7454 32.391 18.3857 32.7532C18.0769 33.064 17.7676 33.3741 17.4578 33.6836C17.2726 33.8687 17.0877 34.0539 16.9034 34.2398C16.7302 34.4145 16.5563 34.5883 16.3817 34.7616C16.3176 34.8254 16.2539 34.8895 16.1904 34.9539C16.1039 35.0415 16.0164 35.1281 15.9288 35.2145C15.88 35.2633 15.8313 35.3122 15.781 35.3624C15.6448 35.4576 15.6448 35.4576 15.503 35.4461C15.3447 35.3753 15.2494 35.2836 15.1274 35.1603C15.0786 35.1115 15.0298 35.0627 14.9795 35.0124C14.9275 34.9594 14.8756 34.9064 14.822 34.8518C14.7683 34.7977 14.7145 34.7437 14.6591 34.688C14.4874 34.5152 14.3164 34.3418 14.1454 34.1683C14.0292 34.051 13.9129 33.9339 13.7966 33.8167C13.5114 33.5294 13.2268 33.2415 12.9426 32.9531C12.754 33.0436 12.6261 33.1239 12.4857 33.2798C12.449 33.3199 12.4123 33.36 12.3745 33.4013C12.335 33.4451 12.2955 33.4888 12.2548 33.5339C11.8576 33.9652 11.4522 34.3875 11.0386 34.8031C10.9455 34.8967 10.8528 34.9907 10.76 35.0847C10.703 35.1418 10.646 35.1989 10.5873 35.2578C10.5108 35.3347 10.5108 35.3347 10.4327 35.4131C10.3064 35.5235 10.3064 35.5235 10.1746 35.5235C10.0911 35.4387 10.0911 35.4387 9.98949 35.3142C9.63351 34.8961 9.24056 34.5143 8.85226 34.1267C8.76539 34.0397 8.67853 33.9528 8.59168 33.8658C8.3571 33.6309 8.12232 33.3962 7.88749 33.1616C7.64151 32.9158 7.3957 32.6698 7.14987 32.4239C6.73752 32.0114 6.32505 31.5991 5.91249 31.1869C5.43514 30.7099 4.95804 30.2327 4.48106 29.7553C4.07129 29.3452 3.6614 28.9353 3.2514 28.5255C3.00659 28.2808 2.76184 28.036 2.51719 27.7912C2.2876 27.5614 2.05784 27.3318 1.82796 27.1023C1.74347 27.0179 1.65903 26.9334 1.57465 26.8489C1.45986 26.7339 1.34488 26.6191 1.22983 26.5044C1.19617 26.4706 1.16251 26.4368 1.12782 26.402C0.955298 26.2287 0.955298 26.2287 0.75 26.0989C0.75 25.9012 0.75 25.9012 0.834767 25.8112C0.896401 25.7621 0.896401 25.7621 0.959281 25.7119C1.20939 25.502 1.44443 25.2804 1.67549 25.0499C1.71222 25.0133 1.74896 24.9767 1.78681 24.939C1.90692 24.8191 2.02684 24.699 2.14676 24.5788C2.23372 24.492 2.3207 24.4051 2.40769 24.3182C2.64257 24.0837 2.87724 23.8489 3.11186 23.614C3.35767 23.3681 3.60363 23.1223 3.84957 22.8764C4.26203 22.4641 4.67436 22.0516 5.0866 21.639C5.56358 21.1617 6.04081 20.6846 6.51815 20.2076C6.92822 19.7979 7.33815 19.388 7.74798 18.978C7.99268 18.7332 8.23742 18.4884 8.48228 18.2438C8.71207 18.0142 8.9417 17.7844 9.1712 17.5545C9.2556 17.47 9.34006 17.3856 9.42459 17.3012C9.53955 17.1864 9.65432 17.0714 9.76903 16.9564C9.80284 16.9227 9.83665 16.8891 9.87149 16.8544C10.0448 16.6819 10.0448 16.6819 10.1746 16.4766Z" fill="#1E2C39"/>
<path d="M38.053 16.4766C38.1495 16.5744 38.1495 16.5744 38.2611 16.709C38.4975 16.9869 38.7474 17.2455 39.0063 17.5022C39.051 17.5468 39.0957 17.5914 39.1417 17.6374C39.2826 17.7779 39.4236 17.9181 39.5647 18.0583C39.661 18.1543 39.7574 18.2504 39.8537 18.3464C40.0881 18.5801 40.3227 18.8135 40.5574 19.0469C40.7954 18.9351 40.9493 18.803 41.1356 18.6157C41.2253 18.5258 41.2253 18.5258 41.3169 18.4341C41.3632 18.3871 41.3632 18.3871 41.4105 18.3392C41.5037 18.2448 41.5974 18.1509 41.6912 18.0572C41.9788 17.7677 42.2577 17.4765 42.5191 17.1633C42.6306 17.0351 42.7542 16.9267 42.8847 16.8185C43.0677 16.6702 43.0677 16.6702 43.1936 16.4766C43.4623 16.5834 43.6423 16.7754 43.8418 16.977C43.8799 17.0151 43.9181 17.0531 43.9574 17.0923C44.0854 17.2201 44.2128 17.3482 44.3402 17.4764C44.4318 17.568 44.5234 17.6596 44.615 17.7511C44.8638 17.9998 45.1122 18.249 45.3605 18.4982C45.62 18.7586 45.8799 19.0185 46.1397 19.2785C46.6318 19.771 47.1235 20.2638 47.6151 20.7567C48.1748 21.3178 48.7348 21.8786 49.2949 22.4393C50.447 23.5929 51.5987 24.7468 52.75 25.9012C52.6408 26.2002 52.4888 26.3872 52.2635 26.6071C52.2283 26.6421 52.1932 26.6771 52.157 26.7132C52.0827 26.7871 52.0081 26.8607 51.9333 26.9342C51.8204 27.045 51.7082 27.1565 51.5962 27.2682C51.2596 27.6023 50.9205 27.9292 50.56 28.2377C50.3571 28.4151 50.1677 28.6057 49.9779 28.7969C49.9401 28.8344 49.9023 28.8719 49.8634 28.9106C49.6748 29.0996 49.4938 29.2916 49.3209 29.4951C48.9798 29.8893 48.6059 30.2528 48.2369 30.6206C48.1081 30.7491 47.9796 30.8779 47.8512 31.0067C47.4877 31.3704 47.1256 31.7312 46.7335 32.0644C46.5314 32.2398 46.3438 32.4297 46.1553 32.6195C46.1175 32.657 46.0798 32.6945 46.0409 32.7331C45.8506 32.9238 45.6679 33.1177 45.4929 33.3225C45.1748 33.6901 44.8309 34.0327 44.4879 34.3768C44.3711 34.4943 44.2549 34.6126 44.1387 34.7308C44.0639 34.8061 43.9889 34.8813 43.914 34.9566C43.8625 35.0093 43.8625 35.0093 43.8099 35.0631C43.6029 35.2689 43.4755 35.3448 43.1936 35.4576C42.3672 34.6311 41.5407 33.8046 40.6892 32.9531C40.4586 33.0684 40.3544 33.1409 40.182 33.3187C40.1354 33.3664 40.0888 33.4141 40.0407 33.4633C39.991 33.5147 39.9413 33.5661 39.8901 33.6191C39.7841 33.7272 39.678 33.8352 39.5719 33.9431C39.4049 34.1138 39.2382 34.2847 39.0721 34.4561C38.9116 34.6213 38.7501 34.7855 38.5885 34.9496C38.5387 35.0014 38.489 35.0533 38.4378 35.1067C38.3679 35.1773 38.3679 35.1773 38.2965 35.2493C38.2557 35.2912 38.215 35.3331 38.173 35.3763C38.053 35.4576 38.053 35.4576 37.9315 35.4459C37.7454 35.3749 37.6456 35.2732 37.5045 35.1328C37.448 35.0771 37.3916 35.0213 37.3334 34.9639C37.272 34.9023 37.2106 34.8408 37.1473 34.7773C37.0816 34.7121 37.0159 34.6469 36.9501 34.5818C36.7717 34.4048 36.5939 34.2273 36.4163 34.0495C36.2681 33.9013 36.1195 33.7533 35.971 33.6053C35.6208 33.2564 35.2712 32.907 34.9219 32.5572C34.5611 32.196 34.1993 31.8357 33.8371 31.476C33.5264 31.1673 33.2163 30.8579 32.9067 30.5481C32.7217 30.3629 32.5364 30.178 32.3505 29.9937C32.1759 29.8205 32.002 29.6466 31.8288 29.472C31.765 29.4079 31.7009 29.3442 31.6365 29.2807C31.5488 29.1943 31.4623 29.1067 31.3758 29.0191C31.3026 28.9459 31.3026 28.9459 31.2279 28.8713C31.1328 28.7351 31.1328 28.7351 31.1455 28.5917C31.2071 28.4526 31.2714 28.3815 31.3849 28.2805C31.4448 28.2259 31.4448 28.2259 31.506 28.1703C31.55 28.131 31.5941 28.0918 31.6395 28.0513C32.1208 27.6122 32.5847 27.158 33.0441 26.6961C33.0769 26.6632 33.1097 26.6302 33.1435 26.5963C33.3303 26.4087 33.5168 26.221 33.7032 26.033C33.9302 26.1306 34.0763 26.2586 34.2495 26.4336C34.3048 26.4891 34.36 26.5445 34.4169 26.6016C34.5057 26.6918 34.5057 26.6918 34.5962 26.7837C34.6583 26.8461 34.7203 26.9085 34.7824 26.9709C34.9458 27.1351 35.1088 27.2998 35.2717 27.4645C35.5316 27.7273 35.792 27.9896 36.0526 28.2517C36.1429 28.3427 36.233 28.434 36.3232 28.5252C36.5567 28.7606 36.7879 28.993 37.0436 29.2044C37.2512 29.3774 37.4208 29.5711 37.5958 29.7764C37.8466 30.0614 38.1194 30.3253 38.3884 30.5928C38.4513 30.6556 38.5142 30.7184 38.5771 30.7812C38.7408 30.9447 38.9048 31.1081 39.0688 31.2714C39.2369 31.4387 39.4047 31.6062 39.5725 31.7738C39.9006 32.1012 40.229 32.4283 40.5574 32.7554C40.7832 32.6579 40.9298 32.5311 41.1029 32.3575C41.1587 32.3019 41.2146 32.2463 41.2721 32.1889C41.3328 32.1278 41.3934 32.0666 41.456 32.0036C41.5209 31.9386 41.5859 31.8737 41.6509 31.8088C41.8271 31.6326 42.0029 31.456 42.1786 31.2794C42.3624 31.0948 42.5465 30.9106 42.7306 30.7263C43.0791 30.3774 43.4273 30.0281 43.7754 29.6787C44.1716 29.281 44.5683 28.8836 44.965 28.4862C45.781 27.6689 46.5965 26.8511 47.4116 26.033C47.0912 25.6468 46.7459 25.2924 46.3905 24.9384C46.3281 24.8761 46.2657 24.8137 46.2033 24.7512C46.0352 24.5831 45.8669 24.4151 45.6985 24.2472C45.5221 24.0713 45.3459 23.8951 45.1697 23.719C44.8365 23.386 44.5032 23.0532 44.1698 22.7205C43.79 22.3414 43.4104 21.9622 43.0308 21.5829C42.2505 20.8033 41.4699 20.0239 40.6892 19.2446C40.4634 19.3421 40.3168 19.4689 40.1437 19.6425C40.0879 19.6981 40.032 19.7538 39.9745 19.8111C39.8835 19.9028 39.8835 19.9028 39.7907 19.9964C39.7257 20.0614 39.6607 20.1263 39.5957 20.1913C39.4195 20.3674 39.2437 20.544 39.068 20.7206C38.8842 20.9052 38.7001 21.0895 38.516 21.2737C38.1675 21.6226 37.8193 21.9719 37.4713 22.3213C37.075 22.719 36.6783 23.1164 36.2816 23.5138C35.4656 24.3311 34.6501 25.1489 33.835 25.9671C33.6308 25.8695 33.4913 25.7711 33.3318 25.6096C33.286 25.5636 33.2403 25.5177 33.1932 25.4703C33.1445 25.4207 33.0958 25.3712 33.0456 25.3201C32.9951 25.2692 32.9446 25.2184 32.8926 25.166C32.7313 25.0036 32.5705 24.8407 32.4097 24.6778C32.2485 24.5147 32.0871 24.3517 31.9255 24.1888C31.825 24.0875 31.7246 23.986 31.6245 23.8843C31.5792 23.8386 31.5338 23.7928 31.4872 23.7457C31.4473 23.7052 31.4074 23.6648 31.3663 23.6231C31.2673 23.5221 31.2673 23.5221 31.1328 23.4626C31.1699 23.2078 31.2815 23.0915 31.461 22.9121C31.5174 22.8552 31.5739 22.7982 31.6321 22.7396C31.6951 22.677 31.7582 22.6145 31.8212 22.552C31.8873 22.4857 31.9533 22.4195 32.0193 22.3532C32.1986 22.1733 32.3785 21.994 32.5585 21.8148C32.7467 21.6274 32.9343 21.4395 33.122 21.2517C33.4372 20.9364 33.7528 20.6216 34.0686 20.307C34.4341 19.9428 34.7991 19.5781 35.1637 19.213C35.5142 18.8622 35.865 18.5118 36.2159 18.1616C36.3655 18.0123 36.5149 17.8629 36.6643 17.7135C36.8399 17.5377 37.0159 17.3622 37.1922 17.187C37.257 17.1225 37.3216 17.0579 37.3862 16.9932C37.474 16.9051 37.5623 16.8176 37.6505 16.73C37.6999 16.6808 37.7493 16.6315 37.8001 16.5808C37.9212 16.4766 37.9212 16.4766 38.053 16.4766Z" fill="#1E2C39"/>
<path d="M26.7171 0C26.9722 0.117894 27.1457 0.281642 27.3391 0.481939C27.3697 0.513161 27.4003 0.544383 27.4319 0.576551C27.5233 0.669783 27.6145 0.763281 27.7057 0.856781C27.8154 0.966726 27.9253 1.07656 28.0352 1.18631C35.4826 8.63371 35.4826 8.63371 35.6598 8.81165C35.7491 8.90051 35.8397 8.98817 35.9331 9.07266C36.0346 9.16508 36.0346 9.16508 36.2076 9.35868C36.1963 9.61111 36.0521 9.73403 35.8775 9.90344C35.8233 9.95671 35.7691 10.01 35.7133 10.0649C35.6562 10.12 35.5991 10.1751 35.5403 10.2319C35.1901 10.573 34.8486 10.9136 34.5308 11.2852C34.3332 11.5094 34.1099 11.7069 33.8905 11.9095C33.7531 12.045 33.7531 12.045 33.7799 12.1862C33.848 12.3573 33.9354 12.4487 34.0663 12.5782C34.1395 12.6514 34.1395 12.6514 34.2142 12.7261C34.2672 12.7781 34.3202 12.8301 34.3748 12.8836C34.4559 12.9643 34.4559 12.9643 34.5385 13.0465C34.7113 13.2182 34.8848 13.3892 35.0583 13.5602C35.1756 13.6764 35.2927 13.7927 35.4099 13.909C35.6972 14.1942 35.9851 14.4788 36.2735 14.763C35.9512 15.1514 35.6037 15.5076 35.2463 15.8636C35.1832 15.9266 35.1202 15.9896 35.0572 16.0527C34.8873 16.2226 34.7172 16.3923 34.547 16.562C34.3688 16.7398 34.1907 16.9179 34.0127 17.0958C33.676 17.4323 33.3392 17.7686 33.0023 18.1048C32.6185 18.4879 32.2349 18.8711 31.8513 19.2544C31.0628 20.0422 30.274 20.8298 29.4851 21.6172C29.2776 21.5182 29.1364 21.4165 28.9738 21.2527C28.9026 21.1814 28.9026 21.1814 28.8299 21.1087C28.7794 21.0575 28.7288 21.0063 28.6767 20.9535C28.6245 20.9011 28.5722 20.8486 28.5183 20.7945C28.3515 20.6269 28.1851 20.4589 28.0187 20.2909C27.9056 20.1771 27.7925 20.0634 27.6794 19.9498C27.4022 19.6711 27.1254 19.3921 26.8489 19.1128C26.5771 19.2375 26.3931 19.4211 26.1865 19.6328C26.1484 19.6712 26.1104 19.7096 26.0712 19.7491C25.9498 19.8717 25.8288 19.9948 25.7079 20.1179C25.5876 20.24 25.4672 20.362 25.3466 20.4838C25.2718 20.5595 25.1971 20.6353 25.1226 20.7114C24.9046 20.9321 24.6792 21.1346 24.4369 21.3286C24.3265 21.4234 24.3265 21.4234 24.2785 21.6172C23.9896 21.5841 23.8606 21.496 23.6562 21.2925C23.5997 21.2367 23.5431 21.181 23.4848 21.1236C23.4237 21.062 23.3625 21.0004 23.2995 20.937C23.2338 20.8718 23.1681 20.8066 23.1023 20.7415C22.924 20.5647 22.7465 20.387 22.5693 20.2092C22.4213 20.0609 22.2729 19.9129 22.1245 19.765C21.7746 19.4162 21.4254 19.0668 21.0766 18.7169C20.7164 18.3556 20.3551 17.9953 19.9933 17.6357C19.6828 17.3269 19.373 17.0176 19.0637 16.7078C18.8789 16.5226 18.6938 16.3377 18.5082 16.1534C18.3338 15.9802 18.1602 15.8063 17.9873 15.6317C17.9235 15.5676 17.8595 15.5039 17.7952 15.4404C17.7078 15.3539 17.6214 15.2664 17.535 15.1788C17.462 15.1056 17.462 15.1056 17.3874 15.031C17.2925 14.8948 17.2925 14.8948 17.3041 14.753C17.3741 14.5958 17.4646 14.4989 17.5855 14.3764C17.6335 14.3273 17.6815 14.2783 17.7309 14.2278C17.7831 14.1756 17.8352 14.1235 17.889 14.0697C17.9424 14.0158 17.9958 13.9619 18.0508 13.9063C18.1639 13.7926 18.2772 13.6791 18.3907 13.5658C18.5649 13.3918 18.7375 13.2163 18.9101 13.0408C19.02 12.9306 19.13 12.8204 19.2401 12.7104C19.2918 12.6575 19.3436 12.6047 19.3969 12.5502C19.4455 12.5022 19.4941 12.4543 19.5442 12.4048C19.5867 12.3622 19.6293 12.3195 19.6731 12.2755C19.7969 12.1926 19.7969 12.1926 19.9333 12.2024C20.1437 12.2952 20.2875 12.463 20.4449 12.6259C20.4998 12.6814 20.4998 12.6814 20.5557 12.7381C20.6726 12.8565 20.7888 12.9756 20.905 13.0947C21.0205 13.2126 21.1362 13.3303 21.2521 13.4479C21.3241 13.521 21.3958 13.5942 21.4673 13.6677C21.6388 13.8425 21.8128 14.0066 22.0016 14.1626C22.2142 14.3416 22.3899 14.5393 22.5699 14.7505C22.8167 15.0312 23.0852 15.2912 23.3502 15.5546C23.4117 15.616 23.4731 15.6774 23.5365 15.7406C23.6985 15.9024 23.8607 16.064 24.023 16.2255C24.1878 16.3896 24.3523 16.5539 24.5169 16.7182C24.8095 17.0101 25.1021 17.3019 25.3951 17.5934C25.5057 17.7037 25.6157 17.8146 25.7255 17.9257C25.8586 18.0622 25.8586 18.0622 26.0168 18.1778C26.2565 18.3775 26.4506 18.611 26.6512 18.8492C26.9039 18.812 27.0189 18.7036 27.1967 18.5251C27.2525 18.4696 27.3083 18.414 27.3658 18.3568C27.4265 18.2954 27.4872 18.234 27.5497 18.1708C27.6146 18.1058 27.6796 18.0409 27.7446 17.976C27.921 17.7997 28.0967 17.6228 28.2724 17.4457C28.456 17.2609 28.6402 17.0765 28.8244 16.8921C29.173 16.5429 29.5212 16.1931 29.8691 15.8432C30.2653 15.4448 30.662 15.047 31.0588 14.6492C31.8749 13.831 32.6904 13.0121 33.5054 12.1926C33.4084 11.9687 33.2833 11.8217 33.1118 11.6492C33.0571 11.5938 33.0024 11.5385 32.9461 11.4814C32.8859 11.4213 32.8258 11.3611 32.7639 11.2991C32.7 11.2347 32.6361 11.1703 32.5722 11.1058C32.399 10.9311 32.2252 10.7568 32.0514 10.5826C31.9428 10.4738 31.8344 10.3649 31.7259 10.256C31.3478 9.87628 30.9693 9.49691 30.5905 9.11786C30.237 8.76417 29.8845 8.40963 29.5323 8.0547C29.23 7.75013 28.9271 7.4462 28.6237 7.14275C28.4424 6.96143 28.2614 6.77986 28.0811 6.59763C27.9116 6.42645 27.7414 6.25606 27.5705 6.08627C27.4779 5.99381 27.3861 5.90054 27.2943 5.80725C27.2392 5.75282 27.1841 5.69839 27.1274 5.64231C27.0797 5.59448 27.032 5.54664 26.9829 5.49736C26.8581 5.39144 26.8581 5.39144 26.7174 5.4061C26.5452 5.48963 26.4361 5.59509 26.3008 5.73085C26.2445 5.78695 26.1881 5.84305 26.13 5.90085C26.0681 5.96347 26.0062 6.0261 25.9443 6.08875C25.8787 6.15438 25.8131 6.21997 25.7474 6.28552C25.5693 6.46359 25.3918 6.64226 25.2144 6.82104C25.0289 7.00778 24.8428 7.19397 24.6568 7.38021C24.3047 7.73296 23.953 8.08622 23.6016 8.43966C23.2014 8.84202 22.8007 9.24381 22.4 9.64556C21.5756 10.472 20.7519 11.2991 19.9287 12.1267C19.6842 11.9198 19.4416 11.7138 19.2154 11.4868C19.1719 11.4432 19.1283 11.3997 19.0835 11.3549C19.0383 11.3094 18.9931 11.2638 18.9466 11.2169C18.8751 11.1454 18.8751 11.1454 18.8023 11.0723C18.6517 10.9214 18.5014 10.7703 18.3511 10.6191C18.2484 10.5161 18.1458 10.4132 18.0431 10.3102C17.7927 10.0591 17.5425 9.80783 17.2925 9.5564C17.3904 9.32884 17.5191 9.18195 17.6942 9.00793C17.7498 8.95227 17.8055 8.89662 17.8629 8.83928C17.9231 8.77968 17.9834 8.72009 18.0455 8.65868C18.1081 8.59634 18.1707 8.53397 18.2332 8.47157C18.3978 8.30747 18.5628 8.14378 18.7279 7.98016C18.8949 7.81444 19.0616 7.64835 19.2283 7.48229C19.5226 7.18931 19.8171 6.89666 20.1119 6.60425C20.2709 6.44626 20.4294 6.28781 20.5878 6.12928C20.6786 6.0385 20.7693 5.94773 20.8601 5.85696C20.9121 5.80493 20.9642 5.75291 21.0178 5.6993C22.9175 3.79954 24.8173 1.89977 26.7171 0Z" fill="#1E2C39"/>
<path d="M26.7815 33.088C26.9546 33.1709 27.0631 33.2761 27.1987 33.4122C27.2551 33.4683 27.3114 33.5244 27.3695 33.5822C27.4314 33.6448 27.4934 33.7075 27.5553 33.7701C27.6208 33.8357 27.6865 33.9013 27.7521 33.9669C27.9302 34.1449 28.1078 34.3236 28.2852 34.5024C28.4707 34.6891 28.6567 34.8753 28.8427 35.0616C29.1949 35.4143 29.5465 35.7676 29.898 36.121C30.2981 36.5234 30.6988 36.9252 31.0996 37.3269C31.9239 38.1534 32.7476 38.9805 33.5708 39.8081C33.4733 40.034 33.3465 40.1805 33.1729 40.3536C33.1173 40.4095 33.0617 40.4653 33.0043 40.5228C32.9432 40.5835 32.882 40.6441 32.819 40.7067C32.7541 40.7716 32.6891 40.8366 32.6242 40.9016C32.448 41.0778 32.2714 41.2536 32.0948 41.4293C31.9102 41.6131 31.726 41.7972 31.5417 41.9813C31.1928 42.3298 30.8435 42.678 30.4942 43.0261C30.0964 43.4224 29.699 43.819 29.3016 44.2157C28.4843 45.0317 27.6665 45.8472 26.8484 46.6623C26.6213 46.5646 26.4743 46.4364 26.3003 46.262C26.244 46.2058 26.1876 46.1496 26.1295 46.0917C26.0676 46.0293 26.0057 45.9669 25.9438 45.9045C25.8782 45.8389 25.8126 45.7733 25.7469 45.7077C25.5689 45.5298 25.3914 45.3514 25.2139 45.173C25.0283 44.9866 24.8423 44.8005 24.6563 44.6144C24.3043 44.262 23.9526 43.9092 23.6011 43.5563C23.2008 43.1546 22.8001 42.7532 22.3995 42.3519C21.5753 41.5263 20.7516 40.7003 19.9282 39.874C20.2484 39.489 20.592 39.1333 20.9452 38.7784C21.0071 38.7159 21.0691 38.6534 21.1311 38.5909C21.3328 38.3875 21.5349 38.1843 21.737 37.9813C21.8068 37.9111 21.8767 37.8409 21.9465 37.7708C22.2366 37.4792 22.5268 37.1878 22.8173 36.8965C23.2329 36.4799 23.6479 36.0626 24.0622 35.6446C24.3542 35.3501 24.6467 35.0563 24.9398 34.7629C25.1146 34.5878 25.2892 34.4124 25.4631 34.2363C25.6566 34.0405 25.8513 33.8461 26.0462 33.6517C26.1038 33.593 26.1614 33.5343 26.2207 33.4739C26.3003 33.3951 26.3003 33.3951 26.3814 33.3148C26.4273 33.2687 26.4732 33.2226 26.5205 33.1751C26.6507 33.0857 26.6507 33.0857 26.7815 33.088Z" fill="#FEFEFD"/>
<path d="M12.9096 19.2465C13.1079 19.3235 13.214 19.4168 13.3647 19.5669C13.4207 19.6221 13.4767 19.6772 13.5344 19.7341C13.595 19.795 13.6555 19.856 13.7179 19.9188C13.7829 19.9834 13.848 20.0479 13.9132 20.1124C14.0897 20.2874 14.2654 20.4633 14.4409 20.6394C14.5874 20.7862 14.7343 20.9327 14.8812 21.0791C15.2277 21.4244 15.5734 21.7704 15.9187 22.1169C16.2753 22.4746 16.633 22.8312 16.9912 23.1873C17.2986 23.4929 17.6053 23.7992 17.9116 24.1059C18.0945 24.2892 18.2777 24.4723 18.4615 24.6547C18.6342 24.8262 18.806 24.9984 18.9773 25.1713C19.0705 25.265 19.1646 25.358 19.2587 25.4508C19.3136 25.5066 19.3684 25.5623 19.425 25.6197C19.4732 25.668 19.5215 25.7162 19.5712 25.766C19.6651 25.9012 19.6651 25.9012 19.6634 26.0328C19.5797 26.2048 19.4742 26.314 19.3385 26.4492C19.2824 26.5056 19.2263 26.5619 19.1685 26.62C19.1059 26.6819 19.0433 26.7439 18.9806 26.8058C18.915 26.8713 18.8494 26.937 18.7839 27.0026C18.6058 27.1808 18.4271 27.3583 18.2483 27.5357C18.0616 27.7212 17.8754 27.9072 17.6892 28.0932C17.3364 28.4454 16.9831 28.797 16.6297 29.1485C16.2273 29.5486 15.8256 29.9493 15.4238 30.3501C14.5974 31.1745 13.7702 31.9981 12.9426 32.8213C12.5592 32.5031 12.2074 32.1605 11.8563 31.8073C11.7627 31.7136 11.6692 31.62 11.5757 31.5263C11.4761 31.4265 11.3765 31.3265 11.277 31.2266C11.0692 31.0179 10.8611 30.8094 10.653 30.601C10.2119 30.1591 9.771 29.7169 9.33014 29.2747C8.85299 28.7961 8.37579 28.3176 7.89827 27.8393C7.69131 27.6321 7.4845 27.4246 7.27782 27.217C7.18043 27.1193 7.08295 27.0216 6.98545 26.9239C6.86644 26.8047 6.74755 26.6854 6.6288 26.5659C6.57661 26.5137 6.52441 26.4615 6.47063 26.4077C6.40246 26.3394 6.40246 26.3394 6.3329 26.2696C6.22514 26.1595 6.22514 26.1595 6.08838 26.0989C6.12578 25.8471 6.23318 25.7311 6.4102 25.5529C6.46527 25.497 6.52034 25.4411 6.57707 25.3835C6.63795 25.3227 6.69882 25.2619 6.76154 25.1993C6.82598 25.1342 6.89039 25.0692 6.95476 25.0041C7.12967 24.8274 7.30523 24.6514 7.48095 24.4755C7.62754 24.3287 7.77385 24.1817 7.92018 24.0347C8.2653 23.688 8.61098 23.3418 8.95697 22.9959C9.31417 22.6389 9.67025 22.2807 10.0258 21.922C10.331 21.6142 10.6369 21.3072 10.9435 21.0008C11.1266 20.8177 11.3095 20.6343 11.4915 20.4502C11.6627 20.2771 11.8348 20.105 12.0076 19.9336C12.1012 19.8403 12.1938 19.7461 12.2864 19.6518C12.3701 19.5693 12.3701 19.5693 12.4555 19.4851C12.5037 19.4368 12.5519 19.3885 12.6016 19.3387C12.7449 19.2446 12.7449 19.2446 12.9096 19.2465Z" fill="#FEFEFE"/>
<path d="M15.6445 16.4766C15.736 16.5694 15.736 16.5694 15.8439 16.7001C16.1261 17.0318 16.4306 17.3373 16.739 17.6445C16.8014 17.7069 16.8638 17.7693 16.9262 17.8317C17.0941 17.9996 17.2621 18.1672 17.4302 18.3349C17.6065 18.5107 17.7825 18.6867 17.9585 18.8626C18.2912 19.1951 18.6241 19.5275 18.957 19.8597C19.3363 20.2383 19.7155 20.6171 20.0946 20.9958C20.8738 21.7744 21.6532 22.5527 22.4329 23.3308C22.3698 23.4048 22.3066 23.4787 22.2435 23.5526C22.1907 23.6144 22.1907 23.6144 22.1369 23.6774C22.0246 23.8069 21.9078 23.9303 21.7867 24.0517C21.7427 24.0957 21.6988 24.1397 21.6536 24.185C21.609 24.2294 21.5644 24.2737 21.5184 24.3194C21.4743 24.3637 21.4302 24.4081 21.3848 24.4538C21.1236 24.7144 20.8559 24.9622 20.5739 25.2003C20.4117 25.348 20.2765 25.5125 20.1411 25.6846C20.1144 25.7126 20.0877 25.7405 20.0602 25.7693C20.0167 25.7693 19.9732 25.7693 19.9284 25.7693C19.9099 25.9655 19.905 26.0661 20.0214 26.2293C20.065 26.2711 20.1085 26.3129 20.1533 26.3559C20.2023 26.4039 20.2514 26.4518 20.3019 26.5012C20.3554 26.552 20.409 26.6029 20.4642 26.6552C20.5184 26.7082 20.5727 26.7613 20.6287 26.8159C20.8023 26.9855 20.9769 27.154 21.1518 27.3223C21.3821 27.5438 21.6113 27.7665 21.84 27.9898C21.8936 28.0408 21.9473 28.0917 22.0026 28.1442C22.0514 28.1919 22.1003 28.2397 22.1506 28.2889C22.194 28.3306 22.2375 28.3723 22.2823 28.4153C22.3669 28.5374 22.3669 28.5374 22.3555 28.659C22.2843 28.8448 22.1825 28.9448 22.0422 29.0859C21.9865 29.1423 21.9307 29.1988 21.8733 29.257C21.8117 29.3184 21.7502 29.3798 21.6867 29.443C21.6215 29.5087 21.5563 29.5745 21.4912 29.6402C21.3142 29.8187 21.1367 29.9964 20.9589 30.1741C20.8107 30.3223 20.6627 30.4708 20.5147 30.6193C20.1658 30.9695 19.8164 31.3192 19.4666 31.6685C19.1054 32.0293 18.7451 32.391 18.3854 32.7532C18.0767 33.064 17.7673 33.3741 17.4575 33.6836C17.2723 33.8687 17.0874 34.0539 16.9031 34.2398C16.7299 34.4145 16.556 34.5883 16.3814 34.7616C16.3173 34.8254 16.2536 34.8895 16.1901 34.9539C16.1037 35.0415 16.0161 35.1281 15.9285 35.2145C15.8797 35.2633 15.831 35.3122 15.7807 35.3624C15.6445 35.4576 15.6445 35.4576 15.5029 35.4462C15.3421 35.3743 15.245 35.2795 15.1211 35.1543C15.0709 35.1041 15.0208 35.054 14.9692 35.0023C14.9158 34.9479 14.8623 34.8935 14.8073 34.8374C14.7245 34.7541 14.7245 34.7541 14.64 34.6692C14.4636 34.4917 14.2879 34.3135 14.1122 34.1353C13.9928 34.0149 13.8733 33.8946 13.7538 33.7742C13.4608 33.4791 13.1684 33.1834 12.8765 32.8872C13.1963 32.5011 13.5419 32.1489 13.8986 31.7969C13.9611 31.7349 14.0236 31.6729 14.0861 31.611C14.2198 31.4784 14.3536 31.3459 14.4874 31.2134C14.699 31.004 14.9101 30.7942 15.1212 30.5844C15.1936 30.5124 15.266 30.4403 15.3385 30.3683C15.3928 30.3143 15.3928 30.3143 15.4483 30.2591C15.9391 29.7711 16.4303 29.2834 16.9224 28.7966C17.2552 28.4674 17.5874 28.1376 17.919 27.8071C18.0943 27.6324 18.2699 27.458 18.4462 27.2844C18.6423 27.0912 18.8371 26.8968 19.0318 26.7023C19.0906 26.6448 19.1494 26.5873 19.21 26.5281C19.2625 26.4751 19.3151 26.4222 19.3693 26.3677C19.4155 26.3218 19.4617 26.276 19.5093 26.2288C19.6118 26.1072 19.6118 26.1072 19.5962 25.9677C19.5148 25.7971 19.4126 25.6904 19.2787 25.5567C19.224 25.5017 19.1693 25.4466 19.1129 25.3898C19.0524 25.33 18.992 25.2701 18.9297 25.2085C18.8657 25.1444 18.8017 25.0803 18.7378 25.0161C18.5641 24.8421 18.3897 24.6686 18.2153 24.4953C18.0329 24.3139 17.851 24.132 17.6691 23.9501C17.3634 23.6447 17.0575 23.3397 16.7512 23.0349C16.3581 22.6437 15.9656 22.2519 15.5732 21.8598C15.236 21.5229 14.8985 21.1862 14.561 20.8496C14.4525 20.7414 14.344 20.6331 14.2355 20.5248C14.0651 20.3546 13.8944 20.1847 13.7237 20.0149C13.6311 19.9227 13.5386 19.8304 13.4462 19.7381C13.3911 19.6834 13.336 19.6287 13.2793 19.5723C13.2315 19.5247 13.1836 19.477 13.1343 19.4279C13.0032 19.2995 13.0032 19.2995 12.8105 19.1787C12.8105 19.1352 12.8105 19.0917 12.8105 19.0469C12.8536 19.0227 12.8967 18.9984 12.9412 18.9735C13.2303 18.7929 13.4491 18.5537 13.6866 18.3109C13.7385 18.2585 13.7904 18.2061 13.8439 18.1521C14.0091 17.9852 14.174 17.8179 14.3387 17.6505C14.5563 17.4295 14.7742 17.2089 14.9924 16.9886C15.0426 16.9373 15.0928 16.8861 15.1445 16.8332C15.1909 16.7864 15.2373 16.7395 15.2852 16.6912C15.326 16.6497 15.3669 16.6081 15.409 16.5653C15.5127 16.4766 15.5127 16.4766 15.6445 16.4766Z" fill="#A6A6A8"/>
<path d="M24.1559 30.395C24.3153 30.4648 24.4099 30.5563 24.5323 30.6801C24.5811 30.7289 24.6299 30.7777 24.6802 30.828C24.7322 30.881 24.7841 30.934 24.8377 30.9886C24.9183 31.0696 24.9183 31.0696 25.0006 31.1523C25.1723 31.3251 25.3433 31.4986 25.5143 31.6721C25.6305 31.7893 25.7468 31.9065 25.8631 32.0236C26.1483 32.311 26.4329 32.5989 26.7171 32.8872C26.9786 32.7675 27.12 32.6147 27.3102 32.3971C27.6186 32.0508 27.9438 31.74 28.289 31.4301C28.6579 31.0958 29.004 30.7372 29.3533 30.3828C29.5803 30.4806 29.7274 30.6088 29.9013 30.7832C29.9577 30.8394 30.0141 30.8956 30.0722 30.9535C30.1341 31.0158 30.196 31.0782 30.2579 31.1406C30.3235 31.2063 30.3891 31.2719 30.4548 31.3374C30.6327 31.5154 30.8103 31.6937 30.9878 31.8721C31.1734 32.0586 31.3594 32.2447 31.5454 32.4308C31.8974 32.7832 32.2491 33.1359 32.6006 33.4888C33.0009 33.8906 33.4015 34.2919 33.8022 34.6933C34.6264 35.5188 35.4501 36.3448 36.2735 37.1712C35.8634 37.6557 35.8634 37.6557 35.6406 37.8764C35.5986 37.9181 35.5566 37.9599 35.5134 38.0029C35.4475 38.0679 35.4475 38.0679 35.3804 38.1343C35.3343 38.1801 35.2882 38.226 35.2407 38.2732C35.0949 38.4181 34.949 38.5629 34.8029 38.7076C34.6094 38.8994 34.4161 39.0914 34.2229 39.2835C34.1783 39.3275 34.1338 39.3715 34.0879 39.4168C34.047 39.4576 34.006 39.4983 33.9638 39.5403C33.9277 39.576 33.8916 39.6118 33.8544 39.6487C33.7618 39.7408 33.7618 39.7408 33.7031 39.8733C33.4771 39.7759 33.3318 39.6494 33.1594 39.475C33.1039 39.4193 33.0485 39.3635 32.9914 39.3061C32.9311 39.2449 32.8708 39.1836 32.8087 39.1205C32.7442 39.0554 32.6797 38.9903 32.6151 38.9253C32.4763 38.7854 32.3376 38.6453 32.1991 38.505C31.9802 38.2834 31.7607 38.0623 31.5411 37.8414C30.9166 37.2132 30.2929 36.5843 29.6701 35.9545C29.326 35.6065 28.9814 35.2591 28.636 34.9124C28.4174 34.6928 28.1995 34.4725 27.9821 34.2516C27.847 34.1146 27.7112 33.9784 27.5751 33.8423C27.4818 33.7485 27.3894 33.654 27.297 33.5595C27.2416 33.5043 27.1861 33.4491 27.129 33.3923C27.081 33.3438 27.033 33.2953 26.9835 33.2453C26.8583 33.1379 26.8583 33.1379 26.7172 33.1527C26.5464 33.2356 26.4377 33.3396 26.3033 33.474C26.2475 33.5294 26.1917 33.5847 26.1342 33.6418C26.0735 33.7029 26.0128 33.7641 25.9503 33.8272C25.8854 33.8919 25.8204 33.9567 25.7554 34.0214C25.579 34.1971 25.4033 34.3735 25.2277 34.55C25.044 34.7344 24.8598 34.9183 24.6756 35.1023C24.3666 35.4113 24.0579 35.7207 23.7495 36.0303C23.3926 36.3887 23.035 36.7465 22.6772 37.1039C22.3333 37.4474 21.9897 37.7913 21.6464 38.1354C21.5001 38.282 21.3537 38.4285 21.2071 38.5749C21.0348 38.7471 20.8628 38.9197 20.6911 39.0924C20.5976 39.1863 20.5038 39.2799 20.4099 39.3735C20.3549 39.429 20.2998 39.4846 20.2431 39.5418C20.1948 39.5902 20.1465 39.6386 20.0968 39.6884C19.9803 39.7979 19.9803 39.7979 19.9946 39.9392C19.7848 39.8693 19.7504 39.836 19.619 39.6711C19.3904 39.3947 19.1415 39.1436 18.8871 38.8911C18.8394 38.8435 18.7917 38.7959 18.7425 38.7468C18.5916 38.5963 18.4404 38.446 18.2893 38.2957C18.1863 38.193 18.0833 38.0903 17.9804 37.9876C17.7293 37.7373 17.478 37.4871 17.2266 37.2371C17.5485 36.8498 17.8944 36.4923 18.2496 36.1354C18.3122 36.0723 18.3748 36.0091 18.4374 35.946C18.6413 35.7404 18.8455 35.5351 19.0498 35.3299C19.1203 35.259 19.1909 35.1881 19.2614 35.1172C19.5546 34.8226 19.8479 34.5281 20.1414 34.2338C20.5614 33.8127 20.9808 33.3911 21.3995 32.9687C21.6945 32.6712 21.9902 32.3742 22.2863 32.0777C22.463 31.9008 22.6394 31.7236 22.8152 31.5457C22.9801 31.3788 23.1458 31.2127 23.3121 31.0471C23.4022 30.957 23.4915 30.8661 23.5808 30.7752C23.6344 30.7222 23.688 30.6691 23.7432 30.6145C23.7895 30.5679 23.8359 30.5213 23.8837 30.4733C24.0149 30.3828 24.0149 30.3828 24.1559 30.395Z" fill="#A6A6A8"/>
<path d="M33.7031 12.1265C33.7991 12.2238 33.7991 12.2238 33.9104 12.358C34.1514 12.6413 34.4069 12.9047 34.6708 13.1665C34.717 13.2126 34.7632 13.2587 34.8107 13.3061C34.9562 13.4513 35.102 13.5962 35.2478 13.7412C35.3473 13.8404 35.4468 13.9396 35.5463 14.0388C35.7885 14.2803 36.0309 14.5215 36.2734 14.7627C35.9512 15.1511 35.6037 15.5073 35.2463 15.8633C35.1832 15.9263 35.1202 15.9894 35.0571 16.0524C34.8872 16.2224 34.7171 16.3921 34.547 16.5617C34.3688 16.7396 34.1907 16.9176 34.0126 17.0956C33.676 17.432 33.3391 17.7683 33.0022 18.1046C32.6185 18.4876 32.2349 18.8708 31.8513 19.2541C31.0628 20.0419 30.274 20.8295 29.4851 21.617C29.2775 21.5179 29.1364 21.4162 28.9737 21.2524C28.9025 21.1811 28.9025 21.1811 28.8299 21.1085C28.7793 21.0573 28.7288 21.006 28.6767 20.9533C28.6244 20.9008 28.5721 20.8483 28.5183 20.7942C28.3514 20.6267 28.1851 20.4586 28.0187 20.2906C27.9056 20.1769 27.7925 20.0632 27.6794 19.9495C27.4022 19.6708 27.1254 19.3918 26.8489 19.1125C26.577 19.2373 26.3931 19.4208 26.1864 19.6326C26.1484 19.6709 26.1104 19.7093 26.0712 19.7488C25.9498 19.8715 25.8288 19.9945 25.7078 20.1176C25.5876 20.2397 25.4672 20.3617 25.3466 20.4835C25.2717 20.5592 25.1971 20.635 25.1226 20.7111C24.9045 20.9318 24.6792 21.1343 24.4368 21.3283C24.3265 21.4231 24.3265 21.4231 24.2785 21.617C23.9895 21.5839 23.8605 21.4958 23.6562 21.2922C23.5996 21.2365 23.5431 21.1808 23.4848 21.1233C23.4237 21.0618 23.3625 21.0002 23.2995 20.9367C23.2338 20.8715 23.1681 20.8063 23.1023 20.7412C22.924 20.5644 22.7465 20.3868 22.5692 20.2089C22.4213 20.0606 22.2729 19.9127 22.1245 19.7647C21.7746 19.416 21.4253 19.0665 21.0765 18.7166C20.7163 18.3553 20.3551 17.9951 19.9933 17.6354C19.6828 17.3267 19.373 17.0173 19.0637 16.7075C18.8789 16.5223 18.6938 16.3374 18.5082 16.1531C18.3338 15.98 18.1602 15.806 17.9872 15.6314C17.9235 15.5674 17.8595 15.5036 17.7952 15.4401C17.7077 15.3537 17.6213 15.2661 17.535 15.1785C17.4863 15.1297 17.4376 15.081 17.3874 15.0307C17.2925 14.8945 17.2925 14.8945 17.3041 14.7528C17.3741 14.5955 17.4645 14.4986 17.5855 14.3761C17.6575 14.3026 17.6575 14.3026 17.7309 14.2276C17.783 14.1754 17.8352 14.1232 17.889 14.0694C17.9424 14.0155 17.9958 13.9616 18.0508 13.9061C18.1638 13.7923 18.2771 13.6788 18.3907 13.5655C18.5648 13.3915 18.7375 13.2161 18.9101 13.0405C19.02 12.9303 19.13 12.8202 19.24 12.7101C19.2918 12.6572 19.3436 12.6044 19.3969 12.5499C19.4698 12.478 19.4698 12.478 19.5442 12.4046C19.5867 12.3619 19.6292 12.3192 19.6731 12.2752C19.7969 12.1924 19.7969 12.1924 19.9333 12.2022C20.1437 12.2949 20.2875 12.4627 20.4449 12.6257C20.4814 12.6627 20.518 12.6997 20.5557 12.7378C20.6726 12.8562 20.7888 12.9753 20.9049 13.0945C21.0205 13.2123 21.1362 13.3301 21.2521 13.4476C21.324 13.5207 21.3958 13.594 21.4673 13.6675C21.6388 13.8422 21.8128 14.0063 22.0016 14.1623C22.2142 14.3414 22.3899 14.539 22.5699 14.7502C22.8167 15.0309 23.0852 15.2909 23.3502 15.5544C23.4424 15.6464 23.4424 15.6464 23.5364 15.7403C23.6985 15.9021 23.8607 16.0637 24.0229 16.2252C24.1877 16.3893 24.3523 16.5536 24.5169 16.7179C24.8094 17.0098 25.1021 17.3016 25.395 17.5931C25.5056 17.7034 25.6156 17.8143 25.7255 17.9254C25.8586 18.0619 25.8586 18.0619 26.0168 18.1775C26.2565 18.3772 26.4505 18.6107 26.6511 18.8489C26.905 18.8118 27.0201 18.7019 27.1983 18.5224C27.2545 18.4663 27.3106 18.4102 27.3685 18.3524C27.4302 18.2897 27.4919 18.2271 27.5536 18.1645C27.619 18.0988 27.6844 18.0332 27.7499 17.9677C27.8906 17.8265 28.0311 17.685 28.1714 17.5433C28.3929 17.3193 28.6152 17.0961 28.8376 16.873C29.2693 16.4398 29.7002 16.0058 30.131 15.5717C30.6798 15.0189 31.229 14.4665 31.7788 13.9146C32 13.6925 32.2208 13.4701 32.4414 13.2474C32.5784 13.1093 32.7156 12.9714 32.8529 12.8335C32.9168 12.7693 32.9805 12.705 33.0441 12.6406C33.1306 12.553 33.2175 12.4659 33.3045 12.3787C33.3774 12.3052 33.3774 12.3052 33.4518 12.2302C33.5713 12.1265 33.5713 12.1265 33.7031 12.1265Z" fill="#A6A6A8"/>
<path d="M33.7027 26.0327C33.9297 26.1304 34.0758 26.2583 34.2491 26.4334C34.3043 26.4888 34.3595 26.5443 34.4164 26.6014C34.4756 26.6615 34.5348 26.7215 34.5958 26.7834C34.6578 26.8459 34.7199 26.9083 34.7819 26.9706C34.9453 27.1349 35.1083 27.2995 35.2713 27.4642C35.5312 27.727 35.7915 27.9893 36.0521 28.2514C36.1425 28.3425 36.2326 28.4337 36.3227 28.525C36.5563 28.7603 36.7874 28.9927 37.0431 29.2041C37.2504 29.3769 37.4197 29.5702 37.5945 29.7753C37.8501 30.0655 38.1282 30.3344 38.4024 30.607C38.4667 30.6713 38.5311 30.7355 38.5954 30.7998C38.7631 30.9672 38.931 31.1345 39.0989 31.3017C39.2709 31.473 39.4427 31.6445 39.6146 31.816C39.9505 32.1512 40.2866 32.4862 40.6228 32.8211C40.2016 33.3229 39.7441 33.7851 39.2828 34.25C39.1815 34.3525 39.0805 34.4553 38.9799 34.5584C38.8341 34.7078 38.6872 34.8561 38.5401 35.0042C38.4951 35.0507 38.4502 35.0971 38.4038 35.145C38.3616 35.1871 38.3193 35.2291 38.2758 35.2725C38.2389 35.3098 38.2021 35.3472 38.1641 35.3858C38.0525 35.4573 38.0525 35.4573 37.9315 35.445C37.7447 35.3748 37.6455 35.2733 37.504 35.1325C37.4476 35.0768 37.3911 35.0211 37.3329 34.9637C37.2715 34.9021 37.2101 34.8405 37.1469 34.7771C37.0812 34.7118 37.0154 34.6467 36.9497 34.5816C36.7713 34.4046 36.5935 34.227 36.4158 34.0492C36.2676 33.901 36.1191 33.7531 35.9706 33.6051C35.6204 33.2562 35.2707 32.9067 34.9214 32.5569C34.5606 32.1957 34.1989 31.8355 33.8367 31.4757C33.5259 31.167 33.2158 30.8577 32.9063 30.5478C32.7212 30.3627 32.536 30.1778 32.3501 29.9935C32.1754 29.8203 32.0016 29.6463 31.8283 29.4717C31.7645 29.4077 31.7004 29.3439 31.636 29.2805C31.5484 29.194 31.4618 29.1065 31.3754 29.0188C31.3266 28.9701 31.2778 28.9213 31.2275 28.8711C31.1324 28.7349 31.1324 28.7349 31.145 28.5914C31.2066 28.4523 31.2709 28.3812 31.3844 28.2802C31.4244 28.2439 31.4643 28.2075 31.5055 28.17C31.5496 28.1308 31.5936 28.0915 31.639 28.0511C32.1204 27.6119 32.5842 27.1577 33.0436 26.6959C33.0765 26.6629 33.1093 26.63 33.1431 26.596C33.3298 26.4085 33.5164 26.2207 33.7027 26.0327Z" fill="#A6A6A8"/>
<path d="M38.053 16.4766C38.149 16.5739 38.149 16.5739 38.2602 16.7081C38.5013 16.9914 38.7568 17.2548 39.0207 17.5166C39.0669 17.5627 39.113 17.6088 39.1606 17.6562C39.3061 17.8014 39.4519 17.9463 39.5976 18.0913C39.6972 18.1905 39.7967 18.2897 39.8962 18.3889C40.1384 18.6304 40.3808 18.8716 40.6233 19.1128C40.3011 19.5012 39.9536 19.8574 39.5961 20.2134C39.5331 20.2764 39.47 20.3395 39.407 20.4025C39.2371 20.5725 39.067 20.7422 38.8969 20.9118C38.7186 21.0897 38.5406 21.2677 38.3625 21.4457C38.0258 21.7821 37.689 22.1184 37.3521 22.4547C36.9683 22.8377 36.5847 23.2209 36.2012 23.6042C35.4126 24.392 34.6239 25.1796 33.835 25.9671C33.6308 25.8695 33.4913 25.7711 33.3318 25.6096C33.286 25.5636 33.2403 25.5177 33.1932 25.4703C33.1445 25.4207 33.0958 25.3712 33.0456 25.3201C32.9951 25.2692 32.9446 25.2184 32.8926 25.166C32.7313 25.0036 32.5705 24.8407 32.4097 24.6778C32.2485 24.5147 32.0871 24.3517 31.9255 24.1888C31.825 24.0875 31.7246 23.986 31.6245 23.8843C31.5792 23.8386 31.5338 23.7928 31.4872 23.7457C31.4473 23.7052 31.4074 23.6648 31.3663 23.6231C31.2673 23.5221 31.2673 23.5221 31.1328 23.4626C31.1699 23.2078 31.2815 23.0915 31.461 22.9121C31.5174 22.8552 31.5739 22.7982 31.6321 22.7396C31.6951 22.677 31.7582 22.6145 31.8212 22.552C31.8873 22.4857 31.9533 22.4195 32.0193 22.3532C32.1986 22.1733 32.3785 21.994 32.5585 21.8148C32.7467 21.6274 32.9343 21.4395 33.122 21.2517C33.4372 20.9364 33.7528 20.6216 34.0686 20.307C34.4341 19.9428 34.7991 19.5781 35.1637 19.213C35.5142 18.8622 35.865 18.5118 36.2159 18.1616C36.3655 18.0123 36.5149 17.8629 36.6643 17.7135C36.8399 17.5377 37.0159 17.3622 37.1922 17.187C37.257 17.1225 37.3216 17.0579 37.3862 16.9932C37.474 16.9051 37.5623 16.8176 37.6505 16.73C37.6999 16.6808 37.7493 16.6315 37.8001 16.5808C37.9212 16.4766 37.9212 16.4766 38.053 16.4766Z" fill="#A6A6A8"/>
<path d="M26.7956 5.34834C26.9147 5.40389 26.9147 5.40389 26.9807 5.5357C26.908 5.54414 26.908 5.54414 26.8338 5.55276C26.6126 5.6119 26.5253 5.69456 26.3642 5.8559C26.309 5.91061 26.2537 5.96531 26.1968 6.02167C26.1371 6.08214 26.0773 6.1426 26.0158 6.2049C25.9516 6.26892 25.8874 6.33289 25.8231 6.39681C25.6489 6.57038 25.4756 6.74475 25.3023 6.9193C25.121 7.10181 24.939 7.28362 24.757 7.46552C24.4516 7.77103 24.1468 8.07703 23.8422 8.38337C23.49 8.73771 23.137 9.09135 22.7837 9.4446C22.4439 9.78431 22.1045 10.1244 21.7652 10.4647C21.6208 10.6096 21.4763 10.7544 21.3317 10.8991C21.1615 11.0694 20.9916 11.24 20.8221 11.4109C20.7299 11.5036 20.6375 11.596 20.545 11.6884C20.4632 11.771 20.4632 11.771 20.3798 11.8553C20.3322 11.9031 20.2846 11.951 20.2355 12.0003C20.1125 12.1262 20.1125 12.1262 20.0605 12.324C19.9735 12.2805 19.8865 12.237 19.7969 12.1922C19.8872 12.0116 20.0328 11.915 20.185 11.7869C20.4542 11.551 20.7018 11.2928 20.9531 11.0382C21.0151 10.9757 21.077 10.9132 21.139 10.8507C21.2716 10.717 21.4041 10.5833 21.5366 10.4494C21.746 10.2379 21.9557 10.0267 22.1656 9.81567C22.2376 9.74325 22.3097 9.67082 22.3817 9.59839C22.4177 9.56215 22.4537 9.52591 22.4909 9.48857C22.9789 8.99772 23.4666 8.50656 23.9534 8.01447C24.2826 7.68166 24.6124 7.34943 24.9429 7.01787C25.1176 6.84257 25.292 6.66697 25.4656 6.49066C25.6588 6.29456 25.8532 6.09975 26.0477 5.90502C26.1052 5.84624 26.1627 5.78746 26.2219 5.72691C26.2749 5.67433 26.3278 5.62176 26.3823 5.56759C26.4281 5.52139 26.474 5.47518 26.5212 5.42758C26.6511 5.33798 26.6511 5.33798 26.7956 5.34834Z" fill="#D2D4D6"/>
<path d="M12.8943 19.2631C12.932 19.279 12.9697 19.2948 13.0085 19.3111C12.9778 19.3372 12.947 19.3634 12.9153 19.3903C12.5453 19.7086 12.1984 20.046 11.8538 20.3915C11.7934 20.4517 11.733 20.512 11.6708 20.5741C11.5067 20.7379 11.3428 20.9019 11.179 21.0659C11.0071 21.238 10.835 21.4099 10.663 21.5819C10.3746 21.8701 10.0864 22.1585 9.79826 22.4469C9.46503 22.7805 9.13157 23.1138 8.79798 23.4471C8.51105 23.7337 8.22426 24.0204 7.93756 24.3073C7.76654 24.4784 7.59546 24.6495 7.42427 24.8205C7.23396 25.0106 7.04392 25.2009 6.85391 25.3913C6.79705 25.448 6.74018 25.5048 6.6816 25.5632C6.60441 25.6407 6.60441 25.6407 6.52567 25.7197C6.48073 25.7647 6.43579 25.8096 6.38949 25.856C6.28076 25.963 6.28076 25.963 6.22019 26.0995C6.17669 26.0995 6.1332 26.0995 6.08838 26.0995C6.12575 25.8475 6.23335 25.7317 6.41064 25.5535C6.46581 25.4976 6.52097 25.4417 6.57781 25.3841C6.63878 25.3233 6.69976 25.2625 6.76258 25.1999C6.82714 25.1348 6.89165 25.0698 6.95612 25.0046C7.13131 24.828 7.30714 24.652 7.48312 24.4761C7.62989 24.3293 7.77637 24.1823 7.92286 24.0353C8.26831 23.6885 8.61429 23.3424 8.96059 22.9965C9.31821 22.6393 9.67485 22.2812 10.031 21.9226C10.3367 21.6149 10.6429 21.3079 10.9497 21.0014C11.133 20.8182 11.3161 20.6348 11.4985 20.4508C11.67 20.2778 11.8422 20.1057 12.015 19.9342C12.1088 19.8408 12.2017 19.7466 12.2946 19.6523C12.3503 19.5974 12.406 19.5424 12.4634 19.4857C12.5359 19.4132 12.5359 19.4132 12.6097 19.3393C12.7449 19.2452 12.7449 19.2452 12.8943 19.2631Z" fill="#D1D4D7"/>
<path d="M42.6007 17.0703C42.6442 17.0703 42.6877 17.0703 42.7325 17.0703C42.6239 17.3511 42.4136 17.5378 42.2032 17.7443C42.1642 17.7831 42.1252 17.8219 42.0851 17.8619C41.9607 17.9856 41.8358 18.1087 41.711 18.2319C41.627 18.3153 41.5429 18.3987 41.459 18.4821C41.3053 18.6347 41.1515 18.7871 40.9975 18.9393C40.8945 19.041 40.7918 19.1429 40.6895 19.2452C40.6895 19.0475 40.6895 19.0475 40.8223 18.8932C40.8833 18.8337 40.9443 18.7742 41.0071 18.7128C41.0398 18.6805 41.0726 18.6483 41.1063 18.615C41.2113 18.5116 41.3169 18.4088 41.4227 18.3061C41.5604 18.1714 41.6978 18.0364 41.8351 17.9013C41.868 17.8691 41.901 17.8368 41.9349 17.8036C42.114 17.6268 42.2832 17.4463 42.4437 17.2526C42.4955 17.1924 42.5473 17.1323 42.6007 17.0703Z" fill="#283342"/>
<path d="M42.7327 17.0703C42.6282 17.3275 42.4603 17.4878 42.2632 17.6799C42.2032 17.7387 42.1432 17.7975 42.0814 17.8581C42.0354 17.9026 41.9893 17.9471 41.9419 17.993C41.8984 17.9713 41.8549 17.9495 41.8101 17.9271C41.8923 17.8336 41.9747 17.7403 42.0572 17.647C42.1031 17.595 42.149 17.543 42.1962 17.4894C42.5765 17.0703 42.5765 17.0703 42.7327 17.0703Z" fill="#3A4552"/>
<path d="M88 20.8409C87.8788 19.7652 87.3788 18.9318 86.5 18.3409C85.6212 17.7424 84.5152 17.4432 83.1818 17.4432C82.2273 17.4432 81.4015 17.5947 80.7045 17.8977C80.0076 18.1932 79.4659 18.6023 79.0795 19.125C78.7008 19.6402 78.5114 20.2273 78.5114 20.8864C78.5114 21.4394 78.6402 21.9167 78.8977 22.3182C79.1629 22.7197 79.5076 23.0568 79.9318 23.3295C80.3636 23.5947 80.8258 23.8182 81.3182 24C81.8106 24.1742 82.2841 24.3182 82.7386 24.4318L85.0114 25.0227C85.7538 25.2045 86.5152 25.4508 87.2955 25.7614C88.0758 26.072 88.7992 26.4811 89.4659 26.9886C90.1326 27.4962 90.6705 28.125 91.0795 28.875C91.4962 29.625 91.7045 30.5227 91.7045 31.5682C91.7045 32.8864 91.3636 34.0568 90.6818 35.0795C90.0076 36.1023 89.0265 36.9091 87.7386 37.5C86.4583 38.0909 84.9091 38.3864 83.0909 38.3864C81.3485 38.3864 79.8409 38.1098 78.5682 37.5568C77.2955 37.0038 76.2992 36.2197 75.5795 35.2045C74.8598 34.1818 74.4621 32.9697 74.3864 31.5682H77.9091C77.9773 32.4091 78.25 33.1098 78.7273 33.6705C79.2121 34.2235 79.8295 34.6364 80.5795 34.9091C81.3371 35.1742 82.1667 35.3068 83.0682 35.3068C84.0606 35.3068 84.9432 35.1515 85.7159 34.8409C86.4962 34.5227 87.1098 34.0833 87.5568 33.5227C88.0038 32.9545 88.2273 32.2917 88.2273 31.5341C88.2273 30.8447 88.0303 30.2803 87.6364 29.8409C87.25 29.4015 86.7235 29.0379 86.0568 28.75C85.3977 28.4621 84.6515 28.2083 83.8182 27.9886L81.0682 27.2386C79.2045 26.7311 77.7273 25.9848 76.6364 25C75.553 24.0152 75.0114 22.7121 75.0114 21.0909C75.0114 19.75 75.375 18.5795 76.1023 17.5795C76.8295 16.5795 77.8144 15.803 79.0568 15.25C80.2992 14.6894 81.7008 14.4091 83.2614 14.4091C84.8371 14.4091 86.2273 14.6856 87.4318 15.2386C88.6439 15.7917 89.5985 16.553 90.2955 17.5227C90.9924 18.4848 91.3561 19.5909 91.3864 20.8409H88ZM99.0256 27.6364V38H95.6278V20.5455H98.8892V23.3864H99.1051C99.5066 22.4621 100.135 21.7197 100.991 21.1591C101.855 20.5985 102.942 20.3182 104.253 20.3182C105.442 20.3182 106.484 20.5682 107.378 21.0682C108.272 21.5606 108.965 22.2955 109.457 23.2727C109.95 24.25 110.196 25.4583 110.196 26.8977V38H106.798V27.3068C106.798 26.0417 106.469 25.053 105.81 24.3409C105.151 23.6212 104.245 23.2614 103.094 23.2614C102.306 23.2614 101.605 23.4318 100.991 23.7727C100.385 24.1136 99.9044 24.6136 99.5483 25.2727C99.1998 25.9242 99.0256 26.7121 99.0256 27.6364ZM119.832 38.3864C118.726 38.3864 117.726 38.1818 116.832 37.7727C115.938 37.3561 115.23 36.7538 114.707 35.9659C114.192 35.178 113.935 34.2121 113.935 33.0682C113.935 32.0833 114.124 31.2727 114.503 30.6364C114.882 30 115.393 29.4962 116.037 29.125C116.681 28.7538 117.401 28.4735 118.196 28.2841C118.991 28.0947 119.802 27.9508 120.628 27.8523C121.673 27.7311 122.522 27.6326 123.173 27.5568C123.825 27.4735 124.298 27.3409 124.594 27.1591C124.889 26.9773 125.037 26.6818 125.037 26.2727V26.1932C125.037 25.2008 124.757 24.4318 124.196 23.8864C123.643 23.3409 122.817 23.0682 121.719 23.0682C120.575 23.0682 119.673 23.322 119.014 23.8295C118.363 24.3295 117.912 24.8864 117.662 25.5L114.469 24.7727C114.848 23.7121 115.401 22.8561 116.128 22.2045C116.863 21.5455 117.707 21.0682 118.662 20.7727C119.616 20.4697 120.62 20.3182 121.673 20.3182C122.37 20.3182 123.109 20.4015 123.889 20.5682C124.677 20.7273 125.412 21.0227 126.094 21.4545C126.783 21.8864 127.348 22.5038 127.787 23.3068C128.226 24.1023 128.446 25.1364 128.446 26.4091V38H125.128V35.6136H124.991C124.772 36.053 124.442 36.4848 124.003 36.9091C123.563 37.3333 122.999 37.6856 122.31 37.9659C121.62 38.2462 120.795 38.3864 119.832 38.3864ZM120.571 35.6591C121.51 35.6591 122.313 35.4735 122.98 35.1023C123.654 34.7311 124.166 34.2462 124.514 33.6477C124.87 33.0417 125.048 32.3939 125.048 31.7045V29.4545C124.927 29.5758 124.692 29.6894 124.344 29.7955C124.003 29.8939 123.613 29.9811 123.173 30.0568C122.734 30.125 122.306 30.1894 121.889 30.25C121.473 30.303 121.124 30.3485 120.844 30.3864C120.185 30.4697 119.582 30.6098 119.037 30.8068C118.499 31.0038 118.067 31.2879 117.741 31.6591C117.423 32.0227 117.264 32.5076 117.264 33.1136C117.264 33.9545 117.575 34.5909 118.196 35.0227C118.817 35.447 119.609 35.6591 120.571 35.6591ZM132.608 38V35.6705L142.062 23.6591V23.5H132.915V20.5455H146.301V23.0227L137.21 34.8864V35.0455H146.619V38H132.608ZM150.264 38V35.6705L159.719 23.6591V23.5H150.571V20.5455H163.957V23.0227L154.866 34.8864V35.0455H164.276V38H150.264ZM170.432 44.5455C169.924 44.5455 169.462 44.5038 169.045 44.4205C168.629 44.3447 168.318 44.2614 168.114 44.1705L168.932 41.3864C169.553 41.553 170.106 41.625 170.591 41.6023C171.076 41.5795 171.504 41.3977 171.875 41.0568C172.254 40.7159 172.587 40.1591 172.875 39.3864L173.295 38.2273L166.909 20.5455H170.545L174.966 34.0909H175.148L179.568 20.5455H183.216L176.023 40.3295C175.689 41.2386 175.265 42.0076 174.75 42.6364C174.235 43.2727 173.621 43.75 172.909 44.0682C172.197 44.3864 171.371 44.5455 170.432 44.5455Z" fill="#5B5B5B"/>
</svg>
