<svg width="140" height="20" viewBox="0 0 140 20" fill="none" xmlns="http://www.w3.org/2000/svg">
<g clip-path="url(#clip0_305_435)">
<path d="M10.3568 0.524878C10.6514 0.787433 10.8078 1.21318 10.9813 1.56315C11.0224 1.6461 11.0638 1.72892 11.1052 1.81173C11.2631 2.1283 11.417 2.4466 11.5688 2.76609C11.8131 3.27924 12.0675 3.78721 12.3224 4.29513C12.3837 4.41726 12.4449 4.53944 12.506 4.66161C12.6701 4.98922 12.6701 4.98922 12.8345 5.31665C12.8718 5.39117 12.9087 5.46587 12.9451 5.54076C12.962 5.57513 12.9788 5.6095 12.9961 5.64492C13.0106 5.67487 13.0251 5.70482 13.04 5.73568C13.2027 6.03282 13.4459 6.227 13.7504 6.36716C14.0854 6.46489 14.4315 6.51564 14.7764 6.56454C14.8255 6.57168 14.8745 6.57881 14.925 6.58615C15.0305 6.60149 15.1361 6.6167 15.2416 6.6318C15.4088 6.65573 15.576 6.67997 15.7431 6.70426C16.0376 6.74699 16.3321 6.78947 16.6266 6.83189C17.0703 6.89581 17.5141 6.95991 17.9577 7.02428C18.1236 7.04833 18.2895 7.07225 18.4554 7.09605C18.5338 7.10732 18.6122 7.11864 18.6905 7.13C18.7857 7.14377 18.8808 7.15745 18.976 7.17102C19.7046 7.27708 19.7046 7.27708 19.8832 7.46091C19.9841 7.60455 20.0189 7.70787 20.0224 7.88328C20.024 7.92139 20.0257 7.95951 20.0274 7.99878C19.9595 8.31606 19.6621 8.55245 19.4389 8.77195C19.4109 8.79992 19.3829 8.82789 19.354 8.85671C19.224 8.98572 19.0922 9.11043 18.9535 9.23016C18.7943 9.36884 18.6448 9.51526 18.4965 9.6655C18.4566 9.70557 18.4566 9.70557 18.416 9.74644C18.3321 9.83086 18.2482 9.9154 18.1645 9.99998C18.0539 10.1116 17.9432 10.2231 17.8324 10.3344C17.8077 10.3595 17.7829 10.3846 17.7574 10.4104C17.6123 10.5563 17.4624 10.6935 17.3067 10.828C17.0666 11.0401 16.8427 11.2707 16.6154 11.4963C16.5512 11.5599 16.4867 11.6233 16.422 11.6865C16.3276 11.7787 16.2339 11.8716 16.1402 11.9647C16.0974 12.0062 16.0974 12.0062 16.0536 12.0486C15.705 12.3987 15.5346 12.7511 15.532 13.2432C15.5409 13.7253 15.6452 14.2018 15.73 14.6753C15.7557 14.8201 15.7808 14.9651 15.8059 15.11C15.8642 15.446 15.9232 15.7818 15.9825 16.1175C16.058 16.546 16.1334 16.9746 16.2077 17.4033C16.2375 17.5751 16.2678 17.7469 16.2985 17.9186C16.3129 17.9997 16.327 18.0807 16.3411 18.1619C16.3582 18.2603 16.3757 18.3587 16.3935 18.4571C16.4911 19.0273 16.4911 19.0273 16.3513 19.2796C16.1046 19.5415 16.1046 19.5415 15.8988 19.5703C15.5455 19.5688 15.2764 19.4085 14.9735 19.2456C14.9189 19.2167 14.8642 19.1879 14.8095 19.1592C14.4786 18.9847 14.1501 18.8057 13.8227 18.6247C13.4391 18.4139 13.0486 18.2165 12.6587 18.0176C12.289 17.8289 11.9211 17.6379 11.558 17.4365C11.2954 17.2911 11.0306 17.1532 10.7597 17.0239C10.7292 17.0092 10.6987 16.9946 10.6673 16.9795C10.446 16.8758 10.2584 16.8301 10.0126 16.8261C9.97539 16.8251 9.93817 16.8241 9.89984 16.8231C9.46445 16.8648 9.09399 17.0876 8.71377 17.2876C8.65183 17.3198 8.58988 17.3521 8.52791 17.3843C8.37965 17.4614 8.2316 17.539 8.08362 17.6167C7.98656 17.6676 7.88936 17.7182 7.79214 17.7688C7.53413 17.9035 7.27742 18.0406 7.02111 18.1785C6.93023 18.2274 6.83933 18.2763 6.74844 18.3252C6.7142 18.3436 6.7142 18.3436 6.67928 18.3624C6.24902 18.5936 5.81568 18.8186 5.38098 19.0413C5.33311 19.0658 5.28523 19.0904 5.23736 19.115C5.1915 19.1385 5.14564 19.162 5.09839 19.1862C5.00486 19.2351 4.91208 19.2844 4.81969 19.3353C4.77484 19.36 4.72998 19.3846 4.68377 19.4101C4.62409 19.4434 4.62409 19.4434 4.5632 19.4774C4.34898 19.5825 4.18572 19.593 3.95791 19.5312C3.80314 19.4378 3.67667 19.3431 3.59414 19.1797C3.53884 18.8766 3.57841 18.6157 3.63312 18.3146C3.64656 18.2372 3.66 18.1598 3.67345 18.0824C3.68789 17.9998 3.70258 17.9172 3.71733 17.8346C3.74824 17.6615 3.77837 17.4883 3.80839 17.3151C3.88311 16.8847 3.95889 16.4545 4.03476 16.0243C4.09368 15.6902 4.15232 15.3559 4.21022 15.0216C4.23512 14.8779 4.26025 14.7343 4.28593 14.5907C4.54132 13.4816 4.54132 13.4816 4.25256 12.435C4.09251 12.2148 3.91084 12.0247 3.71774 11.8333C3.66862 11.7842 3.66862 11.7842 3.61852 11.7342C3.5496 11.6654 3.48059 11.5967 3.41149 11.528C3.30644 11.4237 3.2017 11.319 3.09701 11.2143C3.02968 11.1472 2.96234 11.0801 2.89498 11.013C2.86401 10.9821 2.83303 10.9511 2.80112 10.9193C2.63951 10.759 2.47454 10.6058 2.30219 10.4572C2.17395 10.3437 2.05426 10.2219 1.93398 10.1001C1.90742 10.0734 1.88086 10.0467 1.85349 10.0191C1.74132 9.90633 1.62938 9.79329 1.51742 9.68027C1.435 9.59714 1.35246 9.51413 1.26992 9.43113C1.2328 9.39352 1.2328 9.39352 1.19492 9.35515C1.04747 9.2069 0.895549 9.06645 0.736772 8.93038C0.612413 8.82167 0.495628 8.70553 0.378808 8.58884C0.355116 8.56563 0.331425 8.54242 0.307015 8.5185C0.0158208 8.22827 0.0158208 8.22827 -0.0165476 8.0116C-0.0170773 7.60002 -0.0170773 7.60002 0.15664 7.42185C0.361233 7.28644 0.531295 7.23427 0.772637 7.202C0.805923 7.19708 0.839209 7.19216 0.873503 7.1871C0.983599 7.17097 1.09379 7.15565 1.204 7.14033C1.28242 7.12899 1.36083 7.11761 1.43924 7.10618C1.64678 7.07605 1.85442 7.0466 2.06209 7.0173C2.26607 6.98842 2.46998 6.95896 2.67388 6.92953C2.75479 6.91787 2.83569 6.90621 2.91659 6.89456C2.95667 6.88878 2.99674 6.88301 3.03803 6.87706C3.24124 6.8478 3.44447 6.81861 3.6477 6.78943C3.68802 6.78364 3.72835 6.77784 3.7699 6.77187C3.97959 6.74177 4.1893 6.71186 4.39906 6.68228C4.6106 6.65243 4.82206 6.62214 5.03349 6.59156C5.11287 6.58016 5.19227 6.56892 5.2717 6.55786C6.1425 6.44655 6.1425 6.44655 6.82651 5.93115C6.99647 5.69013 7.12818 5.44367 7.25121 5.17606C7.29198 5.08932 7.33282 5.00261 7.37372 4.91594C7.39455 4.87169 7.41538 4.82744 7.43684 4.78186C7.53938 4.56653 7.64615 4.35338 7.75323 4.1403C7.77437 4.09814 7.79552 4.05599 7.8173 4.01256C7.88168 3.88431 7.94615 3.7561 8.01064 3.62791C8.3136 3.02574 8.61154 2.42175 8.90085 1.81291C8.99719 1.61063 9.09537 1.40929 9.19473 1.20847C9.21351 1.16977 9.23229 1.13108 9.25164 1.09121C9.51619 0.557446 9.51619 0.557446 9.75869 0.471167C9.97625 0.402336 10.1483 0.428968 10.3568 0.524878Z" fill="#5B5B5B"/>
</g>
<g clip-path="url(#clip1_305_435)">
<path d="M40.3568 0.524878C40.6514 0.787433 40.8078 1.21318 40.9813 1.56315C41.0224 1.6461 41.0638 1.72892 41.1052 1.81173C41.2631 2.1283 41.417 2.4466 41.5688 2.76609C41.8131 3.27924 42.0675 3.78721 42.3224 4.29513C42.3837 4.41726 42.4449 4.53944 42.506 4.66161C42.6701 4.98922 42.6701 4.98922 42.8345 5.31665C42.8718 5.39117 42.9087 5.46587 42.9451 5.54076C42.962 5.57513 42.9788 5.6095 42.9961 5.64492C43.0106 5.67487 43.0251 5.70482 43.04 5.73568C43.2027 6.03282 43.4459 6.227 43.7504 6.36716C44.0854 6.46489 44.4315 6.51564 44.7764 6.56454C44.8255 6.57168 44.8745 6.57881 44.925 6.58615C45.0305 6.60149 45.1361 6.6167 45.2416 6.6318C45.4088 6.65573 45.576 6.67997 45.7431 6.70426C46.0376 6.74699 46.3321 6.78947 46.6266 6.83189C47.0703 6.89581 47.5141 6.95991 47.9577 7.02428C48.1236 7.04833 48.2895 7.07225 48.4554 7.09605C48.5338 7.10732 48.6122 7.11864 48.6905 7.13C48.7857 7.14377 48.8808 7.15745 48.976 7.17102C49.7046 7.27708 49.7046 7.27708 49.8832 7.46091C49.9841 7.60455 50.0189 7.70787 50.0224 7.88328C50.024 7.92139 50.0257 7.95951 50.0274 7.99878C49.9595 8.31606 49.6621 8.55245 49.4389 8.77195C49.4109 8.79992 49.3829 8.82789 49.354 8.85671C49.224 8.98572 49.0922 9.11043 48.9535 9.23016C48.7943 9.36884 48.6448 9.51526 48.4965 9.6655C48.4566 9.70557 48.4566 9.70557 48.416 9.74644C48.3321 9.83086 48.2482 9.9154 48.1645 9.99998C48.0539 10.1116 47.9432 10.2231 47.8324 10.3344C47.8077 10.3595 47.7829 10.3846 47.7574 10.4104C47.6123 10.5563 47.4624 10.6935 47.3067 10.828C47.0666 11.0401 46.8427 11.2707 46.6154 11.4963C46.5512 11.5599 46.4867 11.6233 46.422 11.6865C46.3276 11.7787 46.2339 11.8716 46.1402 11.9647C46.0974 12.0062 46.0974 12.0062 46.0536 12.0486C45.705 12.3987 45.5346 12.7511 45.532 13.2432C45.5409 13.7253 45.6452 14.2018 45.73 14.6753C45.7557 14.8201 45.7808 14.9651 45.8059 15.11C45.8642 15.446 45.9232 15.7818 45.9825 16.1175C46.058 16.546 46.1334 16.9746 46.2077 17.4033C46.2375 17.5751 46.2678 17.7469 46.2985 17.9186C46.3129 17.9997 46.327 18.0807 46.3411 18.1619C46.3582 18.2603 46.3757 18.3587 46.3935 18.4571C46.4911 19.0273 46.4911 19.0273 46.3513 19.2796C46.1046 19.5415 46.1046 19.5415 45.8988 19.5703C45.5455 19.5688 45.2764 19.4085 44.9735 19.2456C44.9189 19.2167 44.8642 19.1879 44.8095 19.1592C44.4786 18.9847 44.1501 18.8057 43.8227 18.6247C43.4391 18.4139 43.0486 18.2165 42.6587 18.0176C42.289 17.8289 41.9211 17.6379 41.558 17.4365C41.2954 17.2911 41.0306 17.1532 40.7597 17.0239C40.7292 17.0092 40.6987 16.9946 40.6673 16.9795C40.446 16.8758 40.2584 16.8301 40.0126 16.8261C39.9754 16.8251 39.9382 16.8241 39.8998 16.8231C39.4644 16.8648 39.094 17.0876 38.7138 17.2876C38.6518 17.3198 38.5899 17.3521 38.5279 17.3843C38.3797 17.4614 38.2316 17.539 38.0836 17.6167C37.9866 17.6676 37.8894 17.7182 37.7921 17.7688C37.5341 17.9035 37.2774 18.0406 37.0211 18.1785C36.9302 18.2274 36.8393 18.2763 36.7484 18.3252C36.7142 18.3436 36.7142 18.3436 36.6793 18.3624C36.249 18.5936 35.8157 18.8186 35.381 19.0413C35.3331 19.0658 35.2852 19.0904 35.2374 19.115C35.1915 19.1385 35.1456 19.162 35.0984 19.1862C35.0049 19.2351 34.9121 19.2844 34.8197 19.3353C34.7748 19.36 34.73 19.3846 34.6838 19.4101C34.6241 19.4434 34.6241 19.4434 34.5632 19.4774C34.349 19.5825 34.1857 19.593 33.9579 19.5312C33.8031 19.4378 33.6767 19.3431 33.5941 19.1797C33.5388 18.8766 33.5784 18.6157 33.6331 18.3146C33.6466 18.2372 33.66 18.1598 33.6734 18.0824C33.6879 17.9998 33.7026 17.9172 33.7173 17.8346C33.7482 17.6615 33.7784 17.4883 33.8084 17.3151C33.8831 16.8847 33.9589 16.4545 34.0348 16.0243C34.0937 15.6902 34.1523 15.3559 34.2102 15.0216C34.2351 14.8779 34.2602 14.7343 34.2859 14.5907C34.5413 13.4816 34.5413 13.4816 34.2526 12.435C34.0925 12.2148 33.9108 12.0247 33.7177 11.8333C33.6686 11.7842 33.6686 11.7842 33.6185 11.7342C33.5496 11.6654 33.4806 11.5967 33.4115 11.528C33.3064 11.4237 33.2017 11.319 33.097 11.2143C33.0297 11.1472 32.9623 11.0801 32.895 11.013C32.864 10.9821 32.833 10.9511 32.8011 10.9193C32.6395 10.759 32.4745 10.6058 32.3022 10.4572C32.1739 10.3437 32.0543 10.2219 31.934 10.1001C31.9074 10.0734 31.8809 10.0467 31.8535 10.0191C31.7413 9.90633 31.6294 9.79329 31.5174 9.68027C31.435 9.59714 31.3525 9.51413 31.2699 9.43113C31.2328 9.39352 31.2328 9.39352 31.1949 9.35515C31.0475 9.2069 30.8955 9.06645 30.7368 8.93038C30.6124 8.82167 30.4956 8.70553 30.3788 8.58884C30.3551 8.56563 30.3314 8.54242 30.307 8.5185C30.0158 8.22827 30.0158 8.22827 29.9835 8.0116C29.9829 7.60002 29.9829 7.60002 30.1566 7.42185C30.3612 7.28644 30.5313 7.23427 30.7726 7.202C30.8059 7.19708 30.8392 7.19216 30.8735 7.1871C30.9836 7.17097 31.0938 7.15565 31.204 7.14033C31.2824 7.12899 31.3608 7.11761 31.4392 7.10618C31.6468 7.07605 31.8544 7.0466 32.0621 7.0173C32.2661 6.98842 32.47 6.95896 32.6739 6.92953C32.7548 6.91787 32.8357 6.90621 32.9166 6.89456C32.9567 6.88878 32.9967 6.88301 33.038 6.87706C33.2412 6.8478 33.4445 6.81861 33.6477 6.78943C33.688 6.78364 33.7283 6.77784 33.7699 6.77187C33.9796 6.74177 34.1893 6.71186 34.3991 6.68228C34.6106 6.65243 34.8221 6.62214 35.0335 6.59156C35.1129 6.58016 35.1923 6.56892 35.2717 6.55786C36.1425 6.44655 36.1425 6.44655 36.8265 5.93115C36.9965 5.69013 37.1282 5.44367 37.2512 5.17606C37.292 5.08932 37.3328 5.00261 37.3737 4.91594C37.3946 4.87169 37.4154 4.82744 37.4368 4.78186C37.5394 4.56653 37.6461 4.35338 37.7532 4.1403C37.7744 4.09814 37.7955 4.05599 37.8173 4.01256C37.8817 3.88431 37.9461 3.7561 38.0106 3.62791C38.3136 3.02574 38.6115 2.42175 38.9008 1.81291C38.9972 1.61063 39.0954 1.40929 39.1947 1.20847C39.2135 1.16977 39.2323 1.13108 39.2516 1.09121C39.5162 0.557446 39.5162 0.557446 39.7587 0.471167C39.9762 0.402336 40.1483 0.428968 40.3568 0.524878Z" fill="#5B5B5B"/>
</g>
<g clip-path="url(#clip2_305_435)">
<path d="M70.3568 0.524878C70.6514 0.787433 70.8078 1.21318 70.9813 1.56315C71.0224 1.6461 71.0638 1.72892 71.1052 1.81173C71.2631 2.1283 71.417 2.4466 71.5688 2.76609C71.8131 3.27924 72.0675 3.78721 72.3224 4.29513C72.3837 4.41726 72.4449 4.53944 72.506 4.66161C72.6701 4.98922 72.6701 4.98922 72.8345 5.31665C72.8718 5.39117 72.9087 5.46587 72.9451 5.54076C72.962 5.57513 72.9788 5.6095 72.9961 5.64492C73.0106 5.67487 73.0251 5.70482 73.04 5.73568C73.2027 6.03282 73.4459 6.227 73.7504 6.36716C74.0854 6.46489 74.4315 6.51564 74.7764 6.56454C74.8255 6.57168 74.8745 6.57881 74.925 6.58615C75.0305 6.60149 75.1361 6.6167 75.2416 6.6318C75.4088 6.65573 75.576 6.67997 75.7431 6.70426C76.0376 6.74699 76.3321 6.78947 76.6266 6.83189C77.0703 6.89581 77.5141 6.95991 77.9577 7.02428C78.1236 7.04833 78.2895 7.07225 78.4554 7.09605C78.5338 7.10732 78.6122 7.11864 78.6905 7.13C78.7857 7.14377 78.8808 7.15745 78.976 7.17102C79.7046 7.27708 79.7046 7.27708 79.8832 7.46091C79.9841 7.60455 80.0189 7.70787 80.0224 7.88328C80.024 7.92139 80.0257 7.95951 80.0274 7.99878C79.9595 8.31606 79.6621 8.55245 79.4389 8.77195C79.4109 8.79992 79.3829 8.82789 79.354 8.85671C79.224 8.98572 79.0922 9.11043 78.9535 9.23016C78.7943 9.36884 78.6448 9.51526 78.4965 9.6655C78.4566 9.70557 78.4566 9.70557 78.416 9.74644C78.3321 9.83086 78.2482 9.9154 78.1645 9.99998C78.0539 10.1116 77.9432 10.2231 77.8324 10.3344C77.8077 10.3595 77.7829 10.3846 77.7574 10.4104C77.6123 10.5563 77.4624 10.6935 77.3067 10.828C77.0666 11.0401 76.8427 11.2707 76.6154 11.4963C76.5512 11.5599 76.4867 11.6233 76.422 11.6865C76.3276 11.7787 76.2339 11.8716 76.1402 11.9647C76.0974 12.0062 76.0974 12.0062 76.0536 12.0486C75.705 12.3987 75.5346 12.7511 75.532 13.2432C75.5409 13.7253 75.6452 14.2018 75.73 14.6753C75.7557 14.8201 75.7808 14.9651 75.8059 15.11C75.8642 15.446 75.9232 15.7818 75.9825 16.1175C76.058 16.546 76.1334 16.9746 76.2077 17.4033C76.2375 17.5751 76.2678 17.7469 76.2985 17.9186C76.3129 17.9997 76.327 18.0807 76.3411 18.1619C76.3582 18.2603 76.3757 18.3587 76.3935 18.4571C76.4911 19.0273 76.4911 19.0273 76.3513 19.2796C76.1046 19.5415 76.1046 19.5415 75.8988 19.5703C75.5455 19.5688 75.2764 19.4085 74.9735 19.2456C74.9189 19.2167 74.8642 19.1879 74.8095 19.1592C74.4786 18.9847 74.1501 18.8057 73.8227 18.6247C73.4391 18.4139 73.0486 18.2165 72.6587 18.0176C72.289 17.8289 71.9211 17.6379 71.558 17.4365C71.2954 17.2911 71.0306 17.1532 70.7597 17.0239C70.7292 17.0092 70.6987 16.9946 70.6673 16.9795C70.446 16.8758 70.2584 16.8301 70.0126 16.8261C69.9754 16.8251 69.9382 16.8241 69.8998 16.8231C69.4644 16.8648 69.094 17.0876 68.7138 17.2876C68.6518 17.3198 68.5899 17.3521 68.5279 17.3843C68.3797 17.4614 68.2316 17.539 68.0836 17.6167C67.9866 17.6676 67.8894 17.7182 67.7921 17.7688C67.5341 17.9035 67.2774 18.0406 67.0211 18.1785C66.9302 18.2274 66.8393 18.2763 66.7484 18.3252C66.7142 18.3436 66.7142 18.3436 66.6793 18.3624C66.249 18.5936 65.8157 18.8186 65.381 19.0413C65.3331 19.0658 65.2852 19.0904 65.2374 19.115C65.1915 19.1385 65.1456 19.162 65.0984 19.1862C65.0049 19.2351 64.9121 19.2844 64.8197 19.3353C64.7748 19.36 64.73 19.3846 64.6838 19.4101C64.6241 19.4434 64.6241 19.4434 64.5632 19.4774C64.349 19.5825 64.1857 19.593 63.9579 19.5312C63.8031 19.4378 63.6767 19.3431 63.5941 19.1797C63.5388 18.8766 63.5784 18.6157 63.6331 18.3146C63.6466 18.2372 63.66 18.1598 63.6734 18.0824C63.6879 17.9998 63.7026 17.9172 63.7173 17.8346C63.7482 17.6615 63.7784 17.4883 63.8084 17.3151C63.8831 16.8847 63.9589 16.4545 64.0348 16.0243C64.0937 15.6902 64.1523 15.3559 64.2102 15.0216C64.2351 14.8779 64.2602 14.7343 64.2859 14.5907C64.5413 13.4816 64.5413 13.4816 64.2526 12.435C64.0925 12.2148 63.9108 12.0247 63.7177 11.8333C63.6686 11.7842 63.6686 11.7842 63.6185 11.7342C63.5496 11.6654 63.4806 11.5967 63.4115 11.528C63.3064 11.4237 63.2017 11.319 63.097 11.2143C63.0297 11.1472 62.9623 11.0801 62.895 11.013C62.864 10.9821 62.833 10.9511 62.8011 10.9193C62.6395 10.759 62.4745 10.6058 62.3022 10.4572C62.1739 10.3437 62.0543 10.2219 61.934 10.1001C61.9074 10.0734 61.8809 10.0467 61.8535 10.0191C61.7413 9.90633 61.6294 9.79329 61.5174 9.68027C61.435 9.59714 61.3525 9.51413 61.2699 9.43113C61.2328 9.39352 61.2328 9.39352 61.1949 9.35515C61.0475 9.2069 60.8955 9.06645 60.7368 8.93038C60.6124 8.82167 60.4956 8.70553 60.3788 8.58884C60.3551 8.56563 60.3314 8.54242 60.307 8.5185C60.0158 8.22827 60.0158 8.22827 59.9835 8.0116C59.9829 7.60002 59.9829 7.60002 60.1566 7.42185C60.3612 7.28644 60.5313 7.23427 60.7726 7.202C60.8059 7.19708 60.8392 7.19216 60.8735 7.1871C60.9836 7.17097 61.0938 7.15565 61.204 7.14033C61.2824 7.12899 61.3608 7.11761 61.4392 7.10618C61.6468 7.07605 61.8544 7.0466 62.0621 7.0173C62.2661 6.98842 62.47 6.95896 62.6739 6.92953C62.7548 6.91787 62.8357 6.90621 62.9166 6.89456C62.9567 6.88878 62.9967 6.88301 63.038 6.87706C63.2412 6.8478 63.4445 6.81861 63.6477 6.78943C63.688 6.78364 63.7283 6.77784 63.7699 6.77187C63.9796 6.74177 64.1893 6.71186 64.3991 6.68228C64.6106 6.65243 64.8221 6.62214 65.0335 6.59156C65.1129 6.58016 65.1923 6.56892 65.2717 6.55786C66.1425 6.44655 66.1425 6.44655 66.8265 5.93115C66.9965 5.69013 67.1282 5.44367 67.2512 5.17606C67.292 5.08932 67.3328 5.00261 67.3737 4.91594C67.3946 4.87169 67.4154 4.82744 67.4368 4.78186C67.5394 4.56653 67.6461 4.35338 67.7532 4.1403C67.7744 4.09814 67.7955 4.05599 67.8173 4.01256C67.8817 3.88431 67.9461 3.7561 68.0106 3.62791C68.3136 3.02574 68.6115 2.42175 68.9008 1.81291C68.9972 1.61063 69.0954 1.40929 69.1947 1.20847C69.2135 1.16977 69.2323 1.13108 69.2516 1.09121C69.5162 0.557446 69.5162 0.557446 69.7587 0.471167C69.9762 0.402336 70.1483 0.428968 70.3568 0.524878Z" fill="#5B5B5B"/>
</g>
<g clip-path="url(#clip3_305_435)">
<path d="M100.357 0.524878C100.651 0.787433 100.808 1.21318 100.981 1.56315C101.022 1.6461 101.064 1.72892 101.105 1.81173C101.263 2.1283 101.417 2.4466 101.569 2.76609C101.813 3.27924 102.068 3.78721 102.322 4.29513C102.384 4.41726 102.445 4.53944 102.506 4.66161C102.67 4.98922 102.67 4.98922 102.835 5.31665C102.872 5.39117 102.909 5.46587 102.945 5.54076C102.962 5.57513 102.979 5.6095 102.996 5.64492C103.011 5.67487 103.025 5.70482 103.04 5.73568C103.203 6.03282 103.446 6.227 103.75 6.36716C104.085 6.46489 104.432 6.51564 104.776 6.56454C104.825 6.57168 104.875 6.57881 104.925 6.58615C105.031 6.60149 105.136 6.6167 105.242 6.6318C105.409 6.65573 105.576 6.67997 105.743 6.70426C106.038 6.74699 106.332 6.78947 106.627 6.83189C107.07 6.89581 107.514 6.95991 107.958 7.02428C108.124 7.04833 108.289 7.07225 108.455 7.09605C108.534 7.10732 108.612 7.11864 108.691 7.13C108.786 7.14377 108.881 7.15745 108.976 7.17102C109.705 7.27708 109.705 7.27708 109.883 7.46091C109.984 7.60455 110.019 7.70787 110.022 7.88328C110.024 7.92139 110.026 7.95951 110.027 7.99878C109.959 8.31606 109.662 8.55245 109.439 8.77195C109.411 8.79992 109.383 8.82789 109.354 8.85671C109.224 8.98572 109.092 9.11043 108.954 9.23016C108.794 9.36884 108.645 9.51526 108.496 9.6655C108.457 9.70557 108.457 9.70557 108.416 9.74644C108.332 9.83086 108.248 9.9154 108.164 9.99998C108.054 10.1116 107.943 10.2231 107.832 10.3344C107.808 10.3595 107.783 10.3846 107.757 10.4104C107.612 10.5563 107.462 10.6935 107.307 10.828C107.067 11.0401 106.843 11.2707 106.615 11.4963C106.551 11.5599 106.487 11.6233 106.422 11.6865C106.328 11.7787 106.234 11.8716 106.14 11.9647C106.097 12.0062 106.097 12.0062 106.054 12.0486C105.705 12.3987 105.535 12.7511 105.532 13.2432C105.541 13.7253 105.645 14.2018 105.73 14.6753C105.756 14.8201 105.781 14.9651 105.806 15.11C105.864 15.446 105.923 15.7818 105.982 16.1175C106.058 16.546 106.133 16.9746 106.208 17.4033C106.237 17.5751 106.268 17.7469 106.298 17.9186C106.313 17.9997 106.327 18.0807 106.341 18.1619C106.358 18.2603 106.376 18.3587 106.394 18.4571C106.491 19.0273 106.491 19.0273 106.351 19.2796C106.105 19.5415 106.105 19.5415 105.899 19.5703C105.545 19.5688 105.276 19.4085 104.974 19.2456C104.919 19.2167 104.864 19.1879 104.81 19.1592C104.479 18.9847 104.15 18.8057 103.823 18.6247C103.439 18.4139 103.049 18.2165 102.659 18.0176C102.289 17.8289 101.921 17.6379 101.558 17.4365C101.295 17.2911 101.031 17.1532 100.76 17.0239C100.729 17.0092 100.699 16.9946 100.667 16.9795C100.446 16.8758 100.258 16.8301 100.013 16.8261C99.9754 16.8251 99.9382 16.8241 99.8998 16.8231C99.4644 16.8648 99.094 17.0876 98.7138 17.2876C98.6518 17.3198 98.5899 17.3521 98.5279 17.3843C98.3797 17.4614 98.2316 17.539 98.0836 17.6167C97.9866 17.6676 97.8894 17.7182 97.7921 17.7688C97.5341 17.9035 97.2774 18.0406 97.0211 18.1785C96.9302 18.2274 96.8393 18.2763 96.7484 18.3252C96.7142 18.3436 96.7142 18.3436 96.6793 18.3624C96.249 18.5936 95.8157 18.8186 95.381 19.0413C95.3331 19.0658 95.2852 19.0904 95.2374 19.115C95.1915 19.1385 95.1456 19.162 95.0984 19.1862C95.0049 19.2351 94.9121 19.2844 94.8197 19.3353C94.7748 19.36 94.73 19.3846 94.6838 19.4101C94.6241 19.4434 94.6241 19.4434 94.5632 19.4774C94.349 19.5825 94.1857 19.593 93.9579 19.5312C93.8031 19.4378 93.6767 19.3431 93.5941 19.1797C93.5388 18.8766 93.5784 18.6157 93.6331 18.3146C93.6466 18.2372 93.66 18.1598 93.6734 18.0824C93.6879 17.9998 93.7026 17.9172 93.7173 17.8346C93.7482 17.6615 93.7784 17.4883 93.8084 17.3151C93.8831 16.8847 93.9589 16.4545 94.0348 16.0243C94.0937 15.6902 94.1523 15.3559 94.2102 15.0216C94.2351 14.8779 94.2602 14.7343 94.2859 14.5907C94.5413 13.4816 94.5413 13.4816 94.2526 12.435C94.0925 12.2148 93.9108 12.0247 93.7177 11.8333C93.6686 11.7842 93.6686 11.7842 93.6185 11.7342C93.5496 11.6654 93.4806 11.5967 93.4115 11.528C93.3064 11.4237 93.2017 11.319 93.097 11.2143C93.0297 11.1472 92.9623 11.0801 92.895 11.013C92.864 10.9821 92.833 10.9511 92.8011 10.9193C92.6395 10.759 92.4745 10.6058 92.3022 10.4572C92.1739 10.3437 92.0543 10.2219 91.934 10.1001C91.9074 10.0734 91.8809 10.0467 91.8535 10.0191C91.7413 9.90633 91.6294 9.79329 91.5174 9.68027C91.435 9.59714 91.3525 9.51413 91.2699 9.43113C91.2328 9.39352 91.2328 9.39352 91.1949 9.35515C91.0475 9.2069 90.8955 9.06645 90.7368 8.93038C90.6124 8.82167 90.4956 8.70553 90.3788 8.58884C90.3551 8.56563 90.3314 8.54242 90.307 8.5185C90.0158 8.22827 90.0158 8.22827 89.9835 8.0116C89.9829 7.60002 89.9829 7.60002 90.1566 7.42185C90.3612 7.28644 90.5313 7.23427 90.7726 7.202C90.8059 7.19708 90.8392 7.19216 90.8735 7.1871C90.9836 7.17097 91.0938 7.15565 91.204 7.14033C91.2824 7.12899 91.3608 7.11761 91.4392 7.10618C91.6468 7.07605 91.8544 7.0466 92.0621 7.0173C92.2661 6.98842 92.47 6.95896 92.6739 6.92953C92.7548 6.91787 92.8357 6.90621 92.9166 6.89456C92.9567 6.88878 92.9967 6.88301 93.038 6.87706C93.2412 6.8478 93.4445 6.81861 93.6477 6.78943C93.688 6.78364 93.7283 6.77784 93.7699 6.77187C93.9796 6.74177 94.1893 6.71186 94.3991 6.68228C94.6106 6.65243 94.8221 6.62214 95.0335 6.59156C95.1129 6.58016 95.1923 6.56892 95.2717 6.55786C96.1425 6.44655 96.1425 6.44655 96.8265 5.93115C96.9965 5.69013 97.1282 5.44367 97.2512 5.17606C97.292 5.08932 97.3328 5.00261 97.3737 4.91594C97.3946 4.87169 97.4154 4.82744 97.4368 4.78186C97.5394 4.56653 97.6461 4.35338 97.7532 4.1403C97.7744 4.09814 97.7955 4.05599 97.8173 4.01256C97.8817 3.88431 97.9461 3.7561 98.0106 3.62791C98.3136 3.02574 98.6115 2.42175 98.9008 1.81291C98.9972 1.61063 99.0954 1.40929 99.1947 1.20847C99.2135 1.16977 99.2323 1.13108 99.2516 1.09121C99.5162 0.557446 99.5162 0.557446 99.7587 0.471167C99.9762 0.402336 100.148 0.428968 100.357 0.524878Z" fill="#5B5B5B"/>
</g>
<g clip-path="url(#clip4_305_435)">
<mask id="path-5-inside-1_305_435" fill="white">
<path d="M130.357 0.524878C130.651 0.787433 130.808 1.21318 130.981 1.56315C131.022 1.6461 131.064 1.72892 131.105 1.81173C131.263 2.1283 131.417 2.4466 131.569 2.76609C131.813 3.27924 132.068 3.78721 132.322 4.29513C132.384 4.41726 132.445 4.53944 132.506 4.66161C132.67 4.98922 132.67 4.98922 132.835 5.31665C132.872 5.39117 132.909 5.46587 132.945 5.54076C132.962 5.57513 132.979 5.6095 132.996 5.64492C133.011 5.67487 133.025 5.70482 133.04 5.73568C133.203 6.03282 133.446 6.227 133.75 6.36716C134.085 6.46489 134.432 6.51564 134.776 6.56454C134.825 6.57168 134.875 6.57881 134.925 6.58615C135.031 6.60149 135.136 6.6167 135.242 6.6318C135.409 6.65573 135.576 6.67997 135.743 6.70426C136.038 6.74699 136.332 6.78947 136.627 6.83189C137.07 6.89581 137.514 6.95991 137.958 7.02428C138.124 7.04833 138.289 7.07225 138.455 7.09605C138.534 7.10732 138.612 7.11864 138.691 7.13C138.786 7.14377 138.881 7.15745 138.976 7.17102C139.705 7.27708 139.705 7.27708 139.883 7.46091C139.984 7.60455 140.019 7.70787 140.022 7.88328C140.024 7.92139 140.026 7.95951 140.027 7.99878C139.959 8.31606 139.662 8.55245 139.439 8.77195C139.411 8.79992 139.383 8.82789 139.354 8.85671C139.224 8.98572 139.092 9.11043 138.954 9.23016C138.794 9.36884 138.645 9.51526 138.496 9.6655C138.457 9.70557 138.457 9.70557 138.416 9.74644C138.332 9.83086 138.248 9.9154 138.164 9.99998C138.054 10.1116 137.943 10.2231 137.832 10.3344C137.808 10.3595 137.783 10.3846 137.757 10.4104C137.612 10.5563 137.462 10.6935 137.307 10.828C137.067 11.0401 136.843 11.2707 136.615 11.4963C136.551 11.5599 136.487 11.6233 136.422 11.6865C136.328 11.7787 136.234 11.8716 136.14 11.9647C136.097 12.0062 136.097 12.0062 136.054 12.0486C135.705 12.3987 135.535 12.7511 135.532 13.2432C135.541 13.7253 135.645 14.2018 135.73 14.6753C135.756 14.8201 135.781 14.9651 135.806 15.11C135.864 15.446 135.923 15.7818 135.982 16.1175C136.058 16.546 136.133 16.9746 136.208 17.4033C136.237 17.5751 136.268 17.7469 136.298 17.9186C136.313 17.9997 136.327 18.0807 136.341 18.1619C136.358 18.2603 136.376 18.3587 136.394 18.4571C136.491 19.0273 136.491 19.0273 136.351 19.2796C136.105 19.5415 136.105 19.5415 135.899 19.5703C135.545 19.5688 135.276 19.4085 134.974 19.2456C134.919 19.2167 134.864 19.1879 134.81 19.1592C134.479 18.9847 134.15 18.8057 133.823 18.6247C133.439 18.4139 133.049 18.2165 132.659 18.0176C132.289 17.8289 131.921 17.6379 131.558 17.4365C131.295 17.2911 131.031 17.1532 130.76 17.0239C130.729 17.0092 130.699 16.9946 130.667 16.9795C130.446 16.8758 130.258 16.8301 130.013 16.8261C129.975 16.8251 129.938 16.8241 129.9 16.8231C129.464 16.8648 129.094 17.0876 128.714 17.2876C128.652 17.3198 128.59 17.3521 128.528 17.3843C128.38 17.4614 128.232 17.539 128.084 17.6167C127.987 17.6676 127.889 17.7182 127.792 17.7688C127.534 17.9035 127.277 18.0406 127.021 18.1785C126.93 18.2274 126.839 18.2763 126.748 18.3252C126.714 18.3436 126.714 18.3436 126.679 18.3624C126.249 18.5936 125.816 18.8186 125.381 19.0413C125.333 19.0658 125.285 19.0904 125.237 19.115C125.191 19.1385 125.146 19.162 125.098 19.1862C125.005 19.2351 124.912 19.2844 124.82 19.3353C124.775 19.36 124.73 19.3846 124.684 19.4101C124.624 19.4434 124.624 19.4434 124.563 19.4774C124.349 19.5825 124.186 19.593 123.958 19.5312C123.803 19.4378 123.677 19.3431 123.594 19.1797C123.539 18.8766 123.578 18.6157 123.633 18.3146C123.647 18.2372 123.66 18.1598 123.673 18.0824C123.688 17.9998 123.703 17.9172 123.717 17.8346C123.748 17.6615 123.778 17.4883 123.808 17.3151C123.883 16.8847 123.959 16.4545 124.035 16.0243C124.094 15.6902 124.152 15.3559 124.21 15.0216C124.235 14.8779 124.26 14.7343 124.286 14.5907C124.541 13.4816 124.541 13.4816 124.253 12.435C124.093 12.2148 123.911 12.0247 123.718 11.8333C123.669 11.7842 123.669 11.7842 123.619 11.7342C123.55 11.6654 123.481 11.5967 123.411 11.528C123.306 11.4237 123.202 11.319 123.097 11.2143C123.03 11.1472 122.962 11.0801 122.895 11.013C122.864 10.9821 122.833 10.9511 122.801 10.9193C122.64 10.759 122.475 10.6058 122.302 10.4572C122.174 10.3437 122.054 10.2219 121.934 10.1001C121.907 10.0734 121.881 10.0467 121.853 10.0191C121.741 9.90633 121.629 9.79329 121.517 9.68027C121.435 9.59714 121.352 9.51413 121.27 9.43113C121.233 9.39352 121.233 9.39352 121.195 9.35515C121.047 9.2069 120.896 9.06645 120.737 8.93038C120.612 8.82167 120.496 8.70553 120.379 8.58884C120.355 8.56563 120.331 8.54242 120.307 8.5185C120.016 8.22827 120.016 8.22827 119.983 8.0116C119.983 7.60002 119.983 7.60002 120.157 7.42185C120.361 7.28644 120.531 7.23427 120.773 7.202C120.806 7.19708 120.839 7.19216 120.874 7.1871C120.984 7.17097 121.094 7.15565 121.204 7.14033C121.282 7.12899 121.361 7.11761 121.439 7.10618C121.647 7.07605 121.854 7.0466 122.062 7.0173C122.266 6.98842 122.47 6.95896 122.674 6.92953C122.755 6.91787 122.836 6.90621 122.917 6.89456C122.957 6.88878 122.997 6.88301 123.038 6.87706C123.241 6.8478 123.444 6.81861 123.648 6.78943C123.688 6.78364 123.728 6.77784 123.77 6.77187C123.98 6.74177 124.189 6.71186 124.399 6.68228C124.611 6.65243 124.822 6.62214 125.033 6.59156C125.113 6.58016 125.192 6.56892 125.272 6.55786C126.142 6.44655 126.142 6.44655 126.827 5.93115C126.996 5.69013 127.128 5.44367 127.251 5.17606C127.292 5.08932 127.333 5.00261 127.374 4.91594C127.395 4.87169 127.415 4.82744 127.437 4.78186C127.539 4.56653 127.646 4.35338 127.753 4.1403C127.774 4.09814 127.796 4.05599 127.817 4.01256C127.882 3.88431 127.946 3.7561 128.011 3.62791C128.314 3.02574 128.612 2.42175 128.901 1.81291C128.997 1.61063 129.095 1.40929 129.195 1.20847C129.214 1.16977 129.232 1.13108 129.252 1.09121C129.516 0.557446 129.516 0.557446 129.759 0.471167C129.976 0.402336 130.148 0.428968 130.357 0.524878Z"/>
</mask>
<path d="M130.357 0.524878C130.651 0.787433 130.808 1.21318 130.981 1.56315C131.022 1.6461 131.064 1.72892 131.105 1.81173C131.263 2.1283 131.417 2.4466 131.569 2.76609C131.813 3.27924 132.068 3.78721 132.322 4.29513C132.384 4.41726 132.445 4.53944 132.506 4.66161C132.67 4.98922 132.67 4.98922 132.835 5.31665C132.872 5.39117 132.909 5.46587 132.945 5.54076C132.962 5.57513 132.979 5.6095 132.996 5.64492C133.011 5.67487 133.025 5.70482 133.04 5.73568C133.203 6.03282 133.446 6.227 133.75 6.36716C134.085 6.46489 134.432 6.51564 134.776 6.56454C134.825 6.57168 134.875 6.57881 134.925 6.58615C135.031 6.60149 135.136 6.6167 135.242 6.6318C135.409 6.65573 135.576 6.67997 135.743 6.70426C136.038 6.74699 136.332 6.78947 136.627 6.83189C137.07 6.89581 137.514 6.95991 137.958 7.02428C138.124 7.04833 138.289 7.07225 138.455 7.09605C138.534 7.10732 138.612 7.11864 138.691 7.13C138.786 7.14377 138.881 7.15745 138.976 7.17102C139.705 7.27708 139.705 7.27708 139.883 7.46091C139.984 7.60455 140.019 7.70787 140.022 7.88328C140.024 7.92139 140.026 7.95951 140.027 7.99878C139.959 8.31606 139.662 8.55245 139.439 8.77195C139.411 8.79992 139.383 8.82789 139.354 8.85671C139.224 8.98572 139.092 9.11043 138.954 9.23016C138.794 9.36884 138.645 9.51526 138.496 9.6655C138.457 9.70557 138.457 9.70557 138.416 9.74644C138.332 9.83086 138.248 9.9154 138.164 9.99998C138.054 10.1116 137.943 10.2231 137.832 10.3344C137.808 10.3595 137.783 10.3846 137.757 10.4104C137.612 10.5563 137.462 10.6935 137.307 10.828C137.067 11.0401 136.843 11.2707 136.615 11.4963C136.551 11.5599 136.487 11.6233 136.422 11.6865C136.328 11.7787 136.234 11.8716 136.14 11.9647C136.097 12.0062 136.097 12.0062 136.054 12.0486C135.705 12.3987 135.535 12.7511 135.532 13.2432C135.541 13.7253 135.645 14.2018 135.73 14.6753C135.756 14.8201 135.781 14.9651 135.806 15.11C135.864 15.446 135.923 15.7818 135.982 16.1175C136.058 16.546 136.133 16.9746 136.208 17.4033C136.237 17.5751 136.268 17.7469 136.298 17.9186C136.313 17.9997 136.327 18.0807 136.341 18.1619C136.358 18.2603 136.376 18.3587 136.394 18.4571C136.491 19.0273 136.491 19.0273 136.351 19.2796C136.105 19.5415 136.105 19.5415 135.899 19.5703C135.545 19.5688 135.276 19.4085 134.974 19.2456C134.919 19.2167 134.864 19.1879 134.81 19.1592C134.479 18.9847 134.15 18.8057 133.823 18.6247C133.439 18.4139 133.049 18.2165 132.659 18.0176C132.289 17.8289 131.921 17.6379 131.558 17.4365C131.295 17.2911 131.031 17.1532 130.76 17.0239C130.729 17.0092 130.699 16.9946 130.667 16.9795C130.446 16.8758 130.258 16.8301 130.013 16.8261C129.975 16.8251 129.938 16.8241 129.9 16.8231C129.464 16.8648 129.094 17.0876 128.714 17.2876C128.652 17.3198 128.59 17.3521 128.528 17.3843C128.38 17.4614 128.232 17.539 128.084 17.6167C127.987 17.6676 127.889 17.7182 127.792 17.7688C127.534 17.9035 127.277 18.0406 127.021 18.1785C126.93 18.2274 126.839 18.2763 126.748 18.3252C126.714 18.3436 126.714 18.3436 126.679 18.3624C126.249 18.5936 125.816 18.8186 125.381 19.0413C125.333 19.0658 125.285 19.0904 125.237 19.115C125.191 19.1385 125.146 19.162 125.098 19.1862C125.005 19.2351 124.912 19.2844 124.82 19.3353C124.775 19.36 124.73 19.3846 124.684 19.4101C124.624 19.4434 124.624 19.4434 124.563 19.4774C124.349 19.5825 124.186 19.593 123.958 19.5312C123.803 19.4378 123.677 19.3431 123.594 19.1797C123.539 18.8766 123.578 18.6157 123.633 18.3146C123.647 18.2372 123.66 18.1598 123.673 18.0824C123.688 17.9998 123.703 17.9172 123.717 17.8346C123.748 17.6615 123.778 17.4883 123.808 17.3151C123.883 16.8847 123.959 16.4545 124.035 16.0243C124.094 15.6902 124.152 15.3559 124.21 15.0216C124.235 14.8779 124.26 14.7343 124.286 14.5907C124.541 13.4816 124.541 13.4816 124.253 12.435C124.093 12.2148 123.911 12.0247 123.718 11.8333C123.669 11.7842 123.669 11.7842 123.619 11.7342C123.55 11.6654 123.481 11.5967 123.411 11.528C123.306 11.4237 123.202 11.319 123.097 11.2143C123.03 11.1472 122.962 11.0801 122.895 11.013C122.864 10.9821 122.833 10.9511 122.801 10.9193C122.64 10.759 122.475 10.6058 122.302 10.4572C122.174 10.3437 122.054 10.2219 121.934 10.1001C121.907 10.0734 121.881 10.0467 121.853 10.0191C121.741 9.90633 121.629 9.79329 121.517 9.68027C121.435 9.59714 121.352 9.51413 121.27 9.43113C121.233 9.39352 121.233 9.39352 121.195 9.35515C121.047 9.2069 120.896 9.06645 120.737 8.93038C120.612 8.82167 120.496 8.70553 120.379 8.58884C120.355 8.56563 120.331 8.54242 120.307 8.5185C120.016 8.22827 120.016 8.22827 119.983 8.0116C119.983 7.60002 119.983 7.60002 120.157 7.42185C120.361 7.28644 120.531 7.23427 120.773 7.202C120.806 7.19708 120.839 7.19216 120.874 7.1871C120.984 7.17097 121.094 7.15565 121.204 7.14033C121.282 7.12899 121.361 7.11761 121.439 7.10618C121.647 7.07605 121.854 7.0466 122.062 7.0173C122.266 6.98842 122.47 6.95896 122.674 6.92953C122.755 6.91787 122.836 6.90621 122.917 6.89456C122.957 6.88878 122.997 6.88301 123.038 6.87706C123.241 6.8478 123.444 6.81861 123.648 6.78943C123.688 6.78364 123.728 6.77784 123.77 6.77187C123.98 6.74177 124.189 6.71186 124.399 6.68228C124.611 6.65243 124.822 6.62214 125.033 6.59156C125.113 6.58016 125.192 6.56892 125.272 6.55786C126.142 6.44655 126.142 6.44655 126.827 5.93115C126.996 5.69013 127.128 5.44367 127.251 5.17606C127.292 5.08932 127.333 5.00261 127.374 4.91594C127.395 4.87169 127.415 4.82744 127.437 4.78186C127.539 4.56653 127.646 4.35338 127.753 4.1403C127.774 4.09814 127.796 4.05599 127.817 4.01256C127.882 3.88431 127.946 3.7561 128.011 3.62791C128.314 3.02574 128.612 2.42175 128.901 1.81291C128.997 1.61063 129.095 1.40929 129.195 1.20847C129.214 1.16977 129.232 1.13108 129.252 1.09121C129.516 0.557446 129.516 0.557446 129.759 0.471167C129.976 0.402336 130.148 0.428968 130.357 0.524878Z" stroke="#5B5B5B" stroke-width="2" mask="url(#path-5-inside-1_305_435)"/>
</g>
<defs>
<clipPath id="clip0_305_435">
<rect width="20" height="20" fill="white"/>
</clipPath>
<clipPath id="clip1_305_435">
<rect width="20" height="20" fill="white" transform="translate(30)"/>
</clipPath>
<clipPath id="clip2_305_435">
<rect width="20" height="20" fill="white" transform="translate(60)"/>
</clipPath>
<clipPath id="clip3_305_435">
<rect width="20" height="20" fill="white" transform="translate(90)"/>
</clipPath>
<clipPath id="clip4_305_435">
<rect width="20" height="20" fill="white" transform="translate(120)"/>
</clipPath>
</defs>
</svg>
