<svg width="174" height="52" viewBox="0 0 174 52" fill="none" xmlns="http://www.w3.org/2000/svg">
<path d="M24.5415 0.0212314C24.829 0.00487723 25.1152 0.00237093 25.403 0.00320166C25.51 0.00286367 25.6169 0.00247269 25.7239 0.00203312C25.9457 0.00138478 26.1675 0.00154394 26.3894 0.00228569C26.612 0.0029591 26.8345 0.0024573 27.0571 0.000777022C28.9082 -0.013122 30.6723 0.158675 32.4813 0.578092C32.6389 0.61443 32.7969 0.64942 32.9549 0.68395C33.705 0.85055 34.4249 1.06745 35.1478 1.32709C35.2015 1.3462 35.2553 1.3653 35.3106 1.38499C36.2995 1.73783 37.256 2.14153 38.1962 2.60989C38.2564 2.6396 38.3167 2.66932 38.3787 2.69994C40.5055 3.75725 42.4506 5.08118 44.1863 6.70081C44.4155 6.91368 44.6512 7.11676 44.8906 7.31807C44.8421 7.34234 44.7935 7.36662 44.7435 7.39163C44.5995 7.33062 44.5995 7.33062 44.4211 7.23157C44.3209 7.17711 44.3209 7.17711 44.2187 7.12154C44.1097 7.06178 44.1097 7.06178 43.9986 7.00082C43.1175 6.52934 42.2169 6.13505 41.2859 5.77319C41.2281 5.75064 41.1703 5.72808 41.1107 5.70484C40.2796 5.38504 39.431 5.16316 38.564 4.96398C38.4762 4.94283 38.3884 4.92168 38.2979 4.89989C33.7812 3.89328 28.7822 4.59702 24.6602 6.65598C24.5941 6.68827 24.5281 6.72056 24.46 6.75383C22.9985 7.47122 21.6437 8.33434 20.3934 9.3779C20.3505 9.41337 20.3075 9.44885 20.2633 9.48541C19.2121 10.3578 18.2087 11.3075 17.3772 12.3941C17.3054 12.4843 17.2335 12.5744 17.1614 12.6645C15.6307 14.5975 14.1324 16.957 13.6039 19.3951C13.5434 19.6372 13.4574 19.8625 13.3679 20.0954C13.1722 20.6298 13.0738 21.1569 12.9889 21.7171C12.9627 21.8884 12.9346 22.0593 12.9061 22.2303C12.8868 22.3478 12.8676 22.4653 12.8484 22.5829C12.8399 22.6342 12.8315 22.6855 12.8228 22.7384C12.7941 22.9193 12.768 23.1004 12.7426 23.2817C12.7299 23.3715 12.7171 23.4612 12.7039 23.5536C12.6039 24.2972 12.5725 25.0299 12.5763 25.7797C12.5771 25.9619 12.5763 26.1441 12.5754 26.3262C12.5746 27.1353 12.6357 27.924 12.7426 28.7256C12.7545 28.8177 12.7665 28.9098 12.7787 29.0048C12.8124 29.2568 12.8483 29.5085 12.8852 29.7601C12.8967 29.8433 12.9082 29.9265 12.9201 30.0123C12.9793 30.418 13.0511 30.7979 13.1908 31.1835C13.2797 31.437 13.3557 31.6941 13.4323 31.9515C13.4641 32.0577 13.4959 32.1638 13.5277 32.2699C13.5767 32.4339 13.6257 32.5979 13.6744 32.7619C13.7222 32.9225 13.7703 33.083 13.8185 33.2435C13.8328 33.2919 13.847 33.3403 13.8617 33.3901C13.9585 33.711 14.0782 34.0108 14.2139 34.3165C14.2391 34.3806 14.2642 34.4448 14.2901 34.5108C15.1409 36.6719 16.5277 38.6548 18.0751 40.3723C18.1816 40.4907 18.2871 40.6099 18.3925 40.7294C19.1739 41.6076 20.0445 42.3644 20.9819 43.0708C21.0281 43.1057 21.0742 43.1405 21.1218 43.1764C21.6532 43.5759 22.1881 43.9579 22.7564 44.3036C22.802 44.3338 22.8476 44.3639 22.8946 44.395C22.8946 44.4193 22.8946 44.4436 22.8946 44.4686C21.1093 44.7402 21.1093 44.7402 20.3198 44.7628C20.2518 44.7648 20.1838 44.7668 20.1137 44.7689C14.9819 44.8956 10.1458 43.026 6.42522 39.4914C5.85923 38.9439 5.35597 38.3699 4.88388 37.7403C4.76004 37.5777 4.62911 37.4211 4.49874 37.2638C2.42257 34.6633 0.775528 31.0077 0.898642 27.6221C0.850089 27.6221 0.801536 27.6221 0.751512 27.6221C0.745814 27.1174 0.742009 26.6127 0.739389 26.108C0.738294 25.9371 0.736799 25.7662 0.734863 25.5953C0.699421 22.3819 0.69942 22.3819 1.2746 21.6999C1.33945 21.6344 1.40429 21.569 1.47111 21.5016C1.50735 21.4647 1.5436 21.4278 1.58094 21.3898C1.70285 21.2661 1.82553 21.1431 1.94822 21.0202C2.03655 20.9308 2.12484 20.8415 2.21309 20.752C2.456 20.5062 2.69962 20.2611 2.94336 20.016C3.15227 19.8058 3.36077 19.5952 3.56926 19.3846C4.25625 18.6907 4.94452 17.998 5.63313 17.3057C5.81249 17.1253 5.99182 16.945 6.17115 16.7646C7.28514 15.6442 8.39956 14.5242 9.51508 13.4053C9.77344 13.1462 10.0318 12.887 10.2902 12.6278C10.3544 12.5634 10.4186 12.499 10.4847 12.4326C11.5243 11.3897 12.5612 10.3442 13.5972 9.29771C14.6612 8.2229 15.7276 7.15047 16.7964 6.0803C17.3962 5.47955 17.9949 4.8778 18.591 4.27334C19.0988 3.7584 19.6087 3.24566 20.1214 2.73561C20.3828 2.4755 20.643 2.2145 20.9006 1.95064C22.7467 0.0619418 22.7467 0.0619417 23.7524 0.0137512C23.8574 0.0150861 23.9623 0.0190092 24.067 0.0259302C24.227 0.0355959 24.3815 0.0303795 24.5415 0.0212314Z" fill="#A6A6A8"/>
<path d="M38.4173 7.7597C38.477 7.77194 38.5368 7.78419 38.5984 7.7968C39.29 7.93931 39.9601 8.10341 40.6242 8.34822C40.6242 8.39677 40.6242 8.44533 40.6242 8.49535C40.688 8.50398 40.7517 8.51261 40.8173 8.5215C42.6096 8.86377 44.4858 10.2825 45.8474 11.438C45.9244 11.5015 46.0015 11.565 46.0787 11.6285C47.0441 12.431 47.9538 13.3075 48.7164 14.307C48.7838 14.3927 48.8512 14.4783 48.9187 14.5639C49.7958 15.691 50.5477 16.9079 51.144 18.206C51.1847 18.2935 51.2254 18.381 51.2673 18.4712C51.497 18.9847 51.6731 19.4968 51.8165 20.0408C51.8736 20.26 51.8736 20.26 51.9508 20.4408C52.3641 21.4888 52.5395 22.6643 52.6693 23.7782C52.6816 23.8819 52.695 23.9856 52.7101 24.089C52.7922 24.6926 52.777 25.3041 52.7763 25.9119C52.7763 25.9726 52.7763 26.0333 52.7763 26.0958C52.7754 26.9587 52.7674 27.8204 52.639 28.6757C52.6116 28.8799 52.6116 28.8799 52.608 29.1149C52.5562 29.9491 52.2163 30.3649 51.6326 30.932C51.5434 31.0222 51.4544 31.1126 51.3655 31.2031C51.1223 31.4499 50.8761 31.6937 50.6294 31.9371C50.3632 32.2006 50.0999 32.4668 49.8362 32.7327C49.3197 33.2526 48.8007 33.7698 48.2808 34.2862C47.6752 34.8879 47.0719 35.492 46.4688 36.0961C45.3924 37.1739 44.3137 38.2494 43.2336 39.3236C42.186 40.3656 41.1404 41.4096 40.097 42.4557C38.9601 43.5955 37.8221 44.7341 36.682 45.8707C36.5605 45.992 36.4389 46.1132 36.3173 46.2344C36.2575 46.2941 36.1977 46.3537 36.136 46.4151C35.7148 46.8352 35.2945 47.2561 34.8744 47.6773C34.3624 48.1906 33.8491 48.7025 33.3341 49.2127C33.0715 49.473 32.8094 49.7339 32.5489 49.9963C32.3103 50.2367 32.0701 50.4753 31.8284 50.7127C31.7414 50.7987 31.6551 50.8853 31.5694 50.9726C31.0512 51.4998 30.6529 51.7954 29.8837 51.8253C29.7461 51.8479 29.7461 51.8479 29.6058 51.8709C28.6849 52.0021 27.7642 52.0017 26.8354 52.0001C26.7061 52 26.7061 52 26.5743 51.9999C24.0459 51.9945 21.5445 51.7031 19.1432 50.869C18.9854 50.8152 18.8275 50.7615 18.6696 50.7081C18.5648 50.6725 18.5648 50.6725 18.4578 50.6362C18.2731 50.5787 18.0912 50.535 17.9018 50.4966C17.6258 50.4401 17.4067 50.3397 17.1569 50.2069C17.0639 50.1703 16.9704 50.1352 16.8765 50.1012C16.5457 49.9803 16.2267 49.8378 15.9063 49.6919C15.8331 49.6588 15.7599 49.6256 15.6845 49.5914C15.4886 49.5025 15.2928 49.4134 15.0971 49.3241C15.0971 49.2756 15.0971 49.227 15.0971 49.177C15.0091 49.1527 14.9211 49.1284 14.8304 49.1034C14.4973 48.9927 14.2011 48.8393 13.8971 48.6666C13.8531 48.6419 13.809 48.6172 13.7637 48.5918C13.5733 48.4811 13.4122 48.3752 13.2594 48.2158C13.0994 48.0625 12.949 48.0028 12.7452 47.9222C12.4308 47.7761 12.1552 47.5617 11.874 47.3608C11.8085 47.3144 11.7429 47.2679 11.6753 47.2201C11.2341 46.9058 10.8029 46.5841 10.3889 46.2344C10.3147 46.1727 10.2404 46.1111 10.1639 46.0476C9.61086 45.5863 9.07671 45.1068 8.5498 44.6159C8.85582 44.6159 9.0568 44.7682 9.31304 44.9194C10.0226 45.3279 10.7438 45.677 11.5194 45.9433C11.6646 45.996 11.8072 46.0558 11.9482 46.1189C12.2773 46.2616 12.6186 46.3547 12.9637 46.4505C13.0319 46.4696 13.1 46.4887 13.1702 46.5085C13.371 46.5647 13.5719 46.6203 13.7729 46.6758C13.8534 46.6982 13.8534 46.6982 13.9355 46.721C15.7758 47.2321 17.5717 47.4278 19.4742 47.4252C19.5393 47.4251 19.6044 47.4251 19.6714 47.425C22.4301 47.4187 25.0262 46.887 27.5901 45.856C27.7993 45.7737 28.0117 45.7016 28.2239 45.6275C28.9594 45.3435 29.6424 44.9331 30.3251 44.5424C30.3852 44.508 30.4454 44.4736 30.5074 44.4382C31.3561 43.948 32.1378 43.3926 32.8999 42.7768C32.964 42.725 32.964 42.725 33.0294 42.6722C33.9825 41.8963 34.8944 41.0618 35.6954 40.1284C35.7476 40.0679 35.7999 40.0074 35.8537 39.9451C36.746 38.8834 37.5212 37.7339 38.1966 36.5237C38.2451 36.5237 38.2937 36.5237 38.3437 36.5237C38.3528 36.4661 38.3619 36.4084 38.3713 36.349C38.4173 36.1559 38.4173 36.1559 38.5644 36.0088C38.6171 35.8924 38.6657 35.7741 38.7115 35.6548C38.7358 35.5921 38.7601 35.5294 38.7851 35.4648C38.8094 35.4016 38.8336 35.3383 38.8587 35.2731C38.9075 35.1505 38.9565 35.0278 39.0058 34.9053C39.0543 34.9053 39.1029 34.9053 39.1529 34.9053C39.1589 34.8486 39.1649 34.7919 39.171 34.7335C39.2468 34.3651 39.3874 34.0314 39.5253 33.6823C40.5083 31.1217 40.951 28.5682 40.9507 25.8338C40.9508 25.7611 40.9509 25.6885 40.951 25.6136C40.9494 24.2666 40.8234 22.9822 40.5507 21.6635C40.5365 21.5934 40.5224 21.5233 40.5078 21.451C40.1797 19.8734 39.6214 18.3315 38.9275 16.8802C38.8388 16.6926 38.757 16.5022 38.6747 16.3117C37.4561 13.6498 35.3563 11.0996 33.047 9.30457C32.9748 9.24663 32.9025 9.18869 32.828 9.12899C32.321 8.72624 31.7949 8.36788 31.2426 8.02943C31.1913 7.99741 31.14 7.96539 31.0872 7.9324C31.0413 7.90434 30.9953 7.87628 30.948 7.84736C30.8401 7.7597 30.8401 7.7597 30.7665 7.539C33.3777 7.1004 35.8301 7.22001 38.4173 7.7597Z" fill="#1E2B38"/>
<path d="M8.5498 44.542C8.85213 44.6487 9.09658 44.8003 9.35902 44.9834C9.33475 45.0805 9.31047 45.1776 9.28546 45.2776C9.16263 45.1691 9.04007 45.0602 8.91763 44.9512C8.84935 44.8906 8.78108 44.83 8.71073 44.7676C8.65762 44.7174 8.60452 44.6672 8.5498 44.6156C8.5498 44.5913 8.5498 44.567 8.5498 44.542Z" fill="#535C67"/>
<path d="M88.0278 20.8409C87.9066 19.7652 87.4066 18.9318 86.5278 18.3409C85.649 17.7424 84.543 17.4432 83.2097 17.4432C82.2551 17.4432 81.4293 17.5947 80.7324 17.8977C80.0354 18.1932 79.4937 18.6023 79.1074 19.125C78.7286 19.6402 78.5392 20.2273 78.5392 20.8864C78.5392 21.4394 78.668 21.9167 78.9256 22.3182C79.1907 22.7197 79.5354 23.0568 79.9597 23.3295C80.3915 23.5947 80.8536 23.8182 81.346 24C81.8384 24.1742 82.3119 24.3182 82.7665 24.4318L85.0392 25.0227C85.7816 25.2045 86.543 25.4508 87.3233 25.7614C88.1036 26.072 88.8271 26.4811 89.4937 26.9886C90.1604 27.4962 90.6983 28.125 91.1074 28.875C91.524 29.625 91.7324 30.5227 91.7324 31.5682C91.7324 32.8864 91.3915 34.0568 90.7097 35.0795C90.0354 36.1023 89.0543 36.9091 87.7665 37.5C86.4862 38.0909 84.9369 38.3864 83.1187 38.3864C81.3763 38.3864 79.8687 38.1098 78.596 37.5568C77.3233 37.0038 76.3271 36.2197 75.6074 35.2045C74.8877 34.1818 74.49 32.9697 74.4142 31.5682H77.9369C78.0051 32.4091 78.2778 33.1098 78.7551 33.6705C79.24 34.2235 79.8574 34.6364 80.6074 34.9091C81.365 35.1742 82.1945 35.3068 83.096 35.3068C84.0884 35.3068 84.971 35.1515 85.7437 34.8409C86.524 34.5227 87.1377 34.0833 87.5847 33.5227C88.0316 32.9545 88.2551 32.2917 88.2551 31.5341C88.2551 30.8447 88.0581 30.2803 87.6642 29.8409C87.2778 29.4015 86.7513 29.0379 86.0847 28.75C85.4256 28.4621 84.6793 28.2083 83.846 27.9886L81.096 27.2386C79.2324 26.7311 77.7551 25.9848 76.6642 25C75.5809 24.0152 75.0392 22.7121 75.0392 21.0909C75.0392 19.75 75.4028 18.5795 76.1301 17.5795C76.8574 16.5795 77.8422 15.803 79.0847 15.25C80.3271 14.6894 81.7286 14.4091 83.2892 14.4091C84.865 14.4091 86.2551 14.6856 87.4597 15.2386C88.6718 15.7917 89.6263 16.553 90.3233 17.5227C91.0203 18.4848 91.3839 19.5909 91.4142 20.8409H88.0278ZM99.4398 38L94.3034 20.5455H97.8148L101.235 33.3636H101.406L104.837 20.5455H108.349L111.758 33.3068H111.928L115.326 20.5455H118.837L113.712 38H110.247L106.701 25.3977H106.44L102.894 38H99.4398ZM122.062 38V20.5455H125.46V38H122.062ZM123.778 17.8523C123.187 17.8523 122.679 17.6553 122.255 17.2614C121.838 16.8598 121.63 16.3826 121.63 15.8295C121.63 15.2689 121.838 14.7917 122.255 14.3977C122.679 13.9962 123.187 13.7955 123.778 13.7955C124.369 13.7955 124.873 13.9962 125.289 14.3977C125.713 14.7917 125.926 15.2689 125.926 15.8295C125.926 16.3826 125.713 16.8598 125.289 17.2614C124.873 17.6553 124.369 17.8523 123.778 17.8523ZM130.031 44.5455V20.5455H133.349V23.375H133.633C133.83 23.0114 134.114 22.5909 134.485 22.1136C134.856 21.6364 135.372 21.2197 136.031 20.8636C136.69 20.5 137.561 20.3182 138.644 20.3182C140.053 20.3182 141.311 20.6742 142.417 21.3864C143.523 22.0985 144.391 23.125 145.019 24.4659C145.656 25.8068 145.974 27.4205 145.974 29.3068C145.974 31.1932 145.659 32.8106 145.031 34.1591C144.402 35.5 143.538 36.5341 142.44 37.2614C141.341 37.9811 140.087 38.3409 138.678 38.3409C137.618 38.3409 136.75 38.1629 136.076 37.8068C135.409 37.4508 134.887 37.0341 134.508 36.5568C134.129 36.0795 133.837 35.6553 133.633 35.2841H133.428V44.5455H130.031ZM133.36 29.2727C133.36 30.5 133.538 31.5758 133.894 32.5C134.25 33.4242 134.766 34.1477 135.44 34.6705C136.114 35.1856 136.94 35.4432 137.917 35.4432C138.932 35.4432 139.781 35.1742 140.462 34.6364C141.144 34.0909 141.659 33.3523 142.008 32.4205C142.364 31.4886 142.542 30.4394 142.542 29.2727C142.542 28.1212 142.368 27.0871 142.019 26.1705C141.678 25.2538 141.163 24.5303 140.474 24C139.792 23.4697 138.94 23.2045 137.917 23.2045C136.932 23.2045 136.099 23.4583 135.417 23.9659C134.743 24.4735 134.231 25.1818 133.883 26.0909C133.534 27 133.36 28.0606 133.36 29.2727ZM151.335 44.5455C150.827 44.5455 150.365 44.5038 149.948 44.4205C149.532 44.3447 149.221 44.2614 149.016 44.1705L149.835 41.3864C150.456 41.553 151.009 41.625 151.494 41.6023C151.979 41.5795 152.407 41.3977 152.778 41.0568C153.157 40.7159 153.49 40.1591 153.778 39.3864L154.198 38.2273L147.812 20.5455H151.448L155.869 34.0909H156.051L160.471 20.5455H164.119L156.926 40.3295C156.592 41.2386 156.168 42.0076 155.653 42.6364C155.138 43.2727 154.524 43.75 153.812 44.0682C153.1 44.3864 152.274 44.5455 151.335 44.5455Z" fill="#5B5B5B"/>
</svg>
